<?xml version="1.0" encoding="UTF-8" standalone="no"?>
<!DOCTYPE svg PUBLIC "-//W3C//DTD SVG 1.1//EN"
 "http://www.w3.org/Graphics/SVG/1.1/DTD/svg11.dtd">
<!-- Generated by graphviz version 2.43.0 (0)
 -->
<!-- Title: Combat Pages: 1 -->
<svg width="631pt" height="860pt"
 viewBox="0.00 0.00 631.00 860.00" xmlns="http://www.w3.org/2000/svg" xmlns:xlink="http://www.w3.org/1999/xlink">
<g id="graph0" class="graph" transform="scale(1 1) rotate(0) translate(4 856)">
<title>Combat</title>
<polygon fill="white" stroke="transparent" points="-4,4 -4,-856 627,-856 627,4 -4,4"/>
<!-- advanced_armor -->
<g id="node1" class="node">
<title>advanced_armor</title>
<g id="a_node1"><a xlink:href="advanced_armor.html" xlink:title="Advanced Armor">
<polygon fill="none" stroke="black" points="360,-36 225,-36 225,0 360,0 360,-36"/>
<text text-anchor="middle" x="292.5" y="-14.3" font-family="Times,serif" font-size="14.00">Advanced Armor</text>
</a>
</g>
</g>
<!-- advanced_shields -->
<g id="node2" class="node">
<title>advanced_shields</title>
<g id="a_node2"><a xlink:href="advanced_shields.html" xlink:title="Advanced Shields">
<polygon fill="none" stroke="black" points="364,-90 221,-90 221,-54 364,-54 364,-90"/>
<text text-anchor="middle" x="292.5" y="-68.3" font-family="Times,serif" font-size="14.00">Advanced Shields</text>
</a>
</g>
</g>
<!-- shield_hardening -->
<g id="node24" class="node">
<title>shield_hardening</title>
<g id="a_node24"><a xlink:href="shield_hardening.html" xlink:title="Shield Hardening">
<polygon fill="none" stroke="black" points="597,-90 455,-90 455,-54 597,-54 597,-90"/>
<text text-anchor="middle" x="526" y="-68.3" font-family="Times,serif" font-size="14.00">Shield Hardening</text>
</a>
</g>
</g>
<!-- advanced_shields&#45;&gt;shield_hardening -->
<g id="edge20" class="edge">
<title>advanced_shields&#45;&gt;shield_hardening</title>
<path fill="none" stroke="black" d="M364.22,-72C389.57,-72 418.34,-72 444.47,-72"/>
<polygon fill="black" stroke="black" points="444.72,-75.5 454.72,-72 444.72,-68.5 444.72,-75.5"/>
<text text-anchor="middle" x="406" y="-75.8" font-family="Times,serif" font-size="14.00">3</text>
</g>
<!-- advanced_weapons -->
<g id="node3" class="node">
<title>advanced_weapons</title>
<g id="a_node3"><a xlink:href="advanced_weapons.html" xlink:title="Advanced Weapons">
<polygon fill="none" stroke="black" points="369.5,-367 215.5,-367 215.5,-331 369.5,-331 369.5,-367"/>
<text text-anchor="middle" x="292.5" y="-345.3" font-family="Times,serif" font-size="14.00">Advanced Weapons</text>
</a>
</g>
</g>
<!-- capital_weapon_systems -->
<g id="node10" class="node">
<title>capital_weapon_systems</title>
<g id="a_node10"><a xlink:href="capital_weapon_systems.html" xlink:title="Capital Weapon Systems">
<polygon fill="none" stroke="black" points="623,-510 429,-510 429,-474 623,-474 623,-510"/>
<text text-anchor="middle" x="526" y="-488.3" font-family="Times,serif" font-size="14.00">Capital Weapon Systems</text>
</a>
</g>
</g>
<!-- advanced_weapons&#45;&gt;capital_weapon_systems -->
<g id="edge8" class="edge">
<title>advanced_weapons&#45;&gt;capital_weapon_systems</title>
<path fill="none" stroke="black" d="M353.2,-367.01C369.62,-371.96 383,-376 383,-376 383,-376 429,-435 429,-435 429,-435 459.27,-452.97 485.81,-468.73"/>
<polygon fill="black" stroke="black" points="484.24,-471.87 494.62,-473.96 487.81,-465.85 484.24,-471.87"/>
<text text-anchor="middle" x="406" y="-413.8" font-family="Times,serif" font-size="14.00">7</text>
</g>
<!-- gravity_manipulation -->
<g id="node16" class="node">
<title>gravity_manipulation</title>
<g id="a_node16"><a xlink:href="gravity_manipulation.html" xlink:title="Gravity Manipulation">
<polygon fill="none" stroke="black" points="610.5,-372 441.5,-372 441.5,-336 610.5,-336 610.5,-372"/>
<text text-anchor="middle" x="526" y="-350.3" font-family="Times,serif" font-size="14.00">Gravity Manipulation</text>
</a>
</g>
</g>
<!-- advanced_weapons&#45;&gt;gravity_manipulation -->
<g id="edge14" class="edge">
<title>advanced_weapons&#45;&gt;gravity_manipulation</title>
<path fill="none" stroke="black" d="M369.62,-350.64C389.24,-351.07 410.58,-351.53 430.99,-351.97"/>
<polygon fill="black" stroke="black" points="431.17,-355.47 441.24,-352.19 431.32,-348.48 431.17,-355.47"/>
<text text-anchor="middle" x="406" y="-355.8" font-family="Times,serif" font-size="14.00">3</text>
</g>
<!-- siege_warfare -->
<g id="node26" class="node">
<title>siege_warfare</title>
<g id="a_node26"><a xlink:href="siege_warfare.html" xlink:title="Siege Warfare">
<polygon fill="none" stroke="black" points="585,-260 467,-260 467,-224 585,-224 585,-260"/>
<text text-anchor="middle" x="526" y="-238.3" font-family="Times,serif" font-size="14.00">Siege Warfare</text>
</a>
</g>
</g>
<!-- advanced_weapons&#45;&gt;siege_warfare -->
<g id="edge21" class="edge">
<title>advanced_weapons&#45;&gt;siege_warfare</title>
<path fill="none" stroke="black" d="M353.2,-330.99C369.62,-326.04 383,-322 383,-322 383,-322 429,-273 429,-273 429,-273 442.55,-268.62 459.47,-263.16"/>
<polygon fill="black" stroke="black" points="460.72,-266.44 469.16,-260.03 458.56,-259.78 460.72,-266.44"/>
<text text-anchor="middle" x="406" y="-305.8" font-family="Times,serif" font-size="14.00">5</text>
</g>
<!-- void_manipulation -->
<g id="node30" class="node">
<title>void_manipulation</title>
<g id="a_node30"><a xlink:href="void_manipulation.html" xlink:title="Void Manipulation">
<polygon fill="none" stroke="black" points="599,-318 453,-318 453,-282 599,-282 599,-318"/>
<text text-anchor="middle" x="526" y="-296.3" font-family="Times,serif" font-size="14.00">Void Manipulation</text>
</a>
</g>
</g>
<!-- advanced_weapons&#45;&gt;void_manipulation -->
<g id="edge24" class="edge">
<title>advanced_weapons&#45;&gt;void_manipulation</title>
<path fill="none" stroke="black" d="M369.62,-332.89C393.03,-327.93 418.9,-322.46 442.7,-317.42"/>
<polygon fill="black" stroke="black" points="443.7,-320.79 452.76,-315.29 442.25,-313.94 443.7,-320.79"/>
<text text-anchor="middle" x="406" y="-329.8" font-family="Times,serif" font-size="14.00">4</text>
</g>
<!-- weapons_mastery -->
<g id="node31" class="node">
<title>weapons_mastery</title>
<g id="a_node31"><a xlink:href="weapons_mastery.html" xlink:title="Weapons Mastery">
<polygon fill="none" stroke="black" points="598,-426 454,-426 454,-390 598,-390 598,-426"/>
<text text-anchor="middle" x="526" y="-404.3" font-family="Times,serif" font-size="14.00">Weapons Mastery</text>
</a>
</g>
</g>
<!-- advanced_weapons&#45;&gt;weapons_mastery -->
<g id="edge25" class="edge">
<title>advanced_weapons&#45;&gt;weapons_mastery</title>
<path fill="none" stroke="black" d="M364.22,-367.02C389.57,-373.48 418.33,-380.81 444.45,-387.47"/>
<polygon fill="black" stroke="black" points="443.76,-390.91 454.32,-389.99 445.49,-384.12 443.76,-390.91"/>
<text text-anchor="middle" x="406" y="-381.8" font-family="Times,serif" font-size="14.00">7</text>
</g>
<!-- anti_drone_warfare -->
<g id="node4" class="node">
<title>anti_drone_warfare</title>
<g id="a_node4"><a xlink:href="anti_drone_warfare.html" xlink:title="Anti&#45;Drone Warfare">
<polygon fill="none" stroke="black" points="603.5,-709 448.5,-709 448.5,-673 603.5,-673 603.5,-709"/>
<text text-anchor="middle" x="526" y="-687.3" font-family="Times,serif" font-size="14.00">Anti&#45;Drone Warfare</text>
</a>
</g>
</g>
<!-- armor_hardening -->
<g id="node5" class="node">
<title>armor_hardening</title>
<g id="a_node5"><a xlink:href="armor_hardening.html" xlink:title="Armor Hardening">
<polygon fill="none" stroke="black" points="149,-36 7,-36 7,0 149,0 149,-36"/>
<text text-anchor="middle" x="78" y="-14.3" font-family="Times,serif" font-size="14.00">Armor Hardening</text>
</a>
</g>
</g>
<!-- armor_hardening&#45;&gt;advanced_armor -->
<g id="edge1" class="edge">
<title>armor_hardening&#45;&gt;advanced_armor</title>
<path fill="none" stroke="black" d="M149.17,-18C170.15,-18 193.25,-18 214.64,-18"/>
<polygon fill="black" stroke="black" points="214.65,-21.5 224.65,-18 214.65,-14.5 214.65,-21.5"/>
<text text-anchor="middle" x="179" y="-21.8" font-family="Times,serif" font-size="14.00">5</text>
</g>
<!-- basic_weapons -->
<g id="node6" class="node">
<title>basic_weapons</title>
<g id="a_node6"><a xlink:href="basic_weapons.html" xlink:title="Basic Weapons">
<polygon fill="none" stroke="black" points="139.5,-366 16.5,-366 16.5,-330 139.5,-330 139.5,-366"/>
<text text-anchor="middle" x="78" y="-344.3" font-family="Times,serif" font-size="14.00">Basic Weapons</text>
</a>
</g>
</g>
<!-- basic_weapons&#45;&gt;advanced_weapons -->
<g id="edge3" class="edge">
<title>basic_weapons&#45;&gt;advanced_weapons</title>
<path fill="none" stroke="black" d="M139.61,-348.29C160.03,-348.38 183.24,-348.49 205.25,-348.59"/>
<polygon fill="black" stroke="black" points="205.25,-352.09 215.27,-348.64 205.29,-345.09 205.25,-352.09"/>
<text text-anchor="middle" x="179" y="-352.8" font-family="Times,serif" font-size="14.00">5</text>
</g>
<!-- boarding_combat -->
<g id="node7" class="node">
<title>boarding_combat</title>
<g id="a_node7"><a xlink:href="boarding_combat.html" xlink:title="Boarding Combat">
<polygon fill="none" stroke="black" points="363.5,-477 221.5,-477 221.5,-441 363.5,-441 363.5,-477"/>
<text text-anchor="middle" x="292.5" y="-455.3" font-family="Times,serif" font-size="14.00">Boarding Combat</text>
</a>
</g>
</g>
<!-- basic_weapons&#45;&gt;boarding_combat -->
<g id="edge6" class="edge">
<title>basic_weapons&#45;&gt;boarding_combat</title>
<path fill="none" stroke="black" d="M106.3,-366.2C142.53,-390.36 202,-430 202,-430 202,-430 212.32,-433.34 225.95,-437.76"/>
<polygon fill="black" stroke="black" points="225.24,-441.21 235.84,-440.96 227.4,-434.55 225.24,-441.21"/>
<text text-anchor="middle" x="179" y="-419.8" font-family="Times,serif" font-size="14.00">5</text>
</g>
<!-- energy_weapons -->
<g id="node14" class="node">
<title>energy_weapons</title>
<g id="a_node14"><a xlink:href="energy_weapons.html" xlink:title="Energy Weapons">
<polygon fill="none" stroke="black" points="361,-195 224,-195 224,-159 361,-159 361,-195"/>
<text text-anchor="middle" x="292.5" y="-173.3" font-family="Times,serif" font-size="14.00">Energy Weapons</text>
</a>
</g>
</g>
<!-- basic_weapons&#45;&gt;energy_weapons -->
<g id="edge13" class="edge">
<title>basic_weapons&#45;&gt;energy_weapons</title>
<path fill="none" stroke="black" d="M95.08,-329.83C128.42,-292.15 202,-209 202,-209 202,-209 215.06,-204.33 231.21,-198.56"/>
<polygon fill="black" stroke="black" points="232.76,-201.72 241,-195.06 230.4,-195.13 232.76,-201.72"/>
<text text-anchor="middle" x="179" y="-243.8" font-family="Times,serif" font-size="14.00">3</text>
</g>
<!-- kinetic_weapons -->
<g id="node18" class="node">
<title>kinetic_weapons</title>
<g id="a_node18"><a xlink:href="kinetic_weapons.html" xlink:title="Kinetic Weapons">
<polygon fill="none" stroke="black" points="360,-313 225,-313 225,-277 360,-277 360,-313"/>
<text text-anchor="middle" x="292.5" y="-291.3" font-family="Times,serif" font-size="14.00">Kinetic Weapons</text>
</a>
</g>
</g>
<!-- basic_weapons&#45;&gt;kinetic_weapons -->
<g id="edge16" class="edge">
<title>basic_weapons&#45;&gt;kinetic_weapons</title>
<path fill="none" stroke="black" d="M139.61,-332.88C163.11,-327.02 190.29,-320.24 215.1,-314.05"/>
<polygon fill="black" stroke="black" points="215.99,-317.44 224.85,-311.62 214.3,-310.65 215.99,-317.44"/>
<text text-anchor="middle" x="179" y="-327.8" font-family="Times,serif" font-size="14.00">3</text>
</g>
<!-- missile_systems -->
<g id="node20" class="node">
<title>missile_systems</title>
<g id="a_node20"><a xlink:href="missile_systems.html" xlink:title="Missile Systems">
<polygon fill="none" stroke="black" points="359,-421 226,-421 226,-385 359,-385 359,-421"/>
<text text-anchor="middle" x="292.5" y="-399.3" font-family="Times,serif" font-size="14.00">Missile Systems</text>
</a>
</g>
</g>
<!-- basic_weapons&#45;&gt;missile_systems -->
<g id="edge17" class="edge">
<title>basic_weapons&#45;&gt;missile_systems</title>
<path fill="none" stroke="black" d="M139.61,-363.69C163.44,-369.85 191.04,-377 216.13,-383.49"/>
<polygon fill="black" stroke="black" points="215.42,-386.92 225.98,-386.04 217.17,-380.15 215.42,-386.92"/>
<text text-anchor="middle" x="179" y="-376.8" font-family="Times,serif" font-size="14.00">3</text>
</g>
<!-- bounty_hunting -->
<g id="node8" class="node">
<title>bounty_hunting</title>
<g id="a_node8"><a xlink:href="bounty_hunting.html" xlink:title="Bounty Hunting">
<polygon fill="none" stroke="black" points="143.5,-731 12.5,-731 12.5,-695 143.5,-695 143.5,-731"/>
<text text-anchor="middle" x="78" y="-709.3" font-family="Times,serif" font-size="14.00">Bounty Hunting</text>
</a>
</g>
</g>
<!-- capital_ships -->
<g id="node9" class="node">
<title>capital_ships</title>
<g id="a_node9"><a xlink:href="capital_ships.html" xlink:title="Capital Ships">
<polygon fill="none" stroke="#7f7f7f" stroke-dasharray="5,2" points="134,-534 22,-534 22,-498 134,-498 134,-534"/>
<text text-anchor="middle" x="78" y="-512.3" font-family="Times,serif" font-size="14.00" fill="#7f7f7f">Capital Ships</text>
</a>
</g>
</g>
<!-- capital_ships&#45;&gt;capital_weapon_systems -->
<g id="edge9" class="edge">
<title>capital_ships&#45;&gt;capital_weapon_systems</title>
<path fill="none" stroke="#7f7f7f" d="M134.14,-513.03C204.94,-509.22 329.33,-502.53 418.78,-497.72"/>
<polygon fill="#7f7f7f" stroke="#7f7f7f" points="419.17,-501.2 428.97,-497.17 418.79,-494.21 419.17,-501.2"/>
<text text-anchor="middle" x="292.5" y="-512.8" font-family="Times,serif" font-size="14.00">5</text>
</g>
<!-- combat_maneuvering -->
<g id="node11" class="node">
<title>combat_maneuvering</title>
<g id="a_node11"><a xlink:href="combat_maneuvering.html" xlink:title="Combat Maneuvering">
<polygon fill="none" stroke="black" points="378,-798 207,-798 207,-762 378,-762 378,-798"/>
<text text-anchor="middle" x="292.5" y="-776.3" font-family="Times,serif" font-size="14.00">Combat Maneuvering</text>
</a>
</g>
</g>
<!-- ecm_resistance -->
<g id="node12" class="node">
<title>ecm_resistance</title>
<g id="a_node12"><a xlink:href="ecm_resistance.html" xlink:title="ECM Resistance">
<polygon fill="none" stroke="black" points="593,-639 459,-639 459,-603 593,-603 593,-639"/>
<text text-anchor="middle" x="526" y="-617.3" font-family="Times,serif" font-size="14.00">ECM Resistance</text>
</a>
</g>
</g>
<!-- electronic_warfare -->
<g id="node13" class="node">
<title>electronic_warfare</title>
<g id="a_node13"><a xlink:href="electronic_warfare.html" xlink:title="Electronic Warfare">
<polygon fill="none" stroke="black" points="368,-639 217,-639 217,-603 368,-603 368,-639"/>
<text text-anchor="middle" x="292.5" y="-617.3" font-family="Times,serif" font-size="14.00">Electronic Warfare</text>
</a>
</g>
</g>
<!-- electronic_warfare&#45;&gt;ecm_resistance -->
<g id="edge11" class="edge">
<title>electronic_warfare&#45;&gt;ecm_resistance</title>
<path fill="none" stroke="black" d="M368.02,-621C393.81,-621 422.74,-621 448.67,-621"/>
<polygon fill="black" stroke="black" points="448.82,-624.5 458.82,-621 448.82,-617.5 448.82,-624.5"/>
<text text-anchor="middle" x="406" y="-624.8" font-family="Times,serif" font-size="14.00">3</text>
</g>
<!-- ion_weapons -->
<g id="node17" class="node">
<title>ion_weapons</title>
<g id="a_node17"><a xlink:href="ion_weapons.html" xlink:title="Ion Weapons">
<polygon fill="none" stroke="black" points="579.5,-144 472.5,-144 472.5,-108 579.5,-108 579.5,-144"/>
<text text-anchor="middle" x="526" y="-122.3" font-family="Times,serif" font-size="14.00">Ion Weapons</text>
</a>
</g>
</g>
<!-- energy_weapons&#45;&gt;ion_weapons -->
<g id="edge15" class="edge">
<title>energy_weapons&#45;&gt;ion_weapons</title>
<path fill="none" stroke="black" d="M361.08,-162.11C393.11,-155.05 431.14,-146.68 462.5,-139.77"/>
<polygon fill="black" stroke="black" points="463.41,-143.15 472.43,-137.58 461.91,-136.32 463.41,-143.15"/>
<text text-anchor="middle" x="406" y="-157.8" font-family="Times,serif" font-size="14.00">5</text>
</g>
<!-- plasma_weapons -->
<g id="node22" class="node">
<title>plasma_weapons</title>
<g id="a_node22"><a xlink:href="plasma_weapons.html" xlink:title="Plasma Weapons">
<polygon fill="none" stroke="black" points="594.5,-198 457.5,-198 457.5,-162 594.5,-162 594.5,-198"/>
<text text-anchor="middle" x="526" y="-176.3" font-family="Times,serif" font-size="14.00">Plasma Weapons</text>
</a>
</g>
</g>
<!-- energy_weapons&#45;&gt;plasma_weapons -->
<g id="edge18" class="edge">
<title>energy_weapons&#45;&gt;plasma_weapons</title>
<path fill="none" stroke="black" d="M361.08,-177.88C388.06,-178.23 419.29,-178.63 447.21,-178.99"/>
<polygon fill="black" stroke="black" points="447.29,-182.49 457.33,-179.12 447.38,-175.49 447.29,-182.49"/>
<text text-anchor="middle" x="406" y="-182.8" font-family="Times,serif" font-size="14.00">5</text>
</g>
<!-- evasive_maneuvers -->
<g id="node15" class="node">
<title>evasive_maneuvers</title>
<g id="a_node15"><a xlink:href="evasive_maneuvers.html" xlink:title="Evasive Maneuvers">
<polygon fill="none" stroke="black" points="156,-798 0,-798 0,-762 156,-762 156,-798"/>
<text text-anchor="middle" x="78" y="-776.3" font-family="Times,serif" font-size="14.00">Evasive Maneuvers</text>
</a>
</g>
</g>
<!-- evasive_maneuvers&#45;&gt;combat_maneuvering -->
<g id="edge10" class="edge">
<title>evasive_maneuvers&#45;&gt;combat_maneuvering</title>
<path fill="none" stroke="black" d="M156.02,-780C169.17,-780 182.98,-780 196.54,-780"/>
<polygon fill="black" stroke="black" points="196.84,-783.5 206.84,-780 196.84,-776.5 196.84,-783.5"/>
<text text-anchor="middle" x="179" y="-783.8" font-family="Times,serif" font-size="14.00">5</text>
</g>
<!-- large_ships -->
<g id="node19" class="node">
<title>large_ships</title>
<g id="a_node19"><a xlink:href="large_ships.html" xlink:title="Large Ships">
<polygon fill="none" stroke="#7f7f7f" stroke-dasharray="5,2" points="129,-249 27,-249 27,-213 129,-213 129,-249"/>
<text text-anchor="middle" x="78" y="-227.3" font-family="Times,serif" font-size="14.00" fill="#7f7f7f">Large Ships</text>
</a>
</g>
</g>
<!-- large_ships&#45;&gt;siege_warfare -->
<g id="edge22" class="edge">
<title>large_ships&#45;&gt;siege_warfare</title>
<path fill="none" stroke="#7f7f7f" d="M129.29,-232.24C209.47,-234.22 366.39,-238.09 456.67,-240.31"/>
<polygon fill="#7f7f7f" stroke="#7f7f7f" points="456.72,-243.82 466.8,-240.56 456.89,-236.82 456.72,-243.82"/>
<text text-anchor="middle" x="292.5" y="-242.8" font-family="Times,serif" font-size="14.00">3</text>
</g>
<!-- piracy -->
<g id="node21" class="node">
<title>piracy</title>
<g id="a_node21"><a xlink:href="piracy.html" xlink:title="Piracy">
<polygon fill="none" stroke="black" points="109,-852 47,-852 47,-816 109,-816 109,-852"/>
<text text-anchor="middle" x="78" y="-830.3" font-family="Times,serif" font-size="14.00">Piracy</text>
</a>
</g>
</g>
<!-- point_defense_systems -->
<g id="node23" class="node">
<title>point_defense_systems</title>
<g id="a_node23"><a xlink:href="point_defense_systems.html" xlink:title="Point Defense Systems">
<polygon fill="none" stroke="black" points="383,-744 202,-744 202,-708 383,-708 383,-744"/>
<text text-anchor="middle" x="292.5" y="-722.3" font-family="Times,serif" font-size="14.00">Point Defense Systems</text>
</a>
</g>
</g>
<!-- point_defense_systems&#45;&gt;anti_drone_warfare -->
<g id="edge4" class="edge">
<title>point_defense_systems&#45;&gt;anti_drone_warfare</title>
<path fill="none" stroke="black" d="M383,-712.47C401.15,-709.73 420.2,-706.84 438.24,-704.12"/>
<polygon fill="black" stroke="black" points="438.79,-707.57 448.15,-702.62 437.74,-700.65 438.79,-707.57"/>
<text text-anchor="middle" x="406" y="-712.8" font-family="Times,serif" font-size="14.00">3</text>
</g>
<!-- shield_operation -->
<g id="node25" class="node">
<title>shield_operation</title>
<g id="a_node25"><a xlink:href="shield_operation.html" xlink:title="Shield Operation">
<polygon fill="none" stroke="black" points="146.5,-90 9.5,-90 9.5,-54 146.5,-54 146.5,-90"/>
<text text-anchor="middle" x="78" y="-68.3" font-family="Times,serif" font-size="14.00">Shield Operation</text>
</a>
</g>
</g>
<!-- shield_operation&#45;&gt;advanced_shields -->
<g id="edge2" class="edge">
<title>shield_operation&#45;&gt;advanced_shields</title>
<path fill="none" stroke="black" d="M146.53,-72C166.89,-72 189.46,-72 210.6,-72"/>
<polygon fill="black" stroke="black" points="210.85,-75.5 220.85,-72 210.85,-68.5 210.85,-75.5"/>
<text text-anchor="middle" x="179" y="-75.8" font-family="Times,serif" font-size="14.00">5</text>
</g>
<!-- small_ships -->
<g id="node27" class="node">
<title>small_ships</title>
<g id="a_node27"><a xlink:href="small_ships.html" xlink:title="Small Ships">
<polygon fill="none" stroke="#7f7f7f" stroke-dasharray="5,2" points="128.5,-480 27.5,-480 27.5,-444 128.5,-444 128.5,-480"/>
<text text-anchor="middle" x="78" y="-458.3" font-family="Times,serif" font-size="14.00" fill="#7f7f7f">Small Ships</text>
</a>
</g>
</g>
<!-- small_ships&#45;&gt;boarding_combat -->
<g id="edge7" class="edge">
<title>small_ships&#45;&gt;boarding_combat</title>
<path fill="none" stroke="#7f7f7f" d="M128.55,-461.3C153.13,-460.95 183.43,-460.53 211.21,-460.13"/>
<polygon fill="#7f7f7f" stroke="#7f7f7f" points="211.36,-463.63 221.31,-459.99 211.26,-456.63 211.36,-463.63"/>
<text text-anchor="middle" x="179" y="-463.8" font-family="Times,serif" font-size="14.00">5</text>
</g>
<!-- target_painting -->
<g id="node28" class="node">
<title>target_painting</title>
<g id="a_node28"><a xlink:href="target_painting.html" xlink:title="Target Painting">
<polygon fill="none" stroke="black" points="356,-585 229,-585 229,-549 356,-549 356,-585"/>
<text text-anchor="middle" x="292.5" y="-563.3" font-family="Times,serif" font-size="14.00">Target Painting</text>
</a>
</g>
</g>
<!-- targeting_systems -->
<g id="node29" class="node">
<title>targeting_systems</title>
<g id="a_node29"><a xlink:href="targeting_systems.html" xlink:title="Targeting Systems">
<polygon fill="none" stroke="black" points="153.5,-664 2.5,-664 2.5,-628 153.5,-628 153.5,-664"/>
<text text-anchor="middle" x="78" y="-642.3" font-family="Times,serif" font-size="14.00">Targeting Systems</text>
</a>
</g>
</g>
<!-- targeting_systems&#45;&gt;anti_drone_warfare -->
<g id="edge5" class="edge">
<title>targeting_systems&#45;&gt;anti_drone_warfare</title>
<path fill="none" stroke="black" d="M153.65,-653.53C232.09,-661.45 355.34,-673.88 438.1,-682.23"/>
<polygon fill="black" stroke="black" points="437.93,-685.73 448.24,-683.25 438.64,-678.77 437.93,-685.73"/>
<text text-anchor="middle" x="292.5" y="-679.8" font-family="Times,serif" font-size="14.00">3</text>
</g>
<!-- targeting_systems&#45;&gt;electronic_warfare -->
<g id="edge12" class="edge">
<title>targeting_systems&#45;&gt;electronic_warfare</title>
<path fill="none" stroke="black" d="M153.62,-637.22C170.72,-635.21 189.01,-633.06 206.51,-631"/>
<polygon fill="black" stroke="black" points="207.18,-634.44 216.7,-629.8 206.36,-627.49 207.18,-634.44"/>
<text text-anchor="middle" x="179" y="-637.8" font-family="Times,serif" font-size="14.00">5</text>
</g>
<!-- targeting_systems&#45;&gt;point_defense_systems -->
<g id="edge19" class="edge">
<title>targeting_systems&#45;&gt;point_defense_systems</title>
<path fill="none" stroke="black" d="M119.01,-664.11C144.98,-675.86 174,-689 174,-689 174,-689 198.03,-696.57 224.36,-704.86"/>
<polygon fill="black" stroke="black" points="223.54,-708.27 234.13,-707.93 225.64,-701.59 223.54,-708.27"/>
<text text-anchor="middle" x="179" y="-694.8" font-family="Times,serif" font-size="14.00">5</text>
</g>
<!-- targeting_systems&#45;&gt;target_painting -->
<g id="edge23" class="edge">
<title>targeting_systems&#45;&gt;target_painting</title>
<path fill="none" stroke="black" d="M121.67,-627.96C157.2,-612.94 202,-594 202,-594 202,-594 210.33,-591.49 221.92,-587.99"/>
<polygon fill="black" stroke="black" points="223.24,-591.25 231.8,-585.01 221.22,-584.55 223.24,-591.25"/>
<text text-anchor="middle" x="179" y="-608.8" font-family="Times,serif" font-size="14.00">5</text>
</g>
</g>
</svg>
