<?xml version="1.0" encoding="UTF-8" standalone="no"?>
<!DOCTYPE svg PUBLIC "-//W3C//DTD SVG 1.1//EN"
 "http://www.w3.org/Graphics/SVG/1.1/DTD/svg11.dtd">
<!-- Generated by graphviz version 2.43.0 (0)
 -->
<!-- Title: Combat Pages: 1 -->
<svg width="832pt" height="932pt"
 viewBox="0.00 0.00 832.00 932.00" xmlns="http://www.w3.org/2000/svg" xmlns:xlink="http://www.w3.org/1999/xlink">
<g id="graph0" class="graph" transform="scale(1 1) rotate(0) translate(4 928)">
<title>Combat</title>
<polygon fill="white" stroke="transparent" points="-4,4 -4,-928 828,-928 828,4 -4,4"/>
<!-- target_painting -->
<g id="node1" class="node">
<title>target_painting</title>
<polygon fill="none" stroke="black" points="356,-195 229,-195 229,-159 356,-159 356,-195"/>
<text text-anchor="middle" x="292.5" y="-173.3" font-family="Times,serif" font-size="14.00">Target Painting</text>
</g>
<!-- weapons_basic -->
<g id="node2" class="node">
<title>weapons_basic</title>
<polygon fill="none" stroke="black" points="139.5,-532 16.5,-532 16.5,-496 139.5,-496 139.5,-532"/>
<text text-anchor="middle" x="78" y="-510.3" font-family="Times,serif" font-size="14.00">Basic Weapons</text>
</g>
<!-- boarding_combat -->
<g id="node3" class="node">
<title>boarding_combat</title>
<polygon fill="none" stroke="black" points="363.5,-647 221.5,-647 221.5,-611 363.5,-611 363.5,-647"/>
<text text-anchor="middle" x="292.5" y="-625.3" font-family="Times,serif" font-size="14.00">Boarding Combat</text>
</g>
<!-- weapons_basic&#45;&gt;boarding_combat -->
<g id="edge4" class="edge">
<title>weapons_basic&#45;&gt;boarding_combat</title>
<path fill="none" stroke="black" d="M106.6,-532.18C142.87,-556.06 202,-595 202,-595 202,-595 216.86,-600.65 234.47,-607.34"/>
<polygon fill="black" stroke="black" points="233.28,-610.63 243.87,-610.9 235.76,-604.08 233.28,-610.63"/>
<text text-anchor="middle" x="179" y="-585.8" font-family="Times,serif" font-size="14.00">5</text>
</g>
<!-- missile_weapons -->
<g id="node10" class="node">
<title>missile_weapons</title>
<polygon fill="none" stroke="black" points="359,-586 226,-586 226,-550 359,-550 359,-586"/>
<text text-anchor="middle" x="292.5" y="-564.3" font-family="Times,serif" font-size="14.00">Missile Systems</text>
</g>
<!-- weapons_basic&#45;&gt;missile_weapons -->
<g id="edge23" class="edge">
<title>weapons_basic&#45;&gt;missile_weapons</title>
<path fill="none" stroke="black" d="M139.61,-529.4C163.44,-535.46 191.04,-542.47 216.13,-548.85"/>
<polygon fill="black" stroke="black" points="215.42,-552.28 225.98,-551.35 217.15,-545.49 215.42,-552.28"/>
<text text-anchor="middle" x="179" y="-543.8" font-family="Times,serif" font-size="14.00">3</text>
</g>
<!-- kinetic_weapons -->
<g id="node20" class="node">
<title>kinetic_weapons</title>
<polygon fill="none" stroke="black" points="360,-532 225,-532 225,-496 360,-496 360,-532"/>
<text text-anchor="middle" x="292.5" y="-510.3" font-family="Times,serif" font-size="14.00">Kinetic Weapons</text>
</g>
<!-- weapons_basic&#45;&gt;kinetic_weapons -->
<g id="edge7" class="edge">
<title>weapons_basic&#45;&gt;kinetic_weapons</title>
<path fill="none" stroke="black" d="M139.61,-514C163.01,-514 190.05,-514 214.77,-514"/>
<polygon fill="black" stroke="black" points="214.85,-517.5 224.85,-514 214.85,-510.5 214.85,-517.5"/>
<text text-anchor="middle" x="179" y="-517.8" font-family="Times,serif" font-size="14.00">3</text>
</g>
<!-- energy_weapons -->
<g id="node28" class="node">
<title>energy_weapons</title>
<polygon fill="none" stroke="black" points="361,-478 224,-478 224,-442 361,-442 361,-478"/>
<text text-anchor="middle" x="292.5" y="-456.3" font-family="Times,serif" font-size="14.00">Energy Weapons</text>
</g>
<!-- weapons_basic&#45;&gt;energy_weapons -->
<g id="edge10" class="edge">
<title>weapons_basic&#45;&gt;energy_weapons</title>
<path fill="none" stroke="black" d="M139.61,-498.6C162.68,-492.73 189.3,-485.97 213.75,-479.76"/>
<polygon fill="black" stroke="black" points="214.88,-483.08 223.71,-477.23 213.16,-476.3 214.88,-483.08"/>
<text text-anchor="middle" x="179" y="-492.8" font-family="Times,serif" font-size="14.00">3</text>
</g>
<!-- weapons_advanced -->
<g id="node29" class="node">
<title>weapons_advanced</title>
<polygon fill="none" stroke="black" points="369.5,-357 215.5,-357 215.5,-321 369.5,-321 369.5,-357"/>
<text text-anchor="middle" x="292.5" y="-335.3" font-family="Times,serif" font-size="14.00">Advanced Weapons</text>
</g>
<!-- weapons_basic&#45;&gt;weapons_advanced -->
<g id="edge22" class="edge">
<title>weapons_basic&#45;&gt;weapons_advanced</title>
<path fill="none" stroke="black" d="M100.94,-495.93C139.2,-464.43 218.14,-399.41 261.45,-363.75"/>
<polygon fill="black" stroke="black" points="263.87,-366.29 269.36,-357.23 259.42,-360.89 263.87,-366.29"/>
<text text-anchor="middle" x="179" y="-435.8" font-family="Times,serif" font-size="14.00">5</text>
</g>
<!-- small_ships -->
<g id="node4" class="node">
<title>small_ships</title>
<polygon fill="none" stroke="black" points="128.5,-654 27.5,-654 27.5,-618 128.5,-618 128.5,-654"/>
<text text-anchor="middle" x="78" y="-632.3" font-family="Times,serif" font-size="14.00">Small Ships</text>
</g>
<!-- small_ships&#45;&gt;boarding_combat -->
<g id="edge3" class="edge">
<title>small_ships&#45;&gt;boarding_combat</title>
<path fill="none" stroke="#7f7f7f" d="M128.55,-634.37C153.13,-633.56 183.43,-632.56 211.21,-631.64"/>
<polygon fill="#7f7f7f" stroke="#7f7f7f" points="211.43,-635.14 221.31,-631.31 211.2,-628.14 211.43,-635.14"/>
<text text-anchor="middle" x="179" y="-636.8" font-family="Times,serif" font-size="14.00">5</text>
</g>
<!-- plasma_weapons -->
<g id="node5" class="node">
<title>plasma_weapons</title>
<polygon fill="none" stroke="black" points="575,-532 438,-532 438,-496 575,-496 575,-532"/>
<text text-anchor="middle" x="506.5" y="-510.3" font-family="Times,serif" font-size="14.00">Plasma Weapons</text>
</g>
<!-- capital_weapons -->
<g id="node6" class="node">
<title>capital_weapons</title>
<polygon fill="none" stroke="black" points="824,-398 630,-398 630,-362 824,-362 824,-398"/>
<text text-anchor="middle" x="727" y="-376.3" font-family="Times,serif" font-size="14.00">Capital Weapon Systems</text>
</g>
<!-- point_defense -->
<g id="node7" class="node">
<title>point_defense</title>
<polygon fill="none" stroke="black" points="383,-141 202,-141 202,-105 383,-105 383,-141"/>
<text text-anchor="middle" x="292.5" y="-119.3" font-family="Times,serif" font-size="14.00">Point Defense Systems</text>
</g>
<!-- anti_drone_warfare -->
<g id="node11" class="node">
<title>anti_drone_warfare</title>
<polygon fill="none" stroke="black" points="584,-111 429,-111 429,-75 584,-75 584,-111"/>
<text text-anchor="middle" x="506.5" y="-89.3" font-family="Times,serif" font-size="14.00">Anti&#45;Drone Warfare</text>
</g>
<!-- point_defense&#45;&gt;anti_drone_warfare -->
<g id="edge1" class="edge">
<title>point_defense&#45;&gt;anti_drone_warfare</title>
<path fill="none" stroke="black" d="M383.1,-110.32C394.9,-108.65 406.98,-106.94 418.73,-105.28"/>
<polygon fill="black" stroke="black" points="419.54,-108.7 428.96,-103.83 418.56,-101.77 419.54,-108.7"/>
<text text-anchor="middle" x="406" y="-111.8" font-family="Times,serif" font-size="14.00">3</text>
</g>
<!-- bounty_hunting -->
<g id="node8" class="node">
<title>bounty_hunting</title>
<polygon fill="none" stroke="black" points="143.5,-708 12.5,-708 12.5,-672 143.5,-672 143.5,-708"/>
<text text-anchor="middle" x="78" y="-686.3" font-family="Times,serif" font-size="14.00">Bounty Hunting</text>
</g>
<!-- shield_hardening -->
<g id="node9" class="node">
<title>shield_hardening</title>
<polygon fill="none" stroke="black" points="577.5,-762 435.5,-762 435.5,-726 577.5,-726 577.5,-762"/>
<text text-anchor="middle" x="506.5" y="-740.3" font-family="Times,serif" font-size="14.00">Shield Hardening</text>
</g>
<!-- electronic_warfare -->
<g id="node12" class="node">
<title>electronic_warfare</title>
<polygon fill="none" stroke="black" points="368,-36 217,-36 217,0 368,0 368,-36"/>
<text text-anchor="middle" x="292.5" y="-14.3" font-family="Times,serif" font-size="14.00">Electronic Warfare</text>
</g>
<!-- ecm_resistance -->
<g id="node25" class="node">
<title>ecm_resistance</title>
<polygon fill="none" stroke="black" points="573.5,-36 439.5,-36 439.5,0 573.5,0 573.5,-36"/>
<text text-anchor="middle" x="506.5" y="-14.3" font-family="Times,serif" font-size="14.00">ECM Resistance</text>
</g>
<!-- electronic_warfare&#45;&gt;ecm_resistance -->
<g id="edge6" class="edge">
<title>electronic_warfare&#45;&gt;ecm_resistance</title>
<path fill="none" stroke="black" d="M368.24,-18C387.94,-18 409.21,-18 429,-18"/>
<polygon fill="black" stroke="black" points="429.19,-21.5 439.19,-18 429.19,-14.5 429.19,-21.5"/>
<text text-anchor="middle" x="406" y="-21.8" font-family="Times,serif" font-size="14.00">3</text>
</g>
<!-- capital_ships -->
<g id="node13" class="node">
<title>capital_ships</title>
<polygon fill="none" stroke="black" points="562.5,-424 450.5,-424 450.5,-388 562.5,-388 562.5,-424"/>
<text text-anchor="middle" x="506.5" y="-402.3" font-family="Times,serif" font-size="14.00">Capital Ships</text>
</g>
<!-- capital_ships&#45;&gt;capital_weapons -->
<g id="edge17" class="edge">
<title>capital_ships&#45;&gt;capital_weapons</title>
<path fill="none" stroke="#7f7f7f" d="M562.64,-399.44C580.05,-397.37 599.92,-395 619.65,-392.65"/>
<polygon fill="#7f7f7f" stroke="#7f7f7f" points="620.12,-396.12 629.64,-391.47 619.29,-389.17 620.12,-396.12"/>
<text text-anchor="middle" x="607" y="-398.8" font-family="Times,serif" font-size="14.00">5</text>
</g>
<!-- targeting -->
<g id="node14" class="node">
<title>targeting</title>
<polygon fill="none" stroke="black" points="153.5,-115 2.5,-115 2.5,-79 153.5,-79 153.5,-115"/>
<text text-anchor="middle" x="78" y="-93.3" font-family="Times,serif" font-size="14.00">Targeting Systems</text>
</g>
<!-- targeting&#45;&gt;target_painting -->
<g id="edge16" class="edge">
<title>targeting&#45;&gt;target_painting</title>
<path fill="none" stroke="black" d="M120.99,-115.09C156.62,-130.45 202,-150 202,-150 202,-150 210.33,-152.51 221.92,-156.01"/>
<polygon fill="black" stroke="black" points="221.22,-159.45 231.8,-158.99 223.24,-152.75 221.22,-159.45"/>
<text text-anchor="middle" x="179" y="-145.8" font-family="Times,serif" font-size="14.00">5</text>
</g>
<!-- targeting&#45;&gt;point_defense -->
<g id="edge11" class="edge">
<title>targeting&#45;&gt;point_defense</title>
<path fill="none" stroke="black" d="M153.62,-106.13C165.89,-107.63 178.77,-109.21 191.54,-110.77"/>
<polygon fill="black" stroke="black" points="191.38,-114.28 201.74,-112.02 192.23,-107.33 191.38,-114.28"/>
<text text-anchor="middle" x="179" y="-113.8" font-family="Times,serif" font-size="14.00">5</text>
</g>
<!-- targeting&#45;&gt;anti_drone_warfare -->
<g id="edge2" class="edge">
<title>targeting&#45;&gt;anti_drone_warfare</title>
<path fill="none" stroke="black" d="M153.74,-87.28C179.5,-83.93 202,-81 202,-81 202,-81 383,-81 383,-81 383,-81 398.66,-82.53 418.78,-84.5"/>
<polygon fill="black" stroke="black" points="418.67,-88.01 428.96,-85.5 419.35,-81.04 418.67,-88.01"/>
<text text-anchor="middle" x="292.5" y="-84.8" font-family="Times,serif" font-size="14.00">3</text>
</g>
<!-- targeting&#45;&gt;electronic_warfare -->
<g id="edge5" class="edge">
<title>targeting&#45;&gt;electronic_warfare</title>
<path fill="none" stroke="black" d="M110.9,-78.87C138.5,-63.18 174,-43 174,-43 174,-43 188.2,-39.98 206.72,-36.04"/>
<polygon fill="black" stroke="black" points="207.7,-39.41 216.75,-33.9 206.24,-32.56 207.7,-39.41"/>
<text text-anchor="middle" x="179" y="-46.8" font-family="Times,serif" font-size="14.00">5</text>
</g>
<!-- shields -->
<g id="node15" class="node">
<title>shields</title>
<polygon fill="none" stroke="black" points="146.5,-762 9.5,-762 9.5,-726 146.5,-726 146.5,-762"/>
<text text-anchor="middle" x="78" y="-740.3" font-family="Times,serif" font-size="14.00">Shield Operation</text>
</g>
<!-- shields_advanced -->
<g id="node21" class="node">
<title>shields_advanced</title>
<polygon fill="none" stroke="black" points="364,-762 221,-762 221,-726 364,-726 364,-762"/>
<text text-anchor="middle" x="292.5" y="-740.3" font-family="Times,serif" font-size="14.00">Advanced Shields</text>
</g>
<!-- shields&#45;&gt;shields_advanced -->
<g id="edge20" class="edge">
<title>shields&#45;&gt;shields_advanced</title>
<path fill="none" stroke="black" d="M146.53,-744C166.89,-744 189.46,-744 210.6,-744"/>
<polygon fill="black" stroke="black" points="210.85,-747.5 220.85,-744 210.85,-740.5 210.85,-747.5"/>
<text text-anchor="middle" x="179" y="-747.8" font-family="Times,serif" font-size="14.00">5</text>
</g>
<!-- large_ships -->
<g id="node16" class="node">
<title>large_ships</title>
<polygon fill="none" stroke="black" points="343.5,-249 241.5,-249 241.5,-213 343.5,-213 343.5,-249"/>
<text text-anchor="middle" x="292.5" y="-227.3" font-family="Times,serif" font-size="14.00">Large Ships</text>
</g>
<!-- siege_warfare -->
<g id="node26" class="node">
<title>siege_warfare</title>
<polygon fill="none" stroke="black" points="565.5,-254 447.5,-254 447.5,-218 565.5,-218 565.5,-254"/>
<text text-anchor="middle" x="506.5" y="-232.3" font-family="Times,serif" font-size="14.00">Siege Warfare</text>
</g>
<!-- large_ships&#45;&gt;siege_warfare -->
<g id="edge12" class="edge">
<title>large_ships&#45;&gt;siege_warfare</title>
<path fill="none" stroke="#7f7f7f" d="M343.67,-231.43C375.61,-231.7 411,-232 411,-232 411,-232 422.32,-232.48 437.12,-233.11"/>
<polygon fill="#7f7f7f" stroke="#7f7f7f" points="437.13,-236.61 447.27,-233.54 437.42,-229.62 437.13,-236.61"/>
<text text-anchor="middle" x="406" y="-235.8" font-family="Times,serif" font-size="14.00">3</text>
</g>
<!-- weapons_specialization -->
<g id="node17" class="node">
<title>weapons_specialization</title>
<polygon fill="none" stroke="black" points="578.5,-319 434.5,-319 434.5,-283 578.5,-283 578.5,-319"/>
<text text-anchor="middle" x="506.5" y="-297.3" font-family="Times,serif" font-size="14.00">Weapons Mastery</text>
</g>
<!-- armor_advanced -->
<g id="node18" class="node">
<title>armor_advanced</title>
<polygon fill="none" stroke="black" points="360,-816 225,-816 225,-780 360,-780 360,-816"/>
<text text-anchor="middle" x="292.5" y="-794.3" font-family="Times,serif" font-size="14.00">Advanced Armor</text>
</g>
<!-- piracy -->
<g id="node19" class="node">
<title>piracy</title>
<polygon fill="none" stroke="black" points="109,-870 47,-870 47,-834 109,-834 109,-870"/>
<text text-anchor="middle" x="78" y="-848.3" font-family="Times,serif" font-size="14.00">Piracy</text>
</g>
<!-- shields_advanced&#45;&gt;shield_hardening -->
<g id="edge9" class="edge">
<title>shields_advanced&#45;&gt;shield_hardening</title>
<path fill="none" stroke="black" d="M364.09,-744C383.67,-744 405.07,-744 425.16,-744"/>
<polygon fill="black" stroke="black" points="425.22,-747.5 435.22,-744 425.22,-740.5 425.22,-747.5"/>
<text text-anchor="middle" x="406" y="-747.8" font-family="Times,serif" font-size="14.00">3</text>
</g>
<!-- speed_combat -->
<g id="node22" class="node">
<title>speed_combat</title>
<polygon fill="none" stroke="black" points="378,-924 207,-924 207,-888 378,-888 378,-924"/>
<text text-anchor="middle" x="292.5" y="-902.3" font-family="Times,serif" font-size="14.00">Combat Maneuvering</text>
</g>
<!-- armor -->
<g id="node23" class="node">
<title>armor</title>
<polygon fill="none" stroke="black" points="149,-816 7,-816 7,-780 149,-780 149,-816"/>
<text text-anchor="middle" x="78" y="-794.3" font-family="Times,serif" font-size="14.00">Armor Hardening</text>
</g>
<!-- armor&#45;&gt;armor_advanced -->
<g id="edge21" class="edge">
<title>armor&#45;&gt;armor_advanced</title>
<path fill="none" stroke="black" d="M149.17,-798C170.15,-798 193.25,-798 214.64,-798"/>
<polygon fill="black" stroke="black" points="214.65,-801.5 224.65,-798 214.65,-794.5 214.65,-801.5"/>
<text text-anchor="middle" x="179" y="-801.8" font-family="Times,serif" font-size="14.00">5</text>
</g>
<!-- evasion -->
<g id="node24" class="node">
<title>evasion</title>
<polygon fill="none" stroke="black" points="156,-924 0,-924 0,-888 156,-888 156,-924"/>
<text text-anchor="middle" x="78" y="-902.3" font-family="Times,serif" font-size="14.00">Evasive Maneuvers</text>
</g>
<!-- evasion&#45;&gt;speed_combat -->
<g id="edge19" class="edge">
<title>evasion&#45;&gt;speed_combat</title>
<path fill="none" stroke="black" d="M156.02,-906C169.17,-906 182.98,-906 196.54,-906"/>
<polygon fill="black" stroke="black" points="196.84,-909.5 206.84,-906 196.84,-902.5 196.84,-909.5"/>
<text text-anchor="middle" x="179" y="-909.8" font-family="Times,serif" font-size="14.00">5</text>
</g>
<!-- ion_weapons -->
<g id="node27" class="node">
<title>ion_weapons</title>
<polygon fill="none" stroke="black" points="560,-478 453,-478 453,-442 560,-442 560,-478"/>
<text text-anchor="middle" x="506.5" y="-456.3" font-family="Times,serif" font-size="14.00">Ion Weapons</text>
</g>
<!-- energy_weapons&#45;&gt;plasma_weapons -->
<g id="edge8" class="edge">
<title>energy_weapons&#45;&gt;plasma_weapons</title>
<path fill="none" stroke="black" d="M361.16,-477.23C382.39,-482.64 405.99,-488.65 427.85,-494.22"/>
<polygon fill="black" stroke="black" points="427.2,-497.67 437.75,-496.74 428.93,-490.88 427.2,-497.67"/>
<text text-anchor="middle" x="406" y="-492.8" font-family="Times,serif" font-size="14.00">5</text>
</g>
<!-- energy_weapons&#45;&gt;ion_weapons -->
<g id="edge14" class="edge">
<title>energy_weapons&#45;&gt;ion_weapons</title>
<path fill="none" stroke="black" d="M361.16,-460C387.37,-460 417.19,-460 442.9,-460"/>
<polygon fill="black" stroke="black" points="442.9,-463.5 452.9,-460 442.9,-456.5 442.9,-463.5"/>
<text text-anchor="middle" x="406" y="-463.8" font-family="Times,serif" font-size="14.00">5</text>
</g>
<!-- weapons_advanced&#45;&gt;capital_weapons -->
<g id="edge18" class="edge">
<title>weapons_advanced&#45;&gt;capital_weapons</title>
<path fill="none" stroke="black" d="M369.83,-345.57C455.9,-352.98 584,-364 584,-364 584,-364 599.19,-365.71 619.64,-368.02"/>
<polygon fill="black" stroke="black" points="619.38,-371.51 629.71,-369.15 620.17,-364.55 619.38,-371.51"/>
<text text-anchor="middle" x="506.5" y="-367.8" font-family="Times,serif" font-size="14.00">7</text>
</g>
<!-- weapons_advanced&#45;&gt;weapons_specialization -->
<g id="edge15" class="edge">
<title>weapons_advanced&#45;&gt;weapons_specialization</title>
<path fill="none" stroke="black" d="M369.74,-325.33C387.47,-322.16 406.4,-318.76 424.33,-315.55"/>
<polygon fill="black" stroke="black" points="424.95,-318.99 434.18,-313.78 423.72,-312.1 424.95,-318.99"/>
<text text-anchor="middle" x="406" y="-322.8" font-family="Times,serif" font-size="14.00">7</text>
</g>
<!-- weapons_advanced&#45;&gt;siege_warfare -->
<g id="edge13" class="edge">
<title>weapons_advanced&#45;&gt;siege_warfare</title>
<path fill="none" stroke="black" d="M330.91,-320.82C366.53,-303.52 420.24,-277.42 458.68,-258.75"/>
<polygon fill="black" stroke="black" points="460.64,-261.69 468.1,-254.17 457.58,-255.39 460.64,-261.69"/>
<text text-anchor="middle" x="406" y="-288.8" font-family="Times,serif" font-size="14.00">5</text>
</g>
</g>
</svg>
