<?xml version="1.0" encoding="UTF-8" standalone="no"?>
<!DOCTYPE svg PUBLIC "-//W3C//DTD SVG 1.1//EN"
 "http://www.w3.org/Graphics/SVG/1.1/DTD/svg11.dtd">
<!-- Generated by graphviz version 2.43.0 (0)
 -->
<!-- Title: Combat Pages: 1 -->
<svg width="631pt" height="652pt"
 viewBox="0.00 0.00 631.00 652.00" xmlns="http://www.w3.org/2000/svg" xmlns:xlink="http://www.w3.org/1999/xlink">
<g id="graph0" class="graph" transform="scale(1 1) rotate(0) translate(4 648)">
<title>Combat</title>
<polygon fill="white" stroke="transparent" points="-4,4 -4,-648 627,-648 627,4 -4,4"/>
<!-- advanced_armor -->
<g id="node1" class="node">
<title>advanced_armor</title>
<g id="a_node1"><a xlink:href="advanced_armor.html" xlink:title="Advanced Armor">
<polygon fill="none" stroke="black" points="360,-36 225,-36 225,0 360,0 360,-36"/>
<text text-anchor="middle" x="292.5" y="-14.3" font-family="Times,serif" font-size="14.00">Advanced Armor</text>
</a>
</g>
</g>
<!-- advanced_shields -->
<g id="node2" class="node">
<title>advanced_shields</title>
<g id="a_node2"><a xlink:href="advanced_shields.html" xlink:title="Advanced Shields">
<polygon fill="none" stroke="black" points="364,-90 221,-90 221,-54 364,-54 364,-90"/>
<text text-anchor="middle" x="292.5" y="-68.3" font-family="Times,serif" font-size="14.00">Advanced Shields</text>
</a>
</g>
</g>
<!-- shield_hardening -->
<g id="node19" class="node">
<title>shield_hardening</title>
<g id="a_node19"><a xlink:href="shield_hardening.html" xlink:title="Shield Hardening">
<polygon fill="none" stroke="black" points="597,-90 455,-90 455,-54 597,-54 597,-90"/>
<text text-anchor="middle" x="526" y="-68.3" font-family="Times,serif" font-size="14.00">Shield Hardening</text>
</a>
</g>
</g>
<!-- advanced_shields&#45;&gt;shield_hardening -->
<g id="edge15" class="edge">
<title>advanced_shields&#45;&gt;shield_hardening</title>
<path fill="none" stroke="black" d="M364.22,-72C389.57,-72 418.34,-72 444.47,-72"/>
<polygon fill="black" stroke="black" points="444.72,-75.5 454.72,-72 444.72,-68.5 444.72,-75.5"/>
<text text-anchor="middle" x="406" y="-75.8" font-family="Times,serif" font-size="14.00">3</text>
</g>
<!-- advanced_weapons -->
<g id="node3" class="node">
<title>advanced_weapons</title>
<g id="a_node3"><a xlink:href="advanced_weapons.html" xlink:title="Advanced Weapons">
<polygon fill="none" stroke="black" points="369.5,-306 215.5,-306 215.5,-270 369.5,-270 369.5,-306"/>
<text text-anchor="middle" x="292.5" y="-284.3" font-family="Times,serif" font-size="14.00">Advanced Weapons</text>
</a>
</g>
</g>
<!-- capital_weapon_systems -->
<g id="node8" class="node">
<title>capital_weapon_systems</title>
<g id="a_node8"><a xlink:href="capital_weapon_systems.html" xlink:title="Capital Weapon Systems">
<polygon fill="none" stroke="black" points="623,-367 429,-367 429,-331 623,-331 623,-367"/>
<text text-anchor="middle" x="526" y="-345.3" font-family="Times,serif" font-size="14.00">Capital Weapon Systems</text>
</a>
</g>
</g>
<!-- advanced_weapons&#45;&gt;capital_weapon_systems -->
<g id="edge4" class="edge">
<title>advanced_weapons&#45;&gt;capital_weapon_systems</title>
<path fill="none" stroke="black" d="M362.02,-306.05C388.62,-313.06 419.23,-321.13 446.7,-328.37"/>
<polygon fill="black" stroke="black" points="446.1,-331.83 456.66,-330.99 447.88,-325.06 446.1,-331.83"/>
<text text-anchor="middle" x="406" y="-321.8" font-family="Times,serif" font-size="14.00">7</text>
</g>
<!-- weapons_mastery -->
<g id="node23" class="node">
<title>weapons_mastery</title>
<g id="a_node23"><a xlink:href="weapons_mastery.html" xlink:title="Weapons Mastery">
<polygon fill="none" stroke="black" points="598,-306 454,-306 454,-270 598,-270 598,-306"/>
<text text-anchor="middle" x="526" y="-284.3" font-family="Times,serif" font-size="14.00">Weapons Mastery</text>
</a>
</g>
</g>
<!-- advanced_weapons&#45;&gt;weapons_mastery -->
<g id="edge17" class="edge">
<title>advanced_weapons&#45;&gt;weapons_mastery</title>
<path fill="none" stroke="black" d="M369.62,-288C393.38,-288 419.66,-288 443.75,-288"/>
<polygon fill="black" stroke="black" points="443.93,-291.5 453.93,-288 443.93,-284.5 443.93,-291.5"/>
<text text-anchor="middle" x="406" y="-291.8" font-family="Times,serif" font-size="14.00">7</text>
</g>
<!-- armor_hardening -->
<g id="node4" class="node">
<title>armor_hardening</title>
<g id="a_node4"><a xlink:href="armor_hardening.html" xlink:title="Armor Hardening">
<polygon fill="none" stroke="black" points="149,-36 7,-36 7,0 149,0 149,-36"/>
<text text-anchor="middle" x="78" y="-14.3" font-family="Times,serif" font-size="14.00">Armor Hardening</text>
</a>
</g>
</g>
<!-- armor_hardening&#45;&gt;advanced_armor -->
<g id="edge1" class="edge">
<title>armor_hardening&#45;&gt;advanced_armor</title>
<path fill="none" stroke="black" d="M149.17,-18C170.15,-18 193.25,-18 214.64,-18"/>
<polygon fill="black" stroke="black" points="214.65,-21.5 224.65,-18 214.65,-14.5 214.65,-21.5"/>
<text text-anchor="middle" x="179" y="-21.8" font-family="Times,serif" font-size="14.00">5</text>
</g>
<!-- basic_weapons -->
<g id="node5" class="node">
<title>basic_weapons</title>
<g id="a_node5"><a xlink:href="basic_weapons.html" xlink:title="Basic Weapons">
<polygon fill="none" stroke="black" points="139.5,-217 16.5,-217 16.5,-181 139.5,-181 139.5,-217"/>
<text text-anchor="middle" x="78" y="-195.3" font-family="Times,serif" font-size="14.00">Basic Weapons</text>
</a>
</g>
</g>
<!-- basic_weapons&#45;&gt;advanced_weapons -->
<g id="edge3" class="edge">
<title>basic_weapons&#45;&gt;advanced_weapons</title>
<path fill="none" stroke="black" d="M114.91,-217.1C151.21,-235.4 202,-261 202,-261 202,-261 210.33,-263.51 221.92,-267.01"/>
<polygon fill="black" stroke="black" points="221.22,-270.45 231.8,-269.99 223.24,-263.75 221.22,-270.45"/>
<text text-anchor="middle" x="179" y="-254.8" font-family="Times,serif" font-size="14.00">5</text>
</g>
<!-- energy_weapons -->
<g id="node12" class="node">
<title>energy_weapons</title>
<g id="a_node12"><a xlink:href="energy_weapons.html" xlink:title="Energy Weapons">
<polygon fill="none" stroke="black" points="361,-252 224,-252 224,-216 361,-216 361,-252"/>
<text text-anchor="middle" x="292.5" y="-230.3" font-family="Times,serif" font-size="14.00">Energy Weapons</text>
</a>
</g>
</g>
<!-- basic_weapons&#45;&gt;energy_weapons -->
<g id="edge9" class="edge">
<title>basic_weapons&#45;&gt;energy_weapons</title>
<path fill="none" stroke="black" d="M139.61,-208.98C162.68,-212.78 189.3,-217.17 213.75,-221.19"/>
<polygon fill="black" stroke="black" points="213.28,-224.66 223.71,-222.84 214.41,-217.76 213.28,-224.66"/>
<text text-anchor="middle" x="179" y="-219.8" font-family="Times,serif" font-size="14.00">3</text>
</g>
<!-- kinetic_weapons -->
<g id="node15" class="node">
<title>kinetic_weapons</title>
<g id="a_node15"><a xlink:href="kinetic_weapons.html" xlink:title="Kinetic Weapons">
<polygon fill="none" stroke="black" points="360,-198 225,-198 225,-162 360,-162 360,-198"/>
<text text-anchor="middle" x="292.5" y="-176.3" font-family="Times,serif" font-size="14.00">Kinetic Weapons</text>
</a>
</g>
</g>
<!-- basic_weapons&#45;&gt;kinetic_weapons -->
<g id="edge11" class="edge">
<title>basic_weapons&#45;&gt;kinetic_weapons</title>
<path fill="none" stroke="black" d="M139.7,-192.61C158.32,-190.65 174,-189 174,-189 174,-189 192.46,-187.59 214.75,-185.88"/>
<polygon fill="black" stroke="black" points="215.15,-189.36 224.85,-185.1 214.62,-182.38 215.15,-189.36"/>
<text text-anchor="middle" x="179" y="-192.8" font-family="Times,serif" font-size="14.00">3</text>
</g>
<!-- missile_systems -->
<g id="node16" class="node">
<title>missile_systems</title>
<g id="a_node16"><a xlink:href="missile_systems.html" xlink:title="Missile Systems">
<polygon fill="none" stroke="black" points="359,-144 226,-144 226,-108 359,-108 359,-144"/>
<text text-anchor="middle" x="292.5" y="-122.3" font-family="Times,serif" font-size="14.00">Missile Systems</text>
</a>
</g>
</g>
<!-- basic_weapons&#45;&gt;missile_systems -->
<g id="edge12" class="edge">
<title>basic_weapons&#45;&gt;missile_systems</title>
<path fill="none" stroke="black" d="M127.26,-180.95C161.72,-168.06 202,-153 202,-153 202,-153 210.33,-150.49 221.92,-146.99"/>
<polygon fill="black" stroke="black" points="223.24,-150.25 231.8,-144.01 221.22,-143.55 223.24,-150.25"/>
<text text-anchor="middle" x="179" y="-166.8" font-family="Times,serif" font-size="14.00">3</text>
</g>
<!-- bounty_hunting -->
<g id="node6" class="node">
<title>bounty_hunting</title>
<g id="a_node6"><a xlink:href="bounty_hunting.html" xlink:title="Bounty Hunting">
<polygon fill="none" stroke="black" points="143.5,-428 12.5,-428 12.5,-392 143.5,-392 143.5,-428"/>
<text text-anchor="middle" x="78" y="-406.3" font-family="Times,serif" font-size="14.00">Bounty Hunting</text>
</a>
</g>
</g>
<!-- capital_ships -->
<g id="node7" class="node">
<title>capital_ships</title>
<g id="a_node7"><a xlink:href="capital_ships.html" xlink:title="Capital Ships">
<polygon fill="none" stroke="#7f7f7f" stroke-dasharray="5,2" points="134,-374 22,-374 22,-338 134,-338 134,-374"/>
<text text-anchor="middle" x="78" y="-352.3" font-family="Times,serif" font-size="14.00" fill="#7f7f7f">Capital Ships</text>
</a>
</g>
</g>
<!-- capital_ships&#45;&gt;capital_weapon_systems -->
<g id="edge5" class="edge">
<title>capital_ships&#45;&gt;capital_weapon_systems</title>
<path fill="none" stroke="#7f7f7f" d="M134.14,-355.13C204.94,-354.02 329.33,-352.07 418.78,-350.67"/>
<polygon fill="#7f7f7f" stroke="#7f7f7f" points="419.02,-354.16 428.97,-350.51 418.91,-347.16 419.02,-354.16"/>
<text text-anchor="middle" x="292.5" y="-356.8" font-family="Times,serif" font-size="14.00">5</text>
</g>
<!-- combat_maneuvering -->
<g id="node9" class="node">
<title>combat_maneuvering</title>
<g id="a_node9"><a xlink:href="combat_maneuvering.html" xlink:title="Combat Maneuvering">
<polygon fill="none" stroke="black" points="378,-482 207,-482 207,-446 378,-446 378,-482"/>
<text text-anchor="middle" x="292.5" y="-460.3" font-family="Times,serif" font-size="14.00">Combat Maneuvering</text>
</a>
</g>
</g>
<!-- ecm_resistance -->
<g id="node10" class="node">
<title>ecm_resistance</title>
<g id="a_node10"><a xlink:href="ecm_resistance.html" xlink:title="ECM Resistance">
<polygon fill="none" stroke="black" points="593,-644 459,-644 459,-608 593,-608 593,-644"/>
<text text-anchor="middle" x="526" y="-622.3" font-family="Times,serif" font-size="14.00">ECM Resistance</text>
</a>
</g>
</g>
<!-- electronic_warfare -->
<g id="node11" class="node">
<title>electronic_warfare</title>
<g id="a_node11"><a xlink:href="electronic_warfare.html" xlink:title="Electronic Warfare">
<polygon fill="none" stroke="black" points="368,-644 217,-644 217,-608 368,-608 368,-644"/>
<text text-anchor="middle" x="292.5" y="-622.3" font-family="Times,serif" font-size="14.00">Electronic Warfare</text>
</a>
</g>
</g>
<!-- electronic_warfare&#45;&gt;ecm_resistance -->
<g id="edge7" class="edge">
<title>electronic_warfare&#45;&gt;ecm_resistance</title>
<path fill="none" stroke="black" d="M368.02,-626C393.81,-626 422.74,-626 448.67,-626"/>
<polygon fill="black" stroke="black" points="448.82,-629.5 458.82,-626 448.82,-622.5 448.82,-629.5"/>
<text text-anchor="middle" x="406" y="-629.8" font-family="Times,serif" font-size="14.00">3</text>
</g>
<!-- ion_weapons -->
<g id="node14" class="node">
<title>ion_weapons</title>
<g id="a_node14"><a xlink:href="ion_weapons.html" xlink:title="Ion Weapons">
<polygon fill="none" stroke="black" points="579.5,-252 472.5,-252 472.5,-216 579.5,-216 579.5,-252"/>
<text text-anchor="middle" x="526" y="-230.3" font-family="Times,serif" font-size="14.00">Ion Weapons</text>
</a>
</g>
</g>
<!-- energy_weapons&#45;&gt;ion_weapons -->
<g id="edge10" class="edge">
<title>energy_weapons&#45;&gt;ion_weapons</title>
<path fill="none" stroke="black" d="M361.08,-234C392.98,-234 430.81,-234 462.09,-234"/>
<polygon fill="black" stroke="black" points="462.43,-237.5 472.43,-234 462.43,-230.5 462.43,-237.5"/>
<text text-anchor="middle" x="406" y="-237.8" font-family="Times,serif" font-size="14.00">5</text>
</g>
<!-- plasma_weapons -->
<g id="node17" class="node">
<title>plasma_weapons</title>
<g id="a_node17"><a xlink:href="plasma_weapons.html" xlink:title="Plasma Weapons">
<polygon fill="none" stroke="black" points="594.5,-198 457.5,-198 457.5,-162 594.5,-162 594.5,-198"/>
<text text-anchor="middle" x="526" y="-176.3" font-family="Times,serif" font-size="14.00">Plasma Weapons</text>
</a>
</g>
</g>
<!-- energy_weapons&#45;&gt;plasma_weapons -->
<g id="edge13" class="edge">
<title>energy_weapons&#45;&gt;plasma_weapons</title>
<path fill="none" stroke="black" d="M361.08,-218.24C388.18,-211.91 419.57,-204.59 447.58,-198.06"/>
<polygon fill="black" stroke="black" points="448.39,-201.46 457.33,-195.78 446.8,-194.65 448.39,-201.46"/>
<text text-anchor="middle" x="406" y="-212.8" font-family="Times,serif" font-size="14.00">5</text>
</g>
<!-- evasive_maneuvers -->
<g id="node13" class="node">
<title>evasive_maneuvers</title>
<g id="a_node13"><a xlink:href="evasive_maneuvers.html" xlink:title="Evasive Maneuvers">
<polygon fill="none" stroke="black" points="156,-482 0,-482 0,-446 156,-446 156,-482"/>
<text text-anchor="middle" x="78" y="-460.3" font-family="Times,serif" font-size="14.00">Evasive Maneuvers</text>
</a>
</g>
</g>
<!-- evasive_maneuvers&#45;&gt;combat_maneuvering -->
<g id="edge6" class="edge">
<title>evasive_maneuvers&#45;&gt;combat_maneuvering</title>
<path fill="none" stroke="black" d="M156.02,-464C169.17,-464 182.98,-464 196.54,-464"/>
<polygon fill="black" stroke="black" points="196.84,-467.5 206.84,-464 196.84,-460.5 196.84,-467.5"/>
<text text-anchor="middle" x="179" y="-467.8" font-family="Times,serif" font-size="14.00">5</text>
</g>
<!-- point_defense_systems -->
<g id="node18" class="node">
<title>point_defense_systems</title>
<g id="a_node18"><a xlink:href="point_defense_systems.html" xlink:title="Point Defense Systems">
<polygon fill="none" stroke="black" points="383,-590 202,-590 202,-554 383,-554 383,-590"/>
<text text-anchor="middle" x="292.5" y="-568.3" font-family="Times,serif" font-size="14.00">Point Defense Systems</text>
</a>
</g>
</g>
<!-- shield_operation -->
<g id="node20" class="node">
<title>shield_operation</title>
<g id="a_node20"><a xlink:href="shield_operation.html" xlink:title="Shield Operation">
<polygon fill="none" stroke="black" points="146.5,-90 9.5,-90 9.5,-54 146.5,-54 146.5,-90"/>
<text text-anchor="middle" x="78" y="-68.3" font-family="Times,serif" font-size="14.00">Shield Operation</text>
</a>
</g>
</g>
<!-- shield_operation&#45;&gt;advanced_shields -->
<g id="edge2" class="edge">
<title>shield_operation&#45;&gt;advanced_shields</title>
<path fill="none" stroke="black" d="M146.53,-72C166.89,-72 189.46,-72 210.6,-72"/>
<polygon fill="black" stroke="black" points="210.85,-75.5 220.85,-72 210.85,-68.5 210.85,-75.5"/>
<text text-anchor="middle" x="179" y="-75.8" font-family="Times,serif" font-size="14.00">5</text>
</g>
<!-- target_painting -->
<g id="node21" class="node">
<title>target_painting</title>
<g id="a_node21"><a xlink:href="target_painting.html" xlink:title="Target Painting">
<polygon fill="none" stroke="black" points="356,-536 229,-536 229,-500 356,-500 356,-536"/>
<text text-anchor="middle" x="292.5" y="-514.3" font-family="Times,serif" font-size="14.00">Target Painting</text>
</a>
</g>
</g>
<!-- targeting_systems -->
<g id="node22" class="node">
<title>targeting_systems</title>
<g id="a_node22"><a xlink:href="targeting_systems.html" xlink:title="Targeting Systems">
<polygon fill="none" stroke="black" points="153.5,-590 2.5,-590 2.5,-554 153.5,-554 153.5,-590"/>
<text text-anchor="middle" x="78" y="-568.3" font-family="Times,serif" font-size="14.00">Targeting Systems</text>
</a>
</g>
</g>
<!-- targeting_systems&#45;&gt;electronic_warfare -->
<g id="edge8" class="edge">
<title>targeting_systems&#45;&gt;electronic_warfare</title>
<path fill="none" stroke="black" d="M150.05,-590.06C169.55,-595.01 190.82,-600.42 210.81,-605.5"/>
<polygon fill="black" stroke="black" points="209.96,-608.89 220.51,-607.96 211.68,-602.11 209.96,-608.89"/>
<text text-anchor="middle" x="179" y="-600.8" font-family="Times,serif" font-size="14.00">5</text>
</g>
<!-- targeting_systems&#45;&gt;point_defense_systems -->
<g id="edge14" class="edge">
<title>targeting_systems&#45;&gt;point_defense_systems</title>
<path fill="none" stroke="black" d="M153.62,-572C165.89,-572 178.77,-572 191.54,-572"/>
<polygon fill="black" stroke="black" points="191.74,-575.5 201.74,-572 191.74,-568.5 191.74,-575.5"/>
<text text-anchor="middle" x="179" y="-575.8" font-family="Times,serif" font-size="14.00">5</text>
</g>
<!-- targeting_systems&#45;&gt;target_painting -->
<g id="edge16" class="edge">
<title>targeting_systems&#45;&gt;target_painting</title>
<path fill="none" stroke="black" d="M150.05,-553.94C172.23,-548.31 196.71,-542.09 218.99,-536.43"/>
<polygon fill="black" stroke="black" points="219.89,-539.81 228.72,-533.95 218.16,-533.02 219.89,-539.81"/>
<text text-anchor="middle" x="179" y="-549.8" font-family="Times,serif" font-size="14.00">5</text>
</g>
</g>
</svg>
