<?xml version="1.0" encoding="UTF-8" standalone="no"?>
<!DOCTYPE svg PUBLIC "-//W3C//DTD SVG 1.1//EN"
 "http://www.w3.org/Graphics/SVG/1.1/DTD/svg11.dtd">
<!-- Generated by graphviz version 2.43.0 (0)
 -->
<!-- Title: Crafting Pages: 1 -->
<svg width="522pt" height="260pt"
 viewBox="0.00 0.00 522.00 260.00" xmlns="http://www.w3.org/2000/svg" xmlns:xlink="http://www.w3.org/1999/xlink">
<g id="graph0" class="graph" transform="scale(1 1) rotate(0) translate(4 256)">
<title>Crafting</title>
<polygon fill="white" stroke="transparent" points="-4,4 -4,-256 518,-256 518,4 -4,4"/>
<!-- advanced_crafting -->
<g id="node1" class="node">
<title>advanced_crafting</title>
<g id="a_node1"><a xlink:href="advanced_crafting.html" xlink:title="Advanced Crafting">
<polygon fill="none" stroke="black" points="324,-252 175,-252 175,-216 324,-216 324,-252"/>
<text text-anchor="middle" x="249.5" y="-230.3" font-family="Times,serif" font-size="14.00">Advanced Crafting</text>
</a>
</g>
</g>
<!-- module_crafting -->
<g id="node5" class="node">
<title>module_crafting</title>
<g id="a_node5"><a xlink:href="module_crafting.html" xlink:title="Module Crafting">
<polygon fill="none" stroke="black" points="514,-252 380,-252 380,-216 514,-216 514,-252"/>
<text text-anchor="middle" x="447" y="-230.3" font-family="Times,serif" font-size="14.00">Module Crafting</text>
</a>
</g>
</g>
<!-- advanced_crafting&#45;&gt;module_crafting -->
<g id="edge4" class="edge">
<title>advanced_crafting&#45;&gt;module_crafting</title>
<path fill="none" stroke="black" d="M324.13,-234C338.99,-234 354.65,-234 369.61,-234"/>
<polygon fill="black" stroke="black" points="369.83,-237.5 379.83,-234 369.83,-230.5 369.83,-237.5"/>
<text text-anchor="middle" x="357" y="-237.8" font-family="Times,serif" font-size="14.00">3</text>
</g>
<!-- basic_crafting -->
<g id="node2" class="node">
<title>basic_crafting</title>
<g id="a_node2"><a xlink:href="basic_crafting.html" xlink:title="Basic Crafting">
<polygon fill="none" stroke="black" points="119,-144 0,-144 0,-108 119,-108 119,-144"/>
<text text-anchor="middle" x="59.5" y="-122.3" font-family="Times,serif" font-size="14.00">Basic Crafting</text>
</a>
</g>
</g>
<!-- basic_crafting&#45;&gt;advanced_crafting -->
<g id="edge1" class="edge">
<title>basic_crafting&#45;&gt;advanced_crafting</title>
<path fill="none" stroke="black" d="M83.95,-144.18C114.76,-168.06 165,-207 165,-207 165,-207 172.62,-209.46 183.26,-212.9"/>
<polygon fill="black" stroke="black" points="182.21,-216.24 192.8,-215.99 184.37,-209.58 182.21,-216.24"/>
<text text-anchor="middle" x="142" y="-195.8" font-family="Times,serif" font-size="14.00">5</text>
</g>
<!-- biological_processing -->
<g id="node3" class="node">
<title>biological_processing</title>
<g id="a_node3"><a xlink:href="biological_processing.html" xlink:title="Biological Processing">
<polygon fill="none" stroke="black" points="334,-198 165,-198 165,-162 334,-162 334,-198"/>
<text text-anchor="middle" x="249.5" y="-176.3" font-family="Times,serif" font-size="14.00">Biological Processing</text>
</a>
</g>
</g>
<!-- basic_crafting&#45;&gt;biological_processing -->
<g id="edge2" class="edge">
<title>basic_crafting&#45;&gt;biological_processing</title>
<path fill="none" stroke="black" d="M119.21,-142.86C137.19,-148.03 157.19,-153.77 175.98,-159.17"/>
<polygon fill="black" stroke="black" points="175.1,-162.56 185.68,-161.95 177.03,-155.83 175.1,-162.56"/>
<text text-anchor="middle" x="142" y="-153.8" font-family="Times,serif" font-size="14.00">3</text>
</g>
<!-- electronics_crafting -->
<g id="node4" class="node">
<title>electronics_crafting</title>
<g id="a_node4"><a xlink:href="electronics_crafting.html" xlink:title="Electronics Crafting">
<polygon fill="none" stroke="black" points="330,-144 169,-144 169,-108 330,-108 330,-144"/>
<text text-anchor="middle" x="249.5" y="-122.3" font-family="Times,serif" font-size="14.00">Electronics Crafting</text>
</a>
</g>
</g>
<!-- basic_crafting&#45;&gt;electronics_crafting -->
<g id="edge3" class="edge">
<title>basic_crafting&#45;&gt;electronics_crafting</title>
<path fill="none" stroke="black" d="M119.21,-126C131.75,-126 145.26,-126 158.66,-126"/>
<polygon fill="black" stroke="black" points="158.87,-129.5 168.87,-126 158.87,-122.5 158.87,-129.5"/>
<text text-anchor="middle" x="142" y="-129.8" font-family="Times,serif" font-size="14.00">3</text>
</g>
<!-- shield_crafting -->
<g id="node6" class="node">
<title>shield_crafting</title>
<g id="a_node6"><a xlink:href="shield_crafting.html" xlink:title="Shield Crafting">
<polygon fill="none" stroke="black" points="312,-90 187,-90 187,-54 312,-54 312,-90"/>
<text text-anchor="middle" x="249.5" y="-68.3" font-family="Times,serif" font-size="14.00">Shield Crafting</text>
</a>
</g>
</g>
<!-- basic_crafting&#45;&gt;shield_crafting -->
<g id="edge5" class="edge">
<title>basic_crafting&#45;&gt;shield_crafting</title>
<path fill="none" stroke="black" d="M119.21,-109.14C137.56,-103.87 158.01,-97.99 177.13,-92.5"/>
<polygon fill="black" stroke="black" points="178.34,-95.79 186.99,-89.67 176.41,-89.07 178.34,-95.79"/>
<text text-anchor="middle" x="142" y="-107.8" font-family="Times,serif" font-size="14.00">3</text>
</g>
<!-- weapon_crafting -->
<g id="node7" class="node">
<title>weapon_crafting</title>
<g id="a_node7"><a xlink:href="weapon_crafting.html" xlink:title="Weapon Crafting">
<polygon fill="none" stroke="black" points="318,-36 181,-36 181,0 318,0 318,-36"/>
<text text-anchor="middle" x="249.5" y="-14.3" font-family="Times,serif" font-size="14.00">Weapon Crafting</text>
</a>
</g>
</g>
<!-- basic_crafting&#45;&gt;weapon_crafting -->
<g id="edge6" class="edge">
<title>basic_crafting&#45;&gt;weapon_crafting</title>
<path fill="none" stroke="black" d="M83.95,-107.82C114.76,-83.94 165,-45 165,-45 165,-45 172.62,-42.54 183.26,-39.1"/>
<polygon fill="black" stroke="black" points="184.37,-42.42 192.8,-36.01 182.21,-35.76 184.37,-42.42"/>
<text text-anchor="middle" x="142" y="-68.8" font-family="Times,serif" font-size="14.00">3</text>
</g>
</g>
</svg>
