<?xml version="1.0" encoding="UTF-8" standalone="no"?>
<!DOCTYPE svg PUBLIC "-//W3C//DTD SVG 1.1//EN"
 "http://www.w3.org/Graphics/SVG/1.1/DTD/svg11.dtd">
<!-- Generated by graphviz version 2.43.0 (0)
 -->
<!-- Title: Crafting Pages: 1 -->
<svg width="726pt" height="392pt"
 viewBox="0.00 0.00 726.00 392.00" xmlns="http://www.w3.org/2000/svg" xmlns:xlink="http://www.w3.org/1999/xlink">
<g id="graph0" class="graph" transform="scale(1 1) rotate(0) translate(4 388)">
<title>Crafting</title>
<polygon fill="white" stroke="transparent" points="-4,4 -4,-388 722,-388 722,4 -4,4"/>
<!-- advanced_crafting -->
<g id="node1" class="node">
<title>advanced_crafting</title>
<g id="a_node1"><a xlink:href="advanced_crafting.html" xlink:title="Advanced Crafting">
<polygon fill="none" stroke="black" points="324,-252 175,-252 175,-216 324,-216 324,-252"/>
<text text-anchor="middle" x="249.5" y="-230.3" font-family="Times,serif" font-size="14.00">Advanced Crafting</text>
</a>
</g>
</g>
<!-- blueprint_research -->
<g id="node4" class="node">
<title>blueprint_research</title>
<g id="a_node4"><a xlink:href="blueprint_research.html" xlink:title="Blueprint Research">
<polygon fill="none" stroke="black" points="535,-384 380,-384 380,-348 535,-348 535,-384"/>
<text text-anchor="middle" x="457.5" y="-362.3" font-family="Times,serif" font-size="14.00">Blueprint Research</text>
</a>
</g>
</g>
<!-- advanced_crafting&#45;&gt;blueprint_research -->
<g id="edge3" class="edge">
<title>advanced_crafting&#45;&gt;blueprint_research</title>
<path fill="none" stroke="black" d="M272.76,-252.05C309.79,-282.07 380,-339 380,-339 380,-339 386.57,-341.32 395.86,-344.6"/>
<polygon fill="black" stroke="black" points="394.88,-347.96 405.47,-347.99 397.21,-341.36 394.88,-347.96"/>
<text text-anchor="middle" x="357" y="-326.8" font-family="Times,serif" font-size="14.00">5</text>
</g>
<!-- crafting_mastery -->
<g id="node5" class="node">
<title>crafting_mastery</title>
<g id="a_node5"><a xlink:href="crafting_mastery.html" xlink:title="Crafting Mastery">
<polygon fill="none" stroke="black" points="527.5,-330 387.5,-330 387.5,-294 527.5,-294 527.5,-330"/>
<text text-anchor="middle" x="457.5" y="-308.3" font-family="Times,serif" font-size="14.00">Crafting Mastery</text>
</a>
</g>
</g>
<!-- advanced_crafting&#45;&gt;crafting_mastery -->
<g id="edge4" class="edge">
<title>advanced_crafting&#45;&gt;crafting_mastery</title>
<path fill="none" stroke="black" d="M295.31,-252.1C322.51,-263.09 352,-275 352,-275 352,-275 372.82,-282.37 395.87,-290.53"/>
<polygon fill="black" stroke="black" points="394.88,-293.9 405.47,-293.93 397.22,-287.3 394.88,-293.9"/>
<text text-anchor="middle" x="357" y="-281.8" font-family="Times,serif" font-size="14.00">7</text>
</g>
<!-- mass_production -->
<g id="node7" class="node">
<title>mass_production</title>
<g id="a_node7"><a xlink:href="mass_production.html" xlink:title="Mass Production">
<polygon fill="none" stroke="black" points="718,-295 581,-295 581,-259 718,-259 718,-295"/>
<text text-anchor="middle" x="649.5" y="-273.3" font-family="Times,serif" font-size="14.00">Mass Production</text>
</a>
</g>
</g>
<!-- advanced_crafting&#45;&gt;mass_production -->
<g id="edge6" class="edge">
<title>advanced_crafting&#45;&gt;mass_production</title>
<path fill="none" stroke="black" d="M324.43,-241.99C394.49,-249.56 499.34,-260.89 570.67,-268.59"/>
<polygon fill="black" stroke="black" points="570.62,-272.11 580.94,-269.7 571.37,-265.15 570.62,-272.11"/>
<text text-anchor="middle" x="457.5" y="-267.8" font-family="Times,serif" font-size="14.00">5</text>
</g>
<!-- module_crafting -->
<g id="node8" class="node">
<title>module_crafting</title>
<g id="a_node8"><a xlink:href="module_crafting.html" xlink:title="Module Crafting">
<polygon fill="none" stroke="black" points="524.5,-225 390.5,-225 390.5,-189 524.5,-189 524.5,-225"/>
<text text-anchor="middle" x="457.5" y="-203.3" font-family="Times,serif" font-size="14.00">Module Crafting</text>
</a>
</g>
</g>
<!-- advanced_crafting&#45;&gt;module_crafting -->
<g id="edge8" class="edge">
<title>advanced_crafting&#45;&gt;module_crafting</title>
<path fill="none" stroke="black" d="M324.29,-224.33C342.5,-221.94 362.05,-219.38 380.37,-216.98"/>
<polygon fill="black" stroke="black" points="380.95,-220.43 390.41,-215.66 380.04,-213.49 380.95,-220.43"/>
<text text-anchor="middle" x="357" y="-223.8" font-family="Times,serif" font-size="14.00">3</text>
</g>
<!-- quality_control -->
<g id="node9" class="node">
<title>quality_control</title>
<g id="a_node9"><a xlink:href="quality_control.html" xlink:title="Quality Control">
<polygon fill="none" stroke="black" points="520.5,-171 394.5,-171 394.5,-135 520.5,-135 520.5,-171"/>
<text text-anchor="middle" x="457.5" y="-149.3" font-family="Times,serif" font-size="14.00">Quality Control</text>
</a>
</g>
</g>
<!-- advanced_crafting&#45;&gt;quality_control -->
<g id="edge9" class="edge">
<title>advanced_crafting&#45;&gt;quality_control</title>
<path fill="none" stroke="black" d="M306.2,-215.99C321.51,-211.04 334,-207 334,-207 334,-207 380,-180 380,-180 380,-180 386.57,-177.68 395.86,-174.4"/>
<polygon fill="black" stroke="black" points="397.21,-177.64 405.47,-171.01 394.88,-171.04 397.21,-177.64"/>
<text text-anchor="middle" x="357" y="-198.8" font-family="Times,serif" font-size="14.00">5</text>
</g>
<!-- ship_construction -->
<g id="node11" class="node">
<title>ship_construction</title>
<g id="a_node11"><a xlink:href="ship_construction.html" xlink:title="Ship Construction">
<polygon fill="none" stroke="black" points="530.5,-117 384.5,-117 384.5,-81 530.5,-81 530.5,-117"/>
<text text-anchor="middle" x="457.5" y="-95.3" font-family="Times,serif" font-size="14.00">Ship Construction</text>
</a>
</g>
</g>
<!-- advanced_crafting&#45;&gt;ship_construction -->
<g id="edge11" class="edge">
<title>advanced_crafting&#45;&gt;ship_construction</title>
<path fill="none" stroke="black" d="M306.2,-215.99C321.51,-211.04 334,-207 334,-207 334,-207 352,-172 352,-172 352,-172 380,-126 380,-126 380,-126 386.57,-123.68 395.86,-120.4"/>
<polygon fill="black" stroke="black" points="397.21,-123.64 405.47,-117.01 394.88,-117.04 397.21,-123.64"/>
<text text-anchor="middle" x="357" y="-175.8" font-family="Times,serif" font-size="14.00">5</text>
</g>
<!-- basic_crafting -->
<g id="node2" class="node">
<title>basic_crafting</title>
<g id="a_node2"><a xlink:href="basic_crafting.html" xlink:title="Basic Crafting">
<polygon fill="none" stroke="black" points="119,-144 0,-144 0,-108 119,-108 119,-144"/>
<text text-anchor="middle" x="59.5" y="-122.3" font-family="Times,serif" font-size="14.00">Basic Crafting</text>
</a>
</g>
</g>
<!-- basic_crafting&#45;&gt;advanced_crafting -->
<g id="edge1" class="edge">
<title>basic_crafting&#45;&gt;advanced_crafting</title>
<path fill="none" stroke="black" d="M83.95,-144.18C114.76,-168.06 165,-207 165,-207 165,-207 172.62,-209.46 183.26,-212.9"/>
<polygon fill="black" stroke="black" points="182.21,-216.24 192.8,-215.99 184.37,-209.58 182.21,-216.24"/>
<text text-anchor="middle" x="142" y="-194.8" font-family="Times,serif" font-size="14.00">5</text>
</g>
<!-- biological_processing -->
<g id="node3" class="node">
<title>biological_processing</title>
<g id="a_node3"><a xlink:href="biological_processing.html" xlink:title="Biological Processing">
<polygon fill="none" stroke="black" points="334,-198 165,-198 165,-162 334,-162 334,-198"/>
<text text-anchor="middle" x="249.5" y="-176.3" font-family="Times,serif" font-size="14.00">Biological Processing</text>
</a>
</g>
</g>
<!-- basic_crafting&#45;&gt;biological_processing -->
<g id="edge2" class="edge">
<title>basic_crafting&#45;&gt;biological_processing</title>
<path fill="none" stroke="black" d="M119.21,-142.86C137.19,-148.03 157.19,-153.77 175.98,-159.17"/>
<polygon fill="black" stroke="black" points="175.1,-162.56 185.68,-161.95 177.03,-155.83 175.1,-162.56"/>
<text text-anchor="middle" x="142" y="-152.8" font-family="Times,serif" font-size="14.00">3</text>
</g>
<!-- electronics_crafting -->
<g id="node6" class="node">
<title>electronics_crafting</title>
<g id="a_node6"><a xlink:href="electronics_crafting.html" xlink:title="Electronics Crafting">
<polygon fill="none" stroke="black" points="330,-144 169,-144 169,-108 330,-108 330,-144"/>
<text text-anchor="middle" x="249.5" y="-122.3" font-family="Times,serif" font-size="14.00">Electronics Crafting</text>
</a>
</g>
</g>
<!-- basic_crafting&#45;&gt;electronics_crafting -->
<g id="edge5" class="edge">
<title>basic_crafting&#45;&gt;electronics_crafting</title>
<path fill="none" stroke="black" d="M119.21,-126C131.75,-126 145.26,-126 158.66,-126"/>
<polygon fill="black" stroke="black" points="158.87,-129.5 168.87,-126 158.87,-122.5 158.87,-129.5"/>
<text text-anchor="middle" x="142" y="-129.8" font-family="Times,serif" font-size="14.00">3</text>
</g>
<!-- shield_crafting -->
<g id="node10" class="node">
<title>shield_crafting</title>
<g id="a_node10"><a xlink:href="shield_crafting.html" xlink:title="Shield Crafting">
<polygon fill="none" stroke="black" points="312,-90 187,-90 187,-54 312,-54 312,-90"/>
<text text-anchor="middle" x="249.5" y="-68.3" font-family="Times,serif" font-size="14.00">Shield Crafting</text>
</a>
</g>
</g>
<!-- basic_crafting&#45;&gt;shield_crafting -->
<g id="edge10" class="edge">
<title>basic_crafting&#45;&gt;shield_crafting</title>
<path fill="none" stroke="black" d="M119.21,-109.14C137.56,-103.87 158.01,-97.99 177.13,-92.5"/>
<polygon fill="black" stroke="black" points="178.34,-95.79 186.99,-89.67 176.41,-89.07 178.34,-95.79"/>
<text text-anchor="middle" x="142" y="-106.8" font-family="Times,serif" font-size="14.00">3</text>
</g>
<!-- weapon_crafting -->
<g id="node12" class="node">
<title>weapon_crafting</title>
<g id="a_node12"><a xlink:href="weapon_crafting.html" xlink:title="Weapon Crafting">
<polygon fill="none" stroke="black" points="318,-36 181,-36 181,0 318,0 318,-36"/>
<text text-anchor="middle" x="249.5" y="-14.3" font-family="Times,serif" font-size="14.00">Weapon Crafting</text>
</a>
</g>
</g>
<!-- basic_crafting&#45;&gt;weapon_crafting -->
<g id="edge12" class="edge">
<title>basic_crafting&#45;&gt;weapon_crafting</title>
<path fill="none" stroke="black" d="M83.95,-107.82C114.76,-83.94 165,-45 165,-45 165,-45 172.62,-42.54 183.26,-39.1"/>
<polygon fill="black" stroke="black" points="184.37,-42.42 192.8,-36.01 182.21,-35.76 184.37,-42.42"/>
<text text-anchor="middle" x="142" y="-67.8" font-family="Times,serif" font-size="14.00">3</text>
</g>
<!-- blueprint_research&#45;&gt;mass_production -->
<g id="edge7" class="edge">
<title>blueprint_research&#45;&gt;mass_production</title>
<path fill="none" stroke="black" d="M509.53,-347.99C523.56,-343.04 535,-339 535,-339 535,-339 574.16,-317.61 606.47,-299.96"/>
<polygon fill="black" stroke="black" points="608.27,-302.97 615.37,-295.1 604.91,-296.82 608.27,-302.97"/>
<text text-anchor="middle" x="558" y="-331.8" font-family="Times,serif" font-size="14.00">3</text>
</g>
</g>
</svg>
