<?xml version="1.0" encoding="UTF-8" standalone="no"?>
<!DOCTYPE svg PUBLIC "-//W3C//DTD SVG 1.1//EN"
 "http://www.w3.org/Graphics/SVG/1.1/DTD/svg11.dtd">
<!-- Generated by graphviz version 2.43.0 (0)
 -->
<!-- Title: Crafting Pages: 1 -->
<svg width="718pt" height="311pt"
 viewBox="0.00 0.00 718.00 311.00" xmlns="http://www.w3.org/2000/svg" xmlns:xlink="http://www.w3.org/1999/xlink">
<g id="graph0" class="graph" transform="scale(1 1) rotate(0) translate(4 307)">
<title>Crafting</title>
<polygon fill="white" stroke="transparent" points="-4,4 -4,-307 714,-307 714,4 -4,4"/>
<!-- module_crafting -->
<g id="node1" class="node">
<title>module_crafting</title>
<polygon fill="none" stroke="black" points="516.5,-303 382.5,-303 382.5,-267 516.5,-267 516.5,-303"/>
<text text-anchor="middle" x="449.5" y="-281.3" font-family="Times,serif" font-size="14.00">Module Crafting</text>
</g>
<!-- quality_control -->
<g id="node2" class="node">
<title>quality_control</title>
<polygon fill="none" stroke="black" points="512.5,-249 386.5,-249 386.5,-213 512.5,-213 512.5,-249"/>
<text text-anchor="middle" x="449.5" y="-227.3" font-family="Times,serif" font-size="14.00">Quality Control</text>
</g>
<!-- ship_crafting -->
<g id="node3" class="node">
<title>ship_crafting</title>
<polygon fill="none" stroke="black" points="522.5,-195 376.5,-195 376.5,-159 522.5,-159 522.5,-195"/>
<text text-anchor="middle" x="449.5" y="-173.3" font-family="Times,serif" font-size="14.00">Ship Construction</text>
</g>
<!-- crafting_basic -->
<g id="node4" class="node">
<title>crafting_basic</title>
<polygon fill="none" stroke="black" points="119,-204 0,-204 0,-168 119,-168 119,-204"/>
<text text-anchor="middle" x="59.5" y="-182.3" font-family="Times,serif" font-size="14.00">Basic Crafting</text>
</g>
<!-- weapon_crafting -->
<g id="node6" class="node">
<title>weapon_crafting</title>
<polygon fill="none" stroke="black" points="314,-277 177,-277 177,-241 314,-241 314,-277"/>
<text text-anchor="middle" x="245.5" y="-255.3" font-family="Times,serif" font-size="14.00">Weapon Crafting</text>
</g>
<!-- crafting_basic&#45;&gt;weapon_crafting -->
<g id="edge6" class="edge">
<title>crafting_basic&#45;&gt;weapon_crafting</title>
<path fill="none" stroke="black" d="M101.5,-204.05C130.78,-216.94 165,-232 165,-232 165,-232 171.97,-234.37 181.78,-237.7"/>
<polygon fill="black" stroke="black" points="180.88,-241.09 191.47,-240.99 183.13,-234.46 180.88,-241.09"/>
<text text-anchor="middle" x="142" y="-226.8" font-family="Times,serif" font-size="14.00">3</text>
</g>
<!-- shield_crafting -->
<g id="node7" class="node">
<title>shield_crafting</title>
<polygon fill="none" stroke="black" points="308,-223 183,-223 183,-187 308,-187 308,-223"/>
<text text-anchor="middle" x="245.5" y="-201.3" font-family="Times,serif" font-size="14.00">Shield Crafting</text>
</g>
<!-- crafting_basic&#45;&gt;shield_crafting -->
<g id="edge11" class="edge">
<title>crafting_basic&#45;&gt;shield_crafting</title>
<path fill="none" stroke="black" d="M119.22,-192.06C136.19,-193.82 154.91,-195.75 172.58,-197.57"/>
<polygon fill="black" stroke="black" points="172.54,-201.09 182.85,-198.63 173.26,-194.12 172.54,-201.09"/>
<text text-anchor="middle" x="142" y="-197.8" font-family="Times,serif" font-size="14.00">3</text>
</g>
<!-- crafting_advanced -->
<g id="node8" class="node">
<title>crafting_advanced</title>
<polygon fill="none" stroke="black" points="320,-169 171,-169 171,-133 320,-133 320,-169"/>
<text text-anchor="middle" x="245.5" y="-147.3" font-family="Times,serif" font-size="14.00">Advanced Crafting</text>
</g>
<!-- crafting_basic&#45;&gt;crafting_advanced -->
<g id="edge1" class="edge">
<title>crafting_basic&#45;&gt;crafting_advanced</title>
<path fill="none" stroke="black" d="M119.22,-174.83C132.43,-172.32 146.69,-169.61 160.69,-166.94"/>
<polygon fill="black" stroke="black" points="161.65,-170.32 170.82,-165.01 160.35,-163.44 161.65,-170.32"/>
<text text-anchor="middle" x="142" y="-173.8" font-family="Times,serif" font-size="14.00">5</text>
</g>
<!-- electronics_crafting -->
<g id="node11" class="node">
<title>electronics_crafting</title>
<polygon fill="none" stroke="black" points="326,-115 165,-115 165,-79 326,-79 326,-115"/>
<text text-anchor="middle" x="245.5" y="-93.3" font-family="Times,serif" font-size="14.00">Electronics Crafting</text>
</g>
<!-- crafting_basic&#45;&gt;electronics_crafting -->
<g id="edge5" class="edge">
<title>crafting_basic&#45;&gt;electronics_crafting</title>
<path fill="none" stroke="black" d="M91.01,-167.9C121.85,-149.6 165,-124 165,-124 165,-124 171.97,-121.63 181.78,-118.3"/>
<polygon fill="black" stroke="black" points="183.13,-121.54 191.47,-115.01 180.88,-114.91 183.13,-121.54"/>
<text text-anchor="middle" x="142" y="-141.8" font-family="Times,serif" font-size="14.00">3</text>
</g>
<!-- mass_production -->
<g id="node5" class="node">
<title>mass_production</title>
<polygon fill="none" stroke="black" points="710,-117 573,-117 573,-81 710,-81 710,-117"/>
<text text-anchor="middle" x="641.5" y="-95.3" font-family="Times,serif" font-size="14.00">Mass Production</text>
</g>
<!-- crafting_advanced&#45;&gt;module_crafting -->
<g id="edge7" class="edge">
<title>crafting_advanced&#45;&gt;module_crafting</title>
<path fill="none" stroke="black" d="M299.53,-169.01C314.11,-173.96 326,-178 326,-178 326,-178 344,-212 344,-212 344,-212 372,-258 372,-258 372,-258 378.57,-260.32 387.86,-263.6"/>
<polygon fill="black" stroke="black" points="386.88,-266.96 397.47,-266.99 389.21,-260.36 386.88,-266.96"/>
<text text-anchor="middle" x="349" y="-231.8" font-family="Times,serif" font-size="14.00">3</text>
</g>
<!-- crafting_advanced&#45;&gt;quality_control -->
<g id="edge8" class="edge">
<title>crafting_advanced&#45;&gt;quality_control</title>
<path fill="none" stroke="black" d="M299.53,-169.01C314.11,-173.96 326,-178 326,-178 326,-178 372,-204 372,-204 372,-204 378.57,-206.32 387.86,-209.6"/>
<polygon fill="black" stroke="black" points="386.88,-212.96 397.47,-212.99 389.21,-206.36 386.88,-212.96"/>
<text text-anchor="middle" x="349" y="-196.8" font-family="Times,serif" font-size="14.00">5</text>
</g>
<!-- crafting_advanced&#45;&gt;ship_crafting -->
<g id="edge9" class="edge">
<title>crafting_advanced&#45;&gt;ship_crafting</title>
<path fill="none" stroke="black" d="M320.28,-160.5C335.12,-162.41 350.8,-164.42 365.91,-166.37"/>
<polygon fill="black" stroke="black" points="365.9,-169.9 376.27,-167.7 366.79,-162.95 365.9,-169.9"/>
<text text-anchor="middle" x="349" y="-167.8" font-family="Times,serif" font-size="14.00">5</text>
</g>
<!-- crafting_advanced&#45;&gt;mass_production -->
<g id="edge3" class="edge">
<title>crafting_advanced&#45;&gt;mass_production</title>
<path fill="none" stroke="black" d="M320.15,-141.28C389.25,-132.16 492.23,-118.57 562.66,-109.27"/>
<polygon fill="black" stroke="black" points="563.35,-112.71 572.81,-107.93 562.44,-105.77 563.35,-112.71"/>
<text text-anchor="middle" x="449.5" y="-137.8" font-family="Times,serif" font-size="14.00">5</text>
</g>
<!-- blueprint_research -->
<g id="node9" class="node">
<title>blueprint_research</title>
<polygon fill="none" stroke="black" points="527,-90 372,-90 372,-54 527,-54 527,-90"/>
<text text-anchor="middle" x="449.5" y="-68.3" font-family="Times,serif" font-size="14.00">Blueprint Research</text>
</g>
<!-- crafting_advanced&#45;&gt;blueprint_research -->
<g id="edge10" class="edge">
<title>crafting_advanced&#45;&gt;blueprint_research</title>
<path fill="none" stroke="black" d="M299.53,-132.99C314.11,-128.04 326,-124 326,-124 326,-124 344,-97 344,-97 344,-97 351.86,-95.12 363.28,-92.39"/>
<polygon fill="black" stroke="black" points="364.2,-95.77 373.11,-90.04 362.57,-88.96 364.2,-95.77"/>
<text text-anchor="middle" x="349" y="-100.8" font-family="Times,serif" font-size="14.00">5</text>
</g>
<!-- crafting_mastery -->
<g id="node10" class="node">
<title>crafting_mastery</title>
<polygon fill="none" stroke="black" points="519.5,-36 379.5,-36 379.5,0 519.5,0 519.5,-36"/>
<text text-anchor="middle" x="449.5" y="-14.3" font-family="Times,serif" font-size="14.00">Crafting Mastery</text>
</g>
<!-- crafting_advanced&#45;&gt;crafting_mastery -->
<g id="edge4" class="edge">
<title>crafting_advanced&#45;&gt;crafting_mastery</title>
<path fill="none" stroke="black" d="M299.53,-132.99C314.11,-128.04 326,-124 326,-124 326,-124 344,-75 344,-75 344,-75 372,-45 372,-45 372,-45 378.57,-42.68 387.86,-39.4"/>
<polygon fill="black" stroke="black" points="389.21,-42.64 397.47,-36.01 386.88,-36.04 389.21,-42.64"/>
<text text-anchor="middle" x="349" y="-78.8" font-family="Times,serif" font-size="14.00">7</text>
</g>
<!-- blueprint_research&#45;&gt;mass_production -->
<g id="edge2" class="edge">
<title>blueprint_research&#45;&gt;mass_production</title>
<path fill="none" stroke="black" d="M527.23,-82.9C538.94,-84.57 551.04,-86.29 562.77,-87.95"/>
<polygon fill="black" stroke="black" points="562.57,-91.46 572.96,-89.4 563.56,-84.53 562.57,-91.46"/>
<text text-anchor="middle" x="550" y="-89.8" font-family="Times,serif" font-size="14.00">3</text>
</g>
</g>
</svg>
