<?xml version="1.0" encoding="UTF-8" standalone="no"?>
<!DOCTYPE svg PUBLIC "-//W3C//DTD SVG 1.1//EN"
 "http://www.w3.org/Graphics/SVG/1.1/DTD/svg11.dtd">
<!-- Generated by graphviz version 2.43.0 (0)
 -->
<!-- Title: Drones Pages: 1 -->
<svg width="516pt" height="369pt"
 viewBox="0.00 0.00 516.00 369.00" xmlns="http://www.w3.org/2000/svg" xmlns:xlink="http://www.w3.org/1999/xlink">
<g id="graph0" class="graph" transform="scale(1 1) rotate(0) translate(4 365)">
<title>Drones</title>
<polygon fill="white" stroke="transparent" points="-4,4 -4,-365 512,-365 512,4 -4,4"/>
<!-- combat_drones -->
<g id="node1" class="node">
<title>combat_drones</title>
<g id="a_node1"><a xlink:href="combat_drones.html" xlink:title="Combat Drones">
<polygon fill="none" stroke="black" points="314.5,-36 186.5,-36 186.5,0 314.5,0 314.5,-36"/>
<text text-anchor="middle" x="250.5" y="-14.3" font-family="Times,serif" font-size="14.00">Combat Drones</text>
</a>
</g>
</g>
<!-- drone_control -->
<g id="node2" class="node">
<title>drone_control</title>
<g id="a_node2"><a xlink:href="drone_control.html" xlink:title="Drone Control">
<polygon fill="none" stroke="black" points="309.5,-90 191.5,-90 191.5,-54 309.5,-54 309.5,-90"/>
<text text-anchor="middle" x="250.5" y="-68.3" font-family="Times,serif" font-size="14.00">Drone Control</text>
</a>
</g>
</g>
<!-- drone_interfacing -->
<g id="node4" class="node">
<title>drone_interfacing</title>
<g id="a_node4"><a xlink:href="drone_interfacing.html" xlink:title="Drone Interfacing">
<polygon fill="none" stroke="black" points="508,-90 365,-90 365,-54 508,-54 508,-90"/>
<text text-anchor="middle" x="436.5" y="-68.3" font-family="Times,serif" font-size="14.00">Drone Interfacing</text>
</a>
</g>
</g>
<!-- drone_control&#45;&gt;drone_interfacing -->
<g id="edge4" class="edge">
<title>drone_control&#45;&gt;drone_interfacing</title>
<path fill="none" stroke="black" d="M309.72,-72C323.92,-72 339.37,-72 354.42,-72"/>
<polygon fill="black" stroke="black" points="354.76,-75.5 364.76,-72 354.76,-68.5 354.76,-75.5"/>
<text text-anchor="middle" x="342" y="-75.8" font-family="Times,serif" font-size="14.00">7</text>
</g>
<!-- drone_durability -->
<g id="node3" class="node">
<title>drone_durability</title>
<g id="a_node3"><a xlink:href="drone_durability.html" xlink:title="Drone Durability">
<polygon fill="none" stroke="black" points="319,-144 182,-144 182,-108 319,-108 319,-144"/>
<text text-anchor="middle" x="250.5" y="-122.3" font-family="Times,serif" font-size="14.00">Drone Durability</text>
</a>
</g>
</g>
<!-- drone_operation -->
<g id="node5" class="node">
<title>drone_operation</title>
<g id="a_node5"><a xlink:href="drone_operation.html" xlink:title="Drone Operation">
<polygon fill="none" stroke="black" points="136,-171 0,-171 0,-135 136,-135 136,-171"/>
<text text-anchor="middle" x="68" y="-149.3" font-family="Times,serif" font-size="14.00">Drone Operation</text>
</a>
</g>
</g>
<!-- drone_operation&#45;&gt;combat_drones -->
<g id="edge1" class="edge">
<title>drone_operation&#45;&gt;combat_drones</title>
<path fill="none" stroke="black" d="M87.91,-134.92C120.08,-104.18 182,-45 182,-45 182,-45 187.21,-42.91 194.75,-39.9"/>
<polygon fill="black" stroke="black" points="196.49,-42.97 204.48,-36.01 193.89,-36.47 196.49,-42.97"/>
<text text-anchor="middle" x="159" y="-75.8" font-family="Times,serif" font-size="14.00">5</text>
</g>
<!-- drone_operation&#45;&gt;drone_control -->
<g id="edge2" class="edge">
<title>drone_operation&#45;&gt;drone_control</title>
<path fill="none" stroke="black" d="M106.94,-134.87C139.77,-119.18 182,-99 182,-99 182,-99 187.21,-96.91 194.75,-93.9"/>
<polygon fill="black" stroke="black" points="196.49,-96.97 204.48,-90.01 193.89,-90.47 196.49,-96.97"/>
<text text-anchor="middle" x="159" y="-116.8" font-family="Times,serif" font-size="14.00">5</text>
</g>
<!-- drone_operation&#45;&gt;drone_durability -->
<g id="edge3" class="edge">
<title>drone_operation&#45;&gt;drone_durability</title>
<path fill="none" stroke="black" d="M136.21,-142.95C147.88,-141.2 160.1,-139.37 172.01,-137.59"/>
<polygon fill="black" stroke="black" points="172.56,-141.05 181.93,-136.11 171.52,-134.13 172.56,-141.05"/>
<text text-anchor="middle" x="159" y="-143.8" font-family="Times,serif" font-size="14.00">3</text>
</g>
<!-- mining_drones -->
<g id="node7" class="node">
<title>mining_drones</title>
<g id="a_node7"><a xlink:href="mining_drones.html" xlink:title="Mining Drones">
<polygon fill="none" stroke="black" points="311.5,-249 189.5,-249 189.5,-213 311.5,-213 311.5,-249"/>
<text text-anchor="middle" x="250.5" y="-227.3" font-family="Times,serif" font-size="14.00">Mining Drones</text>
</a>
</g>
</g>
<!-- drone_operation&#45;&gt;mining_drones -->
<g id="edge5" class="edge">
<title>drone_operation&#45;&gt;mining_drones</title>
<path fill="none" stroke="black" d="M109.51,-171.11C131.4,-180.9 154,-191 154,-191 154,-191 174.97,-199.78 197.26,-209.12"/>
<polygon fill="black" stroke="black" points="195.92,-212.35 206.5,-212.99 198.63,-205.9 195.92,-212.35"/>
<text text-anchor="middle" x="159" y="-199.8" font-family="Times,serif" font-size="14.00">3</text>
</g>
<!-- repair_drones -->
<g id="node8" class="node">
<title>repair_drones</title>
<g id="a_node8"><a xlink:href="repair_drones.html" xlink:title="Repair Drones">
<polygon fill="none" stroke="black" points="496,-277 377,-277 377,-241 496,-241 496,-277"/>
<text text-anchor="middle" x="436.5" y="-255.3" font-family="Times,serif" font-size="14.00">Repair Drones</text>
</a>
</g>
</g>
<!-- drone_operation&#45;&gt;repair_drones -->
<g id="edge7" class="edge">
<title>drone_operation&#45;&gt;repair_drones</title>
<path fill="none" stroke="black" d="M136.32,-162.69C210.37,-173.36 319,-189 319,-189 319,-189 362.8,-215.32 396.69,-235.68"/>
<polygon fill="black" stroke="black" points="395.12,-238.82 405.5,-240.97 398.73,-232.82 395.12,-238.82"/>
<text text-anchor="middle" x="250.5" y="-192.8" font-family="Times,serif" font-size="14.00">3</text>
</g>
<!-- salvage_drones -->
<g id="node10" class="node">
<title>salvage_drones</title>
<g id="a_node10"><a xlink:href="salvage_drones.html" xlink:title="Salvage Drones">
<polygon fill="none" stroke="black" points="314.5,-303 186.5,-303 186.5,-267 314.5,-267 314.5,-303"/>
<text text-anchor="middle" x="250.5" y="-281.3" font-family="Times,serif" font-size="14.00">Salvage Drones</text>
</a>
</g>
</g>
<!-- drone_operation&#45;&gt;salvage_drones -->
<g id="edge9" class="edge">
<title>drone_operation&#45;&gt;salvage_drones</title>
<path fill="none" stroke="black" d="M88.43,-171.05C120.73,-201.07 182,-258 182,-258 182,-258 187.21,-260.09 194.75,-263.1"/>
<polygon fill="black" stroke="black" points="193.89,-266.53 204.48,-266.99 196.49,-260.03 193.89,-266.53"/>
<text text-anchor="middle" x="159" y="-244.8" font-family="Times,serif" font-size="14.00">3</text>
</g>
<!-- mining -->
<g id="node6" class="node">
<title>mining</title>
<g id="a_node6"><a xlink:href="mining.html" xlink:title="Mining">
<polygon fill="none" stroke="#7f7f7f" stroke-dasharray="5,2" points="101.5,-307 34.5,-307 34.5,-271 101.5,-271 101.5,-307"/>
<text text-anchor="middle" x="68" y="-285.3" font-family="Times,serif" font-size="14.00" fill="#7f7f7f">Mining</text>
</a>
</g>
</g>
<!-- mining&#45;&gt;mining_drones -->
<g id="edge6" class="edge">
<title>mining&#45;&gt;mining_drones</title>
<path fill="none" stroke="#7f7f7f" d="M101.69,-281.43C129.17,-275.07 164,-267 164,-267 164,-267 182,-258 182,-258 182,-258 187.21,-255.91 194.75,-252.9"/>
<polygon fill="#7f7f7f" stroke="#7f7f7f" points="196.49,-255.97 204.48,-249.01 193.89,-249.47 196.49,-255.97"/>
<text text-anchor="middle" x="159" y="-273.8" font-family="Times,serif" font-size="14.00">3</text>
</g>
<!-- repair_systems -->
<g id="node9" class="node">
<title>repair_systems</title>
<g id="a_node9"><a xlink:href="repair_systems.html" xlink:title="Repair Systems">
<polygon fill="none" stroke="#7f7f7f" stroke-dasharray="5,2" points="315,-357 186,-357 186,-321 315,-321 315,-357"/>
<text text-anchor="middle" x="250.5" y="-335.3" font-family="Times,serif" font-size="14.00" fill="#7f7f7f">Repair Systems</text>
</a>
</g>
</g>
<!-- repair_systems&#45;&gt;repair_drones -->
<g id="edge8" class="edge">
<title>repair_systems&#45;&gt;repair_drones</title>
<path fill="none" stroke="#7f7f7f" d="M296.52,-320.99C308.91,-316.04 319,-312 319,-312 319,-312 354.61,-295.8 386.45,-281.31"/>
<polygon fill="#7f7f7f" stroke="#7f7f7f" points="388.08,-284.42 395.73,-277.09 385.18,-278.05 388.08,-284.42"/>
<text text-anchor="middle" x="342" y="-306.8" font-family="Times,serif" font-size="14.00">3</text>
</g>
<!-- salvaging -->
<g id="node11" class="node">
<title>salvaging</title>
<g id="a_node11"><a xlink:href="salvaging.html" xlink:title="Salvaging">
<polygon fill="none" stroke="#7f7f7f" stroke-dasharray="5,2" points="111.5,-361 24.5,-361 24.5,-325 111.5,-325 111.5,-361"/>
<text text-anchor="middle" x="68" y="-339.3" font-family="Times,serif" font-size="14.00" fill="#7f7f7f">Salvaging</text>
</a>
</g>
</g>
<!-- salvaging&#45;&gt;salvage_drones -->
<g id="edge10" class="edge">
<title>salvaging&#45;&gt;salvage_drones</title>
<path fill="none" stroke="#7f7f7f" d="M111.78,-329.25C133.22,-322.37 159.65,-313.87 183.62,-306.17"/>
<polygon fill="#7f7f7f" stroke="#7f7f7f" points="184.91,-309.43 193.36,-303.04 182.77,-302.77 184.91,-309.43"/>
<text text-anchor="middle" x="159" y="-317.8" font-family="Times,serif" font-size="14.00">3</text>
</g>
</g>
</svg>
