<?xml version="1.0" encoding="UTF-8" standalone="no"?>
<!DOCTYPE svg PUBLIC "-//W3C//DTD SVG 1.1//EN"
 "http://www.w3.org/Graphics/SVG/1.1/DTD/svg11.dtd">
<!-- Generated by graphviz version 2.43.0 (0)
 -->
<!-- Title: Drones Pages: 1 -->
<svg width="516pt" height="369pt"
 viewBox="0.00 0.00 516.00 369.00" xmlns="http://www.w3.org/2000/svg" xmlns:xlink="http://www.w3.org/1999/xlink">
<g id="graph0" class="graph" transform="scale(1 1) rotate(0) translate(4 365)">
<title>Drones</title>
<polygon fill="white" stroke="transparent" points="-4,4 -4,-365 512,-365 512,4 -4,4"/>
<!-- drone_durability -->
<g id="node1" class="node">
<title>drone_durability</title>
<polygon fill="none" stroke="black" points="319,-90 182,-90 182,-54 319,-54 319,-90"/>
<text text-anchor="middle" x="250.5" y="-68.3" font-family="Times,serif" font-size="14.00">Drone Durability</text>
</g>
<!-- salvage_drones -->
<g id="node2" class="node">
<title>salvage_drones</title>
<polygon fill="none" stroke="black" points="314.5,-303 186.5,-303 186.5,-267 314.5,-267 314.5,-303"/>
<text text-anchor="middle" x="250.5" y="-281.3" font-family="Times,serif" font-size="14.00">Salvage Drones</text>
</g>
<!-- drone_interfacing -->
<g id="node3" class="node">
<title>drone_interfacing</title>
<polygon fill="none" stroke="black" points="508,-144 365,-144 365,-108 508,-108 508,-144"/>
<text text-anchor="middle" x="436.5" y="-122.3" font-family="Times,serif" font-size="14.00">Drone Interfacing</text>
</g>
<!-- drone_control -->
<g id="node4" class="node">
<title>drone_control</title>
<polygon fill="none" stroke="black" points="309.5,-144 191.5,-144 191.5,-108 309.5,-108 309.5,-144"/>
<text text-anchor="middle" x="250.5" y="-122.3" font-family="Times,serif" font-size="14.00">Drone Control</text>
</g>
<!-- drone_control&#45;&gt;drone_interfacing -->
<g id="edge8" class="edge">
<title>drone_control&#45;&gt;drone_interfacing</title>
<path fill="none" stroke="black" d="M309.72,-126C323.92,-126 339.37,-126 354.42,-126"/>
<polygon fill="black" stroke="black" points="354.76,-129.5 364.76,-126 354.76,-122.5 354.76,-129.5"/>
<text text-anchor="middle" x="342" y="-129.8" font-family="Times,serif" font-size="14.00">7</text>
</g>
<!-- drone_operation -->
<g id="node5" class="node">
<title>drone_operation</title>
<polygon fill="none" stroke="black" points="136,-183 0,-183 0,-147 136,-147 136,-183"/>
<text text-anchor="middle" x="68" y="-161.3" font-family="Times,serif" font-size="14.00">Drone Operation</text>
</g>
<!-- drone_operation&#45;&gt;drone_durability -->
<g id="edge3" class="edge">
<title>drone_operation&#45;&gt;drone_durability</title>
<path fill="none" stroke="black" d="M99.88,-146.97C133.33,-127.42 182,-99 182,-99 182,-99 187.21,-96.91 194.75,-93.9"/>
<polygon fill="black" stroke="black" points="196.49,-96.97 204.48,-90.01 193.89,-90.47 196.49,-96.97"/>
<text text-anchor="middle" x="159" y="-118.8" font-family="Times,serif" font-size="14.00">3</text>
</g>
<!-- drone_operation&#45;&gt;salvage_drones -->
<g id="edge4" class="edge">
<title>drone_operation&#45;&gt;salvage_drones</title>
<path fill="none" stroke="black" d="M91.06,-183.15C123.94,-210.22 182,-258 182,-258 182,-258 187.21,-260.09 194.75,-263.1"/>
<polygon fill="black" stroke="black" points="193.89,-266.53 204.48,-266.99 196.49,-260.03 193.89,-266.53"/>
<text text-anchor="middle" x="159" y="-245.8" font-family="Times,serif" font-size="14.00">3</text>
</g>
<!-- drone_operation&#45;&gt;drone_control -->
<g id="edge10" class="edge">
<title>drone_operation&#45;&gt;drone_control</title>
<path fill="none" stroke="black" d="M136.21,-150.48C150.95,-147.29 166.57,-143.92 181.35,-140.73"/>
<polygon fill="black" stroke="black" points="182.39,-144.08 191.42,-138.55 180.91,-137.24 182.39,-144.08"/>
<text text-anchor="middle" x="159" y="-148.8" font-family="Times,serif" font-size="14.00">5</text>
</g>
<!-- repair_drones -->
<g id="node6" class="node">
<title>repair_drones</title>
<polygon fill="none" stroke="black" points="496,-277 377,-277 377,-241 496,-241 496,-277"/>
<text text-anchor="middle" x="436.5" y="-255.3" font-family="Times,serif" font-size="14.00">Repair Drones</text>
</g>
<!-- drone_operation&#45;&gt;repair_drones -->
<g id="edge2" class="edge">
<title>drone_operation&#45;&gt;repair_drones</title>
<path fill="none" stroke="black" d="M136.32,-171.46C210.37,-178.57 319,-189 319,-189 319,-189 362.8,-215.32 396.69,-235.68"/>
<polygon fill="black" stroke="black" points="395.12,-238.82 405.5,-240.97 398.73,-232.82 395.12,-238.82"/>
<text text-anchor="middle" x="250.5" y="-192.8" font-family="Times,serif" font-size="14.00">3</text>
</g>
<!-- mining_drones -->
<g id="node8" class="node">
<title>mining_drones</title>
<polygon fill="none" stroke="black" points="311.5,-249 189.5,-249 189.5,-213 311.5,-213 311.5,-249"/>
<text text-anchor="middle" x="250.5" y="-227.3" font-family="Times,serif" font-size="14.00">Mining Drones</text>
</g>
<!-- drone_operation&#45;&gt;mining_drones -->
<g id="edge6" class="edge">
<title>drone_operation&#45;&gt;mining_drones</title>
<path fill="none" stroke="black" d="M118.32,-183.03C140.71,-191.22 167.35,-200.96 190.76,-209.52"/>
<polygon fill="black" stroke="black" points="189.64,-212.84 200.24,-212.99 192.05,-206.27 189.64,-212.84"/>
<text text-anchor="middle" x="159" y="-201.8" font-family="Times,serif" font-size="14.00">3</text>
</g>
<!-- combat_drones -->
<g id="node10" class="node">
<title>combat_drones</title>
<polygon fill="none" stroke="black" points="314.5,-36 186.5,-36 186.5,0 314.5,0 314.5,-36"/>
<text text-anchor="middle" x="250.5" y="-14.3" font-family="Times,serif" font-size="14.00">Combat Drones</text>
</g>
<!-- drone_operation&#45;&gt;combat_drones -->
<g id="edge9" class="edge">
<title>drone_operation&#45;&gt;combat_drones</title>
<path fill="none" stroke="black" d="M86.16,-146.77C117.77,-113.2 182,-45 182,-45 182,-45 187.21,-42.91 194.75,-39.9"/>
<polygon fill="black" stroke="black" points="196.49,-42.97 204.48,-36.01 193.89,-36.47 196.49,-42.97"/>
<text text-anchor="middle" x="159" y="-77.8" font-family="Times,serif" font-size="14.00">5</text>
</g>
<!-- salvaging -->
<g id="node7" class="node">
<title>salvaging</title>
<polygon fill="none" stroke="black" points="111.5,-361 24.5,-361 24.5,-325 111.5,-325 111.5,-361"/>
<text text-anchor="middle" x="68" y="-339.3" font-family="Times,serif" font-size="14.00">Salvaging</text>
</g>
<!-- salvaging&#45;&gt;salvage_drones -->
<g id="edge5" class="edge">
<title>salvaging&#45;&gt;salvage_drones</title>
<path fill="none" stroke="#7f7f7f" d="M111.78,-329.25C133.22,-322.37 159.65,-313.87 183.62,-306.17"/>
<polygon fill="#7f7f7f" stroke="#7f7f7f" points="184.91,-309.43 193.36,-303.04 182.77,-302.77 184.91,-309.43"/>
<text text-anchor="middle" x="159" y="-317.8" font-family="Times,serif" font-size="14.00">3</text>
</g>
<!-- mining_basic -->
<g id="node9" class="node">
<title>mining_basic</title>
<polygon fill="none" stroke="black" points="101.5,-307 34.5,-307 34.5,-271 101.5,-271 101.5,-307"/>
<text text-anchor="middle" x="68" y="-285.3" font-family="Times,serif" font-size="14.00">Mining</text>
</g>
<!-- mining_basic&#45;&gt;mining_drones -->
<g id="edge7" class="edge">
<title>mining_basic&#45;&gt;mining_drones</title>
<path fill="none" stroke="#7f7f7f" d="M101.69,-281.43C129.17,-275.07 164,-267 164,-267 164,-267 182,-258 182,-258 182,-258 187.21,-255.91 194.75,-252.9"/>
<polygon fill="#7f7f7f" stroke="#7f7f7f" points="196.49,-255.97 204.48,-249.01 193.89,-249.47 196.49,-255.97"/>
<text text-anchor="middle" x="159" y="-272.8" font-family="Times,serif" font-size="14.00">3</text>
</g>
<!-- repair_systems -->
<g id="node11" class="node">
<title>repair_systems</title>
<polygon fill="none" stroke="black" points="315,-357 186,-357 186,-321 315,-321 315,-357"/>
<text text-anchor="middle" x="250.5" y="-335.3" font-family="Times,serif" font-size="14.00">Repair Systems</text>
</g>
<!-- repair_systems&#45;&gt;repair_drones -->
<g id="edge1" class="edge">
<title>repair_systems&#45;&gt;repair_drones</title>
<path fill="none" stroke="#7f7f7f" d="M296.52,-320.99C308.91,-316.04 319,-312 319,-312 319,-312 354.61,-295.8 386.45,-281.31"/>
<polygon fill="#7f7f7f" stroke="#7f7f7f" points="388.08,-284.42 395.73,-277.09 385.18,-278.05 388.08,-284.42"/>
<text text-anchor="middle" x="342" y="-306.8" font-family="Times,serif" font-size="14.00">3</text>
</g>
</g>
</svg>
