<?xml version="1.0" encoding="UTF-8" standalone="no"?>
<!DOCTYPE svg PUBLIC "-//W3C//DTD SVG 1.1//EN"
 "http://www.w3.org/Graphics/SVG/1.1/DTD/svg11.dtd">
<!-- Generated by graphviz version 2.43.0 (0)
 -->
<!-- Title: Empire Pages: 1 -->
<svg width="819pt" height="688pt"
 viewBox="0.00 0.00 819.00 688.00" xmlns="http://www.w3.org/2000/svg" xmlns:xlink="http://www.w3.org/1999/xlink">
<g id="graph0" class="graph" transform="scale(1 1) rotate(0) translate(4 684)">
<title>Empire</title>
<polygon fill="white" stroke="transparent" points="-4,4 -4,-684 815,-684 815,4 -4,4"/>
<!-- advanced_salvaging -->
<g id="node1" class="node">
<title>advanced_salvaging</title>
<g id="a_node1"><a xlink:href="advanced_salvaging.html" xlink:title="Advanced Salvaging">
<polygon fill="none" stroke="#7f7f7f" stroke-dasharray="5,2" points="358,-143 197,-143 197,-107 358,-107 358,-143"/>
<text text-anchor="middle" x="277.5" y="-121.3" font-family="Times,serif" font-size="14.00" fill="#7f7f7f">Advanced Salvaging</text>
</a>
</g>
</g>
<!-- outer_rim_scavenger -->
<g id="node14" class="node">
<title>outer_rim_scavenger</title>
<g id="a_node14"><a xlink:href="outer_rim_scavenger.html" xlink:title="Outer Rim Scavenger">
<polygon fill="none" stroke="black" points="811,-128 641,-128 641,-92 811,-92 811,-128"/>
<text text-anchor="middle" x="726" y="-106.3" font-family="Times,serif" font-size="14.00">Outer Rim Scavenger</text>
</a>
</g>
</g>
<!-- advanced_salvaging&#45;&gt;outer_rim_scavenger -->
<g id="edge9" class="edge">
<title>advanced_salvaging&#45;&gt;outer_rim_scavenger</title>
<path fill="none" stroke="#7f7f7f" d="M358.07,-122.33C434.41,-119.76 549.71,-115.89 630.65,-113.17"/>
<polygon fill="#7f7f7f" stroke="#7f7f7f" points="630.96,-116.66 640.84,-112.83 630.73,-109.67 630.96,-116.66"/>
<text text-anchor="middle" x="499.5" y="-124.8" font-family="Times,serif" font-size="14.00">3</text>
</g>
<!-- armor_hardening -->
<g id="node2" class="node">
<title>armor_hardening</title>
<g id="a_node2"><a xlink:href="armor_hardening.html" xlink:title="Armor Hardening">
<polygon fill="none" stroke="#7f7f7f" stroke-dasharray="5,2" points="146.5,-251 4.5,-251 4.5,-215 146.5,-215 146.5,-251"/>
<text text-anchor="middle" x="75.5" y="-229.3" font-family="Times,serif" font-size="14.00" fill="#7f7f7f">Armor Hardening</text>
</a>
</g>
</g>
<!-- crimson_fury -->
<g id="node6" class="node">
<title>crimson_fury</title>
<g id="a_node6"><a xlink:href="crimson_fury.html" xlink:title="Crimson Fury">
<polygon fill="none" stroke="black" points="335,-251 220,-251 220,-215 335,-215 335,-251"/>
<text text-anchor="middle" x="277.5" y="-229.3" font-family="Times,serif" font-size="14.00">Crimson Fury</text>
</a>
</g>
</g>
<!-- armor_hardening&#45;&gt;crimson_fury -->
<g id="edge3" class="edge">
<title>armor_hardening&#45;&gt;crimson_fury</title>
<path fill="none" stroke="#7f7f7f" d="M146.73,-233C167.24,-233 189.59,-233 209.87,-233"/>
<polygon fill="#7f7f7f" stroke="#7f7f7f" points="209.95,-236.5 219.95,-233 209.95,-229.5 209.95,-236.5"/>
<text text-anchor="middle" x="174" y="-236.8" font-family="Times,serif" font-size="14.00">3</text>
</g>
<!-- basic_weapons -->
<g id="node3" class="node">
<title>basic_weapons</title>
<g id="a_node3"><a xlink:href="basic_weapons.html" xlink:title="Basic Weapons">
<polygon fill="none" stroke="#7f7f7f" stroke-dasharray="5,2" points="137,-305 14,-305 14,-269 137,-269 137,-305"/>
<text text-anchor="middle" x="75.5" y="-283.3" font-family="Times,serif" font-size="14.00" fill="#7f7f7f">Basic Weapons</text>
</a>
</g>
</g>
<!-- basic_weapons&#45;&gt;crimson_fury -->
<g id="edge4" class="edge">
<title>basic_weapons&#45;&gt;crimson_fury</title>
<path fill="none" stroke="#7f7f7f" d="M137.05,-270.65C160.09,-264.43 186.45,-257.31 210.01,-250.95"/>
<polygon fill="#7f7f7f" stroke="#7f7f7f" points="211.17,-254.26 219.92,-248.28 209.35,-247.51 211.17,-254.26"/>
<text text-anchor="middle" x="174" y="-265.8" font-family="Times,serif" font-size="14.00">5</text>
</g>
<!-- cloaking -->
<g id="node4" class="node">
<title>cloaking</title>
<g id="a_node4"><a xlink:href="cloaking.html" xlink:title="Cloaking">
<polygon fill="none" stroke="#7f7f7f" stroke-dasharray="5,2" points="317,-359 238,-359 238,-323 317,-323 317,-359"/>
<text text-anchor="middle" x="277.5" y="-337.3" font-family="Times,serif" font-size="14.00" fill="#7f7f7f">Cloaking</text>
</a>
</g>
</g>
<!-- voidborn_phase_mastery -->
<g id="node24" class="node">
<title>voidborn_phase_mastery</title>
<g id="a_node24"><a xlink:href="voidborn_phase_mastery.html" xlink:title="Voidborn Phase Mastery">
<polygon fill="none" stroke="black" points="595,-357 404,-357 404,-321 595,-321 595,-357"/>
<text text-anchor="middle" x="499.5" y="-335.3" font-family="Times,serif" font-size="14.00">Voidborn Phase Mastery</text>
</a>
</g>
</g>
<!-- cloaking&#45;&gt;voidborn_phase_mastery -->
<g id="edge19" class="edge">
<title>cloaking&#45;&gt;voidborn_phase_mastery</title>
<path fill="none" stroke="#7f7f7f" d="M317.07,-340.65C338.47,-340.45 366.23,-340.2 393.57,-339.95"/>
<polygon fill="#7f7f7f" stroke="#7f7f7f" points="393.64,-343.45 403.61,-339.86 393.58,-336.45 393.64,-343.45"/>
<text text-anchor="middle" x="381" y="-344.8" font-family="Times,serif" font-size="14.00">5</text>
</g>
<!-- crimson_bloodlust -->
<g id="node5" class="node">
<title>crimson_bloodlust</title>
<g id="a_node5"><a xlink:href="crimson_bloodlust.html" xlink:title="Crimson Bloodlust">
<polygon fill="none" stroke="black" points="574,-219 425,-219 425,-183 574,-183 574,-219"/>
<text text-anchor="middle" x="499.5" y="-197.3" font-family="Times,serif" font-size="14.00">Crimson Bloodlust</text>
</a>
</g>
</g>
<!-- crimson_fury&#45;&gt;crimson_bloodlust -->
<g id="edge1" class="edge">
<title>crimson_fury&#45;&gt;crimson_bloodlust</title>
<path fill="none" stroke="black" d="M335.16,-224.76C359.31,-221.25 388,-217.07 414.54,-213.21"/>
<polygon fill="black" stroke="black" points="415.21,-216.65 424.6,-211.75 414.2,-209.73 415.21,-216.65"/>
<text text-anchor="middle" x="381" y="-221.8" font-family="Times,serif" font-size="14.00">5</text>
</g>
<!-- energy_weapons -->
<g id="node7" class="node">
<title>energy_weapons</title>
<g id="a_node7"><a xlink:href="energy_weapons.html" xlink:title="Energy Weapons">
<polygon fill="none" stroke="#7f7f7f" stroke-dasharray="5,2" points="346,-305 209,-305 209,-269 346,-269 346,-305"/>
<text text-anchor="middle" x="277.5" y="-283.3" font-family="Times,serif" font-size="14.00" fill="#7f7f7f">Energy Weapons</text>
</a>
</g>
</g>
<!-- voidborn_entropy -->
<g id="node23" class="node">
<title>voidborn_entropy</title>
<g id="a_node23"><a xlink:href="voidborn_entropy.html" xlink:title="Voidborn Entropy">
<polygon fill="none" stroke="black" points="797.5,-327 654.5,-327 654.5,-291 797.5,-291 797.5,-327"/>
<text text-anchor="middle" x="726" y="-305.3" font-family="Times,serif" font-size="14.00">Voidborn Entropy</text>
</a>
</g>
</g>
<!-- energy_weapons&#45;&gt;voidborn_entropy -->
<g id="edge17" class="edge">
<title>energy_weapons&#45;&gt;voidborn_entropy</title>
<path fill="none" stroke="#7f7f7f" d="M346.01,-289.13C438.96,-292.07 595,-297 595,-297 595,-297 617.65,-299.09 644.04,-301.53"/>
<polygon fill="#7f7f7f" stroke="#7f7f7f" points="644.01,-305.04 654.29,-302.47 644.66,-298.07 644.01,-305.04"/>
<text text-anchor="middle" x="499.5" y="-300.8" font-family="Times,serif" font-size="14.00">5</text>
</g>
<!-- fleet_coordination -->
<g id="node8" class="node">
<title>fleet_coordination</title>
<g id="a_node8"><a xlink:href="fleet_coordination.html" xlink:title="Fleet Coordination">
<polygon fill="none" stroke="#7f7f7f" stroke-dasharray="5,2" points="352.5,-518 202.5,-518 202.5,-482 352.5,-482 352.5,-518"/>
<text text-anchor="middle" x="277.5" y="-496.3" font-family="Times,serif" font-size="14.00" fill="#7f7f7f">Fleet Coordination</text>
</a>
</g>
</g>
<!-- nebula_communion -->
<g id="node13" class="node">
<title>nebula_communion</title>
<g id="a_node13"><a xlink:href="nebula_communion.html" xlink:title="Nebula Communion">
<polygon fill="none" stroke="black" points="805,-503 647,-503 647,-467 805,-467 805,-503"/>
<text text-anchor="middle" x="726" y="-481.3" font-family="Times,serif" font-size="14.00">Nebula Communion</text>
</a>
</g>
</g>
<!-- fleet_coordination&#45;&gt;nebula_communion -->
<g id="edge7" class="edge">
<title>fleet_coordination&#45;&gt;nebula_communion</title>
<path fill="none" stroke="#7f7f7f" d="M352.73,-497.51C430.81,-494.88 553.65,-490.76 636.66,-487.97"/>
<polygon fill="#7f7f7f" stroke="#7f7f7f" points="636.96,-491.46 646.83,-487.63 636.72,-484.46 636.96,-491.46"/>
<text text-anchor="middle" x="499.5" y="-498.8" font-family="Times,serif" font-size="14.00">3</text>
</g>
<!-- fuel_efficiency -->
<g id="node9" class="node">
<title>fuel_efficiency</title>
<g id="a_node9"><a xlink:href="fuel_efficiency.html" xlink:title="Fuel Efficiency">
<polygon fill="none" stroke="#7f7f7f" stroke-dasharray="5,2" points="136.5,-90 14.5,-90 14.5,-54 136.5,-54 136.5,-90"/>
<text text-anchor="middle" x="75.5" y="-68.3" font-family="Times,serif" font-size="14.00" fill="#7f7f7f">Fuel Efficiency</text>
</a>
</g>
</g>
<!-- outer_rim_survival -->
<g id="node15" class="node">
<title>outer_rim_survival</title>
<g id="a_node15"><a xlink:href="outer_rim_survival.html" xlink:title="Outer Rim Survival">
<polygon fill="none" stroke="black" points="577,-89 422,-89 422,-53 577,-53 577,-89"/>
<text text-anchor="middle" x="499.5" y="-67.3" font-family="Times,serif" font-size="14.00">Outer Rim Survival</text>
</a>
</g>
</g>
<!-- fuel_efficiency&#45;&gt;outer_rim_survival -->
<g id="edge11" class="edge">
<title>fuel_efficiency&#45;&gt;outer_rim_survival</title>
<path fill="none" stroke="#7f7f7f" d="M136.51,-71.86C208.49,-71.69 329.69,-71.4 411.82,-71.21"/>
<polygon fill="#7f7f7f" stroke="#7f7f7f" points="411.9,-74.71 421.89,-71.18 411.88,-67.71 411.9,-74.71"/>
<text text-anchor="middle" x="277.5" y="-75.8" font-family="Times,serif" font-size="14.00">3</text>
</g>
<!-- gas_harvesting -->
<g id="node10" class="node">
<title>gas_harvesting</title>
<g id="a_node10"><a xlink:href="gas_harvesting.html" xlink:title="Gas Harvesting">
<polygon fill="none" stroke="#7f7f7f" stroke-dasharray="5,2" points="341.5,-464 213.5,-464 213.5,-428 341.5,-428 341.5,-464"/>
<text text-anchor="middle" x="277.5" y="-442.3" font-family="Times,serif" font-size="14.00" fill="#7f7f7f">Gas Harvesting</text>
</a>
</g>
</g>
<!-- nebula_attunement -->
<g id="node12" class="node">
<title>nebula_attunement</title>
<g id="a_node12"><a xlink:href="nebula_attunement.html" xlink:title="Nebula Attunement">
<polygon fill="none" stroke="black" points="578,-464 421,-464 421,-428 578,-428 578,-464"/>
<text text-anchor="middle" x="499.5" y="-442.3" font-family="Times,serif" font-size="14.00">Nebula Attunement</text>
</a>
</g>
</g>
<!-- gas_harvesting&#45;&gt;nebula_attunement -->
<g id="edge5" class="edge">
<title>gas_harvesting&#45;&gt;nebula_attunement</title>
<path fill="none" stroke="#7f7f7f" d="M341.54,-446C363.11,-446 387.64,-446 410.8,-446"/>
<polygon fill="#7f7f7f" stroke="#7f7f7f" points="410.98,-449.5 420.98,-446 410.98,-442.5 410.98,-449.5"/>
<text text-anchor="middle" x="381" y="-449.8" font-family="Times,serif" font-size="14.00">5</text>
</g>
<!-- leadership -->
<g id="node11" class="node">
<title>leadership</title>
<g id="a_node11"><a xlink:href="leadership.html" xlink:title="Leadership">
<polygon fill="none" stroke="#7f7f7f" stroke-dasharray="5,2" points="123.5,-626 27.5,-626 27.5,-590 123.5,-590 123.5,-626"/>
<text text-anchor="middle" x="75.5" y="-604.3" font-family="Times,serif" font-size="14.00" fill="#7f7f7f">Leadership</text>
</a>
</g>
</g>
<!-- solarian_discipline -->
<g id="node20" class="node">
<title>solarian_discipline</title>
<g id="a_node20"><a xlink:href="solarian_discipline.html" xlink:title="Solarian Discipline">
<polygon fill="none" stroke="black" points="353,-626 202,-626 202,-590 353,-590 353,-626"/>
<text text-anchor="middle" x="277.5" y="-604.3" font-family="Times,serif" font-size="14.00">Solarian Discipline</text>
</a>
</g>
</g>
<!-- leadership&#45;&gt;solarian_discipline -->
<g id="edge13" class="edge">
<title>leadership&#45;&gt;solarian_discipline</title>
<path fill="none" stroke="#7f7f7f" d="M123.64,-608C143.96,-608 168.37,-608 191.66,-608"/>
<polygon fill="#7f7f7f" stroke="#7f7f7f" points="191.9,-611.5 201.9,-608 191.9,-604.5 191.9,-611.5"/>
<text text-anchor="middle" x="174" y="-611.8" font-family="Times,serif" font-size="14.00">3</text>
</g>
<!-- nebula_attunement&#45;&gt;nebula_communion -->
<g id="edge8" class="edge">
<title>nebula_attunement&#45;&gt;nebula_communion</title>
<path fill="none" stroke="black" d="M578.07,-459.48C596.96,-462.76 617.3,-466.29 636.65,-469.65"/>
<polygon fill="black" stroke="black" points="636.21,-473.13 646.66,-471.39 637.41,-466.23 636.21,-473.13"/>
<text text-anchor="middle" x="618" y="-469.8" font-family="Times,serif" font-size="14.00">5</text>
</g>
<!-- outer_rim_survival&#45;&gt;outer_rim_scavenger -->
<g id="edge10" class="edge">
<title>outer_rim_survival&#45;&gt;outer_rim_scavenger</title>
<path fill="none" stroke="black" d="M577.13,-84.31C594.39,-87.31 612.9,-90.53 630.78,-93.63"/>
<polygon fill="black" stroke="black" points="630.18,-97.08 640.63,-95.34 631.38,-90.18 630.18,-97.08"/>
<text text-anchor="middle" x="618" y="-95.8" font-family="Times,serif" font-size="14.00">5</text>
</g>
<!-- piracy -->
<g id="node16" class="node">
<title>piracy</title>
<g id="a_node16"><a xlink:href="piracy.html" xlink:title="Piracy">
<polygon fill="none" stroke="#7f7f7f" stroke-dasharray="5,2" points="106.5,-197 44.5,-197 44.5,-161 106.5,-161 106.5,-197"/>
<text text-anchor="middle" x="75.5" y="-175.3" font-family="Times,serif" font-size="14.00" fill="#7f7f7f">Piracy</text>
</a>
</g>
</g>
<!-- piracy&#45;&gt;crimson_bloodlust -->
<g id="edge2" class="edge">
<title>piracy&#45;&gt;crimson_bloodlust</title>
<path fill="none" stroke="#7f7f7f" d="M106.63,-180.28C179.24,-183.38 358,-191 358,-191 358,-191 384.61,-192.89 414.67,-195.03"/>
<polygon fill="#7f7f7f" stroke="#7f7f7f" points="414.73,-198.55 424.96,-195.77 415.23,-191.56 414.73,-198.55"/>
<text text-anchor="middle" x="277.5" y="-194.8" font-family="Times,serif" font-size="14.00">3</text>
</g>
<!-- repair_systems -->
<g id="node17" class="node">
<title>repair_systems</title>
<g id="a_node17"><a xlink:href="repair_systems.html" xlink:title="Repair Systems">
<polygon fill="none" stroke="#7f7f7f" stroke-dasharray="5,2" points="342,-36 213,-36 213,0 342,0 342,-36"/>
<text text-anchor="middle" x="277.5" y="-14.3" font-family="Times,serif" font-size="14.00" fill="#7f7f7f">Repair Systems</text>
</a>
</g>
</g>
<!-- repair_systems&#45;&gt;outer_rim_survival -->
<g id="edge12" class="edge">
<title>repair_systems&#45;&gt;outer_rim_survival</title>
<path fill="none" stroke="#7f7f7f" d="M342.28,-32.83C365.42,-38.21 386,-43 386,-43 386,-43 398.97,-46.23 416.09,-50.49"/>
<polygon fill="#7f7f7f" stroke="#7f7f7f" points="415.43,-53.93 425.98,-52.95 417.12,-47.14 415.43,-53.93"/>
<text text-anchor="middle" x="381" y="-46.8" font-family="Times,serif" font-size="14.00">5</text>
</g>
<!-- scanning -->
<g id="node18" class="node">
<title>scanning</title>
<g id="a_node18"><a xlink:href="scanning.html" xlink:title="Scanning">
<polygon fill="none" stroke="#7f7f7f" stroke-dasharray="5,2" points="117,-413 34,-413 34,-377 117,-377 117,-413"/>
<text text-anchor="middle" x="75.5" y="-391.3" font-family="Times,serif" font-size="14.00" fill="#7f7f7f">Scanning</text>
</a>
</g>
</g>
<!-- scanning&#45;&gt;nebula_attunement -->
<g id="edge6" class="edge">
<title>scanning&#45;&gt;nebula_attunement</title>
<path fill="none" stroke="#7f7f7f" d="M117.13,-396.3C195.09,-398.79 358,-404 358,-404 358,-404 393.11,-414.49 428.22,-424.99"/>
<polygon fill="#7f7f7f" stroke="#7f7f7f" points="427.52,-428.43 438.1,-427.94 429.52,-421.73 427.52,-428.43"/>
<text text-anchor="middle" x="277.5" y="-407.8" font-family="Times,serif" font-size="14.00">3</text>
</g>
<!-- shield_operation -->
<g id="node19" class="node">
<title>shield_operation</title>
<g id="a_node19"><a xlink:href="shield_operation.html" xlink:title="Shield Operation">
<polygon fill="none" stroke="#7f7f7f" stroke-dasharray="5,2" points="144,-572 7,-572 7,-536 144,-536 144,-572"/>
<text text-anchor="middle" x="75.5" y="-550.3" font-family="Times,serif" font-size="14.00" fill="#7f7f7f">Shield Operation</text>
</a>
</g>
</g>
<!-- solarian_doctrine -->
<g id="node21" class="node">
<title>solarian_doctrine</title>
<g id="a_node21"><a xlink:href="solarian_doctrine.html" xlink:title="Solarian Doctrine">
<polygon fill="none" stroke="black" points="570.5,-594 428.5,-594 428.5,-558 570.5,-558 570.5,-594"/>
<text text-anchor="middle" x="499.5" y="-572.3" font-family="Times,serif" font-size="14.00">Solarian Doctrine</text>
</a>
</g>
</g>
<!-- shield_operation&#45;&gt;solarian_doctrine -->
<g id="edge15" class="edge">
<title>shield_operation&#45;&gt;solarian_doctrine</title>
<path fill="none" stroke="#7f7f7f" d="M144.28,-556.89C227.58,-560.44 358,-566 358,-566 358,-566 386.6,-568.04 417.99,-570.27"/>
<polygon fill="#7f7f7f" stroke="#7f7f7f" points="418.03,-573.78 428.25,-571 418.52,-566.8 418.03,-573.78"/>
<text text-anchor="middle" x="277.5" y="-569.8" font-family="Times,serif" font-size="14.00">5</text>
</g>
<!-- solarian_discipline&#45;&gt;solarian_doctrine -->
<g id="edge16" class="edge">
<title>solarian_discipline&#45;&gt;solarian_doctrine</title>
<path fill="none" stroke="black" d="M353.29,-597.12C374.26,-594.07 397.14,-590.74 418.4,-587.65"/>
<polygon fill="black" stroke="black" points="418.98,-591.1 428.37,-586.2 417.97,-584.18 418.98,-591.1"/>
<text text-anchor="middle" x="381" y="-595.8" font-family="Times,serif" font-size="14.00">5</text>
</g>
<!-- targeting_systems -->
<g id="node22" class="node">
<title>targeting_systems</title>
<g id="a_node22"><a xlink:href="targeting_systems.html" xlink:title="Targeting Systems">
<polygon fill="none" stroke="#7f7f7f" stroke-dasharray="5,2" points="151,-680 0,-680 0,-644 151,-644 151,-680"/>
<text text-anchor="middle" x="75.5" y="-658.3" font-family="Times,serif" font-size="14.00" fill="#7f7f7f">Targeting Systems</text>
</a>
</g>
</g>
<!-- targeting_systems&#45;&gt;solarian_discipline -->
<g id="edge14" class="edge">
<title>targeting_systems&#45;&gt;solarian_discipline</title>
<path fill="none" stroke="#7f7f7f" d="M143.38,-643.94C161.47,-639.06 181.2,-633.73 199.79,-628.71"/>
<polygon fill="#7f7f7f" stroke="#7f7f7f" points="200.95,-632.03 209.69,-626.04 199.12,-625.27 200.95,-632.03"/>
<text text-anchor="middle" x="174" y="-639.8" font-family="Times,serif" font-size="14.00">5</text>
</g>
<!-- voidborn_phase_mastery&#45;&gt;voidborn_entropy -->
<g id="edge18" class="edge">
<title>voidborn_phase_mastery&#45;&gt;voidborn_entropy</title>
<path fill="none" stroke="black" d="M595.06,-326.36C611.38,-324.18 628.2,-321.93 644.12,-319.81"/>
<polygon fill="black" stroke="black" points="644.98,-323.22 654.43,-318.43 644.06,-316.29 644.98,-323.22"/>
<text text-anchor="middle" x="618" y="-327.8" font-family="Times,serif" font-size="14.00">5</text>
</g>
</g>
</svg>
