<?xml version="1.0" encoding="UTF-8" standalone="no"?>
<!DOCTYPE svg PUBLIC "-//W3C//DTD SVG 1.1//EN"
 "http://www.w3.org/Graphics/SVG/1.1/DTD/svg11.dtd">
<!-- Generated by graphviz version 2.43.0 (0)
 -->
<!-- Title: Engineering Pages: 1 -->
<svg width="500pt" height="260pt"
 viewBox="0.00 0.00 500.00 260.00" xmlns="http://www.w3.org/2000/svg" xmlns:xlink="http://www.w3.org/1999/xlink">
<g id="graph0" class="graph" transform="scale(1 1) rotate(0) translate(4 256)">
<title>Engineering</title>
<polygon fill="white" stroke="transparent" points="-4,4 -4,-256 496,-256 496,4 -4,4"/>
<!-- advanced_engineering -->
<g id="node1" class="node">
<title>advanced_engineering</title>
<g id="a_node1"><a xlink:href="advanced_engineering.html" xlink:title="Advanced Engineering">
<polygon fill="none" stroke="black" points="365.5,-198 187.5,-198 187.5,-162 365.5,-162 365.5,-198"/>
<text text-anchor="middle" x="276.5" y="-176.3" font-family="Times,serif" font-size="14.00">Advanced Engineering</text>
</a>
</g>
</g>
<!-- rigging -->
<g id="node8" class="node">
<title>rigging</title>
<g id="a_node8"><a xlink:href="rigging.html" xlink:title="Rigging">
<polygon fill="none" stroke="black" points="492,-198 420,-198 420,-162 492,-162 492,-198"/>
<text text-anchor="middle" x="456" y="-176.3" font-family="Times,serif" font-size="14.00">Rigging</text>
</a>
</g>
</g>
<!-- advanced_engineering&#45;&gt;rigging -->
<g id="edge6" class="edge">
<title>advanced_engineering&#45;&gt;rigging</title>
<path fill="none" stroke="black" d="M365.73,-180C380.83,-180 395.96,-180 409.35,-180"/>
<polygon fill="black" stroke="black" points="409.69,-183.5 419.69,-180 409.69,-176.5 409.69,-183.5"/>
<text text-anchor="middle" x="397" y="-183.8" font-family="Times,serif" font-size="14.00">3</text>
</g>
<!-- capacitor_systems -->
<g id="node2" class="node">
<title>capacitor_systems</title>
<g id="a_node2"><a xlink:href="capacitor_systems.html" xlink:title="Capacitor Systems">
<polygon fill="none" stroke="black" points="352,-144 201,-144 201,-108 352,-108 352,-144"/>
<text text-anchor="middle" x="276.5" y="-122.3" font-family="Times,serif" font-size="14.00">Capacitor Systems</text>
</a>
</g>
</g>
<!-- cpu_management -->
<g id="node3" class="node">
<title>cpu_management</title>
<g id="a_node3"><a xlink:href="cpu_management.html" xlink:title="CPU Management">
<polygon fill="none" stroke="black" points="349.5,-90 203.5,-90 203.5,-54 349.5,-54 349.5,-90"/>
<text text-anchor="middle" x="276.5" y="-68.3" font-family="Times,serif" font-size="14.00">CPU Management</text>
</a>
</g>
</g>
<!-- damage_control -->
<g id="node4" class="node">
<title>damage_control</title>
<g id="a_node4"><a xlink:href="damage_control.html" xlink:title="Damage Control">
<polygon fill="none" stroke="black" points="133,-252 0,-252 0,-216 133,-216 133,-252"/>
<text text-anchor="middle" x="66.5" y="-230.3" font-family="Times,serif" font-size="14.00">Damage Control</text>
</a>
</g>
</g>
<!-- repair_systems -->
<g id="node7" class="node">
<title>repair_systems</title>
<g id="a_node7"><a xlink:href="repair_systems.html" xlink:title="Repair Systems">
<polygon fill="none" stroke="black" points="341,-252 212,-252 212,-216 341,-216 341,-252"/>
<text text-anchor="middle" x="276.5" y="-230.3" font-family="Times,serif" font-size="14.00">Repair Systems</text>
</a>
</g>
</g>
<!-- damage_control&#45;&gt;repair_systems -->
<g id="edge5" class="edge">
<title>damage_control&#45;&gt;repair_systems</title>
<path fill="none" stroke="black" d="M133.03,-234C154.82,-234 179.23,-234 201.6,-234"/>
<polygon fill="black" stroke="black" points="201.73,-237.5 211.73,-234 201.73,-230.5 201.73,-237.5"/>
<text text-anchor="middle" x="156" y="-237.8" font-family="Times,serif" font-size="14.00">5</text>
</g>
<!-- engineering -->
<g id="node5" class="node">
<title>engineering</title>
<g id="a_node5"><a xlink:href="engineering.html" xlink:title="Engineering">
<polygon fill="none" stroke="black" points="118.5,-117 14.5,-117 14.5,-81 118.5,-81 118.5,-117"/>
<text text-anchor="middle" x="66.5" y="-95.3" font-family="Times,serif" font-size="14.00">Engineering</text>
</a>
</g>
</g>
<!-- engineering&#45;&gt;advanced_engineering -->
<g id="edge1" class="edge">
<title>engineering&#45;&gt;advanced_engineering</title>
<path fill="none" stroke="black" d="M104.94,-117.13C137.33,-132.82 179,-153 179,-153 179,-153 188.34,-155.61 201.22,-159.22"/>
<polygon fill="black" stroke="black" points="200.56,-162.67 211.13,-161.99 202.45,-155.93 200.56,-162.67"/>
<text text-anchor="middle" x="156" y="-147.8" font-family="Times,serif" font-size="14.00">5</text>
</g>
<!-- engineering&#45;&gt;capacitor_systems -->
<g id="edge3" class="edge">
<title>engineering&#45;&gt;capacitor_systems</title>
<path fill="none" stroke="black" d="M118.65,-105.64C140.43,-108.47 166.42,-111.84 190.92,-115.02"/>
<polygon fill="black" stroke="black" points="190.58,-118.51 200.94,-116.32 191.48,-111.56 190.58,-118.51"/>
<text text-anchor="middle" x="156" y="-114.8" font-family="Times,serif" font-size="14.00">3</text>
</g>
<!-- engineering&#45;&gt;cpu_management -->
<g id="edge2" class="edge">
<title>engineering&#45;&gt;cpu_management</title>
<path fill="none" stroke="black" d="M118.65,-92.36C141.16,-89.44 168.17,-85.93 193.39,-82.66"/>
<polygon fill="black" stroke="black" points="193.85,-86.13 203.32,-81.37 192.95,-79.19 193.85,-86.13"/>
<text text-anchor="middle" x="156" y="-91.8" font-family="Times,serif" font-size="14.00">3</text>
</g>
<!-- power_grid_management -->
<g id="node6" class="node">
<title>power_grid_management</title>
<g id="a_node6"><a xlink:href="power_grid_management.html" xlink:title="Power Grid Management">
<polygon fill="none" stroke="black" points="374,-36 179,-36 179,0 374,0 374,-36"/>
<text text-anchor="middle" x="276.5" y="-14.3" font-family="Times,serif" font-size="14.00">Power Grid Management</text>
</a>
</g>
</g>
<!-- engineering&#45;&gt;power_grid_management -->
<g id="edge4" class="edge">
<title>engineering&#45;&gt;power_grid_management</title>
<path fill="none" stroke="black" d="M104.94,-80.87C137.33,-65.18 179,-45 179,-45 179,-45 188.34,-42.39 201.22,-38.78"/>
<polygon fill="black" stroke="black" points="202.45,-42.07 211.13,-36.01 200.56,-35.33 202.45,-42.07"/>
<text text-anchor="middle" x="156" y="-62.8" font-family="Times,serif" font-size="14.00">3</text>
</g>
</g>
</svg>
