<?xml version="1.0" encoding="UTF-8" standalone="no"?>
<!DOCTYPE svg PUBLIC "-//W3C//DTD SVG 1.1//EN"
 "http://www.w3.org/Graphics/SVG/1.1/DTD/svg11.dtd">
<!-- Generated by graphviz version 2.43.0 (0)
 -->
<!-- Title: Engineering Pages: 1 -->
<svg width="500pt" height="260pt"
 viewBox="0.00 0.00 500.00 260.00" xmlns="http://www.w3.org/2000/svg" xmlns:xlink="http://www.w3.org/1999/xlink">
<g id="graph0" class="graph" transform="scale(1 1) rotate(0) translate(4 256)">
<title>Engineering</title>
<polygon fill="white" stroke="transparent" points="-4,4 -4,-256 496,-256 496,4 -4,4"/>
<!-- capacitor_systems -->
<g id="node1" class="node">
<title>capacitor_systems</title>
<polygon fill="none" stroke="black" points="352,-198 201,-198 201,-162 352,-162 352,-198"/>
<text text-anchor="middle" x="276.5" y="-176.3" font-family="Times,serif" font-size="14.00">Capacitor Systems</text>
</g>
<!-- rigging -->
<g id="node2" class="node">
<title>rigging</title>
<polygon fill="none" stroke="black" points="492,-90 420,-90 420,-54 492,-54 492,-90"/>
<text text-anchor="middle" x="456" y="-68.3" font-family="Times,serif" font-size="14.00">Rigging</text>
</g>
<!-- repair_systems -->
<g id="node3" class="node">
<title>repair_systems</title>
<polygon fill="none" stroke="black" points="341,-252 212,-252 212,-216 341,-216 341,-252"/>
<text text-anchor="middle" x="276.5" y="-230.3" font-family="Times,serif" font-size="14.00">Repair Systems</text>
</g>
<!-- damage_control -->
<g id="node4" class="node">
<title>damage_control</title>
<polygon fill="none" stroke="black" points="133,-252 0,-252 0,-216 133,-216 133,-252"/>
<text text-anchor="middle" x="66.5" y="-230.3" font-family="Times,serif" font-size="14.00">Damage Control</text>
</g>
<!-- damage_control&#45;&gt;repair_systems -->
<g id="edge3" class="edge">
<title>damage_control&#45;&gt;repair_systems</title>
<path fill="none" stroke="black" d="M133.03,-234C154.82,-234 179.23,-234 201.6,-234"/>
<polygon fill="black" stroke="black" points="201.73,-237.5 211.73,-234 201.73,-230.5 201.73,-237.5"/>
<text text-anchor="middle" x="156" y="-237.8" font-family="Times,serif" font-size="14.00">5</text>
</g>
<!-- cpu_management -->
<g id="node5" class="node">
<title>cpu_management</title>
<polygon fill="none" stroke="black" points="349.5,-144 203.5,-144 203.5,-108 349.5,-108 349.5,-144"/>
<text text-anchor="middle" x="276.5" y="-122.3" font-family="Times,serif" font-size="14.00">CPU Management</text>
</g>
<!-- engineering -->
<g id="node6" class="node">
<title>engineering</title>
<polygon fill="none" stroke="black" points="118.5,-117 14.5,-117 14.5,-81 118.5,-81 118.5,-117"/>
<text text-anchor="middle" x="66.5" y="-95.3" font-family="Times,serif" font-size="14.00">Engineering</text>
</g>
<!-- engineering&#45;&gt;capacitor_systems -->
<g id="edge6" class="edge">
<title>engineering&#45;&gt;capacitor_systems</title>
<path fill="none" stroke="black" d="M104.94,-117.13C137.33,-132.82 179,-153 179,-153 179,-153 188.34,-155.61 201.22,-159.22"/>
<polygon fill="black" stroke="black" points="200.56,-162.67 211.13,-161.99 202.45,-155.93 200.56,-162.67"/>
<text text-anchor="middle" x="156" y="-147.8" font-family="Times,serif" font-size="14.00">3</text>
</g>
<!-- engineering&#45;&gt;cpu_management -->
<g id="edge4" class="edge">
<title>engineering&#45;&gt;cpu_management</title>
<path fill="none" stroke="black" d="M118.65,-105.64C141.16,-108.56 168.17,-112.07 193.39,-115.34"/>
<polygon fill="black" stroke="black" points="192.95,-118.81 203.32,-116.63 193.85,-111.87 192.95,-118.81"/>
<text text-anchor="middle" x="156" y="-114.8" font-family="Times,serif" font-size="14.00">3</text>
</g>
<!-- advanced_engineering -->
<g id="node7" class="node">
<title>advanced_engineering</title>
<polygon fill="none" stroke="black" points="365.5,-90 187.5,-90 187.5,-54 365.5,-54 365.5,-90"/>
<text text-anchor="middle" x="276.5" y="-68.3" font-family="Times,serif" font-size="14.00">Advanced Engineering</text>
</g>
<!-- engineering&#45;&gt;advanced_engineering -->
<g id="edge5" class="edge">
<title>engineering&#45;&gt;advanced_engineering</title>
<path fill="none" stroke="black" d="M118.65,-92.36C136.43,-90.05 157.02,-87.38 177.31,-84.75"/>
<polygon fill="black" stroke="black" points="177.76,-88.22 187.23,-83.46 176.86,-81.27 177.76,-88.22"/>
<text text-anchor="middle" x="156" y="-91.8" font-family="Times,serif" font-size="14.00">5</text>
</g>
<!-- power_grid -->
<g id="node8" class="node">
<title>power_grid</title>
<polygon fill="none" stroke="black" points="374,-36 179,-36 179,0 374,0 374,-36"/>
<text text-anchor="middle" x="276.5" y="-14.3" font-family="Times,serif" font-size="14.00">Power Grid Management</text>
</g>
<!-- engineering&#45;&gt;power_grid -->
<g id="edge2" class="edge">
<title>engineering&#45;&gt;power_grid</title>
<path fill="none" stroke="black" d="M104.94,-80.87C137.33,-65.18 179,-45 179,-45 179,-45 188.34,-42.39 201.22,-38.78"/>
<polygon fill="black" stroke="black" points="202.45,-42.07 211.13,-36.01 200.56,-35.33 202.45,-42.07"/>
<text text-anchor="middle" x="156" y="-62.8" font-family="Times,serif" font-size="14.00">3</text>
</g>
<!-- advanced_engineering&#45;&gt;rigging -->
<g id="edge1" class="edge">
<title>advanced_engineering&#45;&gt;rigging</title>
<path fill="none" stroke="black" d="M365.73,-72C380.83,-72 395.96,-72 409.35,-72"/>
<polygon fill="black" stroke="black" points="409.69,-75.5 419.69,-72 409.69,-68.5 409.69,-75.5"/>
<text text-anchor="middle" x="397" y="-75.8" font-family="Times,serif" font-size="14.00">3</text>
</g>
</g>
</svg>
