<?xml version="1.0" encoding="UTF-8" standalone="no"?>
<!DOCTYPE svg PUBLIC "-//W3C//DTD SVG 1.1//EN"
 "http://www.w3.org/Graphics/SVG/1.1/DTD/svg11.dtd">
<!-- Generated by graphviz version 2.43.0 (0)
 -->
<!-- Title: Engineering Pages: 1 -->
<svg width="382pt" height="98pt"
 viewBox="0.00 0.00 382.00 98.00" xmlns="http://www.w3.org/2000/svg" xmlns:xlink="http://www.w3.org/1999/xlink">
<g id="graph0" class="graph" transform="scale(1 1) rotate(0) translate(4 94)">
<title>Engineering</title>
<polygon fill="white" stroke="transparent" points="-4,4 -4,-94 378,-94 378,4 -4,4"/>
<!-- damage_control -->
<g id="node1" class="node">
<title>damage_control</title>
<g id="a_node1"><a xlink:href="damage_control.html" xlink:title="Damage Control">
<polygon fill="none" stroke="black" points="133,-36 0,-36 0,0 133,0 133,-36"/>
<text text-anchor="middle" x="66.5" y="-14.3" font-family="Times,serif" font-size="14.00">Damage Control</text>
</a>
</g>
</g>
<!-- repair_systems -->
<g id="node4" class="node">
<title>repair_systems</title>
<g id="a_node4"><a xlink:href="repair_systems.html" xlink:title="Repair Systems">
<polygon fill="none" stroke="black" points="341,-36 212,-36 212,0 341,0 341,-36"/>
<text text-anchor="middle" x="276.5" y="-14.3" font-family="Times,serif" font-size="14.00">Repair Systems</text>
</a>
</g>
</g>
<!-- damage_control&#45;&gt;repair_systems -->
<g id="edge2" class="edge">
<title>damage_control&#45;&gt;repair_systems</title>
<path fill="none" stroke="black" d="M133.03,-18C154.82,-18 179.23,-18 201.6,-18"/>
<polygon fill="black" stroke="black" points="201.73,-21.5 211.73,-18 201.73,-14.5 201.73,-21.5"/>
<text text-anchor="middle" x="156" y="-21.8" font-family="Times,serif" font-size="14.00">5</text>
</g>
<!-- engineering -->
<g id="node2" class="node">
<title>engineering</title>
<g id="a_node2"><a xlink:href="engineering.html" xlink:title="Engineering">
<polygon fill="none" stroke="black" points="118.5,-90 14.5,-90 14.5,-54 118.5,-54 118.5,-90"/>
<text text-anchor="middle" x="66.5" y="-68.3" font-family="Times,serif" font-size="14.00">Engineering</text>
</a>
</g>
</g>
<!-- power_grid_management -->
<g id="node3" class="node">
<title>power_grid_management</title>
<g id="a_node3"><a xlink:href="power_grid_management.html" xlink:title="Power Grid Management">
<polygon fill="none" stroke="black" points="374,-90 179,-90 179,-54 374,-54 374,-90"/>
<text text-anchor="middle" x="276.5" y="-68.3" font-family="Times,serif" font-size="14.00">Power Grid Management</text>
</a>
</g>
</g>
<!-- engineering&#45;&gt;power_grid_management -->
<g id="edge1" class="edge">
<title>engineering&#45;&gt;power_grid_management</title>
<path fill="none" stroke="black" d="M118.65,-72C133.83,-72 151.06,-72 168.41,-72"/>
<polygon fill="black" stroke="black" points="168.62,-75.5 178.62,-72 168.62,-68.5 168.62,-75.5"/>
<text text-anchor="middle" x="156" y="-75.8" font-family="Times,serif" font-size="14.00">3</text>
</g>
</g>
</svg>
