<?xml version="1.0" encoding="UTF-8" standalone="no"?>
<!DOCTYPE svg PUBLIC "-//W3C//DTD SVG 1.1//EN"
 "http://www.w3.org/Graphics/SVG/1.1/DTD/svg11.dtd">
<!-- Generated by graphviz version 2.43.0 (0)
 -->
<!-- Title: Exploration Pages: 1 -->
<svg width="884pt" height="365pt"
 viewBox="0.00 0.00 884.00 365.00" xmlns="http://www.w3.org/2000/svg" xmlns:xlink="http://www.w3.org/1999/xlink">
<g id="graph0" class="graph" transform="scale(1 1) rotate(0) translate(4 361)">
<title>Exploration</title>
<polygon fill="white" stroke="transparent" points="-4,4 -4,-361 880,-361 880,4 -4,4"/>
<!-- advanced_scanning -->
<g id="node1" class="node">
<title>advanced_scanning</title>
<g id="a_node1"><a xlink:href="advanced_scanning.html" xlink:title="Advanced Scanning">
<polygon fill="none" stroke="#7f7f7f" stroke-dasharray="5,2" points="391,-36 235,-36 235,0 391,0 391,-36"/>
<text text-anchor="middle" x="313" y="-14.3" font-family="Times,serif" font-size="14.00" fill="#7f7f7f">Advanced Scanning</text>
</a>
</g>
</g>
<!-- anomaly_detection -->
<g id="node2" class="node">
<title>anomaly_detection</title>
<g id="a_node2"><a xlink:href="anomaly_detection.html" xlink:title="Anomaly Detection">
<polygon fill="none" stroke="black" points="650.5,-116 498.5,-116 498.5,-80 650.5,-80 650.5,-116"/>
<text text-anchor="middle" x="574.5" y="-94.3" font-family="Times,serif" font-size="14.00">Anomaly Detection</text>
</a>
</g>
</g>
<!-- advanced_scanning&#45;&gt;anomaly_detection -->
<g id="edge1" class="edge">
<title>advanced_scanning&#45;&gt;anomaly_detection</title>
<path fill="none" stroke="#7f7f7f" d="M391.27,-34.17C418.75,-39.92 443,-45 443,-45 443,-45 483.57,-61.48 519.47,-76.06"/>
<polygon fill="#7f7f7f" stroke="#7f7f7f" points="518.37,-79.39 528.95,-79.91 521.01,-72.9 518.37,-79.39"/>
<text text-anchor="middle" x="466" y="-58.8" font-family="Times,serif" font-size="14.00">3</text>
</g>
<!-- anomaly_exploitation -->
<g id="node3" class="node">
<title>anomaly_exploitation</title>
<g id="a_node3"><a xlink:href="anomaly_exploitation.html" xlink:title="Anomaly Exploitation">
<polygon fill="none" stroke="black" points="876,-116 706,-116 706,-80 876,-80 876,-116"/>
<text text-anchor="middle" x="791" y="-94.3" font-family="Times,serif" font-size="14.00">Anomaly Exploitation</text>
</a>
</g>
</g>
<!-- anomaly_detection&#45;&gt;anomaly_exploitation -->
<g id="edge3" class="edge">
<title>anomaly_detection&#45;&gt;anomaly_exploitation</title>
<path fill="none" stroke="black" d="M650.52,-98C665.05,-98 680.45,-98 695.5,-98"/>
<polygon fill="black" stroke="black" points="695.86,-101.5 705.86,-98 695.86,-94.5 695.86,-101.5"/>
<text text-anchor="middle" x="683" y="-101.8" font-family="Times,serif" font-size="14.00">5</text>
</g>
<!-- astrometrics -->
<g id="node4" class="node">
<title>astrometrics</title>
<g id="a_node4"><a xlink:href="astrometrics.html" xlink:title="Astrometrics">
<polygon fill="none" stroke="black" points="367.5,-249 258.5,-249 258.5,-213 367.5,-213 367.5,-249"/>
<text text-anchor="middle" x="313" y="-227.3" font-family="Times,serif" font-size="14.00">Astrometrics</text>
</a>
</g>
</g>
<!-- cartography -->
<g id="node5" class="node">
<title>cartography</title>
<g id="a_node5"><a xlink:href="cartography.html" xlink:title="Cartography">
<polygon fill="none" stroke="black" points="628,-249 521,-249 521,-213 628,-213 628,-249"/>
<text text-anchor="middle" x="574.5" y="-227.3" font-family="Times,serif" font-size="14.00">Cartography</text>
</a>
</g>
</g>
<!-- astrometrics&#45;&gt;cartography -->
<g id="edge5" class="edge">
<title>astrometrics&#45;&gt;cartography</title>
<path fill="none" stroke="black" d="M367.77,-231C409.27,-231 466.8,-231 510.47,-231"/>
<polygon fill="black" stroke="black" points="510.69,-234.5 520.69,-231 510.69,-227.5 510.69,-234.5"/>
<text text-anchor="middle" x="466" y="-234.8" font-family="Times,serif" font-size="14.00">3</text>
</g>
<!-- wormhole_navigation -->
<g id="node14" class="node">
<title>wormhole_navigation</title>
<g id="a_node14"><a xlink:href="wormhole_navigation.html" xlink:title="Wormhole Navigation">
<polygon fill="none" stroke="black" points="660,-322 489,-322 489,-286 660,-286 660,-322"/>
<text text-anchor="middle" x="574.5" y="-300.3" font-family="Times,serif" font-size="14.00">Wormhole Navigation</text>
</a>
</g>
</g>
<!-- astrometrics&#45;&gt;wormhole_navigation -->
<g id="edge12" class="edge">
<title>astrometrics&#45;&gt;wormhole_navigation</title>
<path fill="none" stroke="black" d="M367.59,-242.22C403.03,-249.63 443,-258 443,-258 443,-258 478.71,-270.59 512.77,-282.59"/>
<polygon fill="black" stroke="black" points="511.7,-285.93 522.3,-285.95 514.03,-279.33 511.7,-285.93"/>
<text text-anchor="middle" x="466" y="-269.8" font-family="Times,serif" font-size="14.00">5</text>
</g>
<!-- diplomacy -->
<g id="node6" class="node">
<title>diplomacy</title>
<g id="a_node6"><a xlink:href="diplomacy.html" xlink:title="Diplomacy">
<polygon fill="none" stroke="#7f7f7f" stroke-dasharray="5,2" points="114.5,-307 22.5,-307 22.5,-271 114.5,-271 114.5,-307"/>
<text text-anchor="middle" x="68.5" y="-285.3" font-family="Times,serif" font-size="14.00" fill="#7f7f7f">Diplomacy</text>
</a>
</g>
</g>
<!-- first_contact_protocols -->
<g id="node9" class="node">
<title>first_contact_protocols</title>
<g id="a_node9"><a xlink:href="first_contact_protocols.html" xlink:title="First Contact Protocols">
<polygon fill="none" stroke="black" points="404,-303 222,-303 222,-267 404,-267 404,-303"/>
<text text-anchor="middle" x="313" y="-281.3" font-family="Times,serif" font-size="14.00">First Contact Protocols</text>
</a>
</g>
</g>
<!-- diplomacy&#45;&gt;first_contact_protocols -->
<g id="edge8" class="edge">
<title>diplomacy&#45;&gt;first_contact_protocols</title>
<path fill="none" stroke="#7f7f7f" d="M114.54,-288.26C141.85,-287.81 177.83,-287.21 211.59,-286.66"/>
<polygon fill="#7f7f7f" stroke="#7f7f7f" points="212.05,-290.15 221.99,-286.48 211.93,-283.15 212.05,-290.15"/>
<text text-anchor="middle" x="160" y="-290.8" font-family="Times,serif" font-size="14.00">3</text>
</g>
<!-- environmental_hazard_resistance -->
<g id="node7" class="node">
<title>environmental_hazard_resistance</title>
<g id="a_node7"><a xlink:href="environmental_hazard_resistance.html" xlink:title="Environmental Hazard Resistance">
<polygon fill="none" stroke="black" points="443,-144 183,-144 183,-108 443,-108 443,-144"/>
<text text-anchor="middle" x="313" y="-122.3" font-family="Times,serif" font-size="14.00">Environmental Hazard Resistance</text>
</a>
</g>
</g>
<!-- exploration -->
<g id="node8" class="node">
<title>exploration</title>
<g id="a_node8"><a xlink:href="exploration.html" xlink:title="Exploration">
<polygon fill="none" stroke="black" points="118.5,-198 18.5,-198 18.5,-162 118.5,-162 118.5,-198"/>
<text text-anchor="middle" x="68.5" y="-176.3" font-family="Times,serif" font-size="14.00">Exploration</text>
</a>
</g>
</g>
<!-- exploration&#45;&gt;anomaly_detection -->
<g id="edge2" class="edge">
<title>exploration&#45;&gt;anomaly_detection</title>
<path fill="none" stroke="black" d="M118.71,-176.44C220.13,-169.11 443,-153 443,-153 443,-153 484.89,-135.35 521.2,-120.04"/>
<polygon fill="black" stroke="black" points="522.91,-123.12 530.77,-116.01 520.2,-116.67 522.91,-123.12"/>
<text text-anchor="middle" x="313" y="-174.8" font-family="Times,serif" font-size="14.00">5</text>
</g>
<!-- exploration&#45;&gt;astrometrics -->
<g id="edge4" class="edge">
<title>exploration&#45;&gt;astrometrics</title>
<path fill="none" stroke="black" d="M118.57,-190.32C156.03,-198.2 207.95,-209.12 248.56,-217.66"/>
<polygon fill="black" stroke="black" points="247.86,-221.09 258.36,-219.72 249.3,-214.24 247.86,-221.09"/>
<text text-anchor="middle" x="160" y="-202.8" font-family="Times,serif" font-size="14.00">5</text>
</g>
<!-- exploration&#45;&gt;environmental_hazard_resistance -->
<g id="edge6" class="edge">
<title>exploration&#45;&gt;environmental_hazard_resistance</title>
<path fill="none" stroke="black" d="M118.74,-163.3C137.75,-156.85 155,-151 155,-151 155,-151 169.01,-148.77 188.67,-145.64"/>
<polygon fill="black" stroke="black" points="189.41,-149.07 198.73,-144.04 188.31,-142.15 189.41,-149.07"/>
<text text-anchor="middle" x="160" y="-154.8" font-family="Times,serif" font-size="14.00">5</text>
</g>
<!-- exploration&#45;&gt;first_contact_protocols -->
<g id="edge9" class="edge">
<title>exploration&#45;&gt;first_contact_protocols</title>
<path fill="none" stroke="black" d="M95.82,-198.09C129.35,-221.13 183,-258 183,-258 183,-258 197.12,-260.96 216.01,-264.91"/>
<polygon fill="black" stroke="black" points="215.45,-268.37 225.96,-266.99 216.88,-261.52 215.45,-268.37"/>
<text text-anchor="middle" x="160" y="-247.8" font-family="Times,serif" font-size="14.00">5</text>
</g>
<!-- survey -->
<g id="node13" class="node">
<title>survey</title>
<g id="a_node13"><a xlink:href="survey.html" xlink:title="Survey">
<polygon fill="none" stroke="black" points="346.5,-90 279.5,-90 279.5,-54 346.5,-54 346.5,-90"/>
<text text-anchor="middle" x="313" y="-68.3" font-family="Times,serif" font-size="14.00">Survey</text>
</a>
</g>
</g>
<!-- exploration&#45;&gt;survey -->
<g id="edge10" class="edge">
<title>exploration&#45;&gt;survey</title>
<path fill="none" stroke="black" d="M94.97,-161.82C128.44,-137.94 183,-99 183,-99 183,-99 231.65,-88.82 269.2,-80.96"/>
<polygon fill="black" stroke="black" points="270.38,-84.29 279.45,-78.81 268.94,-77.44 270.38,-84.29"/>
<text text-anchor="middle" x="160" y="-121.8" font-family="Times,serif" font-size="14.00">3</text>
</g>
<!-- jump_calibration -->
<g id="node10" class="node">
<title>jump_calibration</title>
<g id="a_node10"><a xlink:href="jump_calibration.html" xlink:title="Jump Calibration">
<polygon fill="none" stroke="#7f7f7f" stroke-dasharray="5,2" points="381.5,-357 244.5,-357 244.5,-321 381.5,-321 381.5,-357"/>
<text text-anchor="middle" x="313" y="-335.3" font-family="Times,serif" font-size="14.00" fill="#7f7f7f">Jump Calibration</text>
</a>
</g>
</g>
<!-- jump_calibration&#45;&gt;wormhole_navigation -->
<g id="edge13" class="edge">
<title>jump_calibration&#45;&gt;wormhole_navigation</title>
<path fill="none" stroke="#7f7f7f" d="M381.5,-329.9C411.04,-325.91 446.23,-321.17 478.35,-316.83"/>
<polygon fill="#7f7f7f" stroke="#7f7f7f" points="479.23,-320.25 488.67,-315.44 478.29,-313.31 479.23,-320.25"/>
<text text-anchor="middle" x="466" y="-321.8" font-family="Times,serif" font-size="14.00">5</text>
</g>
<!-- scanning -->
<g id="node11" class="node">
<title>scanning</title>
<g id="a_node11"><a xlink:href="scanning.html" xlink:title="Scanning">
<polygon fill="none" stroke="#7f7f7f" stroke-dasharray="5,2" points="110,-38 27,-38 27,-2 110,-2 110,-38"/>
<text text-anchor="middle" x="68.5" y="-16.3" font-family="Times,serif" font-size="14.00" fill="#7f7f7f">Scanning</text>
</a>
</g>
</g>
<!-- scanning&#45;&gt;survey -->
<g id="edge11" class="edge">
<title>scanning&#45;&gt;survey</title>
<path fill="none" stroke="#7f7f7f" d="M110.16,-28.95C142.72,-36.13 183,-45 183,-45 183,-45 231.65,-55.18 269.2,-63.04"/>
<polygon fill="#7f7f7f" stroke="#7f7f7f" points="268.94,-66.56 279.45,-65.19 270.38,-59.71 268.94,-66.56"/>
<text text-anchor="middle" x="160" y="-43.8" font-family="Times,serif" font-size="14.00">3</text>
</g>
<!-- shield_operation -->
<g id="node12" class="node">
<title>shield_operation</title>
<g id="a_node12"><a xlink:href="shield_operation.html" xlink:title="Shield Operation">
<polygon fill="none" stroke="#7f7f7f" stroke-dasharray="5,2" points="137,-92 0,-92 0,-56 137,-56 137,-92"/>
<text text-anchor="middle" x="68.5" y="-70.3" font-family="Times,serif" font-size="14.00" fill="#7f7f7f">Shield Operation</text>
</a>
</g>
</g>
<!-- shield_operation&#45;&gt;environmental_hazard_resistance -->
<g id="edge7" class="edge">
<title>shield_operation&#45;&gt;environmental_hazard_resistance</title>
<path fill="none" stroke="#7f7f7f" d="M137.12,-74.71C152.8,-74.87 165,-75 165,-75 165,-75 183,-99 183,-99 183,-99 197.12,-101.96 216.01,-105.91"/>
<polygon fill="#7f7f7f" stroke="#7f7f7f" points="215.45,-109.37 225.96,-107.99 216.88,-102.52 215.45,-109.37"/>
<text text-anchor="middle" x="160" y="-78.8" font-family="Times,serif" font-size="14.00">3</text>
</g>
</g>
</svg>
