<?xml version="1.0" encoding="UTF-8" standalone="no"?>
<!DOCTYPE svg PUBLIC "-//W3C//DTD SVG 1.1//EN"
 "http://www.w3.org/Graphics/SVG/1.1/DTD/svg11.dtd">
<!-- Generated by graphviz version 2.43.0 (0)
 -->
<!-- Title: Exploration Pages: 1 -->
<svg width="884pt" height="365pt"
 viewBox="0.00 0.00 884.00 365.00" xmlns="http://www.w3.org/2000/svg" xmlns:xlink="http://www.w3.org/1999/xlink">
<g id="graph0" class="graph" transform="scale(1 1) rotate(0) translate(4 361)">
<title>Exploration</title>
<polygon fill="white" stroke="transparent" points="-4,4 -4,-361 880,-361 880,4 -4,4"/>
<!-- survey -->
<g id="node1" class="node">
<title>survey</title>
<polygon fill="none" stroke="black" points="346.5,-303 279.5,-303 279.5,-267 346.5,-267 346.5,-303"/>
<text text-anchor="middle" x="313" y="-281.3" font-family="Times,serif" font-size="14.00">Survey</text>
</g>
<!-- first_contact -->
<g id="node2" class="node">
<title>first_contact</title>
<polygon fill="none" stroke="black" points="404,-90 222,-90 222,-54 404,-54 404,-90"/>
<text text-anchor="middle" x="313" y="-68.3" font-family="Times,serif" font-size="14.00">First Contact Protocols</text>
</g>
<!-- anomaly_exploitation -->
<g id="node3" class="node">
<title>anomaly_exploitation</title>
<polygon fill="none" stroke="black" points="876,-252 706,-252 706,-216 876,-216 876,-252"/>
<text text-anchor="middle" x="791" y="-230.3" font-family="Times,serif" font-size="14.00">Anomaly Exploitation</text>
</g>
<!-- wormhole_navigation -->
<g id="node4" class="node">
<title>wormhole_navigation</title>
<polygon fill="none" stroke="black" points="660,-187 489,-187 489,-151 660,-151 660,-187"/>
<text text-anchor="middle" x="574.5" y="-165.3" font-family="Times,serif" font-size="14.00">Wormhole Navigation</text>
</g>
<!-- jump_calibration -->
<g id="node5" class="node">
<title>jump_calibration</title>
<polygon fill="none" stroke="black" points="381.5,-198 244.5,-198 244.5,-162 381.5,-162 381.5,-198"/>
<text text-anchor="middle" x="313" y="-176.3" font-family="Times,serif" font-size="14.00">Jump Calibration</text>
</g>
<!-- jump_calibration&#45;&gt;wormhole_navigation -->
<g id="edge11" class="edge">
<title>jump_calibration&#45;&gt;wormhole_navigation</title>
<path fill="none" stroke="#7f7f7f" d="M381.5,-177.14C411.04,-175.89 446.23,-174.4 478.35,-173.03"/>
<polygon fill="#7f7f7f" stroke="#7f7f7f" points="478.82,-176.52 488.67,-172.6 478.53,-169.52 478.82,-176.52"/>
<text text-anchor="middle" x="466" y="-177.8" font-family="Times,serif" font-size="14.00">5</text>
</g>
<!-- exploration -->
<g id="node6" class="node">
<title>exploration</title>
<polygon fill="none" stroke="black" points="118.5,-204 18.5,-204 18.5,-168 118.5,-168 118.5,-204"/>
<text text-anchor="middle" x="68.5" y="-182.3" font-family="Times,serif" font-size="14.00">Exploration</text>
</g>
<!-- exploration&#45;&gt;survey -->
<g id="edge3" class="edge">
<title>exploration&#45;&gt;survey</title>
<path fill="none" stroke="black" d="M95.62,-204.02C120.76,-221.37 155,-245 155,-245 155,-245 183,-253 183,-253 183,-253 232.07,-265.17 269.68,-274.5"/>
<polygon fill="black" stroke="black" points="268.9,-277.91 279.45,-276.93 270.58,-271.12 268.9,-277.91"/>
<text text-anchor="middle" x="160" y="-250.8" font-family="Times,serif" font-size="14.00">3</text>
</g>
<!-- exploration&#45;&gt;first_contact -->
<g id="edge8" class="edge">
<title>exploration&#45;&gt;first_contact</title>
<path fill="none" stroke="black" d="M98.15,-168C126.28,-150.32 165,-126 165,-126 165,-126 183,-99 183,-99 183,-99 197.12,-96.04 216.01,-92.09"/>
<polygon fill="black" stroke="black" points="216.88,-95.48 225.96,-90.01 215.45,-88.63 216.88,-95.48"/>
<text text-anchor="middle" x="160" y="-136.8" font-family="Times,serif" font-size="14.00">5</text>
</g>
<!-- astrometrics -->
<g id="node9" class="node">
<title>astrometrics</title>
<polygon fill="none" stroke="black" points="367.5,-144 258.5,-144 258.5,-108 367.5,-108 367.5,-144"/>
<text text-anchor="middle" x="313" y="-122.3" font-family="Times,serif" font-size="14.00">Astrometrics</text>
</g>
<!-- exploration&#45;&gt;astrometrics -->
<g id="edge2" class="edge">
<title>exploration&#45;&gt;astrometrics</title>
<path fill="none" stroke="black" d="M118.65,-174.68C142.05,-169.29 165,-164 165,-164 165,-164 183,-153 183,-153 183,-153 215.83,-146.13 248.36,-139.32"/>
<polygon fill="black" stroke="black" points="249.34,-142.69 258.41,-137.22 247.91,-135.84 249.34,-142.69"/>
<text text-anchor="middle" x="160" y="-170.8" font-family="Times,serif" font-size="14.00">5</text>
</g>
<!-- anomaly_detection -->
<g id="node11" class="node">
<title>anomaly_detection</title>
<polygon fill="none" stroke="black" points="650.5,-252 498.5,-252 498.5,-216 650.5,-216 650.5,-252"/>
<text text-anchor="middle" x="574.5" y="-230.3" font-family="Times,serif" font-size="14.00">Anomaly Detection</text>
</g>
<!-- exploration&#45;&gt;anomaly_detection -->
<g id="edge6" class="edge">
<title>exploration&#45;&gt;anomaly_detection</title>
<path fill="none" stroke="black" d="M118.62,-195.09C149.3,-200.76 183,-207 183,-207 183,-207 373.09,-220.14 488.01,-228.09"/>
<polygon fill="black" stroke="black" points="487.99,-231.6 498.21,-228.79 488.47,-224.61 487.99,-231.6"/>
<text text-anchor="middle" x="313" y="-227.8" font-family="Times,serif" font-size="14.00">5</text>
</g>
<!-- hazard_resistance -->
<g id="node14" class="node">
<title>hazard_resistance</title>
<polygon fill="none" stroke="black" points="443,-36 183,-36 183,0 443,0 443,-36"/>
<text text-anchor="middle" x="313" y="-14.3" font-family="Times,serif" font-size="14.00">Environmental Hazard Resistance</text>
</g>
<!-- exploration&#45;&gt;hazard_resistance -->
<g id="edge12" class="edge">
<title>exploration&#45;&gt;hazard_resistance</title>
<path fill="none" stroke="black" d="M87.46,-167.57C115.13,-139.18 165,-88 165,-88 165,-88 183,-45 183,-45 183,-45 197.12,-42.04 216.01,-38.09"/>
<polygon fill="black" stroke="black" points="216.88,-41.48 225.96,-36.01 215.45,-34.63 216.88,-41.48"/>
<text text-anchor="middle" x="160" y="-102.8" font-family="Times,serif" font-size="14.00">5</text>
</g>
<!-- shields -->
<g id="node7" class="node">
<title>shields</title>
<polygon fill="none" stroke="black" points="137,-36 0,-36 0,0 137,0 137,-36"/>
<text text-anchor="middle" x="68.5" y="-14.3" font-family="Times,serif" font-size="14.00">Shield Operation</text>
</g>
<!-- shields&#45;&gt;hazard_resistance -->
<g id="edge13" class="edge">
<title>shields&#45;&gt;hazard_resistance</title>
<path fill="none" stroke="#7f7f7f" d="M137.05,-18C148.22,-18 160.15,-18 172.33,-18"/>
<polygon fill="#7f7f7f" stroke="#7f7f7f" points="172.61,-21.5 182.61,-18 172.61,-14.5 172.61,-21.5"/>
<text text-anchor="middle" x="160" y="-21.8" font-family="Times,serif" font-size="14.00">3</text>
</g>
<!-- cartography -->
<g id="node8" class="node">
<title>cartography</title>
<polygon fill="none" stroke="black" points="628,-122 521,-122 521,-86 628,-86 628,-122"/>
<text text-anchor="middle" x="574.5" y="-100.3" font-family="Times,serif" font-size="14.00">Cartography</text>
</g>
<!-- astrometrics&#45;&gt;wormhole_navigation -->
<g id="edge10" class="edge">
<title>astrometrics&#45;&gt;wormhole_navigation</title>
<path fill="none" stroke="black" d="M367.77,-134.91C399.86,-140.23 441.53,-147.13 478.97,-153.34"/>
<polygon fill="black" stroke="black" points="478.46,-156.8 488.89,-154.98 479.6,-149.89 478.46,-156.8"/>
<text text-anchor="middle" x="466" y="-155.8" font-family="Times,serif" font-size="14.00">5</text>
</g>
<!-- astrometrics&#45;&gt;cartography -->
<g id="edge1" class="edge">
<title>astrometrics&#45;&gt;cartography</title>
<path fill="none" stroke="black" d="M367.9,-118.3C409.86,-112.31 461,-105 461,-105 461,-105 484.84,-104.79 510.58,-104.56"/>
<polygon fill="black" stroke="black" points="510.9,-108.06 520.87,-104.47 510.84,-101.06 510.9,-108.06"/>
<text text-anchor="middle" x="466" y="-108.8" font-family="Times,serif" font-size="14.00">3</text>
</g>
<!-- scanning -->
<g id="node10" class="node">
<title>scanning</title>
<polygon fill="none" stroke="black" points="110,-323 27,-323 27,-287 110,-287 110,-323"/>
<text text-anchor="middle" x="68.5" y="-301.3" font-family="Times,serif" font-size="14.00">Scanning</text>
</g>
<!-- scanning&#45;&gt;survey -->
<g id="edge4" class="edge">
<title>scanning&#45;&gt;survey</title>
<path fill="none" stroke="#7f7f7f" d="M110.09,-301.65C154.25,-298.01 224.52,-292.21 269.44,-288.51"/>
<polygon fill="#7f7f7f" stroke="#7f7f7f" points="269.77,-291.99 279.45,-287.68 269.19,-285.02 269.77,-291.99"/>
<text text-anchor="middle" x="160" y="-300.8" font-family="Times,serif" font-size="14.00">3</text>
</g>
<!-- anomaly_detection&#45;&gt;anomaly_exploitation -->
<g id="edge9" class="edge">
<title>anomaly_detection&#45;&gt;anomaly_exploitation</title>
<path fill="none" stroke="black" d="M650.52,-234C665.05,-234 680.45,-234 695.5,-234"/>
<polygon fill="black" stroke="black" points="695.86,-237.5 705.86,-234 695.86,-230.5 695.86,-237.5"/>
<text text-anchor="middle" x="683" y="-237.8" font-family="Times,serif" font-size="14.00">5</text>
</g>
<!-- scanning_advanced -->
<g id="node12" class="node">
<title>scanning_advanced</title>
<polygon fill="none" stroke="black" points="391,-357 235,-357 235,-321 391,-321 391,-357"/>
<text text-anchor="middle" x="313" y="-335.3" font-family="Times,serif" font-size="14.00">Advanced Scanning</text>
</g>
<!-- scanning_advanced&#45;&gt;anomaly_detection -->
<g id="edge5" class="edge">
<title>scanning_advanced&#45;&gt;anomaly_detection</title>
<path fill="none" stroke="#7f7f7f" d="M391.27,-322.83C418.75,-317.08 443,-312 443,-312 443,-312 495.87,-280.4 534.3,-257.43"/>
<polygon fill="#7f7f7f" stroke="#7f7f7f" points="536.44,-260.23 543.23,-252.09 532.85,-254.22 536.44,-260.23"/>
<text text-anchor="middle" x="466" y="-303.8" font-family="Times,serif" font-size="14.00">3</text>
</g>
<!-- diplomacy -->
<g id="node13" class="node">
<title>diplomacy</title>
<polygon fill="none" stroke="black" points="114.5,-90 22.5,-90 22.5,-54 114.5,-54 114.5,-90"/>
<text text-anchor="middle" x="68.5" y="-68.3" font-family="Times,serif" font-size="14.00">Diplomacy</text>
</g>
<!-- diplomacy&#45;&gt;first_contact -->
<g id="edge7" class="edge">
<title>diplomacy&#45;&gt;first_contact</title>
<path fill="none" stroke="#7f7f7f" d="M114.54,-72C141.85,-72 177.83,-72 211.59,-72"/>
<polygon fill="#7f7f7f" stroke="#7f7f7f" points="211.99,-75.5 221.99,-72 211.99,-68.5 211.99,-75.5"/>
<text text-anchor="middle" x="160" y="-75.8" font-family="Times,serif" font-size="14.00">3</text>
</g>
</g>
</svg>
