<?xml version="1.0" encoding="UTF-8" standalone="no"?>
<!DOCTYPE svg PUBLIC "-//W3C//DTD SVG 1.1//EN"
 "http://www.w3.org/Graphics/SVG/1.1/DTD/svg11.dtd">
<!-- Generated by graphviz version 2.43.0 (0)
 -->
<!-- Title: Exploration Pages: 1 -->
<svg width="221pt" height="98pt"
 viewBox="0.00 0.00 221.00 98.00" xmlns="http://www.w3.org/2000/svg" xmlns:xlink="http://www.w3.org/1999/xlink">
<g id="graph0" class="graph" transform="scale(1 1) rotate(0) translate(4 94)">
<title>Exploration</title>
<polygon fill="white" stroke="transparent" points="-4,4 -4,-94 217,-94 217,4 -4,4"/>
<!-- exploration -->
<g id="node1" class="node">
<title>exploration</title>
<g id="a_node1"><a xlink:href="exploration.html" xlink:title="Exploration">
<polygon fill="none" stroke="black" points="100,-90 0,-90 0,-54 100,-54 100,-90"/>
<text text-anchor="middle" x="50" y="-68.3" font-family="Times,serif" font-size="14.00">Exploration</text>
</a>
</g>
</g>
<!-- survey -->
<g id="node3" class="node">
<title>survey</title>
<g id="a_node3"><a xlink:href="survey.html" xlink:title="Survey">
<polygon fill="none" stroke="black" points="213,-63 146,-63 146,-27 213,-27 213,-63"/>
<text text-anchor="middle" x="179.5" y="-41.3" font-family="Times,serif" font-size="14.00">Survey</text>
</a>
</g>
</g>
<!-- exploration&#45;&gt;survey -->
<g id="edge1" class="edge">
<title>exploration&#45;&gt;survey</title>
<path fill="none" stroke="black" d="M100.29,-61.56C111.99,-59.08 124.37,-56.46 135.75,-54.05"/>
<polygon fill="black" stroke="black" points="136.81,-57.41 145.87,-51.91 135.36,-50.56 136.81,-57.41"/>
<text text-anchor="middle" x="123" y="-60.8" font-family="Times,serif" font-size="14.00">3</text>
</g>
<!-- scanning -->
<g id="node2" class="node">
<title>scanning</title>
<g id="a_node2"><a xlink:href="scanning.html" xlink:title="Scanning">
<polygon fill="none" stroke="#7f7f7f" stroke-dasharray="5,2" points="91.5,-36 8.5,-36 8.5,0 91.5,0 91.5,-36"/>
<text text-anchor="middle" x="50" y="-14.3" font-family="Times,serif" font-size="14.00" fill="#7f7f7f">Scanning</text>
</a>
</g>
</g>
<!-- scanning&#45;&gt;survey -->
<g id="edge2" class="edge">
<title>scanning&#45;&gt;survey</title>
<path fill="none" stroke="#7f7f7f" d="M91.69,-26.62C105.77,-29.6 121.57,-32.95 135.81,-35.96"/>
<polygon fill="#7f7f7f" stroke="#7f7f7f" points="135.33,-39.44 145.84,-38.08 136.78,-32.59 135.33,-39.44"/>
<text text-anchor="middle" x="123" y="-36.8" font-family="Times,serif" font-size="14.00">3</text>
</g>
</g>
</svg>
