<?xml version="1.0" encoding="UTF-8" standalone="no"?>
<!DOCTYPE svg PUBLIC "-//W3C//DTD SVG 1.1//EN"
 "http://www.w3.org/Graphics/SVG/1.1/DTD/svg11.dtd">
<!-- Generated by graphviz version 2.43.0 (0)
 -->
<!-- Title: Mining Pages: 1 -->
<svg width="571pt" height="369pt"
 viewBox="0.00 0.00 571.00 369.00" xmlns="http://www.w3.org/2000/svg" xmlns:xlink="http://www.w3.org/1999/xlink">
<g id="graph0" class="graph" transform="scale(1 1) rotate(0) translate(4 365)">
<title>Mining</title>
<polygon fill="white" stroke="transparent" points="-4,4 -4,-365 567,-365 567,4 -4,4"/>
<!-- refinement_advanced -->
<g id="node1" class="node">
<title>refinement_advanced</title>
<polygon fill="none" stroke="black" points="347,-361 175,-361 175,-325 347,-325 347,-361"/>
<text text-anchor="middle" x="261" y="-339.3" font-family="Times,serif" font-size="14.00">Advanced Refinement</text>
</g>
<!-- gas_processing -->
<g id="node2" class="node">
<title>gas_processing</title>
<polygon fill="none" stroke="black" points="541,-174 415,-174 415,-138 541,-138 541,-174"/>
<text text-anchor="middle" x="478" y="-152.3" font-family="Times,serif" font-size="14.00">Gas Processing</text>
</g>
<!-- gas_harvesting -->
<g id="node3" class="node">
<title>gas_harvesting</title>
<polygon fill="none" stroke="black" points="325,-97 197,-97 197,-61 325,-61 325,-97"/>
<text text-anchor="middle" x="261" y="-75.3" font-family="Times,serif" font-size="14.00">Gas Harvesting</text>
</g>
<!-- gas_harvesting&#45;&gt;gas_processing -->
<g id="edge10" class="edge">
<title>gas_harvesting&#45;&gt;gas_processing</title>
<path fill="none" stroke="black" d="M318.7,-97.01C334.29,-101.96 347,-106 347,-106 347,-106 385.29,-120.73 420.31,-134.2"/>
<polygon fill="black" stroke="black" points="419.48,-137.63 430.07,-137.95 421.99,-131.09 419.48,-137.63"/>
<text text-anchor="middle" x="370" y="-118.8" font-family="Times,serif" font-size="14.00">5</text>
</g>
<!-- biological_processing -->
<g id="node4" class="node">
<title>biological_processing</title>
<polygon fill="none" stroke="black" points="345.5,-256 176.5,-256 176.5,-220 345.5,-220 345.5,-256"/>
<text text-anchor="middle" x="261" y="-234.3" font-family="Times,serif" font-size="14.00">Biological Processing</text>
</g>
<!-- mining_basic -->
<g id="node5" class="node">
<title>mining_basic</title>
<polygon fill="none" stroke="black" points="98,-97 31,-97 31,-61 98,-61 98,-97"/>
<text text-anchor="middle" x="64.5" y="-75.3" font-family="Times,serif" font-size="14.00">Mining</text>
</g>
<!-- mining_basic&#45;&gt;gas_harvesting -->
<g id="edge5" class="edge">
<title>mining_basic&#45;&gt;gas_harvesting</title>
<path fill="none" stroke="black" d="M98.05,-79C122.15,-79 155.94,-79 186.43,-79"/>
<polygon fill="black" stroke="black" points="186.62,-82.5 196.62,-79 186.62,-75.5 186.62,-82.5"/>
<text text-anchor="middle" x="152" y="-82.8" font-family="Times,serif" font-size="14.00">3</text>
</g>
<!-- ice_mining -->
<g id="node8" class="node">
<title>ice_mining</title>
<polygon fill="none" stroke="black" points="307,-151 215,-151 215,-115 307,-115 307,-151"/>
<text text-anchor="middle" x="261" y="-129.3" font-family="Times,serif" font-size="14.00">Ice Mining</text>
</g>
<!-- mining_basic&#45;&gt;ice_mining -->
<g id="edge1" class="edge">
<title>mining_basic&#45;&gt;ice_mining</title>
<path fill="none" stroke="black" d="M98.05,-88.04C127.19,-96.13 170.5,-108.15 205,-117.73"/>
<polygon fill="black" stroke="black" points="204.37,-121.19 214.94,-120.49 206.24,-114.44 204.37,-121.19"/>
<text text-anchor="middle" x="152" y="-107.8" font-family="Times,serif" font-size="14.00">3</text>
</g>
<!-- mining_advanced -->
<g id="node11" class="node">
<title>mining_advanced</title>
<polygon fill="none" stroke="black" points="331,-43 191,-43 191,-7 331,-7 331,-43"/>
<text text-anchor="middle" x="261" y="-21.3" font-family="Times,serif" font-size="14.00">Advanced Mining</text>
</g>
<!-- mining_basic&#45;&gt;mining_advanced -->
<g id="edge6" class="edge">
<title>mining_basic&#45;&gt;mining_advanced</title>
<path fill="none" stroke="black" d="M98.05,-69.96C121.87,-63.35 155.14,-54.11 185.35,-45.73"/>
<polygon fill="black" stroke="black" points="186.33,-49.09 195.03,-43.04 184.46,-42.34 186.33,-49.09"/>
<text text-anchor="middle" x="152" y="-59.8" font-family="Times,serif" font-size="14.00">5</text>
</g>
<!-- radioactive_handling -->
<g id="node6" class="node">
<title>radioactive_handling</title>
<polygon fill="none" stroke="black" points="563,-90 393,-90 393,-54 563,-54 563,-90"/>
<text text-anchor="middle" x="478" y="-68.3" font-family="Times,serif" font-size="14.00">Radioactive Handling</text>
</g>
<!-- refinement -->
<g id="node7" class="node">
<title>refinement</title>
<polygon fill="none" stroke="black" points="129,-283 0,-283 0,-247 129,-247 129,-283"/>
<text text-anchor="middle" x="64.5" y="-261.3" font-family="Times,serif" font-size="14.00">Ore Refinement</text>
</g>
<!-- refinement&#45;&gt;refinement_advanced -->
<g id="edge8" class="edge">
<title>refinement&#45;&gt;refinement_advanced</title>
<path fill="none" stroke="black" d="M101.48,-283.1C123.32,-294.09 147,-306 147,-306 147,-306 169.91,-313.5 195.1,-321.75"/>
<polygon fill="black" stroke="black" points="194.23,-325.15 204.82,-324.93 196.41,-318.5 194.23,-325.15"/>
<text text-anchor="middle" x="152" y="-312.8" font-family="Times,serif" font-size="14.00">5</text>
</g>
<!-- refinement&#45;&gt;gas_processing -->
<g id="edge9" class="edge">
<title>refinement&#45;&gt;gas_processing</title>
<path fill="none" stroke="black" d="M94.27,-246.87C126.71,-226.43 175,-196 175,-196 175,-196 375,-173 375,-173 375,-173 387.92,-170.85 404.57,-168.07"/>
<polygon fill="black" stroke="black" points="405.44,-171.48 414.73,-166.38 404.29,-164.57 405.44,-171.48"/>
<text text-anchor="middle" x="261" y="-199.8" font-family="Times,serif" font-size="14.00">3</text>
</g>
<!-- refinement&#45;&gt;biological_processing -->
<g id="edge11" class="edge">
<title>refinement&#45;&gt;biological_processing</title>
<path fill="none" stroke="black" d="M129.19,-256.16C141.08,-254.51 153.73,-252.75 166.3,-251.01"/>
<polygon fill="black" stroke="black" points="166.93,-254.45 176.35,-249.61 165.96,-247.52 166.93,-254.45"/>
<text text-anchor="middle" x="152" y="-256.8" font-family="Times,serif" font-size="14.00">5</text>
</g>
<!-- ice_refining -->
<g id="node9" class="node">
<title>ice_refining</title>
<polygon fill="none" stroke="black" points="528.5,-269 427.5,-269 427.5,-233 528.5,-233 528.5,-269"/>
<text text-anchor="middle" x="478" y="-247.3" font-family="Times,serif" font-size="14.00">Ice Refining</text>
</g>
<!-- refinement&#45;&gt;ice_refining -->
<g id="edge3" class="edge">
<title>refinement&#45;&gt;ice_refining</title>
<path fill="none" stroke="black" d="M129.32,-270.48C139.63,-271.37 147,-272 147,-272 147,-272 157,-272 157,-272 157,-272 347,-265 347,-265 347,-265 383.24,-261.1 417.45,-257.41"/>
<polygon fill="black" stroke="black" points="417.91,-260.88 427.48,-256.33 417.16,-253.92 417.91,-260.88"/>
<text text-anchor="middle" x="261" y="-274.8" font-family="Times,serif" font-size="14.00">3</text>
</g>
<!-- ice_mining&#45;&gt;ice_refining -->
<g id="edge4" class="edge">
<title>ice_mining&#45;&gt;ice_refining</title>
<path fill="none" stroke="black" d="M307.49,-150.12C327.7,-157.73 347,-165 347,-165 347,-165 402.86,-201.95 441.35,-227.41"/>
<polygon fill="black" stroke="black" points="439.48,-230.37 449.75,-232.97 443.34,-224.54 439.48,-230.37"/>
<text text-anchor="middle" x="370" y="-184.8" font-family="Times,serif" font-size="14.00">5</text>
</g>
<!-- deep_core_mining -->
<g id="node10" class="node">
<title>deep_core_mining</title>
<polygon fill="none" stroke="black" points="551,-36 405,-36 405,0 551,0 551,-36"/>
<text text-anchor="middle" x="478" y="-14.3" font-family="Times,serif" font-size="14.00">Deep Core Mining</text>
</g>
<!-- mining_advanced&#45;&gt;radioactive_handling -->
<g id="edge2" class="edge">
<title>mining_advanced&#45;&gt;radioactive_handling</title>
<path fill="none" stroke="black" d="M331.21,-40.13C348.2,-43.84 366.65,-47.88 384.54,-51.79"/>
<polygon fill="black" stroke="black" points="383.89,-55.23 394.4,-53.94 385.38,-48.39 383.89,-55.23"/>
<text text-anchor="middle" x="370" y="-52.8" font-family="Times,serif" font-size="14.00">5</text>
</g>
<!-- mining_advanced&#45;&gt;deep_core_mining -->
<g id="edge7" class="edge">
<title>mining_advanced&#45;&gt;deep_core_mining</title>
<path fill="none" stroke="black" d="M331.21,-22.75C351.47,-22.09 373.81,-21.36 394.79,-20.68"/>
<polygon fill="black" stroke="black" points="395.08,-24.17 404.96,-20.35 394.85,-17.17 395.08,-24.17"/>
<text text-anchor="middle" x="370" y="-25.8" font-family="Times,serif" font-size="14.00">5</text>
</g>
</g>
</svg>
