<?xml version="1.0" encoding="UTF-8" standalone="no"?>
<!DOCTYPE svg PUBLIC "-//W3C//DTD SVG 1.1//EN"
 "http://www.w3.org/Graphics/SVG/1.1/DTD/svg11.dtd">
<!-- Generated by graphviz version 2.43.0 (0)
 -->
<!-- Title: Mining Pages: 1 -->
<svg width="539pt" height="260pt"
 viewBox="0.00 0.00 539.00 260.00" xmlns="http://www.w3.org/2000/svg" xmlns:xlink="http://www.w3.org/1999/xlink">
<g id="graph0" class="graph" transform="scale(1 1) rotate(0) translate(4 256)">
<title>Mining</title>
<polygon fill="white" stroke="transparent" points="-4,4 -4,-256 535,-256 535,4 -4,4"/>
<!-- advanced_mining -->
<g id="node1" class="node">
<title>advanced_mining</title>
<g id="a_node1"><a xlink:href="advanced_mining.html" xlink:title="Advanced Mining">
<polygon fill="none" stroke="black" points="315,-144 175,-144 175,-108 315,-108 315,-144"/>
<text text-anchor="middle" x="245" y="-122.3" font-family="Times,serif" font-size="14.00">Advanced Mining</text>
</a>
</g>
</g>
<!-- deep_core_mining -->
<g id="node2" class="node">
<title>deep_core_mining</title>
<g id="a_node2"><a xlink:href="deep_core_mining.html" xlink:title="Deep Core Mining">
<polygon fill="none" stroke="black" points="519,-171 373,-171 373,-135 519,-135 519,-171"/>
<text text-anchor="middle" x="446" y="-149.3" font-family="Times,serif" font-size="14.00">Deep Core Mining</text>
</a>
</g>
</g>
<!-- advanced_mining&#45;&gt;deep_core_mining -->
<g id="edge2" class="edge">
<title>advanced_mining&#45;&gt;deep_core_mining</title>
<path fill="none" stroke="black" d="M315.04,-135.37C330.33,-137.44 346.68,-139.66 362.44,-141.8"/>
<polygon fill="black" stroke="black" points="362.32,-145.31 372.7,-143.19 363.26,-138.38 362.32,-145.31"/>
<text text-anchor="middle" x="338" y="-141.8" font-family="Times,serif" font-size="14.00">5</text>
</g>
<!-- radioactive_handling -->
<g id="node9" class="node">
<title>radioactive_handling</title>
<g id="a_node9"><a xlink:href="radioactive_handling.html" xlink:title="Radioactive Handling">
<polygon fill="none" stroke="black" points="531,-117 361,-117 361,-81 531,-81 531,-117"/>
<text text-anchor="middle" x="446" y="-95.3" font-family="Times,serif" font-size="14.00">Radioactive Handling</text>
</a>
</g>
</g>
<!-- advanced_mining&#45;&gt;radioactive_handling -->
<g id="edge7" class="edge">
<title>advanced_mining&#45;&gt;radioactive_handling</title>
<path fill="none" stroke="black" d="M315.04,-116.63C326.62,-115.06 338.8,-113.41 350.88,-111.77"/>
<polygon fill="black" stroke="black" points="351.55,-115.21 360.99,-110.4 350.61,-108.27 351.55,-115.21"/>
<text text-anchor="middle" x="338" y="-118.8" font-family="Times,serif" font-size="14.00">5</text>
</g>
<!-- gas_harvesting -->
<g id="node3" class="node">
<title>gas_harvesting</title>
<g id="a_node3"><a xlink:href="gas_harvesting.html" xlink:title="Gas Harvesting">
<polygon fill="none" stroke="black" points="309,-90 181,-90 181,-54 309,-54 309,-90"/>
<text text-anchor="middle" x="245" y="-68.3" font-family="Times,serif" font-size="14.00">Gas Harvesting</text>
</a>
</g>
</g>
<!-- gas_processing -->
<g id="node4" class="node">
<title>gas_processing</title>
<g id="a_node4"><a xlink:href="gas_processing.html" xlink:title="Gas Processing">
<polygon fill="none" stroke="black" points="308,-252 182,-252 182,-216 308,-216 308,-252"/>
<text text-anchor="middle" x="245" y="-230.3" font-family="Times,serif" font-size="14.00">Gas Processing</text>
</a>
</g>
</g>
<!-- ice_mining -->
<g id="node5" class="node">
<title>ice_mining</title>
<g id="a_node5"><a xlink:href="ice_mining.html" xlink:title="Ice Mining">
<polygon fill="none" stroke="black" points="291,-36 199,-36 199,0 291,0 291,-36"/>
<text text-anchor="middle" x="245" y="-14.3" font-family="Times,serif" font-size="14.00">Ice Mining</text>
</a>
</g>
</g>
<!-- ice_refining -->
<g id="node6" class="node">
<title>ice_refining</title>
<g id="a_node6"><a xlink:href="ice_refining.html" xlink:title="Ice Refining">
<polygon fill="none" stroke="black" points="295.5,-198 194.5,-198 194.5,-162 295.5,-162 295.5,-198"/>
<text text-anchor="middle" x="245" y="-176.3" font-family="Times,serif" font-size="14.00">Ice Refining</text>
</a>
</g>
</g>
<!-- mining -->
<g id="node7" class="node">
<title>mining</title>
<g id="a_node7"><a xlink:href="mining.html" xlink:title="Mining">
<polygon fill="none" stroke="black" points="98,-90 31,-90 31,-54 98,-54 98,-90"/>
<text text-anchor="middle" x="64.5" y="-68.3" font-family="Times,serif" font-size="14.00">Mining</text>
</a>
</g>
</g>
<!-- mining&#45;&gt;advanced_mining -->
<g id="edge1" class="edge">
<title>mining&#45;&gt;advanced_mining</title>
<path fill="none" stroke="black" d="M98.24,-81.9C119.66,-88.39 148.47,-97.1 174.81,-105.07"/>
<polygon fill="black" stroke="black" points="173.8,-108.42 184.39,-107.97 175.83,-101.72 173.8,-108.42"/>
<text text-anchor="middle" x="152" y="-102.8" font-family="Times,serif" font-size="14.00">5</text>
</g>
<!-- mining&#45;&gt;gas_harvesting -->
<g id="edge3" class="edge">
<title>mining&#45;&gt;gas_harvesting</title>
<path fill="none" stroke="black" d="M98.24,-72C118.5,-72 145.35,-72 170.49,-72"/>
<polygon fill="black" stroke="black" points="170.76,-75.5 180.76,-72 170.76,-68.5 170.76,-75.5"/>
<text text-anchor="middle" x="152" y="-75.8" font-family="Times,serif" font-size="14.00">3</text>
</g>
<!-- mining&#45;&gt;ice_mining -->
<g id="edge5" class="edge">
<title>mining&#45;&gt;ice_mining</title>
<path fill="none" stroke="black" d="M98.24,-62.1C123.56,-54.44 159.19,-43.66 188.88,-34.68"/>
<polygon fill="black" stroke="black" points="190.14,-37.95 198.7,-31.71 188.11,-31.25 190.14,-37.95"/>
<text text-anchor="middle" x="152" y="-50.8" font-family="Times,serif" font-size="14.00">3</text>
</g>
<!-- ore_refinement -->
<g id="node8" class="node">
<title>ore_refinement</title>
<g id="a_node8"><a xlink:href="ore_refinement.html" xlink:title="Ore Refinement">
<polygon fill="none" stroke="black" points="129,-225 0,-225 0,-189 129,-189 129,-225"/>
<text text-anchor="middle" x="64.5" y="-203.3" font-family="Times,serif" font-size="14.00">Ore Refinement</text>
</a>
</g>
</g>
<!-- ore_refinement&#45;&gt;gas_processing -->
<g id="edge4" class="edge">
<title>ore_refinement&#45;&gt;gas_processing</title>
<path fill="none" stroke="black" d="M129.19,-216.63C142.96,-218.72 157.63,-220.94 171.71,-223.07"/>
<polygon fill="black" stroke="black" points="171.43,-226.56 181.84,-224.6 172.47,-219.64 171.43,-226.56"/>
<text text-anchor="middle" x="152" y="-223.8" font-family="Times,serif" font-size="14.00">3</text>
</g>
<!-- ore_refinement&#45;&gt;ice_refining -->
<g id="edge6" class="edge">
<title>ore_refinement&#45;&gt;ice_refining</title>
<path fill="none" stroke="black" d="M129.19,-197.37C147.1,-194.66 166.51,-191.72 184.18,-189.05"/>
<polygon fill="black" stroke="black" points="185,-192.46 194.37,-187.51 183.96,-185.54 185,-192.46"/>
<text text-anchor="middle" x="152" y="-197.8" font-family="Times,serif" font-size="14.00">3</text>
</g>
</g>
</svg>
