<?xml version="1.0" encoding="UTF-8" standalone="no"?>
<!DOCTYPE svg PUBLIC "-//W3C//DTD SVG 1.1//EN"
 "http://www.w3.org/Graphics/SVG/1.1/DTD/svg11.dtd">
<!-- Generated by graphviz version 2.43.0 (0)
 -->
<!-- Title: Mining Pages: 1 -->
<svg width="571pt" height="314pt"
 viewBox="0.00 0.00 571.00 314.00" xmlns="http://www.w3.org/2000/svg" xmlns:xlink="http://www.w3.org/1999/xlink">
<g id="graph0" class="graph" transform="scale(1 1) rotate(0) translate(4 310)">
<title>Mining</title>
<polygon fill="white" stroke="transparent" points="-4,4 -4,-310 567,-310 567,4 -4,4"/>
<!-- advanced_mining -->
<g id="node1" class="node">
<title>advanced_mining</title>
<g id="a_node1"><a xlink:href="advanced_mining.html" xlink:title="Advanced Mining">
<polygon fill="none" stroke="black" points="331,-144 191,-144 191,-108 331,-108 331,-144"/>
<text text-anchor="middle" x="261" y="-122.3" font-family="Times,serif" font-size="14.00">Advanced Mining</text>
</a>
</g>
</g>
<!-- deep_core_mining -->
<g id="node3" class="node">
<title>deep_core_mining</title>
<g id="a_node3"><a xlink:href="deep_core_mining.html" xlink:title="Deep Core Mining">
<polygon fill="none" stroke="black" points="551,-171 405,-171 405,-135 551,-135 551,-171"/>
<text text-anchor="middle" x="478" y="-149.3" font-family="Times,serif" font-size="14.00">Deep Core Mining</text>
</a>
</g>
</g>
<!-- advanced_mining&#45;&gt;deep_core_mining -->
<g id="edge3" class="edge">
<title>advanced_mining&#45;&gt;deep_core_mining</title>
<path fill="none" stroke="black" d="M331.21,-134.69C351.47,-137.24 373.81,-140.04 394.79,-142.68"/>
<polygon fill="black" stroke="black" points="394.6,-146.18 404.96,-143.95 395.47,-139.23 394.6,-146.18"/>
<text text-anchor="middle" x="370" y="-142.8" font-family="Times,serif" font-size="14.00">5</text>
</g>
<!-- radioactive_handling -->
<g id="node10" class="node">
<title>radioactive_handling</title>
<g id="a_node10"><a xlink:href="radioactive_handling.html" xlink:title="Radioactive Handling">
<polygon fill="none" stroke="black" points="563,-117 393,-117 393,-81 563,-81 563,-117"/>
<text text-anchor="middle" x="478" y="-95.3" font-family="Times,serif" font-size="14.00">Radioactive Handling</text>
</a>
</g>
</g>
<!-- advanced_mining&#45;&gt;radioactive_handling -->
<g id="edge8" class="edge">
<title>advanced_mining&#45;&gt;radioactive_handling</title>
<path fill="none" stroke="black" d="M331.21,-117.31C347.63,-115.25 365.42,-113.01 382.74,-110.84"/>
<polygon fill="black" stroke="black" points="383.39,-114.28 392.87,-109.56 382.52,-107.34 383.39,-114.28"/>
<text text-anchor="middle" x="370" y="-116.8" font-family="Times,serif" font-size="14.00">5</text>
</g>
<!-- advanced_refinement -->
<g id="node2" class="node">
<title>advanced_refinement</title>
<g id="a_node2"><a xlink:href="advanced_refinement.html" xlink:title="Advanced Refinement">
<polygon fill="none" stroke="black" points="347,-306 175,-306 175,-270 347,-270 347,-306"/>
<text text-anchor="middle" x="261" y="-284.3" font-family="Times,serif" font-size="14.00">Advanced Refinement</text>
</a>
</g>
</g>
<!-- gas_harvesting -->
<g id="node4" class="node">
<title>gas_harvesting</title>
<g id="a_node4"><a xlink:href="gas_harvesting.html" xlink:title="Gas Harvesting">
<polygon fill="none" stroke="black" points="325,-90 197,-90 197,-54 325,-54 325,-90"/>
<text text-anchor="middle" x="261" y="-68.3" font-family="Times,serif" font-size="14.00">Gas Harvesting</text>
</a>
</g>
</g>
<!-- gas_processing -->
<g id="node5" class="node">
<title>gas_processing</title>
<g id="a_node5"><a xlink:href="gas_processing.html" xlink:title="Gas Processing">
<polygon fill="none" stroke="black" points="324,-252 198,-252 198,-216 324,-216 324,-252"/>
<text text-anchor="middle" x="261" y="-230.3" font-family="Times,serif" font-size="14.00">Gas Processing</text>
</a>
</g>
</g>
<!-- ice_mining -->
<g id="node6" class="node">
<title>ice_mining</title>
<g id="a_node6"><a xlink:href="ice_mining.html" xlink:title="Ice Mining">
<polygon fill="none" stroke="black" points="307,-36 215,-36 215,0 307,0 307,-36"/>
<text text-anchor="middle" x="261" y="-14.3" font-family="Times,serif" font-size="14.00">Ice Mining</text>
</a>
</g>
</g>
<!-- ice_refining -->
<g id="node7" class="node">
<title>ice_refining</title>
<g id="a_node7"><a xlink:href="ice_refining.html" xlink:title="Ice Refining">
<polygon fill="none" stroke="black" points="311.5,-198 210.5,-198 210.5,-162 311.5,-162 311.5,-198"/>
<text text-anchor="middle" x="261" y="-176.3" font-family="Times,serif" font-size="14.00">Ice Refining</text>
</a>
</g>
</g>
<!-- mining -->
<g id="node8" class="node">
<title>mining</title>
<g id="a_node8"><a xlink:href="mining.html" xlink:title="Mining">
<polygon fill="none" stroke="black" points="98,-90 31,-90 31,-54 98,-54 98,-90"/>
<text text-anchor="middle" x="64.5" y="-68.3" font-family="Times,serif" font-size="14.00">Mining</text>
</a>
</g>
</g>
<!-- mining&#45;&gt;advanced_mining -->
<g id="edge1" class="edge">
<title>mining&#45;&gt;advanced_mining</title>
<path fill="none" stroke="black" d="M98.05,-81.04C121.87,-87.65 155.14,-96.89 185.35,-105.27"/>
<polygon fill="black" stroke="black" points="184.46,-108.66 195.03,-107.96 186.33,-101.91 184.46,-108.66"/>
<text text-anchor="middle" x="152" y="-101.8" font-family="Times,serif" font-size="14.00">5</text>
</g>
<!-- mining&#45;&gt;gas_harvesting -->
<g id="edge4" class="edge">
<title>mining&#45;&gt;gas_harvesting</title>
<path fill="none" stroke="black" d="M98.05,-72C122.15,-72 155.94,-72 186.43,-72"/>
<polygon fill="black" stroke="black" points="186.62,-75.5 196.62,-72 186.62,-68.5 186.62,-75.5"/>
<text text-anchor="middle" x="152" y="-75.8" font-family="Times,serif" font-size="14.00">3</text>
</g>
<!-- mining&#45;&gt;ice_mining -->
<g id="edge6" class="edge">
<title>mining&#45;&gt;ice_mining</title>
<path fill="none" stroke="black" d="M98.05,-62.96C127.19,-54.87 170.5,-42.85 205,-33.27"/>
<polygon fill="black" stroke="black" points="206.24,-36.56 214.94,-30.51 204.37,-29.81 206.24,-36.56"/>
<text text-anchor="middle" x="152" y="-52.8" font-family="Times,serif" font-size="14.00">3</text>
</g>
<!-- ore_refinement -->
<g id="node9" class="node">
<title>ore_refinement</title>
<g id="a_node9"><a xlink:href="ore_refinement.html" xlink:title="Ore Refinement">
<polygon fill="none" stroke="black" points="129,-252 0,-252 0,-216 129,-216 129,-252"/>
<text text-anchor="middle" x="64.5" y="-230.3" font-family="Times,serif" font-size="14.00">Ore Refinement</text>
</a>
</g>
</g>
<!-- ore_refinement&#45;&gt;advanced_refinement -->
<g id="edge2" class="edge">
<title>ore_refinement&#45;&gt;advanced_refinement</title>
<path fill="none" stroke="black" d="M129.19,-251.68C147.03,-256.64 166.59,-262.07 185.02,-267.18"/>
<polygon fill="black" stroke="black" points="184.27,-270.61 194.84,-269.91 186.14,-263.86 184.27,-270.61"/>
<text text-anchor="middle" x="152" y="-262.8" font-family="Times,serif" font-size="14.00">5</text>
</g>
<!-- ore_refinement&#45;&gt;gas_processing -->
<g id="edge5" class="edge">
<title>ore_refinement&#45;&gt;gas_processing</title>
<path fill="none" stroke="black" d="M129.19,-234C147.88,-234 168.45,-234 187.64,-234"/>
<polygon fill="black" stroke="black" points="187.83,-237.5 197.83,-234 187.83,-230.5 187.83,-237.5"/>
<text text-anchor="middle" x="152" y="-237.8" font-family="Times,serif" font-size="14.00">3</text>
</g>
<!-- ore_refinement&#45;&gt;ice_refining -->
<g id="edge7" class="edge">
<title>ore_refinement&#45;&gt;ice_refining</title>
<path fill="none" stroke="black" d="M129.19,-216.32C152.16,-209.94 177.97,-202.77 200.56,-196.5"/>
<polygon fill="black" stroke="black" points="201.66,-199.83 210.36,-193.78 199.79,-193.08 201.66,-199.83"/>
<text text-anchor="middle" x="152" y="-213.8" font-family="Times,serif" font-size="14.00">3</text>
</g>
</g>
</svg>
