<?xml version="1.0" encoding="UTF-8" standalone="no"?>
<!DOCTYPE svg PUBLIC "-//W3C//DTD SVG 1.1//EN"
 "http://www.w3.org/Graphics/SVG/1.1/DTD/svg11.dtd">
<!-- Generated by graphviz version 2.43.0 (0)
 -->
<!-- Title: Navigation Pages: 1 -->
<svg width="532pt" height="121pt"
 viewBox="0.00 0.00 532.00 121.00" xmlns="http://www.w3.org/2000/svg" xmlns:xlink="http://www.w3.org/1999/xlink">
<g id="graph0" class="graph" transform="scale(1 1) rotate(0) translate(4 117)">
<title>Navigation</title>
<polygon fill="white" stroke="transparent" points="-4,4 -4,-117 528,-117 528,4 -4,4"/>
<!-- fuel_efficiency -->
<g id="node1" class="node">
<title>fuel_efficiency</title>
<polygon fill="none" stroke="black" points="122,-36 0,-36 0,0 122,0 122,-36"/>
<text text-anchor="middle" x="61" y="-14.3" font-family="Times,serif" font-size="14.00">Fuel Efficiency</text>
</g>
<!-- warp_efficiency -->
<g id="node2" class="node">
<title>warp_efficiency</title>
<polygon fill="none" stroke="black" points="318.5,-113 190.5,-113 190.5,-77 318.5,-77 318.5,-113"/>
<text text-anchor="middle" x="254.5" y="-91.3" font-family="Times,serif" font-size="14.00">Warp Efficiency</text>
</g>
<!-- navigation -->
<g id="node3" class="node">
<title>navigation</title>
<polygon fill="none" stroke="black" points="108.5,-90 13.5,-90 13.5,-54 108.5,-54 108.5,-90"/>
<text text-anchor="middle" x="61" y="-68.3" font-family="Times,serif" font-size="14.00">Navigation</text>
</g>
<!-- navigation&#45;&gt;warp_efficiency -->
<g id="edge1" class="edge">
<title>navigation&#45;&gt;warp_efficiency</title>
<path fill="none" stroke="black" d="M108.85,-77.63C130.26,-80.2 156.13,-83.31 180.04,-86.18"/>
<polygon fill="black" stroke="black" points="179.8,-89.67 190.15,-87.39 180.64,-82.72 179.8,-89.67"/>
<text text-anchor="middle" x="145" y="-85.8" font-family="Times,serif" font-size="14.00">5</text>
</g>
<!-- jump_drive -->
<g id="node5" class="node">
<title>jump_drive</title>
<polygon fill="none" stroke="black" points="341,-59 168,-59 168,-23 341,-23 341,-59"/>
<text text-anchor="middle" x="254.5" y="-37.3" font-family="Times,serif" font-size="14.00">Jump Drive Operation</text>
</g>
<!-- navigation&#45;&gt;jump_drive -->
<g id="edge2" class="edge">
<title>navigation&#45;&gt;jump_drive</title>
<path fill="none" stroke="black" d="M108.85,-64.42C123.75,-62 140.81,-59.24 157.87,-56.48"/>
<polygon fill="black" stroke="black" points="158.58,-59.91 167.9,-54.86 157.47,-53 158.58,-59.91"/>
<text text-anchor="middle" x="145" y="-62.8" font-family="Times,serif" font-size="14.00">3</text>
</g>
<!-- jump_calibration -->
<g id="node4" class="node">
<title>jump_calibration</title>
<polygon fill="none" stroke="black" points="524,-59 387,-59 387,-23 524,-23 524,-59"/>
<text text-anchor="middle" x="455.5" y="-37.3" font-family="Times,serif" font-size="14.00">Jump Calibration</text>
</g>
<!-- jump_drive&#45;&gt;jump_calibration -->
<g id="edge3" class="edge">
<title>jump_drive&#45;&gt;jump_calibration</title>
<path fill="none" stroke="black" d="M341.05,-41C352.86,-41 364.94,-41 376.61,-41"/>
<polygon fill="black" stroke="black" points="376.74,-44.5 386.74,-41 376.74,-37.5 376.74,-44.5"/>
<text text-anchor="middle" x="364" y="-44.8" font-family="Times,serif" font-size="14.00">5</text>
</g>
</g>
</svg>
