<?xml version="1.0" encoding="UTF-8" standalone="no"?>
<!DOCTYPE svg PUBLIC "-//W3C//DTD SVG 1.1//EN"
 "http://www.w3.org/Graphics/SVG/1.1/DTD/svg11.dtd">
<!-- Generated by graphviz version 2.43.0 (0)
 -->
<!-- Title: Navigation Pages: 1 -->
<svg width="532pt" height="129pt"
 viewBox="0.00 0.00 532.00 129.00" xmlns="http://www.w3.org/2000/svg" xmlns:xlink="http://www.w3.org/1999/xlink">
<g id="graph0" class="graph" transform="scale(1 1) rotate(0) translate(4 125)">
<title>Navigation</title>
<polygon fill="white" stroke="transparent" points="-4,4 -4,-125 528,-125 528,4 -4,4"/>
<!-- fuel_efficiency -->
<g id="node1" class="node">
<title>fuel_efficiency</title>
<g id="a_node1"><a xlink:href="fuel_efficiency.html" xlink:title="Fuel Efficiency">
<polygon fill="none" stroke="black" points="122,-36 0,-36 0,0 122,0 122,-36"/>
<text text-anchor="middle" x="61" y="-14.3" font-family="Times,serif" font-size="14.00">Fuel Efficiency</text>
</a>
</g>
</g>
<!-- jump_calibration -->
<g id="node2" class="node">
<title>jump_calibration</title>
<g id="a_node2"><a xlink:href="jump_calibration.html" xlink:title="Jump Calibration">
<polygon fill="none" stroke="black" points="524,-121 387,-121 387,-85 524,-85 524,-121"/>
<text text-anchor="middle" x="455.5" y="-99.3" font-family="Times,serif" font-size="14.00">Jump Calibration</text>
</a>
</g>
</g>
<!-- jump_drive_operation -->
<g id="node3" class="node">
<title>jump_drive_operation</title>
<g id="a_node3"><a xlink:href="jump_drive_operation.html" xlink:title="Jump Drive Operation">
<polygon fill="none" stroke="black" points="341,-121 168,-121 168,-85 341,-85 341,-121"/>
<text text-anchor="middle" x="254.5" y="-99.3" font-family="Times,serif" font-size="14.00">Jump Drive Operation</text>
</a>
</g>
</g>
<!-- jump_drive_operation&#45;&gt;jump_calibration -->
<g id="edge1" class="edge">
<title>jump_drive_operation&#45;&gt;jump_calibration</title>
<path fill="none" stroke="black" d="M341.05,-103C352.86,-103 364.94,-103 376.61,-103"/>
<polygon fill="black" stroke="black" points="376.74,-106.5 386.74,-103 376.74,-99.5 376.74,-106.5"/>
<text text-anchor="middle" x="364" y="-106.8" font-family="Times,serif" font-size="14.00">5</text>
</g>
<!-- navigation -->
<g id="node4" class="node">
<title>navigation</title>
<g id="a_node4"><a xlink:href="navigation.html" xlink:title="Navigation">
<polygon fill="none" stroke="black" points="108.5,-90 13.5,-90 13.5,-54 108.5,-54 108.5,-90"/>
<text text-anchor="middle" x="61" y="-68.3" font-family="Times,serif" font-size="14.00">Navigation</text>
</a>
</g>
</g>
<!-- navigation&#45;&gt;jump_drive_operation -->
<g id="edge2" class="edge">
<title>navigation&#45;&gt;jump_drive_operation</title>
<path fill="none" stroke="black" d="M108.85,-79.58C123.75,-82 140.81,-84.76 157.87,-87.52"/>
<polygon fill="black" stroke="black" points="157.47,-91 167.9,-89.14 158.58,-84.09 157.47,-91"/>
<text text-anchor="middle" x="145" y="-89.8" font-family="Times,serif" font-size="14.00">3</text>
</g>
<!-- warp_efficiency -->
<g id="node5" class="node">
<title>warp_efficiency</title>
<g id="a_node5"><a xlink:href="warp_efficiency.html" xlink:title="Warp Efficiency">
<polygon fill="none" stroke="black" points="318.5,-67 190.5,-67 190.5,-31 318.5,-31 318.5,-67"/>
<text text-anchor="middle" x="254.5" y="-45.3" font-family="Times,serif" font-size="14.00">Warp Efficiency</text>
</a>
</g>
</g>
<!-- navigation&#45;&gt;warp_efficiency -->
<g id="edge3" class="edge">
<title>navigation&#45;&gt;warp_efficiency</title>
<path fill="none" stroke="black" d="M108.72,-63.61C125.34,-60.63 140,-58 140,-58 140,-58 158.29,-56.55 180.18,-54.81"/>
<polygon fill="black" stroke="black" points="180.75,-58.28 190.44,-54 180.2,-51.3 180.75,-58.28"/>
<text text-anchor="middle" x="145" y="-61.8" font-family="Times,serif" font-size="14.00">5</text>
</g>
</g>
</svg>
