<?xml version="1.0" encoding="UTF-8" standalone="no"?>
<!DOCTYPE svg PUBLIC "-//W3C//DTD SVG 1.1//EN"
 "http://www.w3.org/Graphics/SVG/1.1/DTD/svg11.dtd">
<!-- Generated by graphviz version 2.43.0 (0)
 -->
<!-- Title: Navigation Pages: 1 -->
<svg width="349pt" height="98pt"
 viewBox="0.00 0.00 349.00 98.00" xmlns="http://www.w3.org/2000/svg" xmlns:xlink="http://www.w3.org/1999/xlink">
<g id="graph0" class="graph" transform="scale(1 1) rotate(0) translate(4 94)">
<title>Navigation</title>
<polygon fill="white" stroke="transparent" points="-4,4 -4,-94 345,-94 345,4 -4,4"/>
<!-- fuel_efficiency -->
<g id="node1" class="node">
<title>fuel_efficiency</title>
<g id="a_node1"><a xlink:href="fuel_efficiency.html" xlink:title="Fuel Efficiency">
<polygon fill="none" stroke="black" points="122,-36 0,-36 0,0 122,0 122,-36"/>
<text text-anchor="middle" x="61" y="-14.3" font-family="Times,serif" font-size="14.00">Fuel Efficiency</text>
</a>
</g>
</g>
<!-- jump_drive_operation -->
<g id="node2" class="node">
<title>jump_drive_operation</title>
<g id="a_node2"><a xlink:href="jump_drive_operation.html" xlink:title="Jump Drive Operation">
<polygon fill="none" stroke="black" points="341,-90 168,-90 168,-54 341,-54 341,-90"/>
<text text-anchor="middle" x="254.5" y="-68.3" font-family="Times,serif" font-size="14.00">Jump Drive Operation</text>
</a>
</g>
</g>
<!-- navigation -->
<g id="node3" class="node">
<title>navigation</title>
<g id="a_node3"><a xlink:href="navigation.html" xlink:title="Navigation">
<polygon fill="none" stroke="black" points="108.5,-90 13.5,-90 13.5,-54 108.5,-54 108.5,-90"/>
<text text-anchor="middle" x="61" y="-68.3" font-family="Times,serif" font-size="14.00">Navigation</text>
</a>
</g>
</g>
<!-- navigation&#45;&gt;jump_drive_operation -->
<g id="edge1" class="edge">
<title>navigation&#45;&gt;jump_drive_operation</title>
<path fill="none" stroke="black" d="M108.85,-72C123.75,-72 140.81,-72 157.87,-72"/>
<polygon fill="black" stroke="black" points="157.9,-75.5 167.9,-72 157.9,-68.5 157.9,-75.5"/>
<text text-anchor="middle" x="145" y="-75.8" font-family="Times,serif" font-size="14.00">3</text>
</g>
</g>
</svg>
