<?xml version="1.0" encoding="UTF-8" standalone="no"?>
<!DOCTYPE svg PUBLIC "-//W3C//DTD SVG 1.1//EN"
 "http://www.w3.org/Graphics/SVG/1.1/DTD/svg11.dtd">
<!-- Generated by graphviz version 2.43.0 (0)
 -->
<!-- Title: Prestige Pages: 1 -->
<svg width="648pt" height="1592pt"
 viewBox="0.00 0.00 648.00 1592.00" xmlns="http://www.w3.org/2000/svg" xmlns:xlink="http://www.w3.org/1999/xlink">
<g id="graph0" class="graph" transform="scale(1 1) rotate(0) translate(4 1588)">
<title>Prestige</title>
<polygon fill="white" stroke="transparent" points="-4,4 -4,-1588 644,-1588 644,4 -4,4"/>
<!-- first_contact -->
<g id="node1" class="node">
<title>first_contact</title>
<polygon fill="none" stroke="black" points="182,-141 0,-141 0,-105 182,-105 182,-141"/>
<text text-anchor="middle" x="91" y="-119.3" font-family="Times,serif" font-size="14.00">First Contact Protocols</text>
</g>
<!-- pathfinder -->
<g id="node35" class="node">
<title>pathfinder</title>
<polygon fill="none" stroke="black" points="608.5,-87 517.5,-87 517.5,-51 608.5,-51 608.5,-87"/>
<text text-anchor="middle" x="563" y="-65.3" font-family="Times,serif" font-size="14.00">Pathfinder</text>
</g>
<!-- first_contact&#45;&gt;pathfinder -->
<g id="edge28" class="edge">
<title>first_contact&#45;&gt;pathfinder</title>
<path fill="none" stroke="#7f7f7f" d="M182.4,-115.8C282.82,-107.8 431,-96 431,-96 431,-96 471.38,-87.68 507.31,-80.27"/>
<polygon fill="#7f7f7f" stroke="#7f7f7f" points="508.2,-83.66 517.28,-78.22 506.78,-76.81 508.2,-83.66"/>
<text text-anchor="middle" x="334" y="-115.8" font-family="Times,serif" font-size="14.00">7</text>
</g>
<!-- wormhole_navigation -->
<g id="node2" class="node">
<title>wormhole_navigation</title>
<polygon fill="none" stroke="black" points="419.5,-87 248.5,-87 248.5,-51 419.5,-51 419.5,-87"/>
<text text-anchor="middle" x="334" y="-65.3" font-family="Times,serif" font-size="14.00">Wormhole Navigation</text>
</g>
<!-- wormhole_navigation&#45;&gt;pathfinder -->
<g id="edge29" class="edge">
<title>wormhole_navigation&#45;&gt;pathfinder</title>
<path fill="none" stroke="#7f7f7f" d="M419.53,-69C448.79,-69 480.82,-69 507.07,-69"/>
<polygon fill="#7f7f7f" stroke="#7f7f7f" points="507.21,-72.5 517.21,-69 507.21,-65.5 507.21,-72.5"/>
<text text-anchor="middle" x="458.5" y="-72.8" font-family="Times,serif" font-size="14.00">7</text>
</g>
<!-- espionage -->
<g id="node3" class="node">
<title>espionage</title>
<polygon fill="none" stroke="black" points="136.5,-303 45.5,-303 45.5,-267 136.5,-267 136.5,-303"/>
<text text-anchor="middle" x="91" y="-281.3" font-family="Times,serif" font-size="14.00">Espionage</text>
</g>
<!-- shadow_operative -->
<g id="node17" class="node">
<title>shadow_operative</title>
<polygon fill="none" stroke="black" points="408,-249 260,-249 260,-213 408,-213 408,-249"/>
<text text-anchor="middle" x="334" y="-227.3" font-family="Times,serif" font-size="14.00">Shadow Operative</text>
</g>
<!-- espionage&#45;&gt;shadow_operative -->
<g id="edge2" class="edge">
<title>espionage&#45;&gt;shadow_operative</title>
<path fill="none" stroke="#7f7f7f" d="M136.77,-274.97C168.38,-267.89 211.69,-258.18 249.58,-249.69"/>
<polygon fill="#7f7f7f" stroke="#7f7f7f" points="250.6,-253.05 259.6,-247.45 249.07,-246.22 250.6,-253.05"/>
<text text-anchor="middle" x="209.5" y="-263.8" font-family="Times,serif" font-size="14.00">10</text>
</g>
<!-- advanced_engineering -->
<g id="node4" class="node">
<title>advanced_engineering</title>
<polygon fill="none" stroke="black" points="180,-618 2,-618 2,-582 180,-582 180,-618"/>
<text text-anchor="middle" x="91" y="-596.3" font-family="Times,serif" font-size="14.00">Advanced Engineering</text>
</g>
<!-- titan_pilot -->
<g id="node30" class="node">
<title>titan_pilot</title>
<polygon fill="none" stroke="black" points="608.5,-564 517.5,-564 517.5,-528 608.5,-528 608.5,-564"/>
<text text-anchor="middle" x="563" y="-542.3" font-family="Times,serif" font-size="14.00">Titan Pilot</text>
</g>
<!-- advanced_engineering&#45;&gt;titan_pilot -->
<g id="edge4" class="edge">
<title>advanced_engineering&#45;&gt;titan_pilot</title>
<path fill="none" stroke="#7f7f7f" d="M180.18,-592.98C280.63,-584.98 431,-573 431,-573 431,-573 471.38,-564.68 507.31,-557.27"/>
<polygon fill="#7f7f7f" stroke="#7f7f7f" points="508.2,-560.66 517.28,-555.22 506.78,-553.81 508.2,-560.66"/>
<text text-anchor="middle" x="334" y="-592.8" font-family="Times,serif" font-size="14.00">10</text>
</g>
<!-- blueprint_research -->
<g id="node5" class="node">
<title>blueprint_research</title>
<polygon fill="none" stroke="black" points="168.5,-780 13.5,-780 13.5,-744 168.5,-744 168.5,-780"/>
<text text-anchor="middle" x="91" y="-758.3" font-family="Times,serif" font-size="14.00">Blueprint Research</text>
</g>
<!-- master_craftsman -->
<g id="node28" class="node">
<title>master_craftsman</title>
<polygon fill="none" stroke="black" points="407.5,-726 260.5,-726 260.5,-690 407.5,-690 407.5,-726"/>
<text text-anchor="middle" x="334" y="-704.3" font-family="Times,serif" font-size="14.00">Master Craftsman</text>
</g>
<!-- blueprint_research&#45;&gt;master_craftsman -->
<g id="edge16" class="edge">
<title>blueprint_research&#45;&gt;master_craftsman</title>
<path fill="none" stroke="#7f7f7f" d="M168.59,-744.84C194.62,-739.01 223.82,-732.46 250.3,-726.53"/>
<polygon fill="#7f7f7f" stroke="#7f7f7f" points="251.32,-729.89 260.31,-724.29 249.79,-723.06 251.32,-729.89"/>
<text text-anchor="middle" x="209.5" y="-739.8" font-family="Times,serif" font-size="14.00">10</text>
</g>
<!-- master_trader -->
<g id="node6" class="node">
<title>master_trader</title>
<polygon fill="none" stroke="black" points="394,-888 274,-888 274,-852 394,-852 394,-888"/>
<text text-anchor="middle" x="334" y="-866.3" font-family="Times,serif" font-size="14.00">Master Trader</text>
</g>
<!-- industrial_ships -->
<g id="node7" class="node">
<title>industrial_ships</title>
<polygon fill="none" stroke="black" points="156.5,-1101 25.5,-1101 25.5,-1065 156.5,-1065 156.5,-1101"/>
<text text-anchor="middle" x="91" y="-1079.3" font-family="Times,serif" font-size="14.00">Industrial Ships</text>
</g>
<!-- industrial_magnate -->
<g id="node27" class="node">
<title>industrial_magnate</title>
<polygon fill="none" stroke="black" points="640,-1047 486,-1047 486,-1011 640,-1011 640,-1047"/>
<text text-anchor="middle" x="563" y="-1025.3" font-family="Times,serif" font-size="14.00">Industrial Magnate</text>
</g>
<!-- industrial_ships&#45;&gt;industrial_magnate -->
<g id="edge14" class="edge">
<title>industrial_ships&#45;&gt;industrial_magnate</title>
<path fill="none" stroke="#7f7f7f" d="M156.56,-1077.86C254.92,-1070.02 431,-1056 431,-1056 431,-1056 451.25,-1051.83 475.82,-1046.76"/>
<polygon fill="#7f7f7f" stroke="#7f7f7f" points="476.71,-1050.15 485.8,-1044.71 475.3,-1043.3 476.71,-1050.15"/>
<text text-anchor="middle" x="334" y="-1074.8" font-family="Times,serif" font-size="14.00">10</text>
</g>
<!-- grand_admiral -->
<g id="node8" class="node">
<title>grand_admiral</title>
<polygon fill="none" stroke="black" points="624,-408 502,-408 502,-372 624,-372 624,-408"/>
<text text-anchor="middle" x="563" y="-386.3" font-family="Times,serif" font-size="14.00">Grand Admiral</text>
</g>
<!-- astrometrics -->
<g id="node9" class="node">
<title>astrometrics</title>
<polygon fill="none" stroke="black" points="145.5,-36 36.5,-36 36.5,0 145.5,0 145.5,-36"/>
<text text-anchor="middle" x="91" y="-14.3" font-family="Times,serif" font-size="14.00">Astrometrics</text>
</g>
<!-- astrometrics&#45;&gt;pathfinder -->
<g id="edge30" class="edge">
<title>astrometrics&#45;&gt;pathfinder</title>
<path fill="none" stroke="#7f7f7f" d="M145.72,-19.43C241.3,-21.96 431,-27 431,-27 431,-27 471.38,-39.95 507.31,-51.46"/>
<polygon fill="#7f7f7f" stroke="#7f7f7f" points="506.69,-54.94 517.28,-54.66 508.83,-48.28 506.69,-54.94"/>
<text text-anchor="middle" x="334" y="-30.8" font-family="Times,serif" font-size="14.00">10</text>
</g>
<!-- siege_warfare -->
<g id="node10" class="node">
<title>siege_warfare</title>
<polygon fill="none" stroke="black" points="150,-1263 32,-1263 32,-1227 150,-1227 150,-1263"/>
<text text-anchor="middle" x="91" y="-1241.3" font-family="Times,serif" font-size="14.00">Siege Warfare</text>
</g>
<!-- warlord -->
<g id="node34" class="node">
<title>warlord</title>
<polygon fill="none" stroke="black" points="371,-1209 297,-1209 297,-1173 371,-1173 371,-1209"/>
<text text-anchor="middle" x="334" y="-1187.3" font-family="Times,serif" font-size="14.00">Warlord</text>
</g>
<!-- siege_warfare&#45;&gt;warlord -->
<g id="edge23" class="edge">
<title>siege_warfare&#45;&gt;warlord</title>
<path fill="none" stroke="#7f7f7f" d="M150.03,-1232C191.97,-1222.6 247.86,-1210.08 286.79,-1201.36"/>
<polygon fill="#7f7f7f" stroke="#7f7f7f" points="287.8,-1204.71 296.79,-1199.11 286.27,-1197.88 287.8,-1204.71"/>
<text text-anchor="middle" x="209.5" y="-1222.8" font-family="Times,serif" font-size="14.00">10</text>
</g>
<!-- negotiation -->
<g id="node11" class="node">
<title>negotiation</title>
<polygon fill="none" stroke="black" points="141.5,-942 40.5,-942 40.5,-906 141.5,-906 141.5,-942"/>
<text text-anchor="middle" x="91" y="-920.3" font-family="Times,serif" font-size="14.00">Negotiation</text>
</g>
<!-- negotiation&#45;&gt;master_trader -->
<g id="edge26" class="edge">
<title>negotiation&#45;&gt;master_trader</title>
<path fill="none" stroke="#7f7f7f" d="M141.64,-912.88C176.81,-905 224.46,-894.32 263.41,-885.59"/>
<polygon fill="#7f7f7f" stroke="#7f7f7f" points="264.64,-888.9 273.63,-883.3 263.11,-882.07 264.64,-888.9"/>
<text text-anchor="middle" x="209.5" y="-901.8" font-family="Times,serif" font-size="14.00">10</text>
</g>
<!-- mass_production -->
<g id="node12" class="node">
<title>mass_production</title>
<polygon fill="none" stroke="black" points="402.5,-1047 265.5,-1047 265.5,-1011 402.5,-1011 402.5,-1047"/>
<text text-anchor="middle" x="334" y="-1025.3" font-family="Times,serif" font-size="14.00">Mass Production</text>
</g>
<!-- mass_production&#45;&gt;industrial_magnate -->
<g id="edge15" class="edge">
<title>mass_production&#45;&gt;industrial_magnate</title>
<path fill="none" stroke="#7f7f7f" d="M402.8,-1029C425.66,-1029 451.49,-1029 475.6,-1029"/>
<polygon fill="#7f7f7f" stroke="#7f7f7f" points="475.81,-1032.5 485.81,-1029 475.81,-1025.5 475.81,-1032.5"/>
<text text-anchor="middle" x="458.5" y="-1032.8" font-family="Times,serif" font-size="14.00">10</text>
</g>
<!-- fleet_command -->
<g id="node13" class="node">
<title>fleet_command</title>
<polygon fill="none" stroke="black" points="399,-459 269,-459 269,-423 399,-423 399,-459"/>
<text text-anchor="middle" x="334" y="-437.3" font-family="Times,serif" font-size="14.00">Fleet Command</text>
</g>
<!-- fleet_command&#45;&gt;grand_admiral -->
<g id="edge20" class="edge">
<title>fleet_command&#45;&gt;grand_admiral</title>
<path fill="none" stroke="#7f7f7f" d="M399.14,-426.59C428.12,-420.08 462.42,-412.37 492.06,-405.71"/>
<polygon fill="#7f7f7f" stroke="#7f7f7f" points="492.93,-409.11 501.92,-403.5 491.39,-402.28 492.93,-409.11"/>
<text text-anchor="middle" x="458.5" y="-417.8" font-family="Times,serif" font-size="14.00">10</text>
</g>
<!-- leadership -->
<g id="node14" class="node">
<title>leadership</title>
<polygon fill="none" stroke="black" points="139,-357 43,-357 43,-321 139,-321 139,-357"/>
<text text-anchor="middle" x="91" y="-335.3" font-family="Times,serif" font-size="14.00">Leadership</text>
</g>
<!-- leadership&#45;&gt;grand_admiral -->
<g id="edge21" class="edge">
<title>leadership&#45;&gt;grand_admiral</title>
<path fill="none" stroke="#7f7f7f" d="M139.14,-340.95C232.28,-344.79 431,-353 431,-353 431,-353 460.92,-361.45 492.16,-370.27"/>
<polygon fill="#7f7f7f" stroke="#7f7f7f" points="491.29,-373.67 501.87,-373.02 493.2,-366.93 491.29,-373.67"/>
<text text-anchor="middle" x="334" y="-356.8" font-family="Times,serif" font-size="14.00">10</text>
</g>
<!-- boarding_combat -->
<g id="node15" class="node">
<title>boarding_combat</title>
<polygon fill="none" stroke="black" points="162,-1209 20,-1209 20,-1173 162,-1173 162,-1209"/>
<text text-anchor="middle" x="91" y="-1187.3" font-family="Times,serif" font-size="14.00">Boarding Combat</text>
</g>
<!-- boarding_combat&#45;&gt;warlord -->
<g id="edge24" class="edge">
<title>boarding_combat&#45;&gt;warlord</title>
<path fill="none" stroke="#7f7f7f" d="M162.03,-1191C202.25,-1191 251.64,-1191 286.97,-1191"/>
<polygon fill="#7f7f7f" stroke="#7f7f7f" points="287,-1194.5 297,-1191 287,-1187.5 287,-1194.5"/>
<text text-anchor="middle" x="209.5" y="-1194.8" font-family="Times,serif" font-size="14.00">10</text>
</g>
<!-- piracy -->
<g id="node16" class="node">
<title>piracy</title>
<polygon fill="none" stroke="black" points="122,-1155 60,-1155 60,-1119 122,-1119 122,-1155"/>
<text text-anchor="middle" x="91" y="-1133.3" font-family="Times,serif" font-size="14.00">Piracy</text>
</g>
<!-- piracy&#45;&gt;warlord -->
<g id="edge22" class="edge">
<title>piracy&#45;&gt;warlord</title>
<path fill="none" stroke="#7f7f7f" d="M122.04,-1143.73C163.38,-1152.99 238.22,-1169.76 286.74,-1180.64"/>
<polygon fill="#7f7f7f" stroke="#7f7f7f" points="286.15,-1184.09 296.68,-1182.86 287.68,-1177.26 286.15,-1184.09"/>
<text text-anchor="middle" x="209.5" y="-1167.8" font-family="Times,serif" font-size="14.00">10</text>
</g>
<!-- legendary_pilot -->
<g id="node18" class="node">
<title>legendary_pilot</title>
<polygon fill="none" stroke="black" points="399,-1371 269,-1371 269,-1335 399,-1335 399,-1371"/>
<text text-anchor="middle" x="334" y="-1349.3" font-family="Times,serif" font-size="14.00">Legendary Pilot</text>
</g>
<!-- drone_control -->
<g id="node19" class="node">
<title>drone_control</title>
<polygon fill="none" stroke="black" points="150,-1584 32,-1584 32,-1548 150,-1548 150,-1584"/>
<text text-anchor="middle" x="91" y="-1562.3" font-family="Times,serif" font-size="14.00">Drone Control</text>
</g>
<!-- drone_sovereign -->
<g id="node36" class="node">
<title>drone_sovereign</title>
<polygon fill="none" stroke="black" points="631.5,-1530 494.5,-1530 494.5,-1494 631.5,-1494 631.5,-1530"/>
<text text-anchor="middle" x="563" y="-1508.3" font-family="Times,serif" font-size="14.00">Drone Sovereign</text>
</g>
<!-- drone_control&#45;&gt;drone_sovereign -->
<g id="edge11" class="edge">
<title>drone_control&#45;&gt;drone_sovereign</title>
<path fill="none" stroke="#7f7f7f" d="M150.28,-1561.36C247.2,-1553.64 431,-1539 431,-1539 431,-1539 455.99,-1533.85 484.14,-1528.05"/>
<polygon fill="#7f7f7f" stroke="#7f7f7f" points="485.11,-1531.42 494.2,-1525.97 483.7,-1524.57 485.11,-1531.42"/>
<text text-anchor="middle" x="334" y="-1557.8" font-family="Times,serif" font-size="14.00">10</text>
</g>
<!-- drone_interfacing -->
<g id="node20" class="node">
<title>drone_interfacing</title>
<polygon fill="none" stroke="black" points="405.5,-1530 262.5,-1530 262.5,-1494 405.5,-1494 405.5,-1530"/>
<text text-anchor="middle" x="334" y="-1508.3" font-family="Times,serif" font-size="14.00">Drone Interfacing</text>
</g>
<!-- drone_interfacing&#45;&gt;drone_sovereign -->
<g id="edge12" class="edge">
<title>drone_interfacing&#45;&gt;drone_sovereign</title>
<path fill="none" stroke="#7f7f7f" d="M405.58,-1512C430.4,-1512 458.44,-1512 483.85,-1512"/>
<polygon fill="#7f7f7f" stroke="#7f7f7f" points="484.18,-1515.5 494.18,-1512 484.18,-1508.5 484.18,-1515.5"/>
<text text-anchor="middle" x="458.5" y="-1515.8" font-family="Times,serif" font-size="14.00">5</text>
</g>
<!-- trading -->
<g id="node21" class="node">
<title>trading</title>
<polygon fill="none" stroke="black" points="127,-888 55,-888 55,-852 127,-852 127,-888"/>
<text text-anchor="middle" x="91" y="-866.3" font-family="Times,serif" font-size="14.00">Trading</text>
</g>
<!-- trading&#45;&gt;master_trader -->
<g id="edge27" class="edge">
<title>trading&#45;&gt;master_trader</title>
<path fill="none" stroke="#7f7f7f" d="M127.04,-870C162.65,-870 218.77,-870 263.44,-870"/>
<polygon fill="#7f7f7f" stroke="#7f7f7f" points="263.66,-873.5 273.66,-870 263.66,-866.5 263.66,-873.5"/>
<text text-anchor="middle" x="209.5" y="-873.8" font-family="Times,serif" font-size="14.00">10</text>
</g>
<!-- cloaking_advanced -->
<g id="node22" class="node">
<title>cloaking_advanced</title>
<polygon fill="none" stroke="black" points="167,-249 15,-249 15,-213 167,-213 167,-249"/>
<text text-anchor="middle" x="91" y="-227.3" font-family="Times,serif" font-size="14.00">Advanced Cloaking</text>
</g>
<!-- cloaking_advanced&#45;&gt;shadow_operative -->
<g id="edge3" class="edge">
<title>cloaking_advanced&#45;&gt;shadow_operative</title>
<path fill="none" stroke="#7f7f7f" d="M167.26,-231C193.47,-231 223.02,-231 249.83,-231"/>
<polygon fill="#7f7f7f" stroke="#7f7f7f" points="249.96,-234.5 259.96,-231 249.96,-227.5 249.96,-234.5"/>
<text text-anchor="middle" x="209.5" y="-234.8" font-family="Times,serif" font-size="14.00">10</text>
</g>
<!-- combat_drones -->
<g id="node23" class="node">
<title>combat_drones</title>
<polygon fill="none" stroke="black" points="155,-1479 27,-1479 27,-1443 155,-1443 155,-1479"/>
<text text-anchor="middle" x="91" y="-1457.3" font-family="Times,serif" font-size="14.00">Combat Drones</text>
</g>
<!-- combat_drones&#45;&gt;drone_sovereign -->
<g id="edge10" class="edge">
<title>combat_drones&#45;&gt;drone_sovereign</title>
<path fill="none" stroke="#7f7f7f" d="M155.37,-1462.68C253.48,-1465.29 431,-1470 431,-1470 431,-1470 463.45,-1480.41 496.06,-1490.86"/>
<polygon fill="#7f7f7f" stroke="#7f7f7f" points="495.09,-1494.22 505.68,-1493.94 497.23,-1487.56 495.09,-1494.22"/>
<text text-anchor="middle" x="334" y="-1473.8" font-family="Times,serif" font-size="14.00">10</text>
</g>
<!-- covert_ops -->
<g id="node24" class="node">
<title>covert_ops</title>
<polygon fill="none" stroke="black" points="165,-195 17,-195 17,-159 165,-159 165,-195"/>
<text text-anchor="middle" x="91" y="-173.3" font-family="Times,serif" font-size="14.00">Covert Operations</text>
</g>
<!-- covert_ops&#45;&gt;shadow_operative -->
<g id="edge1" class="edge">
<title>covert_ops&#45;&gt;shadow_operative</title>
<path fill="none" stroke="#7f7f7f" d="M165.29,-193.42C191.93,-199.39 222.23,-206.18 249.67,-212.33"/>
<polygon fill="#7f7f7f" stroke="#7f7f7f" points="249.12,-215.79 259.64,-214.56 250.65,-208.96 249.12,-215.79"/>
<text text-anchor="middle" x="209.5" y="-207.8" font-family="Times,serif" font-size="14.00">10</text>
</g>
<!-- speed_combat -->
<g id="node25" class="node">
<title>speed_combat</title>
<polygon fill="none" stroke="black" points="176.5,-1425 5.5,-1425 5.5,-1389 176.5,-1389 176.5,-1425"/>
<text text-anchor="middle" x="91" y="-1403.3" font-family="Times,serif" font-size="14.00">Combat Maneuvering</text>
</g>
<!-- speed_combat&#45;&gt;legendary_pilot -->
<g id="edge7" class="edge">
<title>speed_combat&#45;&gt;legendary_pilot</title>
<path fill="none" stroke="#7f7f7f" d="M172.58,-1388.94C200.49,-1382.69 231.62,-1375.72 258.98,-1369.59"/>
<polygon fill="#7f7f7f" stroke="#7f7f7f" points="259.88,-1372.97 268.87,-1367.37 258.35,-1366.14 259.88,-1372.97"/>
<text text-anchor="middle" x="209.5" y="-1384.8" font-family="Times,serif" font-size="14.00">10</text>
</g>
<!-- weapons_specialization -->
<g id="node26" class="node">
<title>weapons_specialization</title>
<polygon fill="none" stroke="black" points="163,-1371 19,-1371 19,-1335 163,-1335 163,-1371"/>
<text text-anchor="middle" x="91" y="-1349.3" font-family="Times,serif" font-size="14.00">Weapons Mastery</text>
</g>
<!-- weapons_specialization&#45;&gt;legendary_pilot -->
<g id="edge8" class="edge">
<title>weapons_specialization&#45;&gt;legendary_pilot</title>
<path fill="none" stroke="#7f7f7f" d="M163,-1353C193.07,-1353 228.11,-1353 258.53,-1353"/>
<polygon fill="#7f7f7f" stroke="#7f7f7f" points="258.66,-1356.5 268.66,-1353 258.66,-1349.5 258.66,-1356.5"/>
<text text-anchor="middle" x="209.5" y="-1356.8" font-family="Times,serif" font-size="14.00">5</text>
</g>
<!-- crafting_mastery -->
<g id="node29" class="node">
<title>crafting_mastery</title>
<polygon fill="none" stroke="black" points="161,-726 21,-726 21,-690 161,-690 161,-726"/>
<text text-anchor="middle" x="91" y="-704.3" font-family="Times,serif" font-size="14.00">Crafting Mastery</text>
</g>
<!-- crafting_mastery&#45;&gt;master_craftsman -->
<g id="edge17" class="edge">
<title>crafting_mastery&#45;&gt;master_craftsman</title>
<path fill="none" stroke="#7f7f7f" d="M161.06,-708C188.81,-708 221.03,-708 250.04,-708"/>
<polygon fill="#7f7f7f" stroke="#7f7f7f" points="250.15,-711.5 260.15,-708 250.15,-704.5 250.15,-711.5"/>
<text text-anchor="middle" x="209.5" y="-711.8" font-family="Times,serif" font-size="14.00">5</text>
</g>
<!-- capital_weapons -->
<g id="node31" class="node">
<title>capital_weapons</title>
<polygon fill="none" stroke="black" points="431,-564 237,-564 237,-528 431,-528 431,-564"/>
<text text-anchor="middle" x="334" y="-542.3" font-family="Times,serif" font-size="14.00">Capital Weapon Systems</text>
</g>
<!-- capital_weapons&#45;&gt;titan_pilot -->
<g id="edge6" class="edge">
<title>capital_weapons&#45;&gt;titan_pilot</title>
<path fill="none" stroke="#7f7f7f" d="M431.27,-546C457.26,-546 484.48,-546 507.31,-546"/>
<polygon fill="#7f7f7f" stroke="#7f7f7f" points="507.47,-549.5 517.47,-546 507.47,-542.5 507.47,-549.5"/>
<text text-anchor="middle" x="458.5" y="-549.8" font-family="Times,serif" font-size="14.00">5</text>
</g>
<!-- evasion -->
<g id="node32" class="node">
<title>evasion</title>
<polygon fill="none" stroke="black" points="169,-1317 13,-1317 13,-1281 169,-1281 169,-1317"/>
<text text-anchor="middle" x="91" y="-1295.3" font-family="Times,serif" font-size="14.00">Evasive Maneuvers</text>
</g>
<!-- evasion&#45;&gt;legendary_pilot -->
<g id="edge9" class="edge">
<title>evasion&#45;&gt;legendary_pilot</title>
<path fill="none" stroke="#7f7f7f" d="M169.25,-1316.31C197.94,-1322.74 230.41,-1330.01 258.83,-1336.38"/>
<polygon fill="#7f7f7f" stroke="#7f7f7f" points="258.17,-1339.82 268.7,-1338.59 259.7,-1332.99 258.17,-1339.82"/>
<text text-anchor="middle" x="209.5" y="-1329.8" font-family="Times,serif" font-size="14.00">10</text>
</g>
<!-- capital_ships -->
<g id="node33" class="node">
<title>capital_ships</title>
<polygon fill="none" stroke="black" points="147,-462 35,-462 35,-426 147,-426 147,-462"/>
<text text-anchor="middle" x="91" y="-440.3" font-family="Times,serif" font-size="14.00">Capital Ships</text>
</g>
<!-- capital_ships&#45;&gt;grand_admiral -->
<g id="edge19" class="edge">
<title>capital_ships&#45;&gt;grand_admiral</title>
<path fill="none" stroke="#7f7f7f" d="M147.23,-426.86C188.21,-414.14 237,-399 237,-399 237,-399 395.86,-394.6 491.45,-391.95"/>
<polygon fill="#7f7f7f" stroke="#7f7f7f" points="491.73,-395.45 501.63,-391.67 491.54,-388.45 491.73,-395.45"/>
<text text-anchor="middle" x="334" y="-402.8" font-family="Times,serif" font-size="14.00">10</text>
</g>
<!-- capital_ships&#45;&gt;titan_pilot -->
<g id="edge5" class="edge">
<title>capital_ships&#45;&gt;titan_pilot</title>
<path fill="none" stroke="#7f7f7f" d="M147.22,-453.77C243.28,-470.78 431,-504 431,-504 431,-504 471.38,-516.95 507.31,-528.46"/>
<polygon fill="#7f7f7f" stroke="#7f7f7f" points="506.69,-531.94 517.28,-531.66 508.83,-525.28 506.69,-531.94"/>
<text text-anchor="middle" x="334" y="-507.8" font-family="Times,serif" font-size="14.00">10</text>
</g>
<!-- deep_core_mining -->
<g id="node37" class="node">
<title>deep_core_mining</title>
<polygon fill="none" stroke="black" points="164,-996 18,-996 18,-960 164,-960 164,-996"/>
<text text-anchor="middle" x="91" y="-974.3" font-family="Times,serif" font-size="14.00">Deep Core Mining</text>
</g>
<!-- deep_core_mining&#45;&gt;industrial_magnate -->
<g id="edge13" class="edge">
<title>deep_core_mining&#45;&gt;industrial_magnate</title>
<path fill="none" stroke="#7f7f7f" d="M164.31,-979.92C263.87,-982.56 431,-987 431,-987 431,-987 463.45,-997.41 496.06,-1007.86"/>
<polygon fill="#7f7f7f" stroke="#7f7f7f" points="495.09,-1011.22 505.68,-1010.94 497.23,-1004.56 495.09,-1011.22"/>
<text text-anchor="middle" x="334" y="-990.8" font-family="Times,serif" font-size="14.00">10</text>
</g>
<!-- quality_control -->
<g id="node38" class="node">
<title>quality_control</title>
<polygon fill="none" stroke="black" points="154,-672 28,-672 28,-636 154,-636 154,-672"/>
<text text-anchor="middle" x="91" y="-650.3" font-family="Times,serif" font-size="14.00">Quality Control</text>
</g>
<!-- quality_control&#45;&gt;master_craftsman -->
<g id="edge18" class="edge">
<title>quality_control&#45;&gt;master_craftsman</title>
<path fill="none" stroke="#7f7f7f" d="M154.06,-667.91C183.39,-674.48 218.8,-682.41 250.36,-689.48"/>
<polygon fill="#7f7f7f" stroke="#7f7f7f" points="249.93,-692.97 260.45,-691.75 251.46,-686.14 249.93,-692.97"/>
<text text-anchor="middle" x="209.5" y="-684.8" font-family="Times,serif" font-size="14.00">10</text>
</g>
<!-- bulk_trading -->
<g id="node39" class="node">
<title>bulk_trading</title>
<polygon fill="none" stroke="black" points="145.5,-834 36.5,-834 36.5,-798 145.5,-798 145.5,-834"/>
<text text-anchor="middle" x="91" y="-812.3" font-family="Times,serif" font-size="14.00">Bulk Trading</text>
</g>
<!-- bulk_trading&#45;&gt;master_trader -->
<g id="edge25" class="edge">
<title>bulk_trading&#45;&gt;master_trader</title>
<path fill="none" stroke="#7f7f7f" d="M145.79,-828.05C180.68,-835.87 226.47,-846.13 264.03,-854.55"/>
<polygon fill="#7f7f7f" stroke="#7f7f7f" points="263.37,-857.98 273.89,-856.76 264.9,-851.15 263.37,-857.98"/>
<text text-anchor="middle" x="209.5" y="-846.8" font-family="Times,serif" font-size="14.00">7</text>
</g>
</g>
</svg>
