<?xml version="1.0" encoding="UTF-8" standalone="no"?>
<!DOCTYPE svg PUBLIC "-//W3C//DTD SVG 1.1//EN"
 "http://www.w3.org/Graphics/SVG/1.1/DTD/svg11.dtd">
<!-- Generated by graphviz version 2.43.0 (0)
 -->
<!-- Title: Salvaging Pages: 1 -->
<svg width="499pt" height="98pt"
 viewBox="0.00 0.00 499.00 98.00" xmlns="http://www.w3.org/2000/svg" xmlns:xlink="http://www.w3.org/1999/xlink">
<g id="graph0" class="graph" transform="scale(1 1) rotate(0) translate(4 94)">
<title>Salvaging</title>
<polygon fill="white" stroke="transparent" points="-4,4 -4,-94 495,-94 495,4 -4,4"/>
<!-- advanced_salvaging -->
<g id="node1" class="node">
<title>advanced_salvaging</title>
<g id="a_node1"><a xlink:href="advanced_salvaging.html" xlink:title="Advanced Salvaging">
<polygon fill="none" stroke="black" points="294,-90 133,-90 133,-54 294,-54 294,-90"/>
<text text-anchor="middle" x="213.5" y="-68.3" font-family="Times,serif" font-size="14.00">Advanced Salvaging</text>
</a>
</g>
</g>
<!-- archaeology -->
<g id="node2" class="node">
<title>archaeology</title>
<g id="a_node2"><a xlink:href="archaeology.html" xlink:title="Archaeology">
<polygon fill="none" stroke="black" points="265.5,-36 161.5,-36 161.5,0 265.5,0 265.5,-36"/>
<text text-anchor="middle" x="213.5" y="-14.3" font-family="Times,serif" font-size="14.00">Archaeology</text>
</a>
</g>
</g>
<!-- relic_identification -->
<g id="node3" class="node">
<title>relic_identification</title>
<g id="a_node3"><a xlink:href="relic_identification.html" xlink:title="Relic Identification">
<polygon fill="none" stroke="black" points="491,-36 340,-36 340,0 491,0 491,-36"/>
<text text-anchor="middle" x="415.5" y="-14.3" font-family="Times,serif" font-size="14.00">Relic Identification</text>
</a>
</g>
</g>
<!-- archaeology&#45;&gt;relic_identification -->
<g id="edge3" class="edge">
<title>archaeology&#45;&gt;relic_identification</title>
<path fill="none" stroke="black" d="M265.75,-18C285.23,-18 307.98,-18 329.75,-18"/>
<polygon fill="black" stroke="black" points="330,-21.5 340,-18 330,-14.5 330,-21.5"/>
<text text-anchor="middle" x="317" y="-21.8" font-family="Times,serif" font-size="14.00">5</text>
</g>
<!-- salvaging -->
<g id="node4" class="node">
<title>salvaging</title>
<g id="a_node4"><a xlink:href="salvaging.html" xlink:title="Salvaging">
<polygon fill="none" stroke="black" points="87,-63 0,-63 0,-27 87,-27 87,-63"/>
<text text-anchor="middle" x="43.5" y="-41.3" font-family="Times,serif" font-size="14.00">Salvaging</text>
</a>
</g>
</g>
<!-- salvaging&#45;&gt;advanced_salvaging -->
<g id="edge1" class="edge">
<title>salvaging&#45;&gt;advanced_salvaging</title>
<path fill="none" stroke="black" d="M87.33,-51.88C98.3,-53.65 110.51,-55.61 122.89,-57.6"/>
<polygon fill="black" stroke="black" points="122.4,-61.06 132.83,-59.2 123.51,-54.15 122.4,-61.06"/>
<text text-anchor="middle" x="110" y="-59.8" font-family="Times,serif" font-size="14.00">5</text>
</g>
<!-- salvaging&#45;&gt;archaeology -->
<g id="edge2" class="edge">
<title>salvaging&#45;&gt;archaeology</title>
<path fill="none" stroke="black" d="M87.33,-38.12C106.8,-34.99 130.19,-31.23 151.46,-27.81"/>
<polygon fill="black" stroke="black" points="152.06,-31.26 161.37,-26.22 150.95,-24.35 152.06,-31.26"/>
<text text-anchor="middle" x="110" y="-37.8" font-family="Times,serif" font-size="14.00">3</text>
</g>
</g>
</svg>
