<?xml version="1.0" encoding="UTF-8" standalone="no"?>
<!DOCTYPE svg PUBLIC "-//W3C//DTD SVG 1.1//EN"
 "http://www.w3.org/Graphics/SVG/1.1/DTD/svg11.dtd">
<!-- Generated by graphviz version 2.43.0 (0)
 -->
<!-- Title: Ships Pages: 1 -->
<svg width="814pt" height="295pt"
 viewBox="0.00 0.00 814.00 295.00" xmlns="http://www.w3.org/2000/svg" xmlns:xlink="http://www.w3.org/1999/xlink">
<g id="graph0" class="graph" transform="scale(1 1) rotate(0) translate(4 291)">
<title>Ships</title>
<polygon fill="white" stroke="transparent" points="-4,4 -4,-291 810,-291 810,4 -4,4"/>
<!-- fleet_command -->
<g id="node1" class="node">
<title>fleet_command</title>
<polygon fill="none" stroke="black" points="806,-52 676,-52 676,-16 806,-16 806,-52"/>
<text text-anchor="middle" x="741" y="-30.3" font-family="Times,serif" font-size="14.00">Fleet Command</text>
</g>
<!-- capital_ships -->
<g id="node2" class="node">
<title>capital_ships</title>
<polygon fill="none" stroke="black" points="630,-241 518,-241 518,-205 630,-205 630,-241"/>
<text text-anchor="middle" x="574" y="-219.3" font-family="Times,serif" font-size="14.00">Capital Ships</text>
</g>
<!-- capital_ships&#45;&gt;fleet_command -->
<g id="edge5" class="edge">
<title>capital_ships&#45;&gt;fleet_command</title>
<path fill="none" stroke="black" d="M590.82,-204.88C620.26,-171.15 683.55,-98.66 717.46,-59.82"/>
<polygon fill="black" stroke="black" points="720.29,-61.9 724.23,-52.07 715.01,-57.3 720.29,-61.9"/>
<text text-anchor="middle" x="653" y="-137.8" font-family="Times,serif" font-size="14.00">5</text>
</g>
<!-- navigation -->
<g id="node3" class="node">
<title>navigation</title>
<polygon fill="none" stroke="black" points="98,-287 3,-287 3,-251 98,-251 98,-287"/>
<text text-anchor="middle" x="50.5" y="-265.3" font-family="Times,serif" font-size="14.00">Navigation</text>
</g>
<!-- navigation&#45;&gt;capital_ships -->
<g id="edge7" class="edge">
<title>navigation&#45;&gt;capital_ships</title>
<path fill="none" stroke="#7f7f7f" d="M98.11,-266.89C207.59,-261.95 472,-250 472,-250 472,-250 488.39,-245.62 507.96,-240.39"/>
<polygon fill="#7f7f7f" stroke="#7f7f7f" points="509.01,-243.73 517.77,-237.76 507.21,-236.97 509.01,-243.73"/>
<text text-anchor="middle" x="301" y="-260.8" font-family="Times,serif" font-size="14.00">7</text>
</g>
<!-- covert_ops -->
<g id="node4" class="node">
<title>covert_ops</title>
<polygon fill="none" stroke="black" points="472,-112 324,-112 324,-76 472,-76 472,-112"/>
<text text-anchor="middle" x="398" y="-90.3" font-family="Times,serif" font-size="14.00">Covert Operations</text>
</g>
<!-- cloaking -->
<g id="node5" class="node">
<title>cloaking</title>
<polygon fill="none" stroke="black" points="252,-82 173,-82 173,-46 252,-46 252,-82"/>
<text text-anchor="middle" x="212.5" y="-60.3" font-family="Times,serif" font-size="14.00">Cloaking</text>
</g>
<!-- cloaking&#45;&gt;covert_ops -->
<g id="edge8" class="edge">
<title>cloaking&#45;&gt;covert_ops</title>
<path fill="none" stroke="#7f7f7f" d="M252.42,-70.36C270.31,-73.29 292.27,-76.88 313.61,-80.37"/>
<polygon fill="#7f7f7f" stroke="#7f7f7f" points="313.26,-83.86 323.69,-82.02 314.39,-76.95 313.26,-83.86"/>
<text text-anchor="middle" x="301" y="-82.8" font-family="Times,serif" font-size="14.00">5</text>
</g>
<!-- medium_ships -->
<g id="node6" class="node">
<title>medium_ships</title>
<polygon fill="none" stroke="black" points="272,-241 153,-241 153,-205 272,-205 272,-241"/>
<text text-anchor="middle" x="212.5" y="-219.3" font-family="Times,serif" font-size="14.00">Medium Ships</text>
</g>
<!-- large_ships -->
<g id="node10" class="node">
<title>large_ships</title>
<polygon fill="none" stroke="black" points="449,-241 347,-241 347,-205 449,-205 449,-241"/>
<text text-anchor="middle" x="398" y="-219.3" font-family="Times,serif" font-size="14.00">Large Ships</text>
</g>
<!-- medium_ships&#45;&gt;large_ships -->
<g id="edge2" class="edge">
<title>medium_ships&#45;&gt;large_ships</title>
<path fill="none" stroke="black" d="M272.07,-223C292.61,-223 315.73,-223 336.44,-223"/>
<polygon fill="black" stroke="black" points="336.7,-226.5 346.7,-223 336.7,-219.5 336.7,-226.5"/>
<text text-anchor="middle" x="301" y="-226.8" font-family="Times,serif" font-size="14.00">5</text>
</g>
<!-- small_ships -->
<g id="node7" class="node">
<title>small_ships</title>
<polygon fill="none" stroke="black" points="101,-187 0,-187 0,-151 101,-151 101,-187"/>
<text text-anchor="middle" x="50.5" y="-165.3" font-family="Times,serif" font-size="14.00">Small Ships</text>
</g>
<!-- small_ships&#45;&gt;covert_ops -->
<g id="edge9" class="edge">
<title>small_ships&#45;&gt;covert_ops</title>
<path fill="none" stroke="black" d="M92.55,-150.94C118.44,-139.56 147,-127 147,-127 147,-127 240.87,-114.61 313.58,-105.01"/>
<polygon fill="black" stroke="black" points="314.23,-108.46 323.68,-103.68 313.31,-101.52 314.23,-108.46"/>
<text text-anchor="middle" x="212.5" y="-130.8" font-family="Times,serif" font-size="14.00">5</text>
</g>
<!-- small_ships&#45;&gt;medium_ships -->
<g id="edge3" class="edge">
<title>small_ships&#45;&gt;medium_ships</title>
<path fill="none" stroke="black" d="M101.25,-185.79C116.14,-190.82 132.67,-196.39 148.3,-201.67"/>
<polygon fill="black" stroke="black" points="147.3,-205.03 157.9,-204.91 149.54,-198.39 147.3,-205.03"/>
<text text-anchor="middle" x="124" y="-197.8" font-family="Times,serif" font-size="14.00">5</text>
</g>
<!-- industrial_ships -->
<g id="node9" class="node">
<title>industrial_ships</title>
<polygon fill="none" stroke="black" points="278,-187 147,-187 147,-151 278,-151 278,-187"/>
<text text-anchor="middle" x="212.5" y="-165.3" font-family="Times,serif" font-size="14.00">Industrial Ships</text>
</g>
<!-- small_ships&#45;&gt;industrial_ships -->
<g id="edge1" class="edge">
<title>small_ships&#45;&gt;industrial_ships</title>
<path fill="none" stroke="black" d="M101.25,-169C112.5,-169 124.69,-169 136.72,-169"/>
<polygon fill="black" stroke="black" points="136.76,-172.5 146.76,-169 136.76,-165.5 136.76,-172.5"/>
<text text-anchor="middle" x="124" y="-172.8" font-family="Times,serif" font-size="14.00">3</text>
</g>
<!-- leadership -->
<g id="node8" class="node">
<title>leadership</title>
<polygon fill="none" stroke="black" points="98.5,-36 2.5,-36 2.5,0 98.5,0 98.5,-36"/>
<text text-anchor="middle" x="50.5" y="-14.3" font-family="Times,serif" font-size="14.00">Leadership</text>
</g>
<!-- leadership&#45;&gt;fleet_command -->
<g id="edge4" class="edge">
<title>leadership&#45;&gt;fleet_command</title>
<path fill="none" stroke="#7f7f7f" d="M98.64,-18C145.84,-18 211.5,-18 211.5,-18 211.5,-18 211.5,-18 575,-18 575,-18 621.83,-22.54 665.59,-26.78"/>
<polygon fill="#7f7f7f" stroke="#7f7f7f" points="665.44,-30.29 675.73,-27.77 666.12,-23.32 665.44,-30.29"/>
<text text-anchor="middle" x="398" y="-21.8" font-family="Times,serif" font-size="14.00">5</text>
</g>
<!-- large_ships&#45;&gt;capital_ships -->
<g id="edge6" class="edge">
<title>large_ships&#45;&gt;capital_ships</title>
<path fill="none" stroke="black" d="M449.33,-223C467.53,-223 488.36,-223 507.67,-223"/>
<polygon fill="black" stroke="black" points="507.91,-226.5 517.91,-223 507.91,-219.5 507.91,-226.5"/>
<text text-anchor="middle" x="495" y="-226.8" font-family="Times,serif" font-size="14.00">7</text>
</g>
</g>
</svg>
