<?xml version="1.0" encoding="UTF-8" standalone="no"?>
<!DOCTYPE svg PUBLIC "-//W3C//DTD SVG 1.1//EN"
 "http://www.w3.org/Graphics/SVG/1.1/DTD/svg11.dtd">
<!-- Generated by graphviz version 2.43.0 (0)
 -->
<!-- Title: Ships Pages: 1 -->
<svg width="498pt" height="279pt"
 viewBox="0.00 0.00 498.00 279.00" xmlns="http://www.w3.org/2000/svg" xmlns:xlink="http://www.w3.org/1999/xlink">
<g id="graph0" class="graph" transform="scale(1 1) rotate(0) translate(4 275)">
<title>Ships</title>
<polygon fill="white" stroke="transparent" points="-4,4 -4,-275 494,-275 494,4 -4,4"/>
<!-- capital_ships -->
<g id="node1" class="node">
<title>capital_ships</title>
<g id="a_node1"><a xlink:href="capital_ships.html" xlink:title="Capital Ships">
<polygon fill="none" stroke="black" points="115.5,-90 3.5,-90 3.5,-54 115.5,-54 115.5,-90"/>
<text text-anchor="middle" x="59.5" y="-68.3" font-family="Times,serif" font-size="14.00">Capital Ships</text>
</a>
</g>
</g>
<!-- fleet_command -->
<g id="node4" class="node">
<title>fleet_command</title>
<g id="a_node4"><a xlink:href="fleet_command.html" xlink:title="Fleet Command">
<polygon fill="none" stroke="black" points="295.5,-55 165.5,-55 165.5,-19 295.5,-19 295.5,-55"/>
<text text-anchor="middle" x="230.5" y="-33.3" font-family="Times,serif" font-size="14.00">Fleet Command</text>
</a>
</g>
</g>
<!-- capital_ships&#45;&gt;fleet_command -->
<g id="edge3" class="edge">
<title>capital_ships&#45;&gt;fleet_command</title>
<path fill="none" stroke="black" d="M115.84,-60.54C128.42,-57.93 141.98,-55.13 155.21,-52.39"/>
<polygon fill="black" stroke="black" points="156.15,-55.77 165.23,-50.31 154.73,-48.91 156.15,-55.77"/>
<text text-anchor="middle" x="142" y="-59.8" font-family="Times,serif" font-size="14.00">5</text>
</g>
<!-- cloaking -->
<g id="node2" class="node">
<title>cloaking</title>
<g id="a_node2"><a xlink:href="cloaking.html" xlink:title="Cloaking">
<polygon fill="none" stroke="#7f7f7f" stroke-dasharray="5,2" points="270,-233 191,-233 191,-197 270,-197 270,-233"/>
<text text-anchor="middle" x="230.5" y="-211.3" font-family="Times,serif" font-size="14.00" fill="#7f7f7f">Cloaking</text>
</a>
</g>
</g>
<!-- covert_operations -->
<g id="node3" class="node">
<title>covert_operations</title>
<g id="a_node3"><a xlink:href="covert_operations.html" xlink:title="Covert Operations">
<polygon fill="none" stroke="black" points="490,-207 342,-207 342,-171 490,-171 490,-207"/>
<text text-anchor="middle" x="416" y="-185.3" font-family="Times,serif" font-size="14.00">Covert Operations</text>
</a>
</g>
</g>
<!-- cloaking&#45;&gt;covert_operations -->
<g id="edge1" class="edge">
<title>cloaking&#45;&gt;covert_operations</title>
<path fill="none" stroke="#7f7f7f" d="M270.42,-209.49C288.31,-206.95 310.27,-203.84 331.61,-200.81"/>
<polygon fill="#7f7f7f" stroke="#7f7f7f" points="332.28,-204.26 341.69,-199.39 331.3,-197.32 332.28,-204.26"/>
<text text-anchor="middle" x="319" y="-205.8" font-family="Times,serif" font-size="14.00">5</text>
</g>
<!-- industrial_ships -->
<g id="node5" class="node">
<title>industrial_ships</title>
<g id="a_node5"><a xlink:href="industrial_ships.html" xlink:title="Industrial Ships">
<polygon fill="none" stroke="black" points="296,-128 165,-128 165,-92 296,-92 296,-128"/>
<text text-anchor="middle" x="230.5" y="-106.3" font-family="Times,serif" font-size="14.00">Industrial Ships</text>
</a>
</g>
</g>
<!-- large_ships -->
<g id="node6" class="node">
<title>large_ships</title>
<g id="a_node6"><a xlink:href="large_ships.html" xlink:title="Large Ships">
<polygon fill="none" stroke="black" points="110.5,-217 8.5,-217 8.5,-181 110.5,-181 110.5,-217"/>
<text text-anchor="middle" x="59.5" y="-195.3" font-family="Times,serif" font-size="14.00">Large Ships</text>
</a>
</g>
</g>
<!-- leadership -->
<g id="node7" class="node">
<title>leadership</title>
<g id="a_node7"><a xlink:href="leadership.html" xlink:title="Leadership">
<polygon fill="none" stroke="#7f7f7f" stroke-dasharray="5,2" points="107.5,-36 11.5,-36 11.5,0 107.5,0 107.5,-36"/>
<text text-anchor="middle" x="59.5" y="-14.3" font-family="Times,serif" font-size="14.00" fill="#7f7f7f">Leadership</text>
</a>
</g>
</g>
<!-- leadership&#45;&gt;fleet_command -->
<g id="edge4" class="edge">
<title>leadership&#45;&gt;fleet_command</title>
<path fill="none" stroke="#7f7f7f" d="M107.58,-23.29C122.38,-24.96 139.1,-26.84 155.31,-28.66"/>
<polygon fill="#7f7f7f" stroke="#7f7f7f" points="154.98,-32.14 165.31,-29.78 155.76,-25.19 154.98,-32.14"/>
<text text-anchor="middle" x="142" y="-31.8" font-family="Times,serif" font-size="14.00">5</text>
</g>
<!-- medium_ships -->
<g id="node8" class="node">
<title>medium_ships</title>
<g id="a_node8"><a xlink:href="medium_ships.html" xlink:title="Medium Ships">
<polygon fill="none" stroke="black" points="119,-271 0,-271 0,-235 119,-235 119,-271"/>
<text text-anchor="middle" x="59.5" y="-249.3" font-family="Times,serif" font-size="14.00">Medium Ships</text>
</a>
</g>
</g>
<!-- small_ships -->
<g id="node9" class="node">
<title>small_ships</title>
<g id="a_node9"><a xlink:href="small_ships.html" xlink:title="Small Ships">
<polygon fill="none" stroke="black" points="110,-163 9,-163 9,-127 110,-127 110,-163"/>
<text text-anchor="middle" x="59.5" y="-141.3" font-family="Times,serif" font-size="14.00">Small Ships</text>
</a>
</g>
</g>
<!-- small_ships&#45;&gt;covert_operations -->
<g id="edge2" class="edge">
<title>small_ships&#45;&gt;covert_operations</title>
<path fill="none" stroke="black" d="M110.16,-150.9C179.25,-159.12 296,-173 296,-173 296,-173 311.64,-175.1 331.58,-177.78"/>
<polygon fill="black" stroke="black" points="331.29,-181.28 341.67,-179.14 332.22,-174.34 331.29,-181.28"/>
<text text-anchor="middle" x="230.5" y="-176.8" font-family="Times,serif" font-size="14.00">5</text>
</g>
<!-- small_ships&#45;&gt;industrial_ships -->
<g id="edge5" class="edge">
<title>small_ships&#45;&gt;industrial_ships</title>
<path fill="none" stroke="black" d="M110.29,-134.69C124.27,-131.79 139.78,-128.58 154.86,-125.46"/>
<polygon fill="black" stroke="black" points="155.61,-128.88 164.7,-123.42 154.19,-122.02 155.61,-128.88"/>
<text text-anchor="middle" x="142" y="-132.8" font-family="Times,serif" font-size="14.00">3</text>
</g>
</g>
</svg>
