<?xml version="1.0" encoding="UTF-8" standalone="no"?>
<!DOCTYPE svg PUBLIC "-//W3C//DTD SVG 1.1//EN"
 "http://www.w3.org/Graphics/SVG/1.1/DTD/svg11.dtd">
<!-- Generated by graphviz version 2.43.0 (0)
 -->
<!-- Title: Ships Pages: 1 -->
<svg width="304pt" height="206pt"
 viewBox="0.00 0.00 304.00 206.00" xmlns="http://www.w3.org/2000/svg" xmlns:xlink="http://www.w3.org/1999/xlink">
<g id="graph0" class="graph" transform="scale(1 1) rotate(0) translate(4 202)">
<title>Ships</title>
<polygon fill="white" stroke="transparent" points="-4,4 -4,-202 300,-202 300,4 -4,4"/>
<!-- capital_ships -->
<g id="node1" class="node">
<title>capital_ships</title>
<g id="a_node1"><a xlink:href="capital_ships.html" xlink:title="Capital Ships">
<polygon fill="none" stroke="black" points="115.5,-36 3.5,-36 3.5,0 115.5,0 115.5,-36"/>
<text text-anchor="middle" x="59.5" y="-14.3" font-family="Times,serif" font-size="14.00">Capital Ships</text>
</a>
</g>
</g>
<!-- industrial_ships -->
<g id="node2" class="node">
<title>industrial_ships</title>
<g id="a_node2"><a xlink:href="industrial_ships.html" xlink:title="Industrial Ships">
<polygon fill="none" stroke="black" points="296,-90 165,-90 165,-54 296,-54 296,-90"/>
<text text-anchor="middle" x="230.5" y="-68.3" font-family="Times,serif" font-size="14.00">Industrial Ships</text>
</a>
</g>
</g>
<!-- large_ships -->
<g id="node3" class="node">
<title>large_ships</title>
<g id="a_node3"><a xlink:href="large_ships.html" xlink:title="Large Ships">
<polygon fill="none" stroke="black" points="110.5,-144 8.5,-144 8.5,-108 110.5,-108 110.5,-144"/>
<text text-anchor="middle" x="59.5" y="-122.3" font-family="Times,serif" font-size="14.00">Large Ships</text>
</a>
</g>
</g>
<!-- medium_ships -->
<g id="node4" class="node">
<title>medium_ships</title>
<g id="a_node4"><a xlink:href="medium_ships.html" xlink:title="Medium Ships">
<polygon fill="none" stroke="black" points="119,-198 0,-198 0,-162 119,-162 119,-198"/>
<text text-anchor="middle" x="59.5" y="-176.3" font-family="Times,serif" font-size="14.00">Medium Ships</text>
</a>
</g>
</g>
<!-- small_ships -->
<g id="node5" class="node">
<title>small_ships</title>
<g id="a_node5"><a xlink:href="small_ships.html" xlink:title="Small Ships">
<polygon fill="none" stroke="black" points="110,-90 9,-90 9,-54 110,-54 110,-90"/>
<text text-anchor="middle" x="59.5" y="-68.3" font-family="Times,serif" font-size="14.00">Small Ships</text>
</a>
</g>
</g>
<!-- small_ships&#45;&gt;industrial_ships -->
<g id="edge1" class="edge">
<title>small_ships&#45;&gt;industrial_ships</title>
<path fill="none" stroke="black" d="M110.29,-72C124.14,-72 139.48,-72 154.43,-72"/>
<polygon fill="black" stroke="black" points="154.7,-75.5 164.7,-72 154.7,-68.5 154.7,-75.5"/>
<text text-anchor="middle" x="142" y="-75.8" font-family="Times,serif" font-size="14.00">3</text>
</g>
</g>
</svg>
