<?xml version="1.0" encoding="UTF-8" standalone="no"?>
<!DOCTYPE svg PUBLIC "-//W3C//DTD SVG 1.1//EN"
 "http://www.w3.org/Graphics/SVG/1.1/DTD/svg11.dtd">
<!-- Generated by graphviz version 2.43.0 (0)
 -->
<!-- Title: Support Pages: 1 -->
<svg width="751pt" height="428pt"
 viewBox="0.00 0.00 751.00 428.00" xmlns="http://www.w3.org/2000/svg" xmlns:xlink="http://www.w3.org/1999/xlink">
<g id="graph0" class="graph" transform="scale(1 1) rotate(0) translate(4 424)">
<title>Support</title>
<polygon fill="white" stroke="transparent" points="-4,4 -4,-424 747,-424 747,4 -4,4"/>
<!-- cloaking -->
<g id="node1" class="node">
<title>cloaking</title>
<polygon fill="none" stroke="black" points="278.5,-144 199.5,-144 199.5,-108 278.5,-108 278.5,-144"/>
<text text-anchor="middle" x="239" y="-122.3" font-family="Times,serif" font-size="14.00">Cloaking</text>
</g>
<!-- espionage -->
<g id="node2" class="node">
<title>espionage</title>
<polygon fill="none" stroke="black" points="503.5,-114 412.5,-114 412.5,-78 503.5,-78 503.5,-114"/>
<text text-anchor="middle" x="458" y="-92.3" font-family="Times,serif" font-size="14.00">Espionage</text>
</g>
<!-- cloaking&#45;&gt;espionage -->
<g id="edge13" class="edge">
<title>cloaking&#45;&gt;espionage</title>
<path fill="none" stroke="black" d="M278.8,-120.64C313.15,-115.89 363.68,-108.9 402.16,-103.58"/>
<polygon fill="black" stroke="black" points="402.74,-107.03 412.17,-102.2 401.79,-100.1 402.74,-107.03"/>
<text text-anchor="middle" x="359" y="-113.8" font-family="Times,serif" font-size="14.00">3</text>
</g>
<!-- cloaking_advanced -->
<g id="node13" class="node">
<title>cloaking_advanced</title>
<polygon fill="none" stroke="black" points="534,-174 382,-174 382,-138 534,-138 534,-174"/>
<text text-anchor="middle" x="458" y="-152.3" font-family="Times,serif" font-size="14.00">Advanced Cloaking</text>
</g>
<!-- cloaking&#45;&gt;cloaking_advanced -->
<g id="edge3" class="edge">
<title>cloaking&#45;&gt;cloaking_advanced</title>
<path fill="none" stroke="black" d="M278.8,-131.36C304.54,-134.92 339.35,-139.74 371.38,-144.16"/>
<polygon fill="black" stroke="black" points="371.29,-147.68 381.67,-145.59 372.24,-140.75 371.29,-147.68"/>
<text text-anchor="middle" x="359" y="-145.8" font-family="Times,serif" font-size="14.00">5</text>
</g>
<!-- counter_intelligence -->
<g id="node15" class="node">
<title>counter_intelligence</title>
<polygon fill="none" stroke="black" points="743,-87 580,-87 580,-51 743,-51 743,-87"/>
<text text-anchor="middle" x="661.5" y="-65.3" font-family="Times,serif" font-size="14.00">Counter&#45;Intelligence</text>
</g>
<!-- espionage&#45;&gt;counter_intelligence -->
<g id="edge11" class="edge">
<title>espionage&#45;&gt;counter_intelligence</title>
<path fill="none" stroke="black" d="M503.72,-90.01C523.21,-87.4 546.81,-84.23 569.71,-81.17"/>
<polygon fill="black" stroke="black" points="570.37,-84.61 579.82,-79.81 569.44,-77.67 570.37,-84.61"/>
<text text-anchor="middle" x="557" y="-86.8" font-family="Times,serif" font-size="14.00">3</text>
</g>
<!-- fleet_coordination -->
<g id="node3" class="node">
<title>fleet_coordination</title>
<polygon fill="none" stroke="black" points="314,-420 164,-420 164,-384 314,-384 314,-420"/>
<text text-anchor="middle" x="239" y="-398.3" font-family="Times,serif" font-size="14.00">Fleet Coordination</text>
</g>
<!-- hacking -->
<g id="node4" class="node">
<title>hacking</title>
<polygon fill="none" stroke="black" points="276.5,-90 201.5,-90 201.5,-54 276.5,-54 276.5,-90"/>
<text text-anchor="middle" x="239" y="-68.3" font-family="Times,serif" font-size="14.00">Hacking</text>
</g>
<!-- hacking&#45;&gt;espionage -->
<g id="edge14" class="edge">
<title>hacking&#45;&gt;espionage</title>
<path fill="none" stroke="black" d="M276.53,-74.65C313.11,-77.31 364,-81 364,-81 364,-81 382.12,-83.92 402.37,-87.19"/>
<polygon fill="black" stroke="black" points="401.98,-90.67 412.41,-88.81 403.09,-83.76 401.98,-90.67"/>
<text text-anchor="middle" x="359" y="-84.8" font-family="Times,serif" font-size="14.00">5</text>
</g>
<!-- counter_hacking -->
<g id="node14" class="node">
<title>counter_hacking</title>
<polygon fill="none" stroke="black" points="526.5,-60 389.5,-60 389.5,-24 526.5,-24 526.5,-60"/>
<text text-anchor="middle" x="458" y="-38.3" font-family="Times,serif" font-size="14.00">Counter&#45;Hacking</text>
</g>
<!-- hacking&#45;&gt;counter_hacking -->
<g id="edge4" class="edge">
<title>hacking&#45;&gt;counter_hacking</title>
<path fill="none" stroke="black" d="M276.81,-66.91C304.77,-63.05 344.21,-57.59 379.07,-52.77"/>
<polygon fill="black" stroke="black" points="379.82,-56.2 389.25,-51.37 378.86,-49.27 379.82,-56.2"/>
<text text-anchor="middle" x="359" y="-60.8" font-family="Times,serif" font-size="14.00">3</text>
</g>
<!-- diplomacy -->
<g id="node5" class="node">
<title>diplomacy</title>
<polygon fill="none" stroke="black" points="94,-252 2,-252 2,-216 94,-216 94,-252"/>
<text text-anchor="middle" x="48" y="-230.3" font-family="Times,serif" font-size="14.00">Diplomacy</text>
</g>
<!-- alliance_management -->
<g id="node6" class="node">
<title>alliance_management</title>
<polygon fill="none" stroke="black" points="324.5,-309 153.5,-309 153.5,-273 324.5,-273 324.5,-309"/>
<text text-anchor="middle" x="239" y="-287.3" font-family="Times,serif" font-size="14.00">Alliance Management</text>
</g>
<!-- diplomacy&#45;&gt;alliance_management -->
<g id="edge7" class="edge">
<title>diplomacy&#45;&gt;alliance_management</title>
<path fill="none" stroke="black" d="M94.27,-247.65C116.44,-254.34 143.64,-262.54 168.38,-270"/>
<polygon fill="black" stroke="black" points="167.5,-273.39 178.08,-272.93 169.52,-266.69 167.5,-273.39"/>
<text text-anchor="middle" x="119" y="-258.8" font-family="Times,serif" font-size="14.00">5</text>
</g>
<!-- reputation_management -->
<g id="node7" class="node">
<title>reputation_management</title>
<polygon fill="none" stroke="black" points="336,-252 142,-252 142,-216 336,-216 336,-252"/>
<text text-anchor="middle" x="239" y="-230.3" font-family="Times,serif" font-size="14.00">Reputation Management</text>
</g>
<!-- diplomacy&#45;&gt;reputation_management -->
<g id="edge1" class="edge">
<title>diplomacy&#45;&gt;reputation_management</title>
<path fill="none" stroke="black" d="M94.27,-234C105.76,-234 118.59,-234 131.73,-234"/>
<polygon fill="black" stroke="black" points="131.83,-237.5 141.83,-234 131.83,-230.5 131.83,-237.5"/>
<text text-anchor="middle" x="119" y="-237.8" font-family="Times,serif" font-size="14.00">5</text>
</g>
<!-- propaganda -->
<g id="node11" class="node">
<title>propaganda</title>
<polygon fill="none" stroke="black" points="290,-198 188,-198 188,-162 290,-162 290,-198"/>
<text text-anchor="middle" x="239" y="-176.3" font-family="Times,serif" font-size="14.00">Propaganda</text>
</g>
<!-- diplomacy&#45;&gt;propaganda -->
<g id="edge6" class="edge">
<title>diplomacy&#45;&gt;propaganda</title>
<path fill="none" stroke="black" d="M94.14,-220.8C105.24,-217.56 114,-215 114,-215 114,-215 142,-207 142,-207 142,-207 158.63,-202.32 178.05,-196.86"/>
<polygon fill="black" stroke="black" points="179.07,-200.21 187.75,-194.13 177.18,-193.47 179.07,-200.21"/>
<text text-anchor="middle" x="119" y="-218.8" font-family="Times,serif" font-size="14.00">3</text>
</g>
<!-- scanning_advanced -->
<g id="node8" class="node">
<title>scanning_advanced</title>
<polygon fill="none" stroke="black" points="317,-36 161,-36 161,0 317,0 317,-36"/>
<text text-anchor="middle" x="239" y="-14.3" font-family="Times,serif" font-size="14.00">Advanced Scanning</text>
</g>
<!-- mentoring -->
<g id="node9" class="node">
<title>mentoring</title>
<polygon fill="none" stroke="black" points="285,-366 193,-366 193,-330 285,-330 285,-366"/>
<text text-anchor="middle" x="239" y="-344.3" font-family="Times,serif" font-size="14.00">Mentoring</text>
</g>
<!-- leadership -->
<g id="node10" class="node">
<title>leadership</title>
<polygon fill="none" stroke="black" points="96,-366 0,-366 0,-330 96,-330 96,-366"/>
<text text-anchor="middle" x="48" y="-344.3" font-family="Times,serif" font-size="14.00">Leadership</text>
</g>
<!-- leadership&#45;&gt;fleet_coordination -->
<g id="edge15" class="edge">
<title>leadership&#45;&gt;fleet_coordination</title>
<path fill="none" stroke="black" d="M96.24,-361.81C106.32,-364.75 114,-367 114,-367 114,-367 142,-375 142,-375 142,-375 151.3,-377.61 164.1,-381.22"/>
<polygon fill="black" stroke="black" points="163.39,-384.65 173.97,-383.99 165.29,-377.91 163.39,-384.65"/>
<text text-anchor="middle" x="119" y="-372.8" font-family="Times,serif" font-size="14.00">5</text>
</g>
<!-- leadership&#45;&gt;alliance_management -->
<g id="edge8" class="edge">
<title>leadership&#45;&gt;alliance_management</title>
<path fill="none" stroke="black" d="M96.21,-333.76C118.02,-327.18 144.36,-319.24 168.39,-311.99"/>
<polygon fill="black" stroke="black" points="169.61,-315.28 178.18,-309.04 167.59,-308.58 169.61,-315.28"/>
<text text-anchor="middle" x="119" y="-330.8" font-family="Times,serif" font-size="14.00">5</text>
</g>
<!-- leadership&#45;&gt;mentoring -->
<g id="edge5" class="edge">
<title>leadership&#45;&gt;mentoring</title>
<path fill="none" stroke="black" d="M96.21,-348C122.38,-348 155.08,-348 182.48,-348"/>
<polygon fill="black" stroke="black" points="182.7,-351.5 192.7,-348 182.7,-344.5 182.7,-351.5"/>
<text text-anchor="middle" x="119" y="-351.8" font-family="Times,serif" font-size="14.00">3</text>
</g>
<!-- scanning -->
<g id="node12" class="node">
<title>scanning</title>
<polygon fill="none" stroke="black" points="89.5,-90 6.5,-90 6.5,-54 89.5,-54 89.5,-90"/>
<text text-anchor="middle" x="48" y="-68.3" font-family="Times,serif" font-size="14.00">Scanning</text>
</g>
<!-- scanning&#45;&gt;cloaking -->
<g id="edge12" class="edge">
<title>scanning&#45;&gt;cloaking</title>
<path fill="none" stroke="black" d="M89.8,-83.93C102.86,-87.74 114,-91 114,-91 114,-91 142,-99 142,-99 142,-99 165.63,-105.65 189.44,-112.34"/>
<polygon fill="black" stroke="black" points="188.66,-115.76 199.23,-115.1 190.55,-109.02 188.66,-115.76"/>
<text text-anchor="middle" x="119" y="-96.8" font-family="Times,serif" font-size="14.00">3</text>
</g>
<!-- scanning&#45;&gt;hacking -->
<g id="edge9" class="edge">
<title>scanning&#45;&gt;hacking</title>
<path fill="none" stroke="black" d="M89.55,-72C119.36,-72 159.96,-72 191.17,-72"/>
<polygon fill="black" stroke="black" points="191.36,-75.5 201.36,-72 191.36,-68.5 191.36,-75.5"/>
<text text-anchor="middle" x="119" y="-75.8" font-family="Times,serif" font-size="14.00">3</text>
</g>
<!-- scanning&#45;&gt;scanning_advanced -->
<g id="edge2" class="edge">
<title>scanning&#45;&gt;scanning_advanced</title>
<path fill="none" stroke="black" d="M89.8,-60.07C102.86,-56.26 114,-53 114,-53 114,-53 142,-45 142,-45 142,-45 151.3,-42.39 164.1,-38.78"/>
<polygon fill="black" stroke="black" points="165.29,-42.09 173.97,-36.01 163.39,-35.35 165.29,-42.09"/>
<text text-anchor="middle" x="119" y="-56.8" font-family="Times,serif" font-size="14.00">5</text>
</g>
<!-- counter_hacking&#45;&gt;counter_intelligence -->
<g id="edge10" class="edge">
<title>counter_hacking&#45;&gt;counter_intelligence</title>
<path fill="none" stroke="black" d="M526.55,-50.53C545.97,-52.98 562,-55 562,-55 562,-55 564.8,-55.4 569.44,-56.06"/>
<polygon fill="black" stroke="black" points="569.22,-59.56 579.61,-57.5 570.2,-52.63 569.22,-59.56"/>
<text text-anchor="middle" x="557" y="-58.8" font-family="Times,serif" font-size="14.00">3</text>
</g>
</g>
</svg>
