<?xml version="1.0" encoding="UTF-8" standalone="no"?>
<!DOCTYPE svg PUBLIC "-//W3C//DTD SVG 1.1//EN"
 "http://www.w3.org/Graphics/SVG/1.1/DTD/svg11.dtd">
<!-- Generated by graphviz version 2.43.0 (0)
 -->
<!-- Title: Support Pages: 1 -->
<svg width="751pt" height="458pt"
 viewBox="0.00 0.00 751.00 458.00" xmlns="http://www.w3.org/2000/svg" xmlns:xlink="http://www.w3.org/1999/xlink">
<g id="graph0" class="graph" transform="scale(1 1) rotate(0) translate(4 454)">
<title>Support</title>
<polygon fill="white" stroke="transparent" points="-4,4 -4,-454 747,-454 747,4 -4,4"/>
<!-- advanced_cloaking -->
<g id="node1" class="node">
<title>advanced_cloaking</title>
<g id="a_node1"><a xlink:href="advanced_cloaking.html" xlink:title="Advanced Cloaking">
<polygon fill="none" stroke="black" points="534,-150 382,-150 382,-114 534,-114 534,-150"/>
<text text-anchor="middle" x="458" y="-128.3" font-family="Times,serif" font-size="14.00">Advanced Cloaking</text>
</a>
</g>
</g>
<!-- advanced_scanning -->
<g id="node2" class="node">
<title>advanced_scanning</title>
<g id="a_node2"><a xlink:href="advanced_scanning.html" xlink:title="Advanced Scanning">
<polygon fill="none" stroke="black" points="317,-174 161,-174 161,-138 317,-138 317,-174"/>
<text text-anchor="middle" x="239" y="-152.3" font-family="Times,serif" font-size="14.00">Advanced Scanning</text>
</a>
</g>
</g>
<!-- alliance_management -->
<g id="node3" class="node">
<title>alliance_management</title>
<g id="a_node3"><a xlink:href="alliance_management.html" xlink:title="Alliance Management">
<polygon fill="none" stroke="black" points="324.5,-339 153.5,-339 153.5,-303 324.5,-303 324.5,-339"/>
<text text-anchor="middle" x="239" y="-317.3" font-family="Times,serif" font-size="14.00">Alliance Management</text>
</a>
</g>
</g>
<!-- cloaking -->
<g id="node4" class="node">
<title>cloaking</title>
<g id="a_node4"><a xlink:href="cloaking.html" xlink:title="Cloaking">
<polygon fill="none" stroke="black" points="278.5,-120 199.5,-120 199.5,-84 278.5,-84 278.5,-120"/>
<text text-anchor="middle" x="239" y="-98.3" font-family="Times,serif" font-size="14.00">Cloaking</text>
</a>
</g>
</g>
<!-- cloaking&#45;&gt;advanced_cloaking -->
<g id="edge1" class="edge">
<title>cloaking&#45;&gt;advanced_cloaking</title>
<path fill="none" stroke="black" d="M278.8,-107.36C304.54,-110.92 339.35,-115.74 371.38,-120.16"/>
<polygon fill="black" stroke="black" points="371.29,-123.68 381.67,-121.59 372.24,-116.75 371.29,-123.68"/>
<text text-anchor="middle" x="359" y="-121.8" font-family="Times,serif" font-size="14.00">5</text>
</g>
<!-- espionage -->
<g id="node8" class="node">
<title>espionage</title>
<g id="a_node8"><a xlink:href="espionage.html" xlink:title="Espionage">
<polygon fill="none" stroke="black" points="503.5,-90 412.5,-90 412.5,-54 503.5,-54 503.5,-90"/>
<text text-anchor="middle" x="458" y="-68.3" font-family="Times,serif" font-size="14.00">Espionage</text>
</a>
</g>
</g>
<!-- cloaking&#45;&gt;espionage -->
<g id="edge9" class="edge">
<title>cloaking&#45;&gt;espionage</title>
<path fill="none" stroke="black" d="M278.8,-96.64C313.15,-91.89 363.68,-84.9 402.16,-79.58"/>
<polygon fill="black" stroke="black" points="402.74,-83.03 412.17,-78.2 401.79,-76.1 402.74,-83.03"/>
<text text-anchor="middle" x="359" y="-90.8" font-family="Times,serif" font-size="14.00">3</text>
</g>
<!-- counter_hacking -->
<g id="node5" class="node">
<title>counter_hacking</title>
<g id="a_node5"><a xlink:href="counter_hacking.html" xlink:title="Counter&#45;Hacking">
<polygon fill="none" stroke="black" points="526.5,-36 389.5,-36 389.5,0 526.5,0 526.5,-36"/>
<text text-anchor="middle" x="458" y="-14.3" font-family="Times,serif" font-size="14.00">Counter&#45;Hacking</text>
</a>
</g>
</g>
<!-- counter_intelligence -->
<g id="node6" class="node">
<title>counter_intelligence</title>
<g id="a_node6"><a xlink:href="counter_intelligence.html" xlink:title="Counter&#45;Intelligence">
<polygon fill="none" stroke="black" points="743,-63 580,-63 580,-27 743,-27 743,-63"/>
<text text-anchor="middle" x="661.5" y="-41.3" font-family="Times,serif" font-size="14.00">Counter&#45;Intelligence</text>
</a>
</g>
</g>
<!-- counter_hacking&#45;&gt;counter_intelligence -->
<g id="edge7" class="edge">
<title>counter_hacking&#45;&gt;counter_intelligence</title>
<path fill="none" stroke="black" d="M526.55,-26.53C545.97,-28.98 562,-31 562,-31 562,-31 564.8,-31.4 569.44,-32.06"/>
<polygon fill="black" stroke="black" points="569.22,-35.56 579.61,-33.5 570.2,-28.63 569.22,-35.56"/>
<text text-anchor="middle" x="557" y="-34.8" font-family="Times,serif" font-size="14.00">3</text>
</g>
<!-- diplomacy -->
<g id="node7" class="node">
<title>diplomacy</title>
<g id="a_node7"><a xlink:href="diplomacy.html" xlink:title="Diplomacy">
<polygon fill="none" stroke="black" points="94,-396 2,-396 2,-360 94,-360 94,-396"/>
<text text-anchor="middle" x="48" y="-374.3" font-family="Times,serif" font-size="14.00">Diplomacy</text>
</a>
</g>
</g>
<!-- diplomacy&#45;&gt;alliance_management -->
<g id="edge3" class="edge">
<title>diplomacy&#45;&gt;alliance_management</title>
<path fill="none" stroke="black" d="M94.27,-364.35C116.44,-357.66 143.64,-349.46 168.38,-342"/>
<polygon fill="black" stroke="black" points="169.52,-345.31 178.08,-339.07 167.5,-338.61 169.52,-345.31"/>
<text text-anchor="middle" x="119" y="-360.8" font-family="Times,serif" font-size="14.00">5</text>
</g>
<!-- propaganda -->
<g id="node13" class="node">
<title>propaganda</title>
<g id="a_node13"><a xlink:href="propaganda.html" xlink:title="Propaganda">
<polygon fill="none" stroke="black" points="290,-450 188,-450 188,-414 290,-414 290,-450"/>
<text text-anchor="middle" x="239" y="-428.3" font-family="Times,serif" font-size="14.00">Propaganda</text>
</a>
</g>
</g>
<!-- diplomacy&#45;&gt;propaganda -->
<g id="edge14" class="edge">
<title>diplomacy&#45;&gt;propaganda</title>
<path fill="none" stroke="black" d="M94.14,-391.2C105.24,-394.44 114,-397 114,-397 114,-397 142,-405 142,-405 142,-405 158.63,-409.68 178.05,-415.14"/>
<polygon fill="black" stroke="black" points="177.18,-418.53 187.75,-417.87 179.07,-411.79 177.18,-418.53"/>
<text text-anchor="middle" x="119" y="-402.8" font-family="Times,serif" font-size="14.00">3</text>
</g>
<!-- reputation_management -->
<g id="node14" class="node">
<title>reputation_management</title>
<g id="a_node14"><a xlink:href="reputation_management.html" xlink:title="Reputation Management">
<polygon fill="none" stroke="black" points="336,-396 142,-396 142,-360 336,-360 336,-396"/>
<text text-anchor="middle" x="239" y="-374.3" font-family="Times,serif" font-size="14.00">Reputation Management</text>
</a>
</g>
</g>
<!-- diplomacy&#45;&gt;reputation_management -->
<g id="edge15" class="edge">
<title>diplomacy&#45;&gt;reputation_management</title>
<path fill="none" stroke="black" d="M94.27,-378C105.76,-378 118.59,-378 131.73,-378"/>
<polygon fill="black" stroke="black" points="131.83,-381.5 141.83,-378 131.83,-374.5 131.83,-381.5"/>
<text text-anchor="middle" x="119" y="-381.8" font-family="Times,serif" font-size="14.00">5</text>
</g>
<!-- espionage&#45;&gt;counter_intelligence -->
<g id="edge8" class="edge">
<title>espionage&#45;&gt;counter_intelligence</title>
<path fill="none" stroke="black" d="M503.72,-66.01C523.21,-63.4 546.81,-60.23 569.71,-57.17"/>
<polygon fill="black" stroke="black" points="570.37,-60.61 579.82,-55.81 569.44,-53.67 570.37,-60.61"/>
<text text-anchor="middle" x="557" y="-63.8" font-family="Times,serif" font-size="14.00">3</text>
</g>
<!-- fleet_coordination -->
<g id="node9" class="node">
<title>fleet_coordination</title>
<g id="a_node9"><a xlink:href="fleet_coordination.html" xlink:title="Fleet Coordination">
<polygon fill="none" stroke="black" points="314,-228 164,-228 164,-192 314,-192 314,-228"/>
<text text-anchor="middle" x="239" y="-206.3" font-family="Times,serif" font-size="14.00">Fleet Coordination</text>
</a>
</g>
</g>
<!-- hacking -->
<g id="node10" class="node">
<title>hacking</title>
<g id="a_node10"><a xlink:href="hacking.html" xlink:title="Hacking">
<polygon fill="none" stroke="black" points="276.5,-66 201.5,-66 201.5,-30 276.5,-30 276.5,-66"/>
<text text-anchor="middle" x="239" y="-44.3" font-family="Times,serif" font-size="14.00">Hacking</text>
</a>
</g>
</g>
<!-- hacking&#45;&gt;counter_hacking -->
<g id="edge6" class="edge">
<title>hacking&#45;&gt;counter_hacking</title>
<path fill="none" stroke="black" d="M276.81,-42.91C304.77,-39.05 344.21,-33.59 379.07,-28.77"/>
<polygon fill="black" stroke="black" points="379.82,-32.2 389.25,-27.37 378.86,-25.27 379.82,-32.2"/>
<text text-anchor="middle" x="359" y="-36.8" font-family="Times,serif" font-size="14.00">3</text>
</g>
<!-- hacking&#45;&gt;espionage -->
<g id="edge10" class="edge">
<title>hacking&#45;&gt;espionage</title>
<path fill="none" stroke="black" d="M276.53,-50.65C313.11,-53.31 364,-57 364,-57 364,-57 382.12,-59.92 402.37,-63.19"/>
<polygon fill="black" stroke="black" points="401.98,-66.67 412.41,-64.81 403.09,-59.76 401.98,-66.67"/>
<text text-anchor="middle" x="359" y="-60.8" font-family="Times,serif" font-size="14.00">5</text>
</g>
<!-- leadership -->
<g id="node11" class="node">
<title>leadership</title>
<g id="a_node11"><a xlink:href="leadership.html" xlink:title="Leadership">
<polygon fill="none" stroke="black" points="96,-282 0,-282 0,-246 96,-246 96,-282"/>
<text text-anchor="middle" x="48" y="-260.3" font-family="Times,serif" font-size="14.00">Leadership</text>
</a>
</g>
</g>
<!-- leadership&#45;&gt;alliance_management -->
<g id="edge4" class="edge">
<title>leadership&#45;&gt;alliance_management</title>
<path fill="none" stroke="black" d="M96.21,-278.24C118.02,-284.82 144.36,-292.76 168.39,-300.01"/>
<polygon fill="black" stroke="black" points="167.59,-303.42 178.18,-302.96 169.61,-296.72 167.59,-303.42"/>
<text text-anchor="middle" x="119" y="-288.8" font-family="Times,serif" font-size="14.00">5</text>
</g>
<!-- leadership&#45;&gt;fleet_coordination -->
<g id="edge11" class="edge">
<title>leadership&#45;&gt;fleet_coordination</title>
<path fill="none" stroke="black" d="M96.24,-250.19C106.32,-247.25 114,-245 114,-245 114,-245 142,-237 142,-237 142,-237 151.3,-234.39 164.1,-230.78"/>
<polygon fill="black" stroke="black" points="165.29,-234.09 173.97,-228.01 163.39,-227.35 165.29,-234.09"/>
<text text-anchor="middle" x="119" y="-248.8" font-family="Times,serif" font-size="14.00">5</text>
</g>
<!-- mentoring -->
<g id="node12" class="node">
<title>mentoring</title>
<g id="a_node12"><a xlink:href="mentoring.html" xlink:title="Mentoring">
<polygon fill="none" stroke="black" points="285,-282 193,-282 193,-246 285,-246 285,-282"/>
<text text-anchor="middle" x="239" y="-260.3" font-family="Times,serif" font-size="14.00">Mentoring</text>
</a>
</g>
</g>
<!-- leadership&#45;&gt;mentoring -->
<g id="edge13" class="edge">
<title>leadership&#45;&gt;mentoring</title>
<path fill="none" stroke="black" d="M96.21,-264C122.38,-264 155.08,-264 182.48,-264"/>
<polygon fill="black" stroke="black" points="182.7,-267.5 192.7,-264 182.7,-260.5 182.7,-267.5"/>
<text text-anchor="middle" x="119" y="-267.8" font-family="Times,serif" font-size="14.00">3</text>
</g>
<!-- scanning -->
<g id="node15" class="node">
<title>scanning</title>
<g id="a_node15"><a xlink:href="scanning.html" xlink:title="Scanning">
<polygon fill="none" stroke="black" points="89.5,-120 6.5,-120 6.5,-84 89.5,-84 89.5,-120"/>
<text text-anchor="middle" x="48" y="-98.3" font-family="Times,serif" font-size="14.00">Scanning</text>
</a>
</g>
</g>
<!-- scanning&#45;&gt;advanced_scanning -->
<g id="edge2" class="edge">
<title>scanning&#45;&gt;advanced_scanning</title>
<path fill="none" stroke="black" d="M89.8,-113.93C102.86,-117.74 114,-121 114,-121 114,-121 142,-129 142,-129 142,-129 151.3,-131.61 164.1,-135.22"/>
<polygon fill="black" stroke="black" points="163.39,-138.65 173.97,-137.99 165.29,-131.91 163.39,-138.65"/>
<text text-anchor="middle" x="119" y="-126.8" font-family="Times,serif" font-size="14.00">5</text>
</g>
<!-- scanning&#45;&gt;cloaking -->
<g id="edge5" class="edge">
<title>scanning&#45;&gt;cloaking</title>
<path fill="none" stroke="black" d="M89.55,-102C118.78,-102 158.38,-102 189.32,-102"/>
<polygon fill="black" stroke="black" points="189.46,-105.5 199.46,-102 189.46,-98.5 189.46,-105.5"/>
<text text-anchor="middle" x="119" y="-105.8" font-family="Times,serif" font-size="14.00">3</text>
</g>
<!-- scanning&#45;&gt;hacking -->
<g id="edge12" class="edge">
<title>scanning&#45;&gt;hacking</title>
<path fill="none" stroke="black" d="M89.8,-90.07C102.86,-86.26 114,-83 114,-83 114,-83 142,-75 142,-75 142,-75 167.18,-67.92 191.74,-61.01"/>
<polygon fill="black" stroke="black" points="192.75,-64.36 201.43,-58.28 190.86,-57.62 192.75,-64.36"/>
<text text-anchor="middle" x="119" y="-86.8" font-family="Times,serif" font-size="14.00">3</text>
</g>
</g>
</svg>
