<?xml version="1.0" encoding="UTF-8" standalone="no"?>
<!DOCTYPE svg PUBLIC "-//W3C//DTD SVG 1.1//EN"
 "http://www.w3.org/Graphics/SVG/1.1/DTD/svg11.dtd">
<!-- Generated by graphviz version 2.43.0 (0)
 -->
<!-- Title: Support Pages: 1 -->
<svg width="306pt" height="179pt"
 viewBox="0.00 0.00 306.00 179.00" xmlns="http://www.w3.org/2000/svg" xmlns:xlink="http://www.w3.org/1999/xlink">
<g id="graph0" class="graph" transform="scale(1 1) rotate(0) translate(4 175)">
<title>Support</title>
<polygon fill="white" stroke="transparent" points="-4,4 -4,-175 302,-175 302,4 -4,4"/>
<!-- advanced_scanning -->
<g id="node1" class="node">
<title>advanced_scanning</title>
<g id="a_node1"><a xlink:href="advanced_scanning.html" xlink:title="Advanced Scanning">
<polygon fill="none" stroke="black" points="298,-90 142,-90 142,-54 298,-54 298,-90"/>
<text text-anchor="middle" x="220" y="-68.3" font-family="Times,serif" font-size="14.00">Advanced Scanning</text>
</a>
</g>
</g>
<!-- cloaking -->
<g id="node2" class="node">
<title>cloaking</title>
<g id="a_node2"><a xlink:href="cloaking.html" xlink:title="Cloaking">
<polygon fill="none" stroke="black" points="259.5,-36 180.5,-36 180.5,0 259.5,0 259.5,-36"/>
<text text-anchor="middle" x="220" y="-14.3" font-family="Times,serif" font-size="14.00">Cloaking</text>
</a>
</g>
</g>
<!-- diplomacy -->
<g id="node3" class="node">
<title>diplomacy</title>
<g id="a_node3"><a xlink:href="diplomacy.html" xlink:title="Diplomacy">
<polygon fill="none" stroke="black" points="94,-117 2,-117 2,-81 94,-81 94,-117"/>
<text text-anchor="middle" x="48" y="-95.3" font-family="Times,serif" font-size="14.00">Diplomacy</text>
</a>
</g>
</g>
<!-- leadership -->
<g id="node4" class="node">
<title>leadership</title>
<g id="a_node4"><a xlink:href="leadership.html" xlink:title="Leadership">
<polygon fill="none" stroke="black" points="96,-171 0,-171 0,-135 96,-135 96,-171"/>
<text text-anchor="middle" x="48" y="-149.3" font-family="Times,serif" font-size="14.00">Leadership</text>
</a>
</g>
</g>
<!-- scanning -->
<g id="node5" class="node">
<title>scanning</title>
<g id="a_node5"><a xlink:href="scanning.html" xlink:title="Scanning">
<polygon fill="none" stroke="black" points="89.5,-63 6.5,-63 6.5,-27 89.5,-27 89.5,-63"/>
<text text-anchor="middle" x="48" y="-41.3" font-family="Times,serif" font-size="14.00">Scanning</text>
</a>
</g>
</g>
<!-- scanning&#45;&gt;advanced_scanning -->
<g id="edge1" class="edge">
<title>scanning&#45;&gt;advanced_scanning</title>
<path fill="none" stroke="black" d="M89.72,-51.47C102.49,-53.5 117.11,-55.82 131.82,-58.15"/>
<polygon fill="black" stroke="black" points="131.56,-61.66 141.99,-59.77 132.66,-54.74 131.56,-61.66"/>
<text text-anchor="middle" x="119" y="-59.8" font-family="Times,serif" font-size="14.00">5</text>
</g>
<!-- scanning&#45;&gt;cloaking -->
<g id="edge2" class="edge">
<title>scanning&#45;&gt;cloaking</title>
<path fill="none" stroke="black" d="M89.72,-38.53C113.89,-34.69 144.7,-29.8 170.17,-25.76"/>
<polygon fill="black" stroke="black" points="171.04,-29.16 180.36,-24.14 169.94,-22.25 171.04,-29.16"/>
<text text-anchor="middle" x="119" y="-36.8" font-family="Times,serif" font-size="14.00">3</text>
</g>
</g>
</svg>
