<?xml version="1.0" encoding="UTF-8" standalone="no"?>
<!DOCTYPE svg PUBLIC "-//W3C//DTD SVG 1.1//EN"
 "http://www.w3.org/Graphics/SVG/1.1/DTD/svg11.dtd">
<!-- Generated by graphviz version 2.43.0 (0)
 -->
<!-- Title: Trading Pages: 1 -->
<svg width="227pt" height="206pt"
 viewBox="0.00 0.00 227.00 206.00" xmlns="http://www.w3.org/2000/svg" xmlns:xlink="http://www.w3.org/1999/xlink">
<g id="graph0" class="graph" transform="scale(1 1) rotate(0) translate(4 202)">
<title>Trading</title>
<polygon fill="white" stroke="transparent" points="-4,4 -4,-202 223,-202 223,4 -4,4"/>
<!-- contracts -->
<g id="node1" class="node">
<title>contracts</title>
<g id="a_node1"><a xlink:href="contracts.html" xlink:title="Contracts">
<polygon fill="none" stroke="black" points="211.5,-198 125.5,-198 125.5,-162 211.5,-162 211.5,-198"/>
<text text-anchor="middle" x="168.5" y="-176.3" font-family="Times,serif" font-size="14.00">Contracts</text>
</a>
</g>
</g>
<!-- hauling -->
<g id="node2" class="node">
<title>hauling</title>
<g id="a_node2"><a xlink:href="hauling.html" xlink:title="Hauling">
<polygon fill="none" stroke="black" points="205,-144 132,-144 132,-108 205,-108 205,-144"/>
<text text-anchor="middle" x="168.5" y="-122.3" font-family="Times,serif" font-size="14.00">Hauling</text>
</a>
</g>
</g>
<!-- negotiation -->
<g id="node3" class="node">
<title>negotiation</title>
<g id="a_node3"><a xlink:href="negotiation.html" xlink:title="Negotiation">
<polygon fill="none" stroke="black" points="219,-90 118,-90 118,-54 219,-54 219,-90"/>
<text text-anchor="middle" x="168.5" y="-68.3" font-family="Times,serif" font-size="14.00">Negotiation</text>
</a>
</g>
</g>
<!-- smuggling -->
<g id="node4" class="node">
<title>smuggling</title>
<g id="a_node4"><a xlink:href="smuggling.html" xlink:title="Smuggling">
<polygon fill="none" stroke="black" points="215.5,-36 121.5,-36 121.5,0 215.5,0 215.5,-36"/>
<text text-anchor="middle" x="168.5" y="-14.3" font-family="Times,serif" font-size="14.00">Smuggling</text>
</a>
</g>
</g>
<!-- trading -->
<g id="node5" class="node">
<title>trading</title>
<g id="a_node5"><a xlink:href="trading.html" xlink:title="Trading">
<polygon fill="none" stroke="black" points="72,-117 0,-117 0,-81 72,-81 72,-117"/>
<text text-anchor="middle" x="36" y="-95.3" font-family="Times,serif" font-size="14.00">Trading</text>
</a>
</g>
</g>
<!-- trading&#45;&gt;contracts -->
<g id="edge1" class="edge">
<title>trading&#45;&gt;contracts</title>
<path fill="none" stroke="black" d="M64.42,-117.28C87.92,-132.95 118,-153 118,-153 118,-153 121.04,-154.66 125.61,-157.15"/>
<polygon fill="black" stroke="black" points="124.03,-160.27 134.48,-161.99 127.38,-154.13 124.03,-160.27"/>
<text text-anchor="middle" x="95" y="-142.8" font-family="Times,serif" font-size="14.00">5</text>
</g>
<!-- trading&#45;&gt;hauling -->
<g id="edge2" class="edge">
<title>trading&#45;&gt;hauling</title>
<path fill="none" stroke="black" d="M72.32,-106.31C87.57,-109.46 105.61,-113.19 121.86,-116.56"/>
<polygon fill="black" stroke="black" points="121.2,-119.99 131.7,-118.59 122.62,-113.14 121.2,-119.99"/>
<text text-anchor="middle" x="95" y="-114.8" font-family="Times,serif" font-size="14.00">3</text>
</g>
<!-- trading&#45;&gt;negotiation -->
<g id="edge3" class="edge">
<title>trading&#45;&gt;negotiation</title>
<path fill="none" stroke="black" d="M72.32,-91.69C83.28,-89.42 95.69,-86.86 107.84,-84.34"/>
<polygon fill="black" stroke="black" points="108.87,-87.71 117.95,-82.25 107.45,-80.85 108.87,-87.71"/>
<text text-anchor="middle" x="95" y="-90.8" font-family="Times,serif" font-size="14.00">5</text>
</g>
<!-- trading&#45;&gt;smuggling -->
<g id="edge4" class="edge">
<title>trading&#45;&gt;smuggling</title>
<path fill="none" stroke="black" d="M64.42,-80.72C87.92,-65.05 118,-45 118,-45 118,-45 121.04,-43.34 125.61,-40.85"/>
<polygon fill="black" stroke="black" points="127.38,-43.87 134.48,-36.01 124.03,-37.73 127.38,-43.87"/>
<text text-anchor="middle" x="95" y="-65.8" font-family="Times,serif" font-size="14.00">5</text>
</g>
</g>
</svg>
