<?xml version="1.0" encoding="UTF-8" standalone="no"?>
<!DOCTYPE svg PUBLIC "-//W3C//DTD SVG 1.1//EN"
 "http://www.w3.org/Graphics/SVG/1.1/DTD/svg11.dtd">
<!-- Generated by graphviz version 2.43.0 (0)
 -->
<!-- Title: Trading Pages: 1 -->
<svg width="517pt" height="470pt"
 viewBox="0.00 0.00 517.00 470.00" xmlns="http://www.w3.org/2000/svg" xmlns:xlink="http://www.w3.org/1999/xlink">
<g id="graph0" class="graph" transform="scale(1 1) rotate(0) translate(4 466)">
<title>Trading</title>
<polygon fill="white" stroke="transparent" points="-4,4 -4,-466 513,-466 513,4 -4,4"/>
<!-- trading -->
<g id="node1" class="node">
<title>trading</title>
<polygon fill="none" stroke="black" points="72,-249 0,-249 0,-213 72,-213 72,-249"/>
<text text-anchor="middle" x="36" y="-227.3" font-family="Times,serif" font-size="14.00">Trading</text>
</g>
<!-- rare_goods -->
<g id="node3" class="node">
<title>rare_goods</title>
<polygon fill="none" stroke="black" points="291,-462 118,-462 118,-426 291,-426 291,-462"/>
<text text-anchor="middle" x="204.5" y="-440.3" font-family="Times,serif" font-size="14.00">Rare Goods Expertise</text>
</g>
<!-- trading&#45;&gt;rare_goods -->
<g id="edge5" class="edge">
<title>trading&#45;&gt;rare_goods</title>
<path fill="none" stroke="black" d="M43.71,-249.24C57.97,-287.99 90,-375 90,-375 90,-375 118,-417 118,-417 118,-417 125.8,-419.46 136.7,-422.9"/>
<polygon fill="black" stroke="black" points="135.88,-426.32 146.47,-425.99 137.99,-419.64 135.88,-426.32"/>
<text text-anchor="middle" x="95" y="-392.8" font-family="Times,serif" font-size="14.00">5</text>
</g>
<!-- insurance_brokering -->
<g id="node4" class="node">
<title>insurance_brokering</title>
<polygon fill="none" stroke="black" points="286,-408 123,-408 123,-372 286,-372 286,-408"/>
<text text-anchor="middle" x="204.5" y="-386.3" font-family="Times,serif" font-size="14.00">Insurance Brokering</text>
</g>
<!-- trading&#45;&gt;insurance_brokering -->
<g id="edge8" class="edge">
<title>trading&#45;&gt;insurance_brokering</title>
<path fill="none" stroke="black" d="M44.82,-249C59.56,-282.94 90,-353 90,-353 90,-353 113.01,-360.5 138.31,-368.75"/>
<polygon fill="black" stroke="black" points="137.49,-372.16 148.08,-371.93 139.66,-365.51 137.49,-372.16"/>
<text text-anchor="middle" x="95" y="-359.8" font-family="Times,serif" font-size="14.00">5</text>
</g>
<!-- loan_management -->
<g id="node5" class="node">
<title>loan_management</title>
<polygon fill="none" stroke="black" points="497.5,-340 348.5,-340 348.5,-304 497.5,-304 497.5,-340"/>
<text text-anchor="middle" x="423" y="-318.3" font-family="Times,serif" font-size="14.00">Loan Management</text>
</g>
<!-- trading&#45;&gt;loan_management -->
<g id="edge11" class="edge">
<title>trading&#45;&gt;loan_management</title>
<path fill="none" stroke="black" d="M55.38,-249.38C79.28,-273.28 118,-312 118,-312 118,-312 309,-322 309,-322 309,-322 321.41,-322 338.01,-322"/>
<polygon fill="black" stroke="black" points="338.2,-325.5 348.2,-322 338.2,-318.5 338.2,-325.5"/>
<text text-anchor="middle" x="204.5" y="-323.8" font-family="Times,serif" font-size="14.00">3</text>
</g>
<!-- smuggling -->
<g id="node6" class="node">
<title>smuggling</title>
<polygon fill="none" stroke="black" points="251.5,-249 157.5,-249 157.5,-213 251.5,-213 251.5,-249"/>
<text text-anchor="middle" x="204.5" y="-227.3" font-family="Times,serif" font-size="14.00">Smuggling</text>
</g>
<!-- trading&#45;&gt;smuggling -->
<g id="edge1" class="edge">
<title>trading&#45;&gt;smuggling</title>
<path fill="none" stroke="black" d="M72.31,-231C94.12,-231 122.6,-231 147.44,-231"/>
<polygon fill="black" stroke="black" points="147.48,-234.5 157.48,-231 147.48,-227.5 147.48,-234.5"/>
<text text-anchor="middle" x="95" y="-234.8" font-family="Times,serif" font-size="14.00">5</text>
</g>
<!-- negotiation -->
<g id="node7" class="node">
<title>negotiation</title>
<polygon fill="none" stroke="black" points="255,-303 154,-303 154,-267 255,-267 255,-303"/>
<text text-anchor="middle" x="204.5" y="-281.3" font-family="Times,serif" font-size="14.00">Negotiation</text>
</g>
<!-- trading&#45;&gt;negotiation -->
<g id="edge9" class="edge">
<title>trading&#45;&gt;negotiation</title>
<path fill="none" stroke="black" d="M72.06,-243.57C81.91,-247.1 90,-250 90,-250 90,-250 116.58,-258.2 144.02,-266.66"/>
<polygon fill="black" stroke="black" points="143.13,-270.05 153.72,-269.65 145.19,-263.36 143.13,-270.05"/>
<text text-anchor="middle" x="95" y="-255.8" font-family="Times,serif" font-size="14.00">5</text>
</g>
<!-- contracts -->
<g id="node8" class="node">
<title>contracts</title>
<polygon fill="none" stroke="black" points="247.5,-195 161.5,-195 161.5,-159 247.5,-159 247.5,-195"/>
<text text-anchor="middle" x="204.5" y="-173.3" font-family="Times,serif" font-size="14.00">Contracts</text>
</g>
<!-- trading&#45;&gt;contracts -->
<g id="edge4" class="edge">
<title>trading&#45;&gt;contracts</title>
<path fill="none" stroke="black" d="M72.06,-218.43C81.91,-214.9 90,-212 90,-212 90,-212 121.73,-202.22 151.63,-192.99"/>
<polygon fill="black" stroke="black" points="152.71,-196.32 161.24,-190.03 150.65,-189.63 152.71,-196.32"/>
<text text-anchor="middle" x="95" y="-215.8" font-family="Times,serif" font-size="14.00">5</text>
</g>
<!-- bulk_trading -->
<g id="node9" class="node">
<title>bulk_trading</title>
<polygon fill="none" stroke="black" points="477.5,-123 368.5,-123 368.5,-87 477.5,-87 477.5,-123"/>
<text text-anchor="middle" x="423" y="-101.3" font-family="Times,serif" font-size="14.00">Bulk Trading</text>
</g>
<!-- trading&#45;&gt;bulk_trading -->
<g id="edge7" class="edge">
<title>trading&#45;&gt;bulk_trading</title>
<path fill="none" stroke="black" d="M52.24,-212.94C75.7,-185.13 118,-135 118,-135 118,-135 269.2,-120.08 358.33,-111.28"/>
<polygon fill="black" stroke="black" points="358.74,-114.76 368.35,-110.29 358.06,-107.79 358.74,-114.76"/>
<text text-anchor="middle" x="204.5" y="-138.8" font-family="Times,serif" font-size="14.00">5</text>
</g>
<!-- hauling -->
<g id="node10" class="node">
<title>hauling</title>
<polygon fill="none" stroke="black" points="241,-90 168,-90 168,-54 241,-54 241,-90"/>
<text text-anchor="middle" x="204.5" y="-68.3" font-family="Times,serif" font-size="14.00">Hauling</text>
</g>
<!-- trading&#45;&gt;hauling -->
<g id="edge13" class="edge">
<title>trading&#45;&gt;hauling</title>
<path fill="none" stroke="black" d="M44.15,-212.93C58.61,-176.35 90,-97 90,-97 90,-97 126.33,-89 157.88,-82.05"/>
<polygon fill="black" stroke="black" points="158.89,-85.41 167.9,-79.84 157.38,-78.57 158.89,-85.41"/>
<text text-anchor="middle" x="95" y="-100.8" font-family="Times,serif" font-size="14.00">3</text>
</g>
<!-- auction_mastery -->
<g id="node11" class="node">
<title>auction_mastery</title>
<polygon fill="none" stroke="black" points="271.5,-36 137.5,-36 137.5,0 271.5,0 271.5,-36"/>
<text text-anchor="middle" x="204.5" y="-14.3" font-family="Times,serif" font-size="14.00">Auction Mastery</text>
</g>
<!-- trading&#45;&gt;auction_mastery -->
<g id="edge12" class="edge">
<title>trading&#45;&gt;auction_mastery</title>
<path fill="none" stroke="black" d="M43.18,-212.8C57.16,-171.65 90,-75 90,-75 90,-75 118,-45 118,-45 118,-45 125.8,-42.54 136.7,-39.1"/>
<polygon fill="black" stroke="black" points="137.99,-42.36 146.47,-36.01 135.88,-35.68 137.99,-42.36"/>
<text text-anchor="middle" x="95" y="-78.8" font-family="Times,serif" font-size="14.00">5</text>
</g>
<!-- black_market -->
<g id="node2" class="node">
<title>black_market</title>
<polygon fill="none" stroke="black" points="509,-275 337,-275 337,-239 509,-239 509,-275"/>
<text text-anchor="middle" x="423" y="-253.3" font-family="Times,serif" font-size="14.00">Black Market Trading</text>
</g>
<!-- smuggling&#45;&gt;black_market -->
<g id="edge3" class="edge">
<title>smuggling&#45;&gt;black_market</title>
<path fill="none" stroke="black" d="M251.66,-232.22C283.09,-233.05 319,-234 319,-234 319,-234 323.81,-235.07 331.36,-236.76"/>
<polygon fill="black" stroke="black" points="330.83,-240.23 341.35,-238.99 332.35,-233.4 330.83,-240.23"/>
<text text-anchor="middle" x="314" y="-237.8" font-family="Times,serif" font-size="14.00">5</text>
</g>
<!-- negotiation&#45;&gt;black_market -->
<g id="edge2" class="edge">
<title>negotiation&#45;&gt;black_market</title>
<path fill="none" stroke="black" d="M255.17,-278.58C276.46,-275.82 302.07,-272.51 326.76,-269.32"/>
<polygon fill="black" stroke="black" points="327.43,-272.76 336.9,-268.01 326.54,-265.82 327.43,-272.76"/>
<text text-anchor="middle" x="314" y="-274.8" font-family="Times,serif" font-size="14.00">3</text>
</g>
<!-- negotiation&#45;&gt;loan_management -->
<g id="edge10" class="edge">
<title>negotiation&#45;&gt;loan_management</title>
<path fill="none" stroke="black" d="M255.17,-293.49C279.74,-297.69 310.08,-302.87 338.11,-307.66"/>
<polygon fill="black" stroke="black" points="337.88,-311.17 348.32,-309.41 339.05,-304.27 337.88,-311.17"/>
<text text-anchor="middle" x="314" y="-306.8" font-family="Times,serif" font-size="14.00">3</text>
</g>
<!-- hauling&#45;&gt;bulk_trading -->
<g id="edge6" class="edge">
<title>hauling&#45;&gt;bulk_trading</title>
<path fill="none" stroke="black" d="M241.25,-77.45C273,-82.29 320.16,-89.48 358.34,-95.3"/>
<polygon fill="black" stroke="black" points="357.93,-98.77 368.34,-96.82 358.99,-91.85 357.93,-98.77"/>
<text text-anchor="middle" x="314" y="-91.8" font-family="Times,serif" font-size="14.00">5</text>
</g>
</g>
</svg>
