<svg xmlns="http://www.w3.org/2000/svg" viewBox="0 0 1200 708" width="1200" height="708" style="background:#123d75" role="img" aria-label="QUALIA blueprint">
<style>
  text { font: 11px 'Courier New', monospace; fill: #eaf2ff; letter-spacing: .12em; }
  .g0 { stroke: #eaf2ff; stroke-opacity: 0.16; stroke-width:.7 }
  .g1 { stroke: #eaf2ff; stroke-opacity: 0.07200000000000001; stroke-width:.5 }
  .hull { fill: #eaf2ff; fill-opacity: .10; stroke: #eaf2ff;
           stroke-width: 2.4; stroke-linejoin: round; }
  .dim line { stroke: #eaf2ff; stroke-width: 1; }
  .dim .arr { fill: #eaf2ff; stroke: none; }
  .cl { stroke: #eaf2ff; stroke-width: .8; stroke-dasharray: 22 5 3 5;
         stroke-opacity: .7 }
  .frame { fill: #123d75; stroke: #eaf2ff; }
  .big { font-size: 16px; font-weight: bold; }
  .tb text { letter-spacing: .05em }
</style>
<rect x="0" y="0" width="1200" height="708" fill="#123d75"/>
<line x1="40" y1="16" x2="40" y2="692" class="g0"/><line x1="64" y1="16" x2="64" y2="692" class="g1"/><line x1="88" y1="16" x2="88" y2="692" class="g1"/><line x1="112" y1="16" x2="112" y2="692" class="g1"/><line x1="136" y1="16" x2="136" y2="692" class="g1"/><line x1="160" y1="16" x2="160" y2="692" class="g0"/><line x1="184" y1="16" x2="184" y2="692" class="g1"/><line x1="208" y1="16" x2="208" y2="692" class="g1"/><line x1="232" y1="16" x2="232" y2="692" class="g1"/><line x1="256" y1="16" x2="256" y2="692" class="g1"/><line x1="280" y1="16" x2="280" y2="692" class="g0"/><line x1="304" y1="16" x2="304" y2="692" class="g1"/><line x1="328" y1="16" x2="328" y2="692" class="g1"/><line x1="352" y1="16" x2="352" y2="692" class="g1"/><line x1="376" y1="16" x2="376" y2="692" class="g1"/><line x1="400" y1="16" x2="400" y2="692" class="g0"/><line x1="424" y1="16" x2="424" y2="692" class="g1"/><line x1="448" y1="16" x2="448" y2="692" class="g1"/><line x1="472" y1="16" x2="472" y2="692" class="g1"/><line x1="496" y1="16" x2="496" y2="692" class="g1"/><line x1="520" y1="16" x2="520" y2="692" class="g0"/><line x1="544" y1="16" x2="544" y2="692" class="g1"/><line x1="568" y1="16" x2="568" y2="692" class="g1"/><line x1="592" y1="16" x2="592" y2="692" class="g1"/><line x1="616" y1="16" x2="616" y2="692" class="g1"/><line x1="640" y1="16" x2="640" y2="692" class="g0"/><line x1="664" y1="16" x2="664" y2="692" class="g1"/><line x1="688" y1="16" x2="688" y2="692" class="g1"/><line x1="712" y1="16" x2="712" y2="692" class="g1"/><line x1="736" y1="16" x2="736" y2="692" class="g1"/><line x1="760" y1="16" x2="760" y2="692" class="g0"/><line x1="784" y1="16" x2="784" y2="692" class="g1"/><line x1="808" y1="16" x2="808" y2="692" class="g1"/><line x1="832" y1="16" x2="832" y2="692" class="g1"/><line x1="856" y1="16" x2="856" y2="692" class="g1"/><line x1="880" y1="16" x2="880" y2="692" class="g0"/><line x1="904" y1="16" x2="904" y2="692" class="g1"/><line x1="928" y1="16" x2="928" y2="692" class="g1"/><line x1="952" y1="16" x2="952" y2="692" class="g1"/><line x1="976" y1="16" x2="976" y2="692" class="g1"/><line x1="1000" y1="16" x2="1000" y2="692" class="g0"/><line x1="1024" y1="16" x2="1024" y2="692" class="g1"/><line x1="1048" y1="16" x2="1048" y2="692" class="g1"/><line x1="1072" y1="16" x2="1072" y2="692" class="g1"/><line x1="1096" y1="16" x2="1096" y2="692" class="g1"/><line x1="1120" y1="16" x2="1120" y2="692" class="g0"/><line x1="1144" y1="16" x2="1144" y2="692" class="g1"/><line x1="1168" y1="16" x2="1168" y2="692" class="g1"/><line x1="16" y1="40" x2="1184" y2="40" class="g0"/><line x1="16" y1="64" x2="1184" y2="64" class="g1"/><line x1="16" y1="88" x2="1184" y2="88" class="g1"/><line x1="16" y1="112" x2="1184" y2="112" class="g1"/><line x1="16" y1="136" x2="1184" y2="136" class="g1"/><line x1="16" y1="160" x2="1184" y2="160" class="g0"/><line x1="16" y1="184" x2="1184" y2="184" class="g1"/><line x1="16" y1="208" x2="1184" y2="208" class="g1"/><line x1="16" y1="232" x2="1184" y2="232" class="g1"/><line x1="16" y1="256" x2="1184" y2="256" class="g1"/><line x1="16" y1="280" x2="1184" y2="280" class="g0"/><line x1="16" y1="304" x2="1184" y2="304" class="g1"/><line x1="16" y1="328" x2="1184" y2="328" class="g1"/><line x1="16" y1="352" x2="1184" y2="352" class="g1"/><line x1="16" y1="376" x2="1184" y2="376" class="g1"/><line x1="16" y1="400" x2="1184" y2="400" class="g0"/><line x1="16" y1="424" x2="1184" y2="424" class="g1"/><line x1="16" y1="448" x2="1184" y2="448" class="g1"/><line x1="16" y1="472" x2="1184" y2="472" class="g1"/><line x1="16" y1="496" x2="1184" y2="496" class="g1"/><line x1="16" y1="520" x2="1184" y2="520" class="g0"/><line x1="16" y1="544" x2="1184" y2="544" class="g1"/><line x1="16" y1="568" x2="1184" y2="568" class="g1"/><line x1="16" y1="592" x2="1184" y2="592" class="g1"/><line x1="16" y1="616" x2="1184" y2="616" class="g1"/><line x1="16" y1="640" x2="1184" y2="640" class="g0"/><line x1="16" y1="664" x2="1184" y2="664" class="g1"/><line x1="16" y1="688" x2="1184" y2="688" class="g1"/>
<rect x="8" y="8" width="1184" height="692" fill="none" stroke="#eaf2ff" stroke-width="5"/>
<rect x="18" y="18" width="1164" height="672" fill="none" stroke="#eaf2ff" stroke-width="1.2"/>
<line x1="74" y1="324" x2="812" y2="324" class="cl"/>
<g transform="translate(96 90.0) scale(0.68039)">
  <path d="M436.3 10.7L428.8 11.8L424.0 12.4L417.8 13.6L404.1 17.0L392.4 20.2L382.1 23.5L379.9 24.5L372.6 25.5L366.8 26.5L359.6 27.5L351.2 29.0L350.6 29.0L342.2 30.3L338.5 30.9L334.1 32.1L326.4 33.0L319.8 34.1L315.2 35.2L307.2 36.4L304.7 36.6L300.7 37.1L296.1 37.5L291.3 38.1L286.2 38.1L276.6 38.6L267.3 38.6L260.7 38.9L255.7 39.3L254.3 39.4L250.6 39.8L246.8 40.2L237.6 41.6L229.9 42.6L220.2 44.2L219.7 44.3L211.5 45.3L203.3 46.6L185.6 49.1L175.1 51.4L168.3 55.0L165.6 57.5L163.1 62.2L163.0 65.3L163.2 67.2L164.2 69.8L166.3 72.7L169.5 76.1L176.9 84.1L178.2 85.0L185.3 90.1L196.1 96.7L202.0 99.2L210.1 101.6L223.7 104.0L229.7 104.8L248.4 108.0L261.9 110.1L271.2 111.9L286.7 115.8L287.9 116.2L294.5 118.1L306.3 121.9L316.1 125.6L319.0 127.0L326.9 131.0L333.1 136.3L335.8 139.1L340.0 145.0L343.4 152.8L344.5 156.6L345.8 166.4L345.8 167.0L345.8 174.4L345.8 178.0L345.1 183.0L344.3 188.8L342.8 193.8L340.2 201.1L337.3 207.6L323.6 209.7L307.9 212.9L300.2 214.3L284.3 218.1L266.2 223.8L259.5 225.8L242.5 230.9L226.7 236.1L211.9 240.6L200.1 244.0L189.8 246.8L166.4 252.6L149.0 256.6L139.0 259.7L122.7 264.9L109.5 267.6L103.2 268.5L87.1 269.8L80.7 270.5L74.1 270.9L61.2 272.4L58.2 272.8L44.8 275.4L36.0 278.4L31.5 280.2L19.4 288.5L13.8 295.3L10.9 300.7L10.0 306.7L10.9 313.8L15.4 319.3L18.3 321.7L20.4 323.4L25.3 325.8L29.3 327.7L40.3 330.1L50.0 330.6L62.3 329.9L65.7 329.8L73.8 329.2L86.4 328.2L100.5 327.2L102.8 327.0L106.0 327.3L112.1 327.9L137.2 329.2L142.6 329.7L147.2 332.2L149.6 335.1L150.3 339.3L149.5 349.0L149.0 351.8L147.1 354.8L143.1 357.3L139.8 358.0L118.8 358.6L105.4 359.5L102.1 360.1L94.7 359.7L85.9 359.0L77.5 358.5L63.4 357.3L50.9 356.7L40.4 357.5L33.1 358.5L23.7 361.7L15.7 367.4L13.4 370.7L11.0 374.1L10.4 379.2L10.6 385.1L13.5 391.4L18.2 397.7L28.3 405.2L34.7 408.2L37.9 409.6L44.3 411.8L52.6 413.6L59.9 414.8L72.7 416.2L83.8 416.9L98.0 418.3L114.3 420.6L129.0 423.8L136.4 425.9L149.4 430.0L167.1 434.8L194.4 442.1L212.6 447.2L227.1 451.5L245.9 457.7L257.6 461.4L260.5 462.2L283.9 469.0L303.4 474.0L321.4 477.7L336.4 480.3L337.2 480.4L340.1 485.9L342.2 491.3L343.3 495.9L344.9 503.9L345.9 512.5L346.0 523.3L343.9 533.6L343.0 536.0L338.1 544.8L332.9 550.7L328.0 554.8L322.7 557.9L319.2 559.7L306.3 565.2L293.1 569.6L283.2 572.5L263.8 576.6L243.6 579.8L231.8 581.8L222.6 583.3L217.7 584.2L205.4 587.1L193.8 592.1L183.0 598.7L175.8 603.0L175.1 603.5L168.3 610.1L165.0 615.6L164.4 619.6L165.3 623.5L166.8 626.6L169.1 629.4L170.5 630.6L178.0 634.7L189.3 637.1L195.8 637.8L203.6 638.5L209.8 638.9L214.2 639.6L228.6 642.0L233.3 642.9L245.3 644.9L247.1 645.2L253.9 646.4L261.5 647.2L264.8 647.4L273.3 648.3L281.1 649.0L289.1 649.5L292.3 649.5L298.5 650.2L299.7 650.2L308.2 651.3L319.3 653.0L323.3 653.5L325.8 654.1L333.9 655.1L337.3 656.0L344.0 657.0L352.3 658.3L357.6 659.2L362.0 659.7L370.7 661.2L377.4 662.3L377.8 662.3L378.1 662.4L386.6 665.5L404.3 670.6L408.5 671.6L423.9 674.7L427.6 675.2L437.5 676.5L449.8 677.2L450.3 677.2L463.0 677.5L473.9 677.1L490.1 675.5L502.5 673.4L515.1 670.4L516.9 669.9L536.6 663.7L547.5 659.4L552.2 657.3L554.0 657.0L557.2 656.3L561.1 655.9L571.6 653.6L575.1 652.9L583.4 651.0L593.6 648.8L595.4 648.3L608.4 645.5L618.3 643.1L630.7 639.1L643.6 633.8L649.2 631.0L655.3 626.6L661.7 619.9L663.5 615.5L662.9 611.0L660.5 607.5L655.1 603.8L654.0 603.2L645.1 598.9L641.8 594.9L639.7 590.7L638.1 589.7L635.5 587.6L630.2 585.9L628.2 584.9L623.7 583.2L621.3 582.5L618.8 581.6L614.6 580.4L613.9 580.0L608.2 578.5L605.7 577.5L601.4 576.2L595.7 573.6L587.1 569.7L577.5 565.2L565.5 562.7L553.1 559.7L547.1 557.8L534.4 552.5L521.6 545.8L513.0 539.3L512.6 539.0L507.5 531.7L504.0 524.8L503.7 523.7L507.2 518.0L516.8 503.9L523.9 496.2L532.5 489.5L543.6 483.1L562.6 472.9L580.4 466.0L583.6 465.3L588.2 465.2L594.9 464.9L595.3 464.8L600.8 466.4L604.7 467.3L607.8 468.0L614.5 469.9L620.1 471.1L630.8 474.0L636.0 475.5L645.2 478.0L652.3 479.5L662.8 482.1L664.2 482.3L668.4 483.5L675.7 484.8L679.2 485.6L685.5 486.9L694.3 488.4L698.9 489.4L712.4 490.0L726.7 489.0L740.7 486.4L751.0 484.0L763.4 484.0L778.0 483.0L794.8 480.8L808.6 477.9L816.7 475.7L826.9 472.7L830.6 471.3L840.4 468.2L850.3 464.5L860.2 460.7L870.7 456.5L877.3 454.2L885.6 451.2L889.6 449.9L894.9 447.9L901.4 445.8L908.0 443.1L911.4 442.0L922.0 438.2L931.6 434.4L937.5 431.7L938.7 431.5L940.7 431.0L946.7 429.3L948.6 429.0L956.2 426.2L956.7 425.9L962.9 423.5L972.0 419.1L975.0 417.4L977.2 415.9L980.3 414.8L982.2 413.5L988.4 409.0L992.3 405.2L997.3 401.3L1006.4 391.8L1009.1 387.4L1009.8 384.7L1010.0 382.1L1009.2 379.0L1006.3 376.1L1002.6 374.4L998.0 374.1L988.8 374.0L985.3 374.1L981.4 373.9L980.5 373.0L979.0 371.4L978.9 371.3L978.9 371.2L981.5 366.4L981.6 360.1L983.9 356.9L986.2 354.2L986.4 344.6L984.1 340.9L983.8 338.1L986.7 333.2L987.6 331.8L987.5 327.9L986.7 325.5L985.6 323.1L984.5 321.0L981.3 317.5L979.6 314.5L982.7 313.6L986.4 313.4L992.6 313.3L1002.3 312.9L1006.0 311.2L1009.3 308.5L1010.0 305.2L1009.8 302.7L1008.9 298.5L1005.9 293.3L999.4 286.2L992.6 280.7L986.1 275.9L979.5 272.3L976.3 270.2L968.3 266.2L965.9 265.0L957.8 261.5L955.2 260.6L949.7 258.9L947.9 258.4L940.7 256.4L939.2 256.2L938.7 256.1L937.3 255.5L929.8 252.4L925.0 250.4L919.9 248.6L910.5 244.7L902.6 242.0L895.8 239.8L888.3 237.1L883.5 235.6L876.5 232.8L873.9 232.0L864.4 228.4L858.9 226.4L850.3 223.1L845.9 221.6L834.1 217.2L825.9 214.7L819.3 212.3L808.1 209.4L794.7 206.6L773.1 203.6L752.5 202.8L749.4 202.9L735.4 199.8L723.7 198.0L706.7 197.4L695.8 198.6L690.6 199.5L677.6 202.1L669.2 203.6L663.7 205.2L658.1 206.2L652.0 208.0L650.8 208.2L642.0 210.6L636.3 212.0L631.9 213.3L622.5 215.6L619.6 216.4L613.6 217.8L605.8 219.9L602.0 220.7L595.2 222.6L594.9 222.6L586.8 221.9L584.6 221.8L573.3 219.0L560.2 213.1L543.5 204.0L533.8 198.3L524.2 191.2L517.0 183.5L510.9 175.0L503.9 164.2L504.8 160.7L510.3 150.8L517.6 143.6L525.9 138.4L535.6 133.7L540.4 132.1L556.4 127.8L559.9 126.8L561.0 126.4L572.2 123.0L574.4 122.4L580.3 120.3L592.5 115.2L598.4 112.8L604.2 110.0L609.8 107.7L611.9 107.0L613.9 106.1L621.2 105.0L623.7 104.1L627.8 102.8L630.0 102.0L635.0 100.1L640.5 96.8L643.2 92.1L645.4 88.5L648.5 86.3L655.6 83.1L659.5 80.4L662.5 76.5L662.8 70.6L659.3 65.2L653.8 60.1L653.2 59.8L646.5 55.5L638.1 51.3L634.3 50.0L620.0 44.9L613.1 43.1L597.2 39.3L588.8 37.4L583.8 36.5L580.2 35.5L571.8 33.7L564.9 32.1L557.6 30.8L549.2 29.2L542.5 28.2L538.8 27.8L526.6 23.5L525.5 23.1L505.2 17.0L495.5 14.2L485.4 12.3L467.1 10.1L450.1 10.0L436.3 10.7ZM426.7 477.9L430.6 476.9L431.9 477.5L439.4 481.3L446.0 486.4L449.7 491.3L451.2 493.6L451.9 498.1L450.6 507.3L450.3 508.5L445.9 507.9L435.2 504.0L430.6 501.2L421.4 493.4L417.8 489.3L412.7 483.2L412.0 482.1L411.5 481.3L426.7 477.9ZM217.5 443.6L217.5 443.6L217.5 443.6L217.5 443.6L217.5 443.6ZM880.4 342.2L880.4 342.2L880.4 342.2L880.4 342.2L880.4 342.2ZM986.6 289.4L986.6 289.4L986.6 289.4L986.6 289.4L986.6 289.4ZM597.1 288.8L597.1 288.8L597.1 288.8L597.1 288.8L597.1 288.8ZM148.2 257.4L148.2 257.4L148.2 257.4L148.2 257.4ZM451.8 188.3L451.8 189.7L451.2 192.8L449.7 196.4L445.4 201.3L441.7 204.7L436.4 207.6L430.5 210.4L423.5 208.7L414.9 206.7L411.0 206.1L411.9 204.9L413.2 203.1L419.1 196.2L423.3 191.9L426.6 189.2L433.0 184.5L440.7 180.8L448.5 179.2L450.1 179.3L450.5 180.8L451.8 188.3ZM465.5 191.3L465.5 191.3L465.5 191.3L465.5 191.3L465.5 191.3Z" fill-rule="evenodd" class="hull" style="stroke-width:3.53"/>
  <g class="deck" stroke="#eaf2ff" opacity="0.62"><style>.in-hull{fill:none;stroke-width:1.47;stroke-dasharray:10.3 5.9}.deck-ln{fill:none;stroke-width:1.32}.deck-rm{fill:none;stroke-width:1.91}.deck-ck{fill:none;stroke-width:1.47;stroke-dasharray:7.3 5.9}.deck-ht line{stroke-width:0.88;stroke-opacity:.45}.deck-lb{font-size:15.4px;letter-spacing:.18em}</style><path d="M473.0 666.5L427.0 664.5L365.0 648.5L307.0 639.5L253.0 635.5L213.0 627.5L189.0 626.5L176.0 622.5L174.5 618.0L178.0 611.5L205.0 597.5L282.0 583.5L305.0 576.5L327.0 565.5L349.5 543.0L353.5 536.0L356.5 518.0L353.5 493.0L348.5 481.0L335.0 468.5L303.0 463.5L263.0 452.5L227.0 440.5L217.0 431.5L212.0 436.5L166.0 422.5L149.0 419.5L128.0 411.5L52.0 402.5L28.0 394.5L20.5 385.0L23.0 371.5L40.0 367.5L50.0 366.5L95.0 370.5L142.0 368.5L158.5 353.0L160.5 344.0L158.5 333.0L143.0 318.5L87.0 316.5L40.0 319.5L29.0 316.5L20.5 312.0L20.5 300.0L31.0 290.5L58.0 282.5L117.0 276.5L153.0 265.5L199.0 255.5L280.0 229.5L312.0 221.5L336.0 218.5L350.5 202.0L355.5 185.0L354.5 154.0L348.5 142.0L331.0 123.5L313.0 112.5L278.0 101.5L202.0 88.5L179.0 75.5L173.5 67.0L175.0 61.5L250.0 49.5L314.0 46.5L333.0 43.5L338.0 40.5L378.0 35.5L417.0 23.5L436.0 20.5L485.0 22.5L543.0 39.5L557.0 40.5L620.0 54.5L648.0 66.5L651.5 73.0L630.0 91.5L608.0 96.5L572.0 112.5L536.0 121.5L524.0 127.5L495.5 156.0L492.5 164.0L498.5 174.0L526.0 203.5L537.0 211.5L574.0 230.5L587.0 232.5L598.0 232.5L669.0 213.5L706.0 207.5L794.0 216.5L837.0 228.5L935.0 265.5L955.0 270.5L979.0 282.5L974.5 289.0L986.0 300.5L994.0 292.5L997.5 298.0L998.0 301.5L980.0 302.5L968.5 314.0L976.5 327.0L972.5 338.0L975.5 344.0L975.5 353.0L970.5 359.0L968.5 372.0L980.0 383.5L998.0 384.5L998.5 387.0L982.0 402.5L951.0 417.5L936.0 420.5L922.0 427.5L892.0 436.5L837.0 458.5L778.0 472.5L746.0 473.5L726.0 478.5L698.0 478.5L645.0 467.5L597.0 453.5L589.0 453.5L563.0 460.5L530.0 479.5L504.5 504.0L492.5 523.0L500.5 538.0L512.0 549.5L535.0 563.5L554.0 570.5L577.0 575.5L602.0 587.5L634.0 597.5L652.5 615.0L649.0 620.5L618.0 632.5L550.0 646.5L511.0 660.5L473.0 666.5Z" class="in-hull"/><path d="M430.5 221.0L444.0 213.5L459.0 197.5L465.0 202.5L476.5 191.0L465.0 179.5L462.0 182.5L461.5 179.0L450.0 167.5L440.0 168.5L427.0 176.5L399.5 204.0L411.0 217.5L430.5 221.0Z" class="in-hull"/><path d="M597.5 299.0L608.5 288.0L597.0 276.5L585.5 288.0L597.5 299.0Z" class="in-hull"/><path d="M880.5 353.0L891.5 342.0L880.0 330.5L868.5 342.0L880.5 353.0Z" class="in-hull"/><path d="M450.5 519.0L461.5 508.0L462.5 493.0L445.0 473.5L430.0 464.5L411.0 469.5L399.5 481.0L430.0 512.5L450.5 519.0Z" class="in-hull"/><rect x="689.3" y="317.8" width="70.3" height="51.2" rx="10.2" class="deck-rm"/><path d="M740.3 329.3 A17.9 17.9 0 0 1 740.3 357.5" class="deck-ln"/><text x="724.4" y="309.0" text-anchor="middle" class="deck-lb">BRIDGE</text><line x1="148.0" y1="269" x2="148.0" y2="322" class="deck-ln"/><path d="M144.0 280.9 A14.6 14.6 0 0 0 144.0 310.1" class="deck-ln"/><path d="M144.0 274.3 A21.2 21.2 0 0 0 144.0 316.7" class="deck-ln"/><line x1="148.0" y1="364" x2="148.0" y2="418" class="deck-ln"/><path d="M144.0 376.1 A14.9 14.9 0 0 0 144.0 405.9" class="deck-ln"/><path d="M144.0 369.4 A21.6 21.6 0 0 0 144.0 412.6" class="deck-ln"/><text x="84.5" y="375.7" text-anchor="middle" class="deck-lb">ENG</text><path d="M318.0 115.5L308.0 110.5L270.0 99.5L223.0 93.5L202.0 88.5L179.0 75.5L173.5 67.0L173.5 63.0L250.0 49.5L295.0 48.5L318.0 45.5L318.0 115.5Z" class="deck-ln"/><path d="M318.0 465.5L283.0 458.5L227.0 440.5L217.0 431.5L212.0 436.5L149.5 419.0L149.5 362.0L158.5 353.0L160.5 344.0L158.5 333.0L149.5 324.0L150.0 266.5L199.0 255.5L245.0 239.5L318.5 221.0L318.0 465.5Z" class="deck-ln"/><path d="M318.0 641.5L253.0 635.5L213.0 627.5L189.0 626.5L176.0 622.5L174.5 618.0L178.0 611.5L205.0 597.5L282.0 583.5L318.0 570.5L318.0 641.5Z" class="deck-ln"/><clipPath id="cargo_qualia"><path d="M318.0 115.5L308.0 110.5L270.0 99.5L223.0 93.5L202.0 88.5L179.0 75.5L173.5 67.0L173.5 63.0L250.0 49.5L295.0 48.5L318.0 45.5L318.0 115.5Z" /><path d="M318.0 465.5L283.0 458.5L227.0 440.5L217.0 431.5L212.0 436.5L149.5 419.0L149.5 362.0L158.5 353.0L160.5 344.0L158.5 333.0L149.5 324.0L150.0 266.5L199.0 255.5L245.0 239.5L318.5 221.0L318.0 465.5Z" /><path d="M318.0 641.5L253.0 635.5L213.0 627.5L189.0 626.5L176.0 622.5L174.5 618.0L178.0 611.5L205.0 597.5L282.0 583.5L318.0 570.5L318.0 641.5Z" /></clipPath><g class="deck-ht" clip-path="url(#cargo_qualia)"><line x1="-538" y1="688" x2="150" y2="0"/><line x1="-522" y1="688" x2="166" y2="0"/><line x1="-506" y1="688" x2="182" y2="0"/><line x1="-490" y1="688" x2="198" y2="0"/><line x1="-474" y1="688" x2="214" y2="0"/><line x1="-458" y1="688" x2="230" y2="0"/><line x1="-442" y1="688" x2="246" y2="0"/><line x1="-426" y1="688" x2="262" y2="0"/><line x1="-410" y1="688" x2="278" y2="0"/><line x1="-394" y1="688" x2="294" y2="0"/><line x1="-378" y1="688" x2="310" y2="0"/><line x1="-362" y1="688" x2="326" y2="0"/><line x1="-346" y1="688" x2="342" y2="0"/><line x1="-330" y1="688" x2="358" y2="0"/><line x1="-314" y1="688" x2="374" y2="0"/><line x1="-298" y1="688" x2="390" y2="0"/><line x1="-282" y1="688" x2="406" y2="0"/><line x1="-266" y1="688" x2="422" y2="0"/><line x1="-250" y1="688" x2="438" y2="0"/><line x1="-234" y1="688" x2="454" y2="0"/><line x1="-218" y1="688" x2="470" y2="0"/><line x1="-202" y1="688" x2="486" y2="0"/><line x1="-186" y1="688" x2="502" y2="0"/><line x1="-170" y1="688" x2="518" y2="0"/><line x1="-154" y1="688" x2="534" y2="0"/><line x1="-138" y1="688" x2="550" y2="0"/><line x1="-122" y1="688" x2="566" y2="0"/><line x1="-106" y1="688" x2="582" y2="0"/><line x1="-90" y1="688" x2="598" y2="0"/><line x1="-74" y1="688" x2="614" y2="0"/><line x1="-58" y1="688" x2="630" y2="0"/><line x1="-42" y1="688" x2="646" y2="0"/><line x1="-26" y1="688" x2="662" y2="0"/><line x1="-10" y1="688" x2="678" y2="0"/><line x1="6" y1="688" x2="694" y2="0"/><line x1="22" y1="688" x2="710" y2="0"/><line x1="38" y1="688" x2="726" y2="0"/><line x1="54" y1="688" x2="742" y2="0"/><line x1="70" y1="688" x2="758" y2="0"/><line x1="86" y1="688" x2="774" y2="0"/><line x1="102" y1="688" x2="790" y2="0"/><line x1="118" y1="688" x2="806" y2="0"/><line x1="134" y1="688" x2="822" y2="0"/><line x1="150" y1="688" x2="838" y2="0"/><line x1="166" y1="688" x2="854" y2="0"/><line x1="182" y1="688" x2="870" y2="0"/><line x1="198" y1="688" x2="886" y2="0"/><line x1="214" y1="688" x2="902" y2="0"/><line x1="230" y1="688" x2="918" y2="0"/><line x1="246" y1="688" x2="934" y2="0"/><line x1="262" y1="688" x2="950" y2="0"/><line x1="278" y1="688" x2="966" y2="0"/><line x1="294" y1="688" x2="982" y2="0"/><line x1="310" y1="688" x2="998" y2="0"/></g><text x="234.5" y="331.1" text-anchor="middle" class="deck-lb">HOLD</text><path d="M319.0 335.4L322.0 335.4L325.0 335.4L328.0 335.4L331.0 335.3L334.0 334.1L337.0 334.0L340.0 334.0L343.0 334.0L346.0 334.0L349.0 334.0L352.0 334.0L355.0 334.0L358.0 334.0L361.0 333.9L364.0 333.9L367.0 333.9L370.0 333.9L373.0 333.9L376.0 333.9L379.0 334.0L382.0 335.3L385.0 335.3L388.0 335.3L391.0 335.3L394.0 335.3L397.0 335.3L400.0 335.3L403.0 335.3L406.0 335.3L409.0 335.3L412.0 335.2L415.0 335.2L418.0 335.2L421.0 335.2L424.0 335.2L427.0 335.2L430.0 335.1L433.0 335.1L436.0 335.1L439.0 335.2L442.0 340.9L445.0 346.5L448.0 352.1L451.0 357.6L454.0 361.1L457.0 361.2L460.0 361.2L463.0 361.2L466.0 361.3L469.0 361.4L472.0 361.4L475.0 361.5L478.0 361.5L481.0 361.5L484.0 361.5L487.0 361.4L490.0 355.7L493.0 350.0L496.0 344.4L499.0 339.0L502.0 335.4L505.0 335.3L508.0 335.3L511.0 335.3L514.0 335.2L517.0 335.2L520.0 335.2L523.0 335.1L526.0 335.1L529.0 335.1L532.0 335.2L535.0 335.2L538.0 335.2L541.0 335.2L544.0 335.2L547.0 335.2L550.0 335.3L553.0 335.3L556.0 335.3L559.0 335.3L562.0 335.3L565.0 337.1L568.0 338.9L571.0 340.9L574.0 342.9L577.0 345.0L580.0 347.0L583.0 348.9L586.0 350.1L589.0 350.1L592.0 350.1L595.0 350.1L598.0 350.1L601.0 350.1L604.0 350.1L607.0 350.1L610.0 350.1L613.0 348.4L616.0 346.5L619.0 344.6L622.0 342.6L625.0 340.5L628.0 338.5L631.0 336.6L634.0 335.4L637.0 335.4L640.0 335.5L643.0 335.5L646.0 335.5L649.0 335.4L652.0 335.4L655.0 335.4L658.0 335.4L661.0 335.3L664.0 335.3L667.0 335.3L670.0 335.2L673.0 335.2L676.0 335.2L679.0 335.2L682.0 335.2L685.0 335.2L688.0 335.2L691.0 335.2L694.0 335.3L697.0 335.3L700.0 335.3L703.0 335.4L706.0 335.4L709.0 335.4L712.0 335.4L715.0 335.4L718.0 335.4L721.0 335.4L724.0 335.4L727.0 335.3L730.0 335.3L733.0 335.3L736.0 335.3L739.0 335.3L742.0 335.3L745.0 335.3L748.0 335.2L751.0 335.2L754.0 335.2L757.0 335.2L760.0 335.2L763.0 335.2L766.0 335.2L769.0 335.2L772.0 335.2L775.0 335.2L778.0 335.2L781.0 335.2L784.0 335.1L787.0 335.1L790.0 335.1L793.0 335.1L796.0 335.1L799.0 335.1L802.0 335.1L805.0 335.1L808.0 335.1L811.0 335.1L814.0 335.1L817.0 335.1L820.0 335.2L823.0 335.2L826.0 335.2L829.0 335.3L832.0 335.3L835.0 335.3L838.0 335.3L841.0 335.3L844.0 335.4L847.0 337.5L850.0 340.7L853.0 344.0L856.0 347.4L859.0 350.8L862.0 354.0L865.0 357.1L868.0 360.0L871.0 360.0L874.0 359.9L877.0 359.9L880.0 359.9L883.0 359.9L886.0 359.9L889.0 359.9L892.0 359.9L895.0 357.8L898.0 354.6L901.0 351.3L904.0 347.9L907.0 344.6L910.0 341.3L913.0 338.2L916.0 335.3L919.0 335.3L922.0 335.3L925.0 335.4L928.0 335.4L931.0 335.4L934.0 335.3L937.0 335.3L940.0 335.3L943.0 335.3L946.0 335.2L949.0 335.0L952.0 334.1L955.0 331.9L958.0 329.1L961.0 326.4L964.0 323.8L967.0 321.1L970.0 318.2" class="deck-ln"/><path d="M319.0 351.4L322.0 351.4L325.0 351.4L328.0 351.4L331.0 351.3L334.0 350.1L337.0 350.0L340.0 350.0L343.0 350.0L346.0 350.0L349.0 350.0L352.0 350.0L355.0 350.0L358.0 350.0L361.0 349.9L364.0 349.9L367.0 349.9L370.0 349.9L373.0 349.9L376.0 349.9L379.0 350.0L382.0 351.3L385.0 351.3L388.0 351.3L391.0 351.3L394.0 351.3L397.0 351.3L400.0 351.3L403.0 351.3L406.0 351.3L409.0 351.3L412.0 351.2L415.0 351.2L418.0 351.2L421.0 351.2L424.0 351.2L427.0 351.2L430.0 351.1L433.0 351.1L436.0 351.1L439.0 351.2L442.0 356.9L445.0 362.5L448.0 368.1L451.0 373.6L454.0 377.1L457.0 377.2L460.0 377.2L463.0 377.2L466.0 377.3L469.0 377.4L472.0 377.4L475.0 377.5L478.0 377.5L481.0 377.5L484.0 377.5L487.0 377.4L490.0 371.7L493.0 366.0L496.0 360.4L499.0 355.0L502.0 351.4L505.0 351.3L508.0 351.3L511.0 351.3L514.0 351.2L517.0 351.2L520.0 351.2L523.0 351.1L526.0 351.1L529.0 351.1L532.0 351.2L535.0 351.2L538.0 351.2L541.0 351.2L544.0 351.2L547.0 351.2L550.0 351.3L553.0 351.3L556.0 351.3L559.0 351.3L562.0 351.3L565.0 353.1L568.0 354.9L571.0 356.9L574.0 358.9L577.0 361.0L580.0 363.0L583.0 364.9L586.0 366.1L589.0 366.1L592.0 366.1L595.0 366.1L598.0 366.1L601.0 366.1L604.0 366.1L607.0 366.1L610.0 366.1L613.0 364.4L616.0 362.5L619.0 360.6L622.0 358.6L625.0 356.5L628.0 354.5L631.0 352.6L634.0 351.4L637.0 351.4L640.0 351.5L643.0 351.5L646.0 351.5L649.0 351.4L652.0 351.4L655.0 351.4L658.0 351.4L661.0 351.3L664.0 351.3L667.0 351.3L670.0 351.2L673.0 351.2L676.0 351.2L679.0 351.2L682.0 351.2L685.0 351.2L688.0 351.2L691.0 351.2L694.0 351.3L697.0 351.3L700.0 351.3L703.0 351.4L706.0 351.4L709.0 351.4L712.0 351.4L715.0 351.4L718.0 351.4L721.0 351.4L724.0 351.4L727.0 351.3L730.0 351.3L733.0 351.3L736.0 351.3L739.0 351.3L742.0 351.3L745.0 351.3L748.0 351.2L751.0 351.2L754.0 351.2L757.0 351.2L760.0 351.2L763.0 351.2L766.0 351.2L769.0 351.2L772.0 351.2L775.0 351.2L778.0 351.2L781.0 351.2L784.0 351.1L787.0 351.1L790.0 351.1L793.0 351.1L796.0 351.1L799.0 351.1L802.0 351.1L805.0 351.1L808.0 351.1L811.0 351.1L814.0 351.1L817.0 351.1L820.0 351.2L823.0 351.2L826.0 351.2L829.0 351.3L832.0 351.3L835.0 351.3L838.0 351.3L841.0 351.3L844.0 351.4L847.0 353.5L850.0 356.7L853.0 360.0L856.0 363.4L859.0 366.8L862.0 370.0L865.0 373.1L868.0 376.0L871.0 376.0L874.0 375.9L877.0 375.9L880.0 375.9L883.0 375.9L886.0 375.9L889.0 375.9L892.0 375.9L895.0 373.8L898.0 370.6L901.0 367.3L904.0 363.9L907.0 360.6L910.0 357.3L913.0 354.2L916.0 351.3L919.0 351.3L922.0 351.3L925.0 351.4L928.0 351.4L931.0 351.4L934.0 351.3L937.0 351.3L940.0 351.3L943.0 351.3L946.0 351.2L949.0 351.0L952.0 350.1L955.0 347.9L958.0 345.1L961.0 342.4L964.0 339.8L967.0 337.1L970.0 334.2" class="deck-ln"/><line x1="371.4" y1="333.9" x2="371.4" y2="37.0" class="deck-ln"/><line x1="400.9" y1="351.3" x2="400.9" y2="480.0" class="deck-ln"/><line x1="461.0" y1="377.2" x2="461.0" y2="491.0" class="deck-ln"/><line x1="488.6" y1="359.5" x2="488.6" y2="24.0" class="deck-ln"/><line x1="532.6" y1="351.2" x2="532.6" y2="478.0" class="deck-ln"/><line x1="587.7" y1="350.1" x2="587.7" y2="290.0" class="deck-ln"/><line x1="634.1" y1="335.4" x2="634.1" y2="224.0" class="deck-ln"/><line x1="672.8" y1="335.2" x2="672.8" y2="214.0" class="deck-ln"/></g>
</g>
<text x="96" y="64">TOP VIEW</text>
<g class="dim">
  <line x1="96" y1="598" x2="790" y2="598"/>
  <line x1="96" y1="592" x2="96" y2="604"/>
  <line x1="790" y1="592" x2="790" y2="604"/>
  <path d="M96 598 l 10 -3.5 v 7 z" class="arr"/>
  <path d="M790 598 l -10 -3.5 v 7 z" class="arr"/>
  <text x="443" y="614" text-anchor="middle">L.O.A. 40 m</text>
</g><g class="dim">
  <line x1="54" y1="90" x2="54" y2="558"/>
  <line x1="48" y1="90" x2="60" y2="90"/>
  <line x1="48" y1="558" x2="60" y2="558"/>
  <path d="M54 90 l -3.5 10 h 7 z" class="arr"/>
  <path d="M54 558 l -3.5 -10 h 7 z" class="arr"/>
  <text x="64" y="316">27 m</text>
</g>
<rect x="830" y="60" width="330" height="300" class="frame" stroke-width="1.2"/><image href="art/qualia.png" x="838" y="68" width="314" height="264" preserveAspectRatio="xMidYMid meet"/><text x="842" y="348">PERSPECTIVE VIEW — REGISTRY ARCHIVE</text>
<g class="tb"><rect x="830" y="376" width="330" height="160" class="frame" stroke-width="1.2"/><line x1="830" y1="398" x2="1160" y2="398" stroke="#eaf2ff" stroke-width="1"/><text x="842" y="392">REGISTRY STATS</text><text x="842" y="414">SHIELDS</text><text x="1148" y="414" text-anchor="end">85</text><text x="842" y="432">ARMOR</text><text x="1148" y="432" text-anchor="end">3</text><text x="842" y="450">HULL</text><text x="1148" y="450" text-anchor="end">60</text><text x="842" y="468">FUEL</text><text x="1148" y="468" text-anchor="end">130</text><text x="842" y="486">CARGO</text><text x="1148" y="486" text-anchor="end">30</text><text x="842" y="504">SPEED</text><text x="1148" y="504" text-anchor="end">3 AU/T</text><text x="842" y="522">SLOTS W/D/U</text><text x="1148" y="522" text-anchor="end">0/2/3</text></g>
<g class="tb">
  <rect x="830" y="592" width="330" height="80" class="frame" stroke-width="1.4"/>
  <line x1="830" y1="620" x2="1160" y2="620" stroke="#eaf2ff" stroke-width="1"/>
  <text x="842" y="612" class="big">QUALIA</text>
  <text x="842" y="638">EXPLORER · TIER 1 · SCALE CLASS 1</text>
  <text x="842" y="656">L.O.A. 40 m · BEAM 27 m · REGISTRY EST.</text>
</g>
<text x="36" y="678">SPACEMOLT NAVAL REGISTRY — QUALIA — WINDOW CONVENTION: 1 PANE = 1 m</text>
</svg>