<svg class="ship-glyph" viewBox="0 0 200 200" xmlns="http://www.w3.org/2000/svg" role="img"><title>Cobble</title><g id="hull" fill="none" stroke="currentColor" stroke-width="1.2" stroke-linejoin="round"><path id="region-bow" class="glyph-region" d="M112.27 16.00 L111.43 17.77 L111.09 19.54 L111.28 21.31 L111.33 23.07 L112.03 24.84 L112.07 26.61 L111.03 28.38 L112.05 30.15 L110.99 31.92 L110.99 33.68 L112.09 35.45 L112.69 37.22 L111.29 38.99 L112.33 40.76 L111.50 42.53 L111.22 44.29 L111.19 46.06 L112.14 47.83 L133.18 49.60 L129.06 51.37 L132.29 53.14 L130.59 54.91 L132.05 56.67 L69.67 56.67 L69.71 54.91 L66.83 53.14 L67.34 51.37 L69.41 49.60 L87.41 47.83 L89.00 46.06 L89.02 44.29 L88.23 42.53 L87.89 40.76 L89.08 38.99 L88.10 37.22 L87.34 35.45 L87.43 33.68 L88.58 31.92 L89.08 30.15 L88.78 28.38 L87.54 26.61 L87.48 24.84 L87.44 23.07 L88.86 21.31 L88.76 19.54 L87.77 17.77 L87.85 16.00Z"/><path id="region-port" class="glyph-region" d="M70.21 58.44 L67.76 60.21 L66.33 61.98 L70.80 63.75 L69.96 65.52 L69.73 67.28 L67.67 69.05 L68.58 70.82 L69.85 72.59 L70.71 74.36 L70.68 76.13 L68.21 77.89 L68.23 79.66 L68.90 81.43 L70.86 83.20 L67.67 84.97 L67.06 86.74 L70.22 88.51 L67.28 90.27 L66.25 92.04 L68.61 93.81 L68.60 95.58 L69.71 97.35 L69.85 99.12 L66.28 100.88 L68.93 102.65 L66.42 104.42 L69.57 106.19 L68.24 107.96 L69.73 109.73 L68.88 111.49 L69.81 113.26 L68.31 115.03 L70.77 116.80 L67.38 118.57 L68.94 120.34 L66.13 122.11 L67.73 123.87 L67.19 125.64 L70.60 127.41 L66.58 129.18 L67.61 130.95 L66.18 132.72 L66.35 134.48 L66.94 136.25 L70.63 138.02 L70.57 139.79 L66.20 141.56 L100.00 141.56 L100.00 58.44Z"/><path id="region-star" class="glyph-region" d="M130.37 58.44 L133.42 60.21 L131.01 61.98 L129.36 63.75 L130.24 65.52 L131.82 67.28 L131.22 69.05 L131.72 70.82 L129.27 72.59 L131.90 74.36 L132.64 76.13 L130.70 77.89 L132.61 79.66 L133.17 81.43 L130.16 83.20 L131.45 84.97 L133.61 86.74 L132.73 88.51 L130.74 90.27 L131.30 92.04 L130.58 93.81 L131.23 95.58 L131.64 97.35 L133.83 99.12 L131.22 100.88 L132.16 102.65 L134.09 104.42 L133.30 106.19 L130.27 107.96 L132.08 109.73 L132.28 111.49 L129.10 113.26 L129.06 115.03 L133.29 116.80 L133.31 118.57 L132.53 120.34 L129.25 122.11 L131.43 123.87 L131.97 125.64 L133.67 127.41 L131.66 129.18 L132.53 130.95 L131.95 132.72 L133.55 134.48 L133.55 136.25 L132.97 138.02 L133.42 139.79 L132.67 141.56 L100.00 141.56 L100.00 58.44Z"/><path id="region-stern" class="glyph-region" d="M129.51 143.33 L132.38 145.09 L132.06 146.86 L125.89 148.63 L125.66 150.40 L125.07 152.17 L124.96 153.94 L122.98 155.71 L122.31 157.47 L121.86 159.24 L122.53 161.01 L120.27 162.78 L121.01 164.55 L118.69 166.32 L118.04 168.08 L120.08 169.85 L118.27 171.62 L118.88 173.39 L118.31 175.16 L116.44 176.93 L116.81 178.69 L115.40 180.46 L114.80 182.23 L114.25 184.00 L84.70 184.00 L84.84 182.23 L84.47 180.46 L83.19 178.69 L84.21 176.93 L81.60 175.16 L82.67 173.39 L82.63 171.62 L81.20 169.85 L80.04 168.08 L81.40 166.32 L80.62 164.55 L80.02 162.78 L79.36 161.01 L75.94 159.24 L75.92 157.47 L74.97 155.71 L75.03 153.94 L74.74 152.17 L74.94 150.40 L74.25 148.63 L70.48 146.86 L69.12 145.09 L66.87 143.33Z"/><path id="region-core" class="glyph-region" d="M114.21 58.44 L114.21 60.21 L114.21 61.98 L114.21 63.75 L114.21 65.52 L114.21 67.28 L114.21 69.05 L114.21 70.82 L114.21 72.59 L114.21 74.36 L114.21 76.13 L114.21 77.89 L114.21 79.66 L114.21 81.43 L114.21 83.20 L114.21 84.97 L114.21 86.74 L114.21 88.51 L114.21 90.27 L114.21 92.04 L114.21 93.81 L114.21 95.58 L114.21 97.35 L114.21 99.12 L114.21 100.88 L114.21 102.65 L114.21 104.42 L114.21 106.19 L114.21 107.96 L114.21 109.73 L114.21 111.49 L114.21 113.26 L114.21 115.03 L114.21 116.80 L114.21 118.57 L114.21 120.34 L114.21 122.11 L114.21 123.87 L114.21 125.64 L114.21 127.41 L114.21 129.18 L114.21 130.95 L114.21 132.72 L114.21 134.48 L114.21 136.25 L114.21 138.02 L114.21 139.79 L114.21 141.56 L85.79 141.56 L85.79 139.79 L85.79 138.02 L85.79 136.25 L85.79 134.48 L85.79 132.72 L85.79 130.95 L85.79 129.18 L85.79 127.41 L85.79 125.64 L85.79 123.87 L85.79 122.11 L85.79 120.34 L85.79 118.57 L85.79 116.80 L85.79 115.03 L85.79 113.26 L85.79 111.49 L85.79 109.73 L85.79 107.96 L85.79 106.19 L85.79 104.42 L85.79 102.65 L85.79 100.88 L85.79 99.12 L85.79 97.35 L85.79 95.58 L85.79 93.81 L85.79 92.04 L85.79 90.27 L85.79 88.51 L85.79 86.74 L85.79 84.97 L85.79 83.20 L85.79 81.43 L85.79 79.66 L85.79 77.89 L85.79 76.13 L85.79 74.36 L85.79 72.59 L85.79 70.82 L85.79 69.05 L85.79 67.28 L85.79 65.52 L85.79 63.75 L85.79 61.98 L85.79 60.21 L85.79 58.44Z"/><path id="region-outline" class="glyph-outline" stroke-width="1.8" d="M112.27 16.00 L111.43 17.77 L111.09 19.54 L111.28 21.31 L111.33 23.07 L112.03 24.84 L112.07 26.61 L111.03 28.38 L112.05 30.15 L110.99 31.92 L110.99 33.68 L112.09 35.45 L112.69 37.22 L111.29 38.99 L112.33 40.76 L111.50 42.53 L111.22 44.29 L111.19 46.06 L112.14 47.83 L133.18 49.60 L129.06 51.37 L132.29 53.14 L130.59 54.91 L132.05 56.67 L130.37 58.44 L133.42 60.21 L131.01 61.98 L129.36 63.75 L130.24 65.52 L131.82 67.28 L131.22 69.05 L131.72 70.82 L129.27 72.59 L131.90 74.36 L132.64 76.13 L130.70 77.89 L132.61 79.66 L133.17 81.43 L130.16 83.20 L131.45 84.97 L133.61 86.74 L132.73 88.51 L130.74 90.27 L131.30 92.04 L130.58 93.81 L131.23 95.58 L131.64 97.35 L133.83 99.12 L131.22 100.88 L132.16 102.65 L134.09 104.42 L133.30 106.19 L130.27 107.96 L132.08 109.73 L132.28 111.49 L129.10 113.26 L129.06 115.03 L133.29 116.80 L133.31 118.57 L132.53 120.34 L129.25 122.11 L131.43 123.87 L131.97 125.64 L133.67 127.41 L131.66 129.18 L132.53 130.95 L131.95 132.72 L133.55 134.48 L133.55 136.25 L132.97 138.02 L133.42 139.79 L132.67 141.56 L129.51 143.33 L132.38 145.09 L132.06 146.86 L125.89 148.63 L125.66 150.40 L125.07 152.17 L124.96 153.94 L122.98 155.71 L122.31 157.47 L121.86 159.24 L122.53 161.01 L120.27 162.78 L121.01 164.55 L118.69 166.32 L118.04 168.08 L120.08 169.85 L118.27 171.62 L118.88 173.39 L118.31 175.16 L116.44 176.93 L116.81 178.69 L115.40 180.46 L114.80 182.23 L114.25 184.00 L84.70 184.00 L84.84 182.23 L84.47 180.46 L83.19 178.69 L84.21 176.93 L81.60 175.16 L82.67 173.39 L82.63 171.62 L81.20 169.85 L80.04 168.08 L81.40 166.32 L80.62 164.55 L80.02 162.78 L79.36 161.01 L75.94 159.24 L75.92 157.47 L74.97 155.71 L75.03 153.94 L74.74 152.17 L74.94 150.40 L74.25 148.63 L70.48 146.86 L69.12 145.09 L66.87 143.33 L66.20 141.56 L70.57 139.79 L70.63 138.02 L66.94 136.25 L66.35 134.48 L66.18 132.72 L67.61 130.95 L66.58 129.18 L70.60 127.41 L67.19 125.64 L67.73 123.87 L66.13 122.11 L68.94 120.34 L67.38 118.57 L70.77 116.80 L68.31 115.03 L69.81 113.26 L68.88 111.49 L69.73 109.73 L68.24 107.96 L69.57 106.19 L66.42 104.42 L68.93 102.65 L66.28 100.88 L69.85 99.12 L69.71 97.35 L68.60 95.58 L68.61 93.81 L66.25 92.04 L67.28 90.27 L70.22 88.51 L67.06 86.74 L67.67 84.97 L70.86 83.20 L68.90 81.43 L68.23 79.66 L68.21 77.89 L70.68 76.13 L70.71 74.36 L69.85 72.59 L68.58 70.82 L67.67 69.05 L69.73 67.28 L69.96 65.52 L70.80 63.75 L66.33 61.98 L67.76 60.21 L70.21 58.44 L69.67 56.67 L69.71 54.91 L66.83 53.14 L67.34 51.37 L69.41 49.60 L87.41 47.83 L89.00 46.06 L89.02 44.29 L88.23 42.53 L87.89 40.76 L89.08 38.99 L88.10 37.22 L87.34 35.45 L87.43 33.68 L88.58 31.92 L89.08 30.15 L88.78 28.38 L87.54 26.61 L87.48 24.84 L87.44 23.07 L88.86 21.31 L88.76 19.54 L87.77 17.77 L87.85 16.00Z"/></g><g id="appendages" fill="none" stroke="currentColor" stroke-width="1.2" stroke-linejoin="round"><path id="ap-tow_arm-1s" class="glyph-appendage glyph-ap-tow_arm" d="M110.66 37.84 L110.66 47.92 L138.15 46.24 L138.15 39.52Z"/><path id="ap-tow_arm-1p" class="glyph-appendage glyph-ap-tow_arm" d="M89.34 37.84 L89.34 47.92 L61.85 46.24 L61.85 39.52Z"/></g><g id="hardpoints" fill="none" stroke="currentColor" stroke-width="1"><circle id="hp-w1" class="glyph-hp glyph-hp-weapon" cx="100.00" cy="54.64" r="3.60"/><circle id="hp-d1" class="glyph-hp glyph-hp-defense" cx="100.00" cy="101.68" r="3.60"/><circle id="hp-u1" class="glyph-hp glyph-hp-utility" cx="117.37" cy="100.00" r="3.60"/><circle id="hp-u2" class="glyph-hp glyph-hp-utility" cx="90.26" cy="173.92" r="3.60"/></g></svg>