<svg class="ship-glyph" viewBox="0 0 200 200" xmlns="http://www.w3.org/2000/svg" role="img"><title>Empirica</title><g id="hull" fill="none" stroke="currentColor" stroke-width="1.2" stroke-linejoin="round"><path id="region-bow" class="glyph-region" d="M100.00 16.00 L100.00 17.77 L100.00 19.54 L100.00 21.31 L100.00 23.07 L103.98 24.84 L108.82 26.61 L111.72 28.38 L113.94 30.15 L115.79 31.92 L117.37 33.68 L118.76 35.45 L119.99 37.22 L121.10 38.99 L122.09 40.76 L123.00 42.53 L123.82 44.29 L124.56 46.06 L125.24 47.83 L125.85 49.60 L126.41 51.37 L126.90 53.14 L127.35 54.91 L127.75 56.67 L72.25 56.67 L72.65 54.91 L73.10 53.14 L73.59 51.37 L74.15 49.60 L74.76 47.83 L75.44 46.06 L76.18 44.29 L77.00 42.53 L77.91 40.76 L78.90 38.99 L80.01 37.22 L81.24 35.45 L82.63 33.68 L84.21 31.92 L86.06 30.15 L88.28 28.38 L91.18 26.61 L96.02 24.84 L100.00 23.07 L100.00 21.31 L100.00 19.54 L100.00 17.77 L100.00 16.00Z"/><path id="region-port" class="glyph-region" d="M71.90 58.44 L71.60 60.21 L71.33 61.98 L71.12 63.75 L70.94 65.52 L70.81 67.28 L70.71 69.05 L70.66 70.82 L70.65 72.59 L70.68 74.36 L70.74 76.13 L70.85 77.89 L71.00 79.66 L71.19 81.43 L71.42 83.20 L71.70 84.97 L72.02 86.74 L72.38 88.51 L72.80 90.27 L73.26 92.04 L73.78 93.81 L74.36 95.58 L74.99 97.35 L75.69 99.12 L76.46 100.88 L77.31 102.65 L78.24 104.42 L79.28 106.19 L80.42 107.96 L81.71 109.73 L83.16 111.49 L84.82 113.26 L86.78 115.03 L89.20 116.80 L92.49 118.57 L86.32 120.34 L86.48 122.11 L86.64 123.87 L86.81 125.64 L86.97 127.41 L87.13 129.18 L87.29 130.95 L87.46 132.72 L87.62 134.48 L87.78 136.25 L87.94 138.02 L88.11 139.79 L88.27 141.56 L100.00 141.56 L100.00 58.44Z"/><path id="region-star" class="glyph-region" d="M128.10 58.44 L128.40 60.21 L128.67 61.98 L128.88 63.75 L129.06 65.52 L129.19 67.28 L129.29 69.05 L129.34 70.82 L129.35 72.59 L129.32 74.36 L129.26 76.13 L129.15 77.89 L129.00 79.66 L128.81 81.43 L128.58 83.20 L128.30 84.97 L127.98 86.74 L127.62 88.51 L127.20 90.27 L126.74 92.04 L126.22 93.81 L125.64 95.58 L125.01 97.35 L124.31 99.12 L123.54 100.88 L122.69 102.65 L121.76 104.42 L120.72 106.19 L119.58 107.96 L118.29 109.73 L116.84 111.49 L115.18 113.26 L113.22 115.03 L110.80 116.80 L107.51 118.57 L113.68 120.34 L113.52 122.11 L113.36 123.87 L113.19 125.64 L113.03 127.41 L112.87 129.18 L112.71 130.95 L112.54 132.72 L112.38 134.48 L112.22 136.25 L112.06 138.02 L111.89 139.79 L111.73 141.56 L100.00 141.56 L100.00 58.44Z"/><path id="region-stern" class="glyph-region" d="M111.57 143.33 L111.40 145.09 L111.24 146.86 L111.08 148.63 L110.92 150.40 L110.75 152.17 L110.59 153.94 L110.43 155.71 L110.27 157.47 L110.10 159.24 L109.94 161.01 L109.78 162.78 L109.62 164.55 L109.45 166.32 L109.29 168.08 L109.13 169.85 L108.97 171.62 L108.80 173.39 L108.64 175.16 L108.48 176.93 L108.32 178.69 L108.15 180.46 L107.99 182.23 L107.83 184.00 L92.17 184.00 L92.01 182.23 L91.85 180.46 L91.68 178.69 L91.52 176.93 L91.36 175.16 L91.20 173.39 L91.03 171.62 L90.87 169.85 L90.71 168.08 L90.55 166.32 L90.38 164.55 L90.22 162.78 L90.06 161.01 L89.90 159.24 L89.73 157.47 L89.57 155.71 L89.41 153.94 L89.25 152.17 L89.08 150.40 L88.92 148.63 L88.76 146.86 L88.60 145.09 L88.43 143.33Z"/><path id="region-core" class="glyph-region" d="M112.64 58.44 L112.78 60.21 L112.90 61.98 L113.00 63.75 L113.08 65.52 L113.14 67.28 L113.18 69.05 L113.20 70.82 L113.21 72.59 L113.20 74.36 L113.17 76.13 L113.12 77.89 L113.05 79.66 L112.97 81.43 L112.86 83.20 L112.74 84.97 L112.59 86.74 L112.43 88.51 L112.24 90.27 L112.03 92.04 L111.80 93.81 L111.54 95.58 L111.25 97.35 L110.94 99.12 L110.59 100.88 L110.21 102.65 L109.79 104.42 L109.33 106.19 L108.81 107.96 L108.23 109.73 L107.58 111.49 L106.83 113.26 L105.95 115.03 L104.86 116.80 L103.38 118.57 L106.16 120.34 L106.08 122.11 L106.01 123.87 L105.94 125.64 L105.86 127.41 L105.79 129.18 L105.72 130.95 L105.64 132.72 L105.57 134.48 L105.50 136.25 L105.42 138.02 L105.35 139.79 L105.28 141.56 L94.72 141.56 L94.65 139.79 L94.58 138.02 L94.50 136.25 L94.43 134.48 L94.36 132.72 L94.28 130.95 L94.21 129.18 L94.14 127.41 L94.06 125.64 L93.99 123.87 L93.92 122.11 L93.84 120.34 L96.62 118.57 L95.14 116.80 L94.05 115.03 L93.17 113.26 L92.42 111.49 L91.77 109.73 L91.19 107.96 L90.67 106.19 L90.21 104.42 L89.79 102.65 L89.41 100.88 L89.06 99.12 L88.75 97.35 L88.46 95.58 L88.20 93.81 L87.97 92.04 L87.76 90.27 L87.57 88.51 L87.41 86.74 L87.26 84.97 L87.14 83.20 L87.03 81.43 L86.95 79.66 L86.88 77.89 L86.83 76.13 L86.80 74.36 L86.79 72.59 L86.80 70.82 L86.82 69.05 L86.86 67.28 L86.92 65.52 L87.00 63.75 L87.10 61.98 L87.22 60.21 L87.36 58.44Z"/><path id="region-outline" class="glyph-outline" stroke-width="1.8" d="M100.00 16.00 L100.00 16.25 L100.00 17.52 L100.00 18.02 L100.00 19.29 L100.00 19.78 L100.00 21.06 L100.00 21.55 L100.00 22.83 L100.56 23.32 L103.42 24.59 L104.66 25.09 L108.14 26.36 L109.22 26.86 L111.31 28.13 L112.03 28.63 L113.63 29.90 L114.20 30.39 L115.53 31.67 L116.01 32.16 L117.15 33.44 L117.56 33.93 L118.56 35.21 L118.93 35.70 L119.82 36.97 L120.15 37.47 L120.94 38.74 L121.24 39.24 L121.95 40.51 L122.22 41.01 L122.87 42.28 L123.11 42.77 L123.70 44.05 L123.92 44.54 L124.46 45.82 L124.66 46.31 L125.14 47.58 L125.32 48.08 L125.76 49.35 L125.93 49.85 L126.33 51.12 L126.47 51.62 L126.83 52.89 L126.97 53.38 L127.29 54.66 L127.41 55.15 L127.69 56.43 L127.80 56.92 L128.05 58.19 L128.14 58.69 L128.36 59.96 L128.44 60.46 L128.63 61.73 L128.70 62.23 L128.85 63.50 L128.91 63.99 L129.03 65.27 L129.08 65.76 L129.17 67.04 L129.21 67.53 L129.27 68.81 L129.29 69.30 L129.33 70.57 L129.34 71.07 L129.35 72.34 L129.35 72.84 L129.33 74.11 L129.32 74.61 L129.27 75.88 L129.24 76.37 L129.17 77.65 L129.13 78.14 L129.02 79.42 L128.97 79.91 L128.84 81.18 L128.78 81.68 L128.61 82.95 L128.54 83.45 L128.34 84.72 L128.26 85.22 L128.03 86.49 L127.93 86.98 L127.67 88.26 L127.56 88.75 L127.26 90.03 L127.14 90.52 L126.80 91.79 L126.66 92.29 L126.29 93.56 L126.14 94.06 L125.72 95.33 L125.55 95.83 L125.10 97.10 L124.91 97.59 L124.41 98.87 L124.20 99.36 L123.65 100.64 L123.42 101.13 L122.81 102.41 L122.56 102.90 L121.89 104.17 L121.61 104.67 L120.87 105.94 L120.56 106.44 L119.74 107.71 L119.40 108.21 L118.47 109.48 L118.09 109.97 L117.04 111.25 L116.61 111.74 L115.41 113.02 L114.90 113.51 L113.49 114.78 L112.88 115.28 L111.14 116.55 L110.34 117.05 L107.97 118.32 L108.37 118.82 L112.82 120.09 L113.66 120.58 L113.54 121.86 L113.50 122.35 L113.38 123.63 L113.33 124.12 L113.22 125.39 L113.17 125.89 L113.05 127.16 L113.01 127.66 L112.89 128.93 L112.85 129.43 L112.73 130.70 L112.68 131.19 L112.57 132.47 L112.52 132.96 L112.40 134.24 L112.36 134.73 L112.24 136.01 L112.20 136.50 L112.08 137.77 L112.03 138.27 L111.92 139.54 L111.87 140.04 L111.75 141.31 L111.71 141.81 L111.59 143.08 L111.54 143.57 L111.43 144.85 L111.38 145.34 L111.27 146.62 L111.22 147.11 L111.10 148.38 L111.06 148.88 L110.94 150.15 L110.89 150.65 L110.78 151.92 L110.73 152.42 L110.61 153.69 L110.57 154.18 L110.45 155.46 L110.41 155.95 L110.29 157.23 L110.24 157.72 L110.13 158.99 L110.08 159.49 L109.96 160.76 L109.92 161.26 L109.80 162.53 L109.76 163.03 L109.64 164.30 L109.59 164.79 L109.48 166.07 L109.43 166.56 L109.31 167.84 L109.27 168.33 L109.15 169.61 L109.11 170.10 L108.99 171.37 L108.94 171.87 L108.83 173.14 L108.78 173.64 L108.66 174.91 L108.62 175.41 L108.50 176.68 L108.46 177.17 L108.34 178.45 L108.29 178.94 L108.18 180.22 L108.13 180.71 L108.01 181.98 L107.97 182.48 L107.85 183.75 L105.64 184.00 L94.36 184.00 L92.15 183.75 L92.03 182.48 L91.99 181.98 L91.87 180.71 L91.82 180.22 L91.71 178.94 L91.66 178.45 L91.54 177.17 L91.50 176.68 L91.38 175.41 L91.34 174.91 L91.22 173.64 L91.17 173.14 L91.06 171.87 L91.01 171.37 L90.89 170.10 L90.85 169.61 L90.73 168.33 L90.69 167.84 L90.57 166.56 L90.52 166.07 L90.41 164.79 L90.36 164.30 L90.24 163.03 L90.20 162.53 L90.08 161.26 L90.04 160.76 L89.92 159.49 L89.87 158.99 L89.76 157.72 L89.71 157.23 L89.59 155.95 L89.55 155.46 L89.43 154.18 L89.39 153.69 L89.27 152.42 L89.22 151.92 L89.11 150.65 L89.06 150.15 L88.94 148.88 L88.90 148.38 L88.78 147.11 L88.73 146.62 L88.62 145.34 L88.57 144.85 L88.46 143.57 L88.41 143.08 L88.29 141.81 L88.25 141.31 L88.13 140.04 L88.08 139.54 L87.97 138.27 L87.92 137.77 L87.80 136.50 L87.76 136.01 L87.64 134.73 L87.60 134.24 L87.48 132.96 L87.43 132.47 L87.32 131.19 L87.27 130.70 L87.15 129.43 L87.11 128.93 L86.99 127.66 L86.95 127.16 L86.83 125.89 L86.78 125.39 L86.67 124.12 L86.62 123.63 L86.50 122.35 L86.46 121.86 L86.34 120.58 L87.18 120.09 L91.63 118.82 L92.03 118.32 L89.66 117.05 L88.86 116.55 L87.12 115.28 L86.51 114.78 L85.10 113.51 L84.59 113.02 L83.39 111.74 L82.96 111.25 L81.91 109.97 L81.53 109.48 L80.60 108.21 L80.26 107.71 L79.44 106.44 L79.13 105.94 L78.39 104.67 L78.11 104.17 L77.44 102.90 L77.19 102.41 L76.58 101.13 L76.35 100.64 L75.80 99.36 L75.59 98.87 L75.09 97.59 L74.90 97.10 L74.45 95.83 L74.28 95.33 L73.86 94.06 L73.71 93.56 L73.34 92.29 L73.20 91.79 L72.86 90.52 L72.74 90.03 L72.44 88.75 L72.33 88.26 L72.07 86.98 L71.97 86.49 L71.74 85.22 L71.66 84.72 L71.46 83.45 L71.39 82.95 L71.22 81.68 L71.16 81.18 L71.03 79.91 L70.98 79.42 L70.87 78.14 L70.83 77.65 L70.76 76.37 L70.73 75.88 L70.68 74.61 L70.67 74.11 L70.65 72.84 L70.65 72.34 L70.66 71.07 L70.67 70.57 L70.71 69.30 L70.73 68.81 L70.79 67.53 L70.83 67.04 L70.92 65.76 L70.97 65.27 L71.09 63.99 L71.15 63.50 L71.30 62.23 L71.37 61.73 L71.56 60.46 L71.64 59.96 L71.86 58.69 L71.95 58.19 L72.20 56.92 L72.31 56.43 L72.59 55.15 L72.71 54.66 L73.03 53.38 L73.17 52.89 L73.53 51.62 L73.67 51.12 L74.07 49.85 L74.24 49.35 L74.68 48.08 L74.86 47.58 L75.34 46.31 L75.54 45.82 L76.08 44.54 L76.30 44.05 L76.89 42.77 L77.13 42.28 L77.78 41.01 L78.05 40.51 L78.76 39.24 L79.06 38.74 L79.85 37.47 L80.18 36.97 L81.07 35.70 L81.44 35.21 L82.44 33.93 L82.85 33.44 L83.99 32.16 L84.47 31.67 L85.80 30.39 L86.37 29.90 L87.97 28.63 L88.69 28.13 L90.78 26.86 L91.86 26.36 L95.34 25.09 L96.58 24.59 L99.44 23.32 L100.00 22.83 L100.00 21.55 L100.00 21.06 L100.00 19.78 L100.00 19.29 L100.00 18.02 L100.00 17.52 L100.00 16.25 L100.00 16.00Z"/></g><g id="appendages" fill="none" stroke="currentColor" stroke-width="1.2" stroke-linejoin="round"><path id="ap-antenna_mast-1s" class="glyph-appendage glyph-ap-antenna_mast" d="M126.22 63.04 L126.22 69.76 L150.66 67.24 L150.66 65.56Z"/><path id="ap-antenna_mast-1p" class="glyph-appendage glyph-ap-antenna_mast" d="M73.78 63.04 L73.78 69.76 L49.34 67.24 L49.34 65.56Z"/></g><g id="hardpoints" fill="none" stroke="currentColor" stroke-width="1"><rect id="hp-d1" class="glyph-hp glyph-hp-defense" x="110.50" y="93.24" width="6.80" height="6.80"/><rect id="hp-d2" class="glyph-hp glyph-hp-defense" x="82.70" y="93.24" width="6.80" height="6.80"/><path id="hp-u1" class="glyph-hp glyph-hp-utility" d="M107.36 119.92 L110.96 123.52 L107.36 127.12 L103.76 123.52 Z"/><path id="hp-u2" class="glyph-hp glyph-hp-utility" d="M92.64 119.92 L96.24 123.52 L92.64 127.12 L89.04 123.52 Z"/><path id="hp-u3" class="glyph-hp glyph-hp-utility" d="M106.43 138.40 L110.03 142.00 L106.43 145.60 L102.83 142.00 Z"/><path id="hp-u4" class="glyph-hp glyph-hp-utility" d="M93.57 138.40 L97.17 142.00 L93.57 145.60 L89.97 142.00 Z"/><path id="hp-u5" class="glyph-hp glyph-hp-utility" d="M100.00 156.88 L103.60 160.48 L100.00 164.08 L96.40 160.48 Z"/></g></svg>