<svg xmlns="http://www.w3.org/2000/svg" viewBox="0 0 999.4 509.1"
  data-ship="observatorium" data-art-stem="solarian_observatorium" data-view="side">
<title>observatorium side</title>
<path d="M0.0 192.4L0.5 256.8L21.5 262.5L40.1 264.4L42.7 268.5L37.7 275.2L29.1 275.9L16.6 281.2L4.1 281.0L0.4 282.9L0.6 338.4L15.0 341.1L46.3 339.4L69.0 340.8L86.3 345.8L93.7 352.1L96.6 389.1L106.5 395.1L116.8 404.7L134.1 412.1L136.6 414.9L134.9 420.1L136.3 424.0L143.6 421.9L149.2 426.1L156.2 423.6L160.0 425.5L163.8 423.2L168.2 412.2L180.6 410.9L187.2 414.9L192.0 421.1L200.2 448.6L203.4 451.2L225.4 452.8L227.7 458.0L226.4 467.3L228.6 476.5L228.1 488.7L230.8 493.2L236.6 495.1L241.2 493.0L243.9 477.2L247.7 469.4L246.7 457.0L250.7 454.8L269.6 454.6L273.7 457.2L277.3 463.9L268.9 473.3L267.4 477.6L268.8 484.3L275.6 499.7L280.9 505.6L287.8 509.1L295.6 508.6L298.6 506.4L302.1 498.9L303.4 491.9L291.1 463.1L301.0 449.9L311.7 451.4L325.0 457.7L332.3 476.8L336.8 480.0L345.6 480.0L355.0 477.1L357.9 473.4L361.4 458.3L369.7 454.9L377.5 448.5L390.1 448.1L392.8 451.8L390.9 461.0L395.3 464.2L403.2 461.5L409.7 455.8L418.7 452.8L421.2 448.3L442.9 437.0L455.4 434.4L462.1 441.3L470.3 443.7L490.7 442.3L494.8 438.9L495.2 433.7L492.4 423.2L497.2 420.0L516.8 419.8L527.7 417.7L534.6 422.5L537.6 422.1L540.7 416.9L544.4 415.0L584.5 415.4L621.8 413.2L637.1 414.9L660.9 426.5L701.1 430.0L725.2 428.4L796.5 431.9L850.3 428.6L890.0 431.4L911.2 428.8L972.5 427.9L980.1 422.6L984.6 411.7L999.1 321.0L999.1 280.7L998.8 278.0L994.9 276.2L976.2 276.5L974.3 254.1L975.8 252.7L995.8 253.0L999.1 249.5L999.4 229.5L998.6 218.7L976.5 112.5L970.9 103.3L965.1 100.1L903.5 99.9L899.4 97.8L890.3 99.8L851.4 100.0L790.4 97.6L723.9 100.0L714.6 98.0L699.6 98.2L660.7 101.9L648.1 109.8L629.4 116.3L611.0 117.4L567.2 115.7L558.1 107.2L564.7 100.9L570.8 98.2L572.5 94.6L569.9 91.3L549.2 89.3L533.3 94.3L531.2 98.0L532.2 104.2L527.7 108.1L496.9 108.2L487.7 106.3L480.6 108.4L474.1 105.1L473.4 92.8L469.8 85.3L475.0 70.0L474.1 50.5L468.5 40.2L461.9 38.4L452.4 44.3L447.1 55.5L447.1 63.7L449.4 69.4L455.8 73.7L459.3 85.8L457.0 94.0L457.9 104.3L456.0 107.7L451.9 109.9L428.7 114.7L424.1 119.6L420.9 120.0L401.8 100.9L384.0 94.8L380.0 78.5L368.2 68.7L354.9 63.8L357.0 47.0L348.7 33.7L339.7 31.7L332.8 33.6L328.4 37.8L324.2 46.9L325.2 63.1L311.9 70.7L300.7 82.8L296.3 81.9L292.5 68.9L286.5 67.1L275.2 68.6L269.1 66.3L266.3 58.7L270.4 49.9L278.7 56.8L291.6 63.6L298.0 60.1L300.9 53.7L300.9 45.6L297.2 34.3L288.4 18.5L278.9 9.5L261.4 9.2L257.4 12.5L258.9 22.2L253.0 21.5L250.6 25.0L252.1 28.5L249.0 48.1L251.0 55.8L249.8 62.8L246.8 66.5L240.4 71.9L222.0 72.0L219.5 69.0L217.8 55.6L220.6 27.0L219.4 24.4L213.4 20.8L210.2 2.4L202.9 0.0L198.9 2.2L198.1 6.5L199.8 39.9L202.6 47.3L203.0 55.9L200.6 64.1L200.8 75.9L194.1 94.4L180.4 102.4L175.2 114.3L167.9 113.3L167.1 107.3L161.8 103.2L151.8 102.9L147.8 106.7L134.8 108.6L130.4 105.1L124.0 104.8L121.7 108.2L120.8 116.4L114.0 124.9L102.0 131.9L95.6 142.2L92.3 170.0L88.8 173.2L64.9 184.3L21.3 185.7L3.4 188.9L0.0 192.4ZM405.5 436.4L403.8 432.0L413.5 423.5L426.8 419.1L431.2 423.3L423.2 436.0L418.2 437.8L405.5 436.4Z" fill-rule="evenodd" fill="#d5d8dd"/>
</svg>
